G04 DipTrace 3.3.1.3*
G04 Bottom.gbr*
%MOIN*%
G04 #@! TF.FileFunction,Copper,L2,Bot*
G04 #@! TF.Part,Single*
G04 #@! TA.AperFunction,Conductor*
%ADD14C,0.012992*%
%ADD15C,0.035433*%
%ADD16C,0.027559*%
G04 #@! TA.AperFunction,ComponentPad*
%ADD22C,0.05*%
%ADD23C,0.05*%
%ADD24R,0.062992X0.062992*%
%ADD25C,0.062992*%
%ADD26C,0.12*%
%ADD27R,0.12X0.12*%
%ADD28C,0.059055*%
%ADD29R,0.059055X0.059055*%
%ADD30R,0.066929X0.066929*%
%ADD31C,0.066929*%
%ADD32R,0.074803X0.074803*%
%ADD33C,0.074803*%
G04 #@! TA.AperFunction,ViaPad*
%ADD35C,0.04*%
%FSLAX26Y26*%
G04*
G70*
G90*
G75*
G01*
G04 Bottom*
%LPD*%
X3279213Y1275413D2*
D14*
X3447638Y1106988D1*
Y469173D1*
X3421654Y443189D1*
X3144213D1*
X3068701Y518701D1*
X1693701Y1518701D2*
Y1521591D1*
X1741264Y1569154D1*
X1815293D1*
X1966559Y1417887D1*
Y981824D1*
X2017277Y931106D1*
X2359348Y843757D2*
X2435243Y767862D1*
X2919539D1*
X3068701Y618701D1*
X1593701Y1518701D2*
Y1517522D1*
X1642009Y1469214D1*
X1847810D1*
X1919329Y1397694D1*
Y961480D1*
X1949495Y931315D1*
X2296610Y799598D2*
X2370020Y726189D1*
X2880249D1*
X2918046Y688392D1*
Y569356D1*
X2968701Y518701D1*
X2681201Y893701D2*
Y1184567D1*
X2539764Y1326004D1*
Y1489764D1*
X2618701Y1568701D1*
X1644689Y827677D2*
Y1209941D1*
X1618705Y1235925D1*
X1491240D1*
X1382270Y1344895D1*
Y2238675D1*
X1314744Y2306201D1*
X820571D1*
X633071Y2493701D1*
X543701Y1093701D2*
X596654Y1040748D1*
X840748D1*
X893701Y1093701D1*
X3693701Y2443701D2*
Y2193701D1*
X893701Y1093701D2*
X946654Y1040748D1*
X1058483D1*
X1194685Y904546D1*
Y767398D1*
X1218382Y743701D1*
X1223677D1*
X1381201D1*
X1402614D1*
X1487476Y828563D1*
X1223677Y743701D2*
X1168701Y688724D1*
Y618701D1*
X3693701Y1943701D2*
Y1743701D1*
X3518701Y1568701D1*
X3693701Y2193701D2*
Y1943701D1*
X1793701Y1418701D2*
Y852110D1*
X1960654Y685157D1*
X2768701D2*
Y618701D1*
X2393701Y1593701D2*
X2164173D1*
X2138189Y1567717D1*
Y1270669D1*
X2068701Y1201181D1*
Y618701D1*
X3018701Y1368701D2*
X2918701D1*
X2818701D2*
X2718701D1*
X3418701D2*
Y1370262D1*
X3518701D1*
Y1368701D1*
X3218701D2*
X3118701D1*
X1434554Y1095167D2*
X1317707D1*
X1293189Y1119685D1*
Y2167717D1*
X1267205Y2193701D1*
X643701D1*
X2618701Y1668701D2*
X2168701D1*
X2093701Y1593701D1*
X1468701Y618701D2*
Y518701D1*
X1193701Y1093701D2*
X1267205D1*
X1293189Y1119685D1*
X2093701Y1443701D2*
X2027612Y1377612D1*
Y1261572D1*
X2093701Y1593701D2*
Y1443701D1*
X1568701Y518701D2*
X1581476D1*
X1616395Y553619D1*
Y678693D1*
X1596487Y698601D1*
X1256605Y780135D2*
Y914508D1*
X1145394Y1025719D1*
Y1136228D1*
X1131446Y1150176D1*
X700176D1*
X643701Y1093701D1*
X1681201Y743701D2*
X1687323Y749823D1*
Y1219878D1*
X1635501Y1271699D1*
X1512587D1*
X1426411Y1357875D1*
Y2246503D1*
X1316713Y2356201D1*
X887052D1*
X675441Y2567812D1*
X516724D1*
X477710Y2528798D1*
Y2259692D1*
X543701Y2193701D1*
X1039122Y987479D2*
X1049043D1*
X1127928Y908594D1*
Y716399D1*
X1102479Y690950D1*
Y482442D1*
X1141732Y443189D1*
X1593189D1*
X1668701Y518701D1*
X609941Y606201D2*
X672441Y543701D1*
X743701D1*
Y741656D1*
X913698Y911654D1*
X1015748D1*
X1068701Y858701D1*
X968701D2*
X889764Y779764D1*
Y697638D1*
X1043701Y543701D1*
X2531201Y1043701D2*
D15*
Y987102D1*
X2481201Y937102D1*
Y893701D1*
X2581201D2*
D16*
Y868447D1*
X2635401Y814247D1*
X2845688D1*
X3139661Y1108220D1*
X3329563D1*
X3435807Y1214464D2*
X3522938D1*
X3631201Y1106201D1*
X1368701Y518701D2*
Y618701D1*
X1593701Y1106201D2*
X1501969D1*
X1461417Y1146752D1*
X1367008D1*
X1336573Y1177186D1*
Y2203269D1*
X1292957Y2246886D1*
X787109D1*
X554331Y2479664D1*
Y2493701D1*
X1368701Y618701D2*
X1593701Y843701D1*
Y1106201D1*
X2131201D2*
Y984720D1*
X2180205Y935716D1*
X2285348Y936057D2*
X2559198Y1209907D1*
X2231596Y1520696D2*
D14*
X2230470D1*
Y779831D1*
X2329102Y681198D1*
X2606203D1*
X2668701Y618701D1*
D35*
X2017277Y931106D3*
X2359348Y843757D3*
X1949495Y931315D3*
X2296610Y799598D3*
X1596487Y698601D3*
X1256605Y780135D3*
X3329563Y1108220D3*
X3435807Y1214464D3*
X2180205Y935716D3*
X2285348Y936057D3*
X2559198Y1209907D3*
X3279213Y1275413D3*
X1487476Y828563D3*
X1644689Y827677D3*
X1960654Y685157D3*
X2768701D3*
X1434554Y1095167D3*
X2027612Y1261572D3*
X1039122Y987479D3*
X2531201Y1043701D3*
X2231596Y1520696D3*
D22*
X2393701Y1443701D3*
D23*
X2093701D3*
D22*
X2393701Y1593701D3*
D23*
X2093701D3*
D22*
X1681201Y743701D3*
D23*
X1381201D3*
D24*
X531201Y606201D3*
D25*
X609941D3*
D26*
X3631201Y1106201D3*
D27*
X2831201D3*
D28*
X3593701Y2443701D3*
D29*
X3693701D3*
D30*
X543701Y2193701D3*
D31*
X643701D3*
D30*
X893701Y1093701D3*
D31*
X993701D3*
X1093701D3*
X1193701D3*
D30*
X3218701Y1368701D3*
D31*
Y1468701D3*
Y1568701D3*
Y1668701D3*
D30*
X3118701Y1368701D3*
D31*
Y1468701D3*
Y1568701D3*
Y1668701D3*
D30*
X3018701Y1368701D3*
D31*
Y1468701D3*
Y1568701D3*
Y1668701D3*
D30*
X2918701Y1368701D3*
D31*
Y1468701D3*
Y1568701D3*
Y1668701D3*
D30*
X2818701Y1368701D3*
D31*
Y1468701D3*
Y1568701D3*
Y1668701D3*
D30*
X2718701Y1368701D3*
D31*
Y1468701D3*
Y1568701D3*
Y1668701D3*
D30*
X2618701Y1368701D3*
D31*
Y1468701D3*
Y1568701D3*
Y1668701D3*
D30*
X3318701Y1368701D3*
D31*
Y1468701D3*
Y1568701D3*
Y1668701D3*
D30*
X3418701Y1368701D3*
D31*
Y1468701D3*
Y1568701D3*
Y1668701D3*
D30*
X3518701Y1368701D3*
D31*
Y1468701D3*
Y1568701D3*
Y1668701D3*
D30*
X1068701Y758701D3*
D31*
X968701D3*
X1068701Y858701D3*
X968701D3*
D30*
X1168701Y518701D3*
D31*
Y618701D3*
X1268701Y518701D3*
Y618701D3*
X1368701Y518701D3*
Y618701D3*
X1468701Y518701D3*
Y618701D3*
X1568701Y518701D3*
Y618701D3*
X1668701Y518701D3*
Y618701D3*
X1768701Y518701D3*
Y618701D3*
X1868701Y518701D3*
Y618701D3*
X1968701Y518701D3*
Y618701D3*
X2068701Y518701D3*
Y618701D3*
X2168701Y518701D3*
Y618701D3*
X2268701Y518701D3*
Y618701D3*
X2368701Y518701D3*
Y618701D3*
X2468701Y518701D3*
Y618701D3*
X2568701Y518701D3*
Y618701D3*
X2668701Y518701D3*
Y618701D3*
X2768701Y518701D3*
Y618701D3*
X2868701Y518701D3*
Y618701D3*
X2968701Y518701D3*
Y618701D3*
X3068701Y518701D3*
Y618701D3*
X3168701Y518701D3*
Y618701D3*
X3268701Y518701D3*
Y618701D3*
X3368701Y518701D3*
Y618701D3*
D30*
X1493701Y1418701D3*
D31*
Y1518701D3*
Y1618701D3*
D30*
X1593701Y1418701D3*
D31*
Y1518701D3*
Y1618701D3*
D30*
X1693701Y1418701D3*
D31*
Y1518701D3*
Y1618701D3*
D30*
X1793701Y1418701D3*
D31*
Y1518701D3*
Y1618701D3*
D28*
X3593701Y1943701D3*
D29*
X3693701D3*
D30*
X543701Y1093701D3*
D31*
X643701D3*
D24*
X554331Y2493701D3*
D25*
X633071D3*
D24*
X1593701Y1106201D3*
D25*
Y1184941D3*
D24*
X1856201Y1106201D3*
D25*
Y1184941D3*
D24*
X2131201Y1106201D3*
D25*
Y1184941D3*
D32*
X2481201Y893701D3*
D33*
X2581201D3*
X2681201D3*
D22*
X3243701Y1943701D3*
D23*
X2943701D3*
D22*
X3243701Y2093701D3*
D23*
X2943701D3*
D22*
X3243701Y2243701D3*
D23*
X2943701D3*
D22*
X743701Y543701D3*
D23*
X1043701D3*
D30*
X1168701Y2418701D3*
D31*
Y2518701D3*
X1268701Y2418701D3*
Y2518701D3*
X1368701Y2418701D3*
Y2518701D3*
X1468701Y2418701D3*
Y2518701D3*
X1568701Y2418701D3*
Y2518701D3*
X1668701Y2418701D3*
Y2518701D3*
X1768701Y2418701D3*
Y2518701D3*
X1868701Y2418701D3*
Y2518701D3*
X1968701Y2418701D3*
Y2518701D3*
X2068701Y2418701D3*
Y2518701D3*
X2168701Y2418701D3*
Y2518701D3*
X2268701Y2418701D3*
Y2518701D3*
X2368701Y2418701D3*
Y2518701D3*
X2468701Y2418701D3*
Y2518701D3*
X2568701Y2418701D3*
Y2518701D3*
X2668701Y2418701D3*
Y2518701D3*
X2768701Y2418701D3*
Y2518701D3*
X2868701Y2418701D3*
Y2518701D3*
X2968701Y2418701D3*
Y2518701D3*
X3068701Y2418701D3*
Y2518701D3*
X3168701Y2418701D3*
Y2518701D3*
X3268701Y2418701D3*
Y2518701D3*
X3368701Y2418701D3*
Y2518701D3*
D28*
X3593701Y2193701D3*
D29*
X3693701D3*
M02*
