G04 DipTrace 3.3.1.3*
G04 Bottom.gbr*
%MOMM*%
G04 #@! TF.FileFunction,Copper,L2,Bot*
G04 #@! TF.Part,Single*
G04 #@! TA.AperFunction,Conductor*
%ADD14C,0.33*%
%ADD15C,1.8*%
%ADD17C,1.37*%
G04 #@! TA.AperFunction,ComponentPad*
%ADD23C,1.27*%
%ADD24C,1.27*%
%ADD25R,1.6X1.6*%
%ADD26C,1.6*%
%ADD27C,3.048*%
%ADD28R,3.048X3.048*%
%ADD29C,1.5*%
%ADD30R,1.5X1.5*%
%ADD31R,1.7X1.7*%
%ADD32C,1.7*%
%ADD33R,1.9X1.9*%
%ADD34C,1.9*%
%FSLAX35Y35*%
G04*
G71*
G90*
G75*
G01*
G04 Bottom*
%LPD*%
X8329200Y3239550D2*
D14*
X8757000Y2811750D1*
Y1191700D1*
X8691000Y1125700D1*
X7986300D1*
X7794500Y1317500D1*
X4302000Y3857500D2*
Y3864840D1*
X4422810Y3985650D1*
X4610843D1*
X4995060Y3601433D1*
Y2493833D1*
X5123883Y2365010D1*
X5992743Y2143143D2*
X6185517Y1950370D1*
X7415630D1*
X7794500Y1571500D1*
X4048000Y3857500D2*
Y3854507D1*
X4170703Y3731803D1*
X4693437D1*
X4875097Y3550143D1*
Y2442160D1*
X4951717Y2365540D1*
X5833390Y2030980D2*
X6019850Y1844520D1*
X7315833D1*
X7411837Y1748517D1*
Y1446163D1*
X7540500Y1317500D1*
X6810250Y2270000D2*
Y3189087D1*
X6699542Y3299795D1*
X6545832D1*
X6451000Y3394626D1*
Y3784000D1*
X6651500Y3984500D1*
X4177510Y2102300D2*
Y3073250D1*
X4111510Y3139250D1*
X3787750D1*
X3548237Y3378763D1*
Y5730598D1*
X3377762Y5901074D1*
X2040926D1*
X1608000Y6334000D1*
X1381000Y2778000D2*
X1515500Y2643500D1*
X2135500D1*
X2270000Y2778000D1*
X9382000Y6207000D2*
Y5572000D1*
X2270000Y2778000D2*
X2404500Y2643500D1*
X2688547D1*
X3034500Y2297547D1*
Y1949190D1*
X3094690Y1889000D1*
X3508250D1*
X3529107D1*
X3744657Y2104550D1*
X3778190D1*
X3094690Y1889000D2*
X2968500Y1762810D1*
Y1571500D1*
X9382000Y4937000D2*
Y4429000D1*
X8937500Y3984500D1*
X9382000Y5572000D2*
Y4937000D1*
X4556000Y3603500D2*
Y2164360D1*
X4980060Y1740300D1*
X7032500D2*
Y1571500D1*
X6080000Y4048000D2*
X5497000D1*
X5431000Y3982000D1*
Y3227500D1*
X5254500Y3051000D1*
Y1571500D1*
X7667500Y3476500D2*
X7413500D1*
X7159500D2*
X6905500D1*
X8683500D2*
Y3480467D1*
X8937500D1*
Y3476500D1*
X8175500D2*
X7921500D1*
X3643767Y2781723D2*
X3346977D1*
X3266570Y2862130D1*
Y5468765D1*
X3189771Y5545564D1*
X1635000D1*
Y5572000D1*
X6651500Y4238500D2*
X5508500D1*
X5318000Y4048000D1*
X3730500Y1571500D2*
Y1317500D1*
X3032000Y2778000D2*
X3182440D1*
X3266570Y2862130D1*
X5318000Y3667000D2*
X5150133Y3499133D1*
Y3204393D1*
X5318000Y4048000D2*
Y3667000D1*
X3984500Y1317500D2*
X4016950D1*
X4105643Y1406193D1*
Y1723880D1*
X4055077Y1774447D1*
X3191777Y1981543D2*
Y2322850D1*
X2909300Y2605327D1*
Y2886020D1*
X2873873Y2921447D1*
X1778447D1*
X1635000Y2778000D1*
X4270250Y1889000D2*
X4285800Y1904550D1*
Y3098490D1*
X4154173Y3230117D1*
X3841970D1*
X3646170Y3425917D1*
Y5774124D1*
X3435544Y5984750D1*
X2253113D1*
X1715620Y6522243D1*
X1312480D1*
X1213383Y6423147D1*
Y5739617D1*
X1381000Y5572000D1*
X2639370Y2508197D2*
X2664570D1*
X2864937Y2307830D1*
Y1819653D1*
X2800297Y1755013D1*
Y1225403D1*
X2900000Y1125700D1*
X4046700D1*
X4238500Y1317500D1*
X1549250Y1539750D2*
X1708000Y1381000D1*
X1889000D1*
Y1883807D1*
X2320793Y2315600D1*
X2580000D1*
X2714500Y2181100D1*
X2460500D2*
X2260000Y1980600D1*
Y1772000D1*
X2651000Y1381000D1*
X6419653Y2702423D2*
D15*
Y2497643D1*
X6302250Y2380240D1*
Y2270000D1*
X6556250D2*
D17*
Y2205853D1*
X6693917Y2068187D1*
X7228047D1*
X7974740Y2814880D1*
X8457093D1*
X8726950Y3084737D2*
X8948263D1*
X9223250Y2809750D1*
X3476500Y1317500D2*
Y1571500D1*
X4048000Y2809750D2*
X3868403D1*
X3409350Y3268803D1*
Y5581850D1*
X3268109Y5723091D1*
X1983256D1*
X1408000Y6298347D1*
Y6334000D1*
X3476500Y1571500D2*
X4048000Y2143000D1*
Y2809750D1*
X5413250D2*
Y2501190D1*
X5525957Y2388483D1*
X5804783Y2377583D2*
X6574293Y3147093D1*
X5668253Y3862567D2*
D14*
X5665393D1*
Y1980770D1*
X5915920Y1730243D1*
X6619757D1*
X6778500Y1571500D1*
D23*
X6080000Y3667000D3*
D24*
X5318000D3*
D23*
X6080000Y4048000D3*
D24*
X5318000D3*
D23*
X4270250Y1889000D3*
D24*
X3508250D3*
D25*
X1349250Y1539750D3*
D26*
X1549250D3*
D27*
X9223250Y2809750D3*
D28*
X7191250D3*
D29*
X9128000Y6207000D3*
D30*
X9382000D3*
D31*
X1381000Y5572000D3*
D32*
X1635000D3*
D31*
X2270000Y2778000D3*
D32*
X2524000D3*
X2778000D3*
X3032000D3*
D31*
X8175500Y3476500D3*
D32*
Y3730500D3*
Y3984500D3*
Y4238500D3*
D31*
X7921500Y3476500D3*
D32*
Y3730500D3*
Y3984500D3*
Y4238500D3*
D31*
X7667500Y3476500D3*
D32*
Y3730500D3*
Y3984500D3*
Y4238500D3*
D31*
X7413500Y3476500D3*
D32*
Y3730500D3*
Y3984500D3*
Y4238500D3*
D31*
X7159500Y3476500D3*
D32*
Y3730500D3*
Y3984500D3*
Y4238500D3*
D31*
X6905500Y3476500D3*
D32*
Y3730500D3*
Y3984500D3*
Y4238500D3*
D31*
X6651500Y3476500D3*
D32*
Y3730500D3*
Y3984500D3*
Y4238500D3*
D31*
X8429500Y3476500D3*
D32*
Y3730500D3*
Y3984500D3*
Y4238500D3*
D31*
X8683500Y3476500D3*
D32*
Y3730500D3*
Y3984500D3*
Y4238500D3*
D31*
X8937500Y3476500D3*
D32*
Y3730500D3*
Y3984500D3*
Y4238500D3*
D31*
X2714500Y1927100D3*
D32*
X2460500D3*
X2714500Y2181100D3*
X2460500D3*
D31*
X2968500Y1317500D3*
D32*
Y1571500D3*
X3222500Y1317500D3*
Y1571500D3*
X3476500Y1317500D3*
Y1571500D3*
X3730500Y1317500D3*
Y1571500D3*
X3984500Y1317500D3*
Y1571500D3*
X4238500Y1317500D3*
Y1571500D3*
X4492500Y1317500D3*
Y1571500D3*
X4746500Y1317500D3*
Y1571500D3*
X5000500Y1317500D3*
Y1571500D3*
X5254500Y1317500D3*
Y1571500D3*
X5508500Y1317500D3*
Y1571500D3*
X5762500Y1317500D3*
Y1571500D3*
X6016500Y1317500D3*
Y1571500D3*
X6270500Y1317500D3*
Y1571500D3*
X6524500Y1317500D3*
Y1571500D3*
X6778500Y1317500D3*
Y1571500D3*
X7032500Y1317500D3*
Y1571500D3*
X7286500Y1317500D3*
Y1571500D3*
X7540500Y1317500D3*
Y1571500D3*
X7794500Y1317500D3*
Y1571500D3*
X8048500Y1317500D3*
Y1571500D3*
X8302500Y1317500D3*
Y1571500D3*
X8556500Y1317500D3*
Y1571500D3*
D31*
X3794000Y3603500D3*
D32*
Y3857500D3*
Y4111500D3*
D31*
X4048000Y3603500D3*
D32*
Y3857500D3*
Y4111500D3*
D31*
X4302000Y3603500D3*
D32*
Y3857500D3*
Y4111500D3*
D31*
X4556000Y3603500D3*
D32*
Y3857500D3*
Y4111500D3*
D29*
X9128000Y4937000D3*
D30*
X9382000D3*
D31*
X1381000Y2778000D3*
D32*
X1635000D3*
D25*
X1408000Y6334000D3*
D26*
X1608000D3*
D25*
X4048000Y2809750D3*
D26*
Y3009750D3*
D25*
X4714750Y2809750D3*
D26*
Y3009750D3*
D25*
X5413250Y2809750D3*
D26*
Y3009750D3*
D33*
X6302250Y2270000D3*
D34*
X6556250D3*
X6810250D3*
D23*
X8239000Y4937000D3*
D24*
X7477000D3*
D23*
X8239000Y5318000D3*
D24*
X7477000D3*
D23*
X8239000Y5699000D3*
D24*
X7477000D3*
D23*
X1889000Y1381000D3*
D24*
X2651000D3*
D31*
X2968500Y6143500D3*
D32*
Y6397500D3*
X3222500Y6143500D3*
Y6397500D3*
X3476500Y6143500D3*
Y6397500D3*
X3730500Y6143500D3*
Y6397500D3*
X3984500Y6143500D3*
Y6397500D3*
X4238500Y6143500D3*
Y6397500D3*
X4492500Y6143500D3*
Y6397500D3*
X4746500Y6143500D3*
Y6397500D3*
X5000500Y6143500D3*
Y6397500D3*
X5254500Y6143500D3*
Y6397500D3*
X5508500Y6143500D3*
Y6397500D3*
X5762500Y6143500D3*
Y6397500D3*
X6016500Y6143500D3*
Y6397500D3*
X6270500Y6143500D3*
Y6397500D3*
X6524500Y6143500D3*
Y6397500D3*
X6778500Y6143500D3*
Y6397500D3*
X7032500Y6143500D3*
Y6397500D3*
X7286500Y6143500D3*
Y6397500D3*
X7540500Y6143500D3*
Y6397500D3*
X7794500Y6143500D3*
Y6397500D3*
X8048500Y6143500D3*
Y6397500D3*
X8302500Y6143500D3*
Y6397500D3*
X8556500Y6143500D3*
Y6397500D3*
D29*
X9128000Y5572000D3*
D30*
X9382000D3*
M02*
