%
T1C0.0191F200S100
X032792Y012754
X034358Y012145
X033296Y011082
X027687Y006852
X025312Y010437
X025592Y012099
X022853Y009361
X021802Y009357
X020173Y009311
X019495Y009313
X019607Y006852
X016447Y008277
X015965Y006986
X014875Y008286
X012566Y007801
X010391Y009875
X014346Y010952
X020276Y012616
X022316Y015207
X023593Y008438
X022966Y007996
T2C0.022F200S100
X023937Y014437
X023937Y015937
X020937Y015937
X020937Y014437
X016812Y007437
X013812Y007437
X010437Y005437
X007437Y005437
X029437Y019437
X029437Y020937
X029437Y022437
X032437Y022437
X032437Y020937
X032437Y019437
T3C0.035F200S100
X035937Y024437
X036937Y024437
X036937Y021937
X035937Y021937
X035937Y019437
X036937Y019437
T4C0.0394F200S100
X005312Y006062
X006099Y006062
X015937Y011062
X015937Y011849
X018562Y011849
X018562Y011062
X021312Y011062
X021312Y011849
X006331Y024937
X005543Y024937
T5C0.0433F200S100
X005437Y021937
X006437Y021937
X011687Y024187
X012687Y024187
X012687Y025187
X011687Y025187
X013687Y025187
X014687Y025187
X014687Y024187
X013687Y024187
X015687Y024187
X015687Y025187
X016687Y025187
X016687Y024187
X017687Y024187
X017687Y025187
X018687Y025187
X019687Y025187
X020687Y025187
X020687Y024187
X019687Y024187
X018687Y024187
X021687Y024187
X021687Y025187
X022687Y025187
X022687Y024187
X023687Y024187
X023687Y025187
X024687Y025187
X024687Y024187
X025687Y024187
X026687Y024187
X026687Y025187
X025687Y025187
X027687Y025187
X027687Y024187
X028687Y024187
X028687Y025187
X029687Y025187
X029687Y024187
X030687Y024187
X031687Y024187
X031687Y025187
X030687Y025187
X032687Y025187
X032687Y024187
X033687Y024187
X033687Y025187
X033187Y016687
X032187Y016687
X032187Y015687
X033187Y015687
X033187Y014687
X032187Y014687
X032187Y013687
X033187Y013687
X034187Y013687
X034187Y014687
X034187Y015687
X034187Y016687
X035187Y016687
X035187Y015687
X035187Y014687
X035187Y013687
X031187Y013687
X031187Y014687
X031187Y015687
X031187Y016687
X030187Y016687
X029187Y016687
X029187Y015687
X030187Y015687
X030187Y014687
X030187Y013687
X029187Y013687
X029187Y014687
X028187Y014687
X028187Y013687
X027187Y013687
X027187Y014687
X027187Y015687
X028187Y015687
X028187Y016687
X027187Y016687
X026187Y016687
X026187Y015687
X026187Y014687
X026187Y013687
X025812Y008937
X024812Y008937
X026812Y008937
X026687Y006187
X025687Y006187
X024687Y006187
X023687Y006187
X022687Y006187
X022687Y005187
X021687Y005187
X021687Y006187
X020687Y006187
X019687Y006187
X018687Y006187
X018687Y005187
X019687Y005187
X020687Y005187
X017687Y005187
X017687Y006187
X016687Y006187
X015687Y006187
X014687Y006187
X013687Y006187
X013687Y005187
X014687Y005187
X015687Y005187
X016687Y005187
X012687Y005187
X011687Y005187
X011687Y006187
X012687Y006187
X010687Y007587
X010687Y008587
X009687Y008587
X009687Y007587
X009937Y010937
X008937Y010937
X010937Y010937
X011937Y010937
X014937Y014187
X014937Y015187
X014937Y016187
X015937Y016187
X015937Y015187
X016937Y015187
X016937Y014187
X017937Y014187
X017937Y015187
X017937Y016187
X016937Y016187
X015937Y014187
X006437Y010937
X005437Y010937
X023687Y005187
X024687Y005187
X025687Y005187
X026687Y005187
X027687Y005187
X027687Y006187
X028687Y006187
X029687Y006187
X030687Y006187
X031687Y006187
X032687Y006187
X032687Y005187
X033687Y005187
X033687Y006187
X031687Y005187
X030687Y005187
X029687Y005187
X028687Y005187
T6C0.068F200S100
X036312Y011062
X028312Y011062
M30
