G04 DipTrace 3.3.1.3*
G04 TopMask.gbr*
%MOMM*%
G04 #@! TF.FileFunction,Soldermask,Top*
G04 #@! TF.Part,Single*
%ADD31R,1.7X1.7*%
%ADD32C,1.7*%
%ADD33R,1.9X1.9*%
%ADD34C,1.9*%
%ADD47R,2.0X0.6*%
%ADD49C,2.1*%
%ADD50R,2.1X2.1*%
%ADD53R,3.248X3.248*%
%ADD55C,3.248*%
%ADD57C,1.8*%
%ADD59R,1.8X1.8*%
%ADD61C,1.47*%
%ADD63C,1.47*%
%FSLAX35Y35*%
G04*
G71*
G90*
G75*
G01*
G04 TopMask*
%LPD*%
D63*
X6080000Y3667000D3*
D61*
X5318000D3*
D63*
X6080000Y4048000D3*
D61*
X5318000D3*
D63*
X4270250Y1889000D3*
D61*
X3508250D3*
D59*
X1349250Y1539750D3*
D57*
X1549250D3*
D55*
X9223250Y2809750D3*
D53*
X7191250D3*
D32*
X9128000Y6207000D3*
D31*
X9382000D3*
D33*
X1381000Y5572000D3*
D34*
X1635000D3*
D33*
X2270000Y2778000D3*
D34*
X2524000D3*
X2778000D3*
X3032000D3*
D33*
X8175500Y3476500D3*
D34*
Y3730500D3*
Y3984500D3*
Y4238500D3*
D33*
X7921500Y3476500D3*
D34*
Y3730500D3*
Y3984500D3*
Y4238500D3*
D33*
X7667500Y3476500D3*
D34*
Y3730500D3*
Y3984500D3*
Y4238500D3*
D33*
X7413500Y3476500D3*
D34*
Y3730500D3*
Y3984500D3*
Y4238500D3*
D33*
X7159500Y3476500D3*
D34*
Y3730500D3*
Y3984500D3*
Y4238500D3*
D33*
X6905500Y3476500D3*
D34*
Y3730500D3*
Y3984500D3*
Y4238500D3*
D33*
X6651500Y3476500D3*
D34*
Y3730500D3*
Y3984500D3*
Y4238500D3*
D33*
X8429500Y3476500D3*
D34*
Y3730500D3*
Y3984500D3*
Y4238500D3*
D33*
X8683500Y3476500D3*
D34*
Y3730500D3*
Y3984500D3*
Y4238500D3*
D33*
X8937500Y3476500D3*
D34*
Y3730500D3*
Y3984500D3*
Y4238500D3*
D33*
X2714500Y1927100D3*
D34*
X2460500D3*
X2714500Y2181100D3*
X2460500D3*
D33*
X2968500Y1317500D3*
D34*
Y1571500D3*
X3222500Y1317500D3*
Y1571500D3*
X3476500Y1317500D3*
Y1571500D3*
X3730500Y1317500D3*
Y1571500D3*
X3984500Y1317500D3*
Y1571500D3*
X4238500Y1317500D3*
Y1571500D3*
X4492500Y1317500D3*
Y1571500D3*
X4746500Y1317500D3*
Y1571500D3*
X5000500Y1317500D3*
Y1571500D3*
X5254500Y1317500D3*
Y1571500D3*
X5508500Y1317500D3*
Y1571500D3*
X5762500Y1317500D3*
Y1571500D3*
X6016500Y1317500D3*
Y1571500D3*
X6270500Y1317500D3*
Y1571500D3*
X6524500Y1317500D3*
Y1571500D3*
X6778500Y1317500D3*
Y1571500D3*
X7032500Y1317500D3*
Y1571500D3*
X7286500Y1317500D3*
Y1571500D3*
X7540500Y1317500D3*
Y1571500D3*
X7794500Y1317500D3*
Y1571500D3*
X8048500Y1317500D3*
Y1571500D3*
X8302500Y1317500D3*
Y1571500D3*
X8556500Y1317500D3*
Y1571500D3*
D33*
X3794000Y3603500D3*
D34*
Y3857500D3*
Y4111500D3*
D33*
X4048000Y3603500D3*
D34*
Y3857500D3*
Y4111500D3*
D33*
X4302000Y3603500D3*
D34*
Y3857500D3*
Y4111500D3*
D33*
X4556000Y3603500D3*
D34*
Y3857500D3*
Y4111500D3*
D32*
X9128000Y4937000D3*
D31*
X9382000D3*
D33*
X1381000Y2778000D3*
D34*
X1635000D3*
D59*
X1408000Y6334000D3*
D57*
X1608000D3*
D59*
X4048000Y2809750D3*
D57*
Y3009750D3*
D59*
X4714750Y2809750D3*
D57*
Y3009750D3*
D59*
X5413250Y2809750D3*
D57*
Y3009750D3*
D50*
X6302250Y2270000D3*
D49*
X6556250D3*
X6810250D3*
D63*
X8239000Y4937000D3*
D61*
X7477000D3*
D63*
X8239000Y5318000D3*
D61*
X7477000D3*
D63*
X8239000Y5699000D3*
D61*
X7477000D3*
D63*
X1889000Y1381000D3*
D61*
X2651000D3*
D33*
X2968500Y6143500D3*
D34*
Y6397500D3*
X3222500Y6143500D3*
Y6397500D3*
X3476500Y6143500D3*
Y6397500D3*
X3730500Y6143500D3*
Y6397500D3*
X3984500Y6143500D3*
Y6397500D3*
X4238500Y6143500D3*
Y6397500D3*
X4492500Y6143500D3*
Y6397500D3*
X4746500Y6143500D3*
Y6397500D3*
X5000500Y6143500D3*
Y6397500D3*
X5254500Y6143500D3*
Y6397500D3*
X5508500Y6143500D3*
Y6397500D3*
X5762500Y6143500D3*
Y6397500D3*
X6016500Y6143500D3*
Y6397500D3*
X6270500Y6143500D3*
Y6397500D3*
X6524500Y6143500D3*
Y6397500D3*
X6778500Y6143500D3*
Y6397500D3*
X7032500Y6143500D3*
Y6397500D3*
X7286500Y6143500D3*
Y6397500D3*
X7540500Y6143500D3*
Y6397500D3*
X7794500Y6143500D3*
Y6397500D3*
X8048500Y6143500D3*
Y6397500D3*
X8302500Y6143500D3*
Y6397500D3*
X8556500Y6143500D3*
Y6397500D3*
D32*
X9128000Y5572000D3*
D31*
X9382000D3*
D47*
X6138050Y2967677D3*
Y2902677D3*
Y2837677D3*
Y2772677D3*
X6718050D3*
Y2837677D3*
Y2902677D3*
Y2967677D3*
M02*
