G04 DipTrace 3.3.1.3*
G04 TopSilk.gbr*
%MOIN*%
G04 #@! TF.FileFunction,Legend,Top*
G04 #@! TF.Part,Single*
%ADD10C,0.009843*%
%ADD12C,0.003*%
%ADD18C,0.01*%
%ADD19C,0.001312*%
%ADD20C,0.005*%
%ADD21C,0.003937*%
%ADD64C,0.00772*%
%ADD65C,0.015439*%
%ADD67C,0.004632*%
%ADD68C,0.006176*%
%FSLAX26Y26*%
G04*
G70*
G90*
G75*
G01*
G04 TopSilk*
%LPD*%
X2323851Y1413701D2*
D10*
Y1473701D1*
X2163551Y1413701D2*
X2323851D1*
X2163551D2*
Y1473701D1*
X2323851D1*
Y1563701D2*
Y1623701D1*
X2163551Y1563701D2*
X2323851D1*
X2163551D2*
Y1623701D1*
X2323851D1*
X1611351Y713701D2*
Y773701D1*
X1451051Y713701D2*
X1611351D1*
X1451051D2*
Y773701D1*
X1611351D1*
X454429Y673130D2*
X686713D1*
Y495965D1*
X454429D1*
Y673130D1*
X3531121Y1231201D2*
X2931281D1*
Y981201D1*
X3531121D2*
X2931281D1*
X3531121Y1231201D2*
D3*
X2997797D2*
Y981201D1*
X3531121D2*
Y1231201D1*
X3684260Y2395701D2*
G02X3602028Y2396835I-40474J47136D01*
G01*
X3684260Y2491701D2*
G03X3602028Y2490567I-40474J-47136D01*
G01*
X493689Y2243706D2*
X693713D1*
Y2143701D1*
X493689D1*
Y2243706D1*
X843683Y1143706D2*
X1243718D1*
Y1043701D1*
X843683D1*
Y1143706D1*
X3168696Y1318683D2*
X3268701D1*
Y1718718D1*
X3168696D1*
Y1318683D1*
X3068696D2*
X3168701D1*
Y1718718D1*
X3068696D1*
Y1318683D1*
X2968696D2*
X3068701D1*
Y1718718D1*
X2968696D1*
Y1318683D1*
X2868696D2*
X2968701D1*
Y1718718D1*
X2868696D1*
Y1318683D1*
X2768696D2*
X2868701D1*
Y1718718D1*
X2768696D1*
Y1318683D1*
X2668696D2*
X2768701D1*
Y1718718D1*
X2668696D1*
Y1318683D1*
X2568696D2*
X2668701D1*
Y1718718D1*
X2568696D1*
Y1318683D1*
X3268696D2*
X3368701D1*
Y1718718D1*
X3268696D1*
Y1318683D1*
X3368696D2*
X3468701D1*
Y1718718D1*
X3368696D1*
Y1318683D1*
X3468696D2*
X3568701D1*
Y1718718D1*
X3468696D1*
Y1318683D1*
X918701Y708701D2*
X1118701D1*
Y908701D1*
X918701D1*
Y708701D1*
X1118701Y668701D2*
X3418701D1*
Y468701D1*
X1118701D1*
Y668701D1*
X1443696Y1368720D2*
X1543701D1*
Y1668682D1*
X1443696D1*
Y1368720D1*
X1543696D2*
X1643701D1*
Y1668682D1*
X1543696D1*
Y1368720D1*
X1643696D2*
X1743701D1*
Y1668682D1*
X1643696D1*
Y1368720D1*
X1743696D2*
X1843701D1*
Y1668682D1*
X1743696D1*
Y1368720D1*
X3684260Y1895701D2*
G02X3602028Y1896835I-40474J47136D01*
G01*
X3684260Y1991701D2*
G03X3602028Y1990567I-40474J-47136D01*
G01*
X493689Y1143706D2*
X693713D1*
Y1043701D1*
X493689D1*
Y1143706D1*
X477559Y2560630D2*
X709843D1*
Y2383465D1*
X477559D1*
Y2560630D1*
X1526772Y1029429D2*
X1703937D1*
Y1261713D1*
X1526772D1*
Y1029429D1*
X1789272D2*
X1966437D1*
Y1261713D1*
X1789272D1*
Y1029429D1*
X2064272D2*
X2241437D1*
Y1261713D1*
X2064272D1*
Y1029429D1*
X2384350Y1000000D2*
X2778051D1*
Y822835D1*
X2384350D1*
Y1000000D1*
Y964567D2*
X2778051D1*
X3173851Y1913701D2*
Y1973701D1*
X3013551Y1913701D2*
X3173851D1*
X3013551D2*
Y1973701D1*
X3173851D1*
Y2063701D2*
Y2123701D1*
X3013551Y2063701D2*
X3173851D1*
X3013551D2*
Y2123701D1*
X3173851D1*
Y2213701D2*
Y2273701D1*
X3013551Y2213701D2*
X3173851D1*
X3013551D2*
Y2273701D1*
X3173851D1*
X813551Y573701D2*
Y513701D1*
X973851Y573701D2*
X813551D1*
X973851D2*
Y513701D1*
X813551D1*
X1118701Y2568701D2*
X3418701D1*
Y2368701D1*
X1118701D1*
Y2568701D1*
X3684260Y2145701D2*
G02X3602028Y2146835I-40474J47136D01*
G01*
X3684260Y2241701D2*
G03X3602028Y2240567I-40474J-47136D01*
G01*
X2469890Y1164370D2*
Y1046260D1*
X2595858Y1164370D2*
Y1046260D1*
X2469890D2*
X2595858D1*
X2469890Y1164370D2*
X2513186D1*
X2552562D2*
X2595858D1*
X2513186D2*
G03X2552562Y1164370I19688J-13D01*
G01*
X843701Y924951D2*
D18*
Y1124951D1*
Y924951D2*
X1243701D1*
Y1124951D1*
X493701Y1043701D2*
X693701D1*
Y893701D1*
X493701D1*
Y1043701D1*
X3418701Y2568701D2*
D19*
X3518701D1*
Y2368701D1*
X3418701D1*
Y2568701D1*
Y668701D2*
X3518701D1*
Y468701D1*
X3418701D1*
Y668701D1*
X473374Y792350D2*
D18*
X660874D1*
Y673600D1*
X473374D1*
Y792350D1*
X1843701Y1668701D2*
X2018701D1*
Y1368701D1*
X1843701D1*
Y1668701D1*
X3568701Y1718701D2*
X3743701D1*
Y1318701D1*
X3568701D1*
Y1718701D1*
Y1618701D2*
D20*
X3743701D1*
X3568701Y1518701D2*
X3743701D1*
X3568701Y1418701D2*
X3743701D1*
X1843701Y1568701D2*
X2018701D1*
X1843701Y1468701D2*
X2018701D1*
X1143701Y924951D2*
Y1043701D1*
X1037451Y924951D2*
Y1043701D1*
X937451Y924951D2*
Y1043701D1*
X593701Y893702D2*
Y1043701D1*
X568701Y674953D2*
Y793701D1*
X1693701Y1306201D2*
D21*
X2143701D1*
X2181201Y1268701D1*
X1881201Y1306201D2*
Y1268701D1*
X1693701Y993701D2*
X2143701D1*
X2181201Y1031201D1*
X1881201Y993701D2*
Y1031201D1*
X1531201Y1331201D2*
X1693701D1*
Y1268701D1*
X1531201D1*
Y1331201D1*
Y1031201D2*
X1693701D1*
Y968701D1*
X1531201D1*
Y1031201D1*
X3222701Y959451D2*
D12*
X3309701D1*
X3218561Y956451D2*
X3231815D1*
X3270701D2*
X3333895D1*
X3214284Y953451D2*
X3226211D1*
X3305962D2*
X3356148D1*
X3209996Y950451D2*
X3221036D1*
X3231701D2*
X3234701D1*
X3246701D2*
X3285701D1*
X3330980D2*
X3376094D1*
X3168701Y947451D2*
X3177701D1*
X3205921D2*
X3216199D1*
X3225815D2*
X3236202D1*
X3246815D2*
X3310844D1*
X3353779D2*
X3394044D1*
X3060701Y944451D2*
X3177111D1*
X3202160D2*
X3211558D1*
X3220211D2*
X3237944D1*
X3247200D2*
X3249111D1*
X3280932D2*
X3334311D1*
X3373948D2*
X3410533D1*
X2958701Y941451D2*
X3175877D1*
X3198445D2*
X3207104D1*
X3215045D2*
X3226176D1*
X3234225D2*
X3239683D1*
X3247930D2*
X3250877D1*
X3307196D2*
X3356120D1*
X3392045D2*
X3425974D1*
X2850701Y938451D2*
X3075701D1*
X3168701D2*
X3173996D1*
X3194578D2*
X3202965D1*
X3210286D2*
X3221025D1*
X3236376D2*
X3241327D1*
X3248805D2*
X3251988D1*
X3331198D2*
X3376458D1*
X3408909D2*
X3440155D1*
X2796701Y935451D2*
X3003701D1*
X3165701D2*
X3171948D1*
X3190749D2*
X3199231D1*
X3205880D2*
X3216196D1*
X3238205D2*
X3242892D1*
X3249713D2*
X3252857D1*
X3353531D2*
X3395460D1*
X3424600D2*
X3452435D1*
X2796701Y932451D2*
X3170192D1*
X3187203D2*
X3195701D1*
X3201701D2*
X3211546D1*
X3239856D2*
X3244343D1*
X3250736D2*
X3253798D1*
X3374534D2*
X3412922D1*
X3438605D2*
X3462665D1*
X2952701Y929451D2*
X3168701D1*
X3183916D2*
X3206988D1*
X3241414D2*
X3245605D1*
X3251761D2*
X3254757D1*
X3393952D2*
X3428230D1*
X3450639D2*
X3471390D1*
X3180786Y926451D2*
X3202474D1*
X3242939D2*
X3246701D1*
X3252701D2*
X3255694D1*
X3411330D2*
X3441121D1*
X3460796D2*
X3479065D1*
X3177733Y923451D2*
X3183701D1*
X3189701D2*
X3198062D1*
X3244445D2*
X3256713D1*
X3426519D2*
X3452020D1*
X3469341D2*
X3485864D1*
X3174712Y920451D2*
X3193845D1*
X3245939D2*
X3257719D1*
X3439627D2*
X3461339D1*
X3476673D2*
X3491907D1*
X3171705Y917451D2*
X3189788D1*
X3247344D2*
X3249701D1*
X3255701D2*
X3258690D1*
X3450699D2*
X3469123D1*
X3483287D2*
X3497358D1*
X3168702Y914451D2*
X3185730D1*
X3248558D2*
X3259813D1*
X3459822D2*
X3475566D1*
X3489532D2*
X3502555D1*
X3165701Y911451D2*
X3181810D1*
X3249614D2*
X3252701D1*
X3258701D2*
X3261099D1*
X3467452D2*
X3481341D1*
X3495527D2*
X3507665D1*
X3162701Y908451D2*
X3178226D1*
X3250672D2*
X3262408D1*
X3474199D2*
X3487036D1*
X3501170D2*
X3512572D1*
X3159701Y905451D2*
X3174925D1*
X3251603D2*
X3263582D1*
X3480500D2*
X3492743D1*
X3506359D2*
X3517285D1*
X3156701Y902451D2*
X3171789D1*
X3252293D2*
X3256164D1*
X3262164D2*
X3264634D1*
X3486515D2*
X3498267D1*
X3511200D2*
X3521874D1*
X3153713Y899451D2*
X3168734D1*
X3252976D2*
X3256908D1*
X3262920D2*
X3265792D1*
X3492178D2*
X3503496D1*
X3515854D2*
X3526319D1*
X3078701Y896451D2*
X3126701D1*
X3150818D2*
X3165713D1*
X3253830D2*
X3257697D1*
X3263802D2*
X3267103D1*
X3497463D2*
X3508606D1*
X3520414D2*
X3530549D1*
X2994701Y893451D2*
X3126111D1*
X3148200D2*
X3162717D1*
X3254667D2*
X3258328D1*
X3264722D2*
X3268511D1*
X3502594D2*
X3513682D1*
X3524939D2*
X3534611D1*
X2913701Y890451D2*
X3087701D1*
X3117701D2*
X3124866D1*
X3145919D2*
X3159819D1*
X3255317D2*
X3258989D1*
X3265824D2*
X3269975D1*
X3507678D2*
X3518578D1*
X3529445D2*
X3538682D1*
X2826701Y887451D2*
X3006701D1*
X3117701D2*
X3122870D1*
X3143688D2*
X3157212D1*
X3255985D2*
X3259846D1*
X3267115D2*
X3271458D1*
X3512577D2*
X3523287D1*
X3533939D2*
X3542708D1*
X2825107Y884451D2*
X3120359D1*
X3141211D2*
X3155036D1*
X3256845D2*
X3260774D1*
X3268515D2*
X3272955D1*
X3517286D2*
X3527887D1*
X3538332D2*
X3546675D1*
X2823701Y881451D2*
X3117577D1*
X3138489D2*
X3153199D1*
X3257773D2*
X3261711D1*
X3269977D2*
X3274462D1*
X3521887D2*
X3532425D1*
X3542452D2*
X3550706D1*
X3099701Y878451D2*
X3114701D1*
X3135617D2*
X3141701D1*
X3148290D2*
X3151558D1*
X3258711D2*
X3262821D1*
X3271470D2*
X3276058D1*
X3526425D2*
X3536943D1*
X3546232D2*
X3554717D1*
X3132669Y875451D2*
X3138713D1*
X3146536D2*
X3150105D1*
X3259821D2*
X3264114D1*
X3273061D2*
X3277844D1*
X3530943D2*
X3541447D1*
X3549953D2*
X3558678D1*
X3129701Y872451D2*
X3135818D1*
X3145531D2*
X3148985D1*
X3261114D2*
X3265514D1*
X3274845D2*
X3279776D1*
X3535447D2*
X3545942D1*
X3553823D2*
X3562696D1*
X3126814Y869451D2*
X3133200D1*
X3145056D2*
X3148409D1*
X3262514D2*
X3266976D1*
X3276776D2*
X3281613D1*
X3539951D2*
X3550362D1*
X3557660D2*
X3566600D1*
X3124199Y866451D2*
X3130919D1*
X3144950D2*
X3148461D1*
X3263976D2*
X3268470D1*
X3278613D2*
X3283311D1*
X3544449D2*
X3554612D1*
X3561253D2*
X3570190D1*
X3121918Y863451D2*
X3128688D1*
X3145251D2*
X3149145D1*
X3265458D2*
X3270060D1*
X3280311D2*
X3285008D1*
X3548952D2*
X3558701D1*
X3564701D2*
X3573595D1*
X3119700Y860451D2*
X3126214D1*
X3145963D2*
X3150341D1*
X3266955D2*
X3271845D1*
X3281996D2*
X3286926D1*
X3553450D2*
X3577112D1*
X3117337Y857451D2*
X3123507D1*
X3146845D2*
X3151944D1*
X3268462D2*
X3273788D1*
X3283820D2*
X3289162D1*
X3557952D2*
X3567701D1*
X3573701D2*
X3580886D1*
X3115080Y854451D2*
X3120701D1*
X3147701D2*
X3153735D1*
X3270070D2*
X3275730D1*
X3285779D2*
X3291446D1*
X3562450D2*
X3584676D1*
X3113238Y851451D2*
X3155326D1*
X3271961D2*
X3277822D1*
X3287727D2*
X3293579D1*
X3566940D2*
X3588207D1*
X3111701Y848451D2*
X3156701D1*
X3274287D2*
X3280352D1*
X3289809D2*
X3295737D1*
X3571344D2*
X3591500D1*
X2841701Y845451D2*
X2856701D1*
X3276948D2*
X3283514D1*
X3292224D2*
X3298086D1*
X3575558D2*
X3594733D1*
X2841701Y842451D2*
X3162701D1*
X3279809D2*
X3287398D1*
X3294906D2*
X3300417D1*
X3579626D2*
X3598169D1*
X2841701Y839451D2*
X3178256D1*
X3282866D2*
X3291701D1*
X3297701D2*
X3302568D1*
X3583789D2*
X3601908D1*
X2898701Y836451D2*
X2994701D1*
X3158270D2*
X3191974D1*
X3286342D2*
X3304734D1*
X3588091D2*
X3605684D1*
X2943701Y833451D2*
X3039701D1*
X3175775D2*
X3203360D1*
X3290551D2*
X3307076D1*
X3592393D2*
X3609210D1*
X2988701Y830451D2*
X3084701D1*
X3190336D2*
X3212784D1*
X3295533D2*
X3309326D1*
X3596476D2*
X3612501D1*
X3033701Y827451D2*
X3150701D1*
X3202218D2*
X3220810D1*
X3301019D2*
X3311165D1*
X3600240D2*
X3615734D1*
X3078701Y824451D2*
X3165790D1*
X3212119D2*
X3227764D1*
X3306701D2*
X3312701D1*
X3603956D2*
X3619169D1*
X3142205Y821451D2*
X3178269D1*
X3220480D2*
X3233859D1*
X3607835D2*
X3622908D1*
X3160604Y818451D2*
X3188293D1*
X3227607D2*
X3239228D1*
X3282701D2*
X3285701D1*
X3611770D2*
X3626684D1*
X3174905Y815451D2*
X3196500D1*
X3233683D2*
X3244040D1*
X3283852D2*
X3293675D1*
X3543701D2*
X3555701D1*
X3615698D2*
X3630210D1*
X3185648Y812451D2*
X3203180D1*
X3238706D2*
X3248316D1*
X3285235D2*
X3301782D1*
X3543701D2*
X3569291D1*
X3619715D2*
X3633501D1*
X3193982Y809451D2*
X3208497D1*
X3242814D2*
X3251956D1*
X3286917D2*
X3310225D1*
X3543701D2*
X3580512D1*
X3623720D2*
X3636734D1*
X3012701Y806451D2*
X3015701D1*
X3150701D2*
X3153701D1*
X3200901D2*
X3212732D1*
X3246338D2*
X3254940D1*
X3288804D2*
X3295164D1*
X3301302D2*
X3319072D1*
X3556266D2*
X3589288D1*
X3627690D2*
X3640157D1*
X3009237Y803451D2*
X3016164D1*
X3099701D2*
X3105701D1*
X3147689D2*
X3154738D1*
X3206823D2*
X3216308D1*
X3249562D2*
X3257369D1*
X3290623D2*
X3295920D1*
X3308665D2*
X3328709D1*
X3566593D2*
X3596255D1*
X3631813D2*
X3643779D1*
X2889701Y800451D2*
X2955701D1*
X3005505D2*
X3016908D1*
X3096225D2*
X3105587D1*
X3144595D2*
X3155736D1*
X3211766D2*
X3219551D1*
X3252638D2*
X3259559D1*
X3292303D2*
X3296802D1*
X3317171D2*
X3340223D1*
X3574789D2*
X3601997D1*
X3636102D2*
X3647057D1*
X3687701D2*
X3690701D1*
X2887164Y797451D2*
X2957538D1*
X3001846D2*
X3017697D1*
X3092376D2*
X3105190D1*
X3141330D2*
X3156687D1*
X3215825D2*
X3222635D1*
X3255566D2*
X3261666D1*
X3293881D2*
X3297710D1*
X3327054D2*
X3355121D1*
X3581357D2*
X3591701D1*
X3597111D2*
X3606956D1*
X3640426D2*
X3649742D1*
X3688498D2*
X3697960D1*
X2884920Y794451D2*
X2889225D1*
X2907225D2*
X2922701D1*
X2952111D2*
X2959037D1*
X2998820D2*
X3018328D1*
X3088205D2*
X3104366D1*
X3138123D2*
X3147713D1*
X3153713D2*
X3157700D1*
X3219229D2*
X3225553D1*
X3258184D2*
X3263561D1*
X3295310D2*
X3298707D1*
X3338672D2*
X3374214D1*
X3459701D2*
X3474701D1*
X3586584D2*
X3594689D1*
X3601866D2*
X3611287D1*
X3644635D2*
X3650845D1*
X3691149D2*
X3704320D1*
X2882802Y791451D2*
X2888364D1*
X2906364D2*
X2919701D1*
X2953854D2*
X2960181D1*
X2996416D2*
X3003701D1*
X3015713D2*
X3018989D1*
X3083856D2*
X3103202D1*
X3135248D2*
X3144830D1*
X3153818D2*
X3158613D1*
X3222065D2*
X3228078D1*
X3260352D2*
X3265180D1*
X3296433D2*
X3299604D1*
X3352696D2*
X3396722D1*
X3435701D2*
X3472072D1*
X3590758D2*
X3597584D1*
X3605870D2*
X3614946D1*
X3648701D2*
X3651701D1*
X3694698D2*
X3709537D1*
X2880710Y788451D2*
X2887100D1*
X2905100D2*
X2937701D1*
X2955026D2*
X2959946D1*
X2995545D2*
X3000701D1*
X3015818D2*
X3019846D1*
X3079426D2*
X3090237D1*
X3097164D2*
X3101855D1*
X3134090D2*
X3142341D1*
X3154200D2*
X3159296D1*
X3224421D2*
X3229969D1*
X3262096D2*
X3266492D1*
X3297112D2*
X3300180D1*
X3369440D2*
X3469146D1*
X3594206D2*
X3600190D1*
X3609358D2*
X3617925D1*
X3698418D2*
X3713743D1*
X2878719Y785451D2*
X2885462D1*
X2903462D2*
X2937689D1*
X2955060D2*
X2959464D1*
X2995172D2*
X2997701D1*
X3016200D2*
X3020774D1*
X3075057D2*
X3086482D1*
X3094920D2*
X3100414D1*
X3134366D2*
X3140312D1*
X3154931D2*
X3159977D1*
X3226567D2*
X3231366D1*
X3263461D2*
X3267589D1*
X3297453D2*
X3300478D1*
X3387701D2*
X3438701D1*
X3459237D2*
X3466407D1*
X3597046D2*
X3602366D1*
X3612557D2*
X3620263D1*
X3701631D2*
X3717299D1*
X2876721Y782451D2*
X2883578D1*
X2901590D2*
X2907701D1*
X2934701D2*
X2937455D1*
X2954009D2*
X2958966D1*
X2985701D2*
D3*
X2995339D2*
X2999200D1*
X3016931D2*
X3021699D1*
X3070956D2*
X3082599D1*
X3092802D2*
X3098928D1*
X3123701D2*
X3126701D1*
X3134889D2*
X3139692D1*
X3155805D2*
X3160842D1*
X3228556D2*
X3232575D1*
X3264578D2*
X3268663D1*
X3297604D2*
X3300613D1*
X3357701D2*
X3384701D1*
X3458493D2*
X3464142D1*
X3599313D2*
X3604202D1*
X3615535D2*
X3622165D1*
X3704224D2*
X3720423D1*
X2874679Y779451D2*
X2881671D1*
X2899776D2*
X2904701D1*
X2931701D2*
X2936822D1*
X2951420D2*
X2958236D1*
X2981316D2*
X2988701D1*
X2995982D2*
X3000446D1*
X3017805D2*
X3022715D1*
X3067297D2*
X3078692D1*
X3090722D2*
X3097340D1*
X3120237D2*
X3127164D1*
X3135402D2*
X3140189D1*
X3156711D2*
X3161772D1*
X3230064D2*
X3233555D1*
X3265647D2*
X3269576D1*
X3297665D2*
X3300668D1*
X3344672D2*
X3398405D1*
X3457717D2*
X3462345D1*
X3601184D2*
X3605843D1*
X3618173D2*
X3623830D1*
X3706498D2*
X3711225D1*
X3717587D2*
X3723018D1*
X2872708Y776451D2*
X2879704D1*
X2898086D2*
X2931090D1*
X2948147D2*
X2957136D1*
X2977454D2*
X2988815D1*
X2996823D2*
X3001613D1*
X3018711D2*
X3023720D1*
X3064065D2*
X3074694D1*
X3088824D2*
X3095557D1*
X3116493D2*
X3127908D1*
X3136016D2*
X3140917D1*
X3157719D2*
X3162699D1*
X3230951D2*
X3234163D1*
X3266470D2*
X3270057D1*
X3297688D2*
X3300689D1*
X3333588D2*
X3362120D1*
X3379331D2*
X3410022D1*
X3457191D2*
X3460956D1*
X3602849D2*
X3607308D1*
X3620360D2*
X3625304D1*
X3708642D2*
X3713364D1*
X3720190D2*
X3724835D1*
X2870717Y773451D2*
X2877673D1*
X2896404D2*
X2921739D1*
X2944593D2*
X2954477D1*
X2974018D2*
X2989200D1*
X2997717D2*
X3002681D1*
X3019719D2*
X3024679D1*
X3061309D2*
X3070810D1*
X3087115D2*
X3093625D1*
X3112717D2*
X3128685D1*
X3136856D2*
X3141754D1*
X3158721D2*
X3163703D1*
X3231388D2*
X3234472D1*
X3266920D2*
X3269977D1*
X3297685D2*
X3300697D1*
X3324486D2*
X3347509D1*
X3395232D2*
X3419611D1*
X3456912D2*
X3459829D1*
X3604412D2*
X3608545D1*
X3622200D2*
X3626544D1*
X3710552D2*
X3715088D1*
X3722354D2*
X3725861D1*
X2868678Y770451D2*
X2875706D1*
X2894581D2*
X2911419D1*
X2941282D2*
X2951168D1*
X2970813D2*
X2979701D1*
X2985689D2*
X2989919D1*
X2998710D2*
X3003665D1*
X3020721D2*
X3025696D1*
X3059072D2*
X3067339D1*
X3085515D2*
X3091789D1*
X3109191D2*
X3129210D1*
X3137786D2*
X3142723D1*
X3159679D2*
X3164614D1*
X3231568D2*
X3234611D1*
X3266205D2*
X3269382D1*
X3297582D2*
X3300700D1*
X3316802D2*
X3335555D1*
X3407751D2*
X3427636D1*
X3456785D2*
X3458757D1*
X3605927D2*
X3609610D1*
X3623843D2*
X3627609D1*
X3712176D2*
X3716357D1*
X3724086D2*
X3726355D1*
X2866707Y767451D2*
X2873717D1*
X2892622D2*
X2902940D1*
X2938641D2*
X2947582D1*
X2967629D2*
X2976701D1*
X2985584D2*
X2990696D1*
X2999613D2*
X3004691D1*
X3021679D2*
X3026612D1*
X3057200D2*
X3064423D1*
X3083965D2*
X3090091D1*
X3105912D2*
X3118290D1*
X3126237D2*
X3129490D1*
X3138793D2*
X3143609D1*
X3160696D2*
X3165296D1*
X3231539D2*
X3234656D1*
X3265130D2*
X3268563D1*
X3297201D2*
X3300701D1*
X3309701D2*
X3325848D1*
X3417482D2*
X3434353D1*
X3456732D2*
X3457933D1*
X3607328D2*
X3610670D1*
X3625296D2*
X3628670D1*
X3713491D2*
X3717196D1*
X3725353D2*
X3726568D1*
X2864717Y764451D2*
X2871678D1*
X2890686D2*
X2895701D1*
X2936679D2*
X2944093D1*
X2964218D2*
X2973689D1*
X2985199D2*
X2991265D1*
X3000235D2*
X3005598D1*
X3022696D2*
X3027296D1*
X3055445D2*
X3062019D1*
X3082353D2*
X3088405D1*
X3102773D2*
X3113536D1*
X3125493D2*
X3129622D1*
X3140119D2*
X3144182D1*
X3161612D2*
X3165978D1*
X3231174D2*
X3234572D1*
X3263826D2*
X3267667D1*
X3296482D2*
X3317792D1*
X3425326D2*
X3440115D1*
X3456712D2*
X3457482D1*
X3608439D2*
X3611591D1*
X3626428D2*
X3629591D1*
X3714589D2*
X3717940D1*
X3726141D2*
X3726655D1*
X2862678Y761451D2*
X2869707D1*
X2888709D2*
X2906408D1*
X2936659D2*
X2940701D1*
X2960488D2*
X2970584D1*
X2984455D2*
X2991701D1*
X3000701D2*
X3006180D1*
X3023612D2*
X3027977D1*
X3053595D2*
X3059838D1*
X3080561D2*
X3086581D1*
X3099615D2*
X3109531D1*
X3124709D2*
X3129701D1*
X3141701D2*
X3144479D1*
X3162296D2*
X3166842D1*
X3230360D2*
X3234197D1*
X3262403D2*
X3266573D1*
X3295705D2*
X3311139D1*
X3432046D2*
X3445441D1*
X3456704D2*
X3458082D1*
X3609102D2*
X3612163D1*
X3627098D2*
X3630175D1*
X3715663D2*
X3718818D1*
X3726701D2*
D3*
X2860707Y758451D2*
X2867717D1*
X2886687D2*
X2913466D1*
X2936886D2*
X2943701D1*
X2956715D2*
X2967201D1*
X2983562D2*
X3006496D1*
X3024296D2*
X3028842D1*
X3051627D2*
X3057734D1*
X3078627D2*
X3084624D1*
X3096210D2*
X3106032D1*
X3124138D2*
X3144619D1*
X3162977D2*
X3167772D1*
X3229201D2*
X3233470D1*
X3260924D2*
X3265285D1*
X3295137D2*
X3305634D1*
X3437989D2*
X3450701D1*
X3456701D2*
X3458773D1*
X3609336D2*
X3612359D1*
X3627335D2*
X3630465D1*
X3716576D2*
X3719651D1*
X2858717Y755451D2*
X2865678D1*
X2884812D2*
X2892701D1*
X2913701D2*
X2918347D1*
X2936975D2*
X2942305D1*
X2953189D2*
X2963483D1*
X2982701D2*
X3006701D1*
X3024977D2*
X3029772D1*
X3049688D2*
X3055829D1*
X3076789D2*
X3082703D1*
X3092459D2*
X3102716D1*
X3123701D2*
X3144701D1*
X3163842D2*
X3168699D1*
X3227843D2*
X3232584D1*
X3259327D2*
X3263875D1*
X3294701D2*
X3300701D1*
X3443285D2*
X3459366D1*
X3609104D2*
X3612113D1*
X3627104D2*
X3630495D1*
X3717057D2*
X3720186D1*
X2856678Y752451D2*
X2863696D1*
X2883101D2*
X2889701D1*
X2913701D2*
X2917578D1*
X2935733D2*
X2941378D1*
X2949894D2*
X2959714D1*
X3025842D2*
X3030699D1*
X3047710D2*
X3054105D1*
X3075091D2*
X3080750D1*
X3088564D2*
X3099250D1*
X3164772D2*
X3169715D1*
X3226296D2*
X3231562D1*
X3257439D2*
X3262308D1*
X3448091D2*
X3460090D1*
X3608435D2*
X3611450D1*
X3626435D2*
X3630168D1*
X3716977D2*
X3720368D1*
X2854707Y749451D2*
X2861608D1*
X2881426D2*
X2913078D1*
X2933565D2*
X2940701D1*
X2946701D2*
X2956190D1*
X3026772D2*
X3031703D1*
X3045687D2*
X3052410D1*
X3073405D2*
X3078701D1*
X3084701D2*
X3095500D1*
X3165699D2*
X3170720D1*
X3224428D2*
X3230066D1*
X3255114D2*
X3260432D1*
X3452514D2*
X3461241D1*
X3607572D2*
X3610690D1*
X3625572D2*
X3629459D1*
X3716382D2*
X3720116D1*
X2852740Y746451D2*
X2859234D1*
X2879635D2*
X2899805D1*
X2930157D2*
X2952912D1*
X2967701D2*
X3006701D1*
X3027701D2*
X3032603D1*
X3043821D2*
X3050583D1*
X3071581D2*
X3091719D1*
X3105701D2*
X3147701D1*
X3166704D2*
X3171679D1*
X3222098D2*
X3227951D1*
X3252442D2*
X3258111D1*
X3456701D2*
X3462701D1*
X3606569D2*
X3610057D1*
X3624558D2*
X3628581D1*
X3715563D2*
X3719439D1*
X2850932Y743451D2*
X2856701D1*
X2877701D2*
X2883701D1*
X2925338D2*
X2949785D1*
X2964701D2*
X3008097D1*
X3028732D2*
X3033182D1*
X3042197D2*
X3048634D1*
X3069634D2*
X3088190D1*
X3102701D2*
X3148252D1*
X3167611D2*
X3172696D1*
X3219323D2*
X3225388D1*
X3249475D2*
X3255453D1*
X3605181D2*
X3609294D1*
X3623064D2*
X3627572D1*
X3714667D2*
X3718585D1*
X2849504Y740451D2*
X2889701D1*
X2919701D2*
X2946730D1*
X2961701D2*
X3009024D1*
X3029760D2*
X3033497D1*
X3040849D2*
X3046792D1*
X3067792D2*
X3084895D1*
X3099701D2*
X3149305D1*
X3168235D2*
X3173600D1*
X3215975D2*
X3222579D1*
X3246037D2*
X3252592D1*
X3312701D2*
X3315701D1*
X3603439D2*
X3608055D1*
X3620951D2*
X3626182D1*
X3713561D2*
X3717675D1*
X3726701D2*
D3*
X2849888Y737451D2*
X2943701D1*
X2958701D2*
X2967701D1*
X3006449D2*
X3009701D1*
X3030701D2*
X3033701D1*
X3039701D2*
X3045092D1*
X3066092D2*
X3081701D1*
X3096701D2*
X3105595D1*
X3145167D2*
X3150701D1*
X3168701D2*
X3174178D1*
X3211807D2*
X3219644D1*
X3241842D2*
X3249548D1*
X3261701D2*
X3264701D1*
X3312701D2*
X3318701D1*
X3435701D2*
X3447701D1*
X3601489D2*
X3606398D1*
X3618388D2*
X3624451D1*
X3712168D2*
X3716576D1*
X3725549D2*
X3726701D1*
X2850701Y734451D2*
X2877701D1*
X2883701D2*
X2964701D1*
X3005880D2*
X3043382D1*
X3064394D2*
X3101646D1*
X3145936D2*
X3174478D1*
X3206726D2*
X3216544D1*
X3236851D2*
X3246165D1*
X3261701D2*
X3265753D1*
X3297701D2*
X3300701D1*
X3312701D2*
X3317248D1*
X3429408D2*
X3447701D1*
X3599055D2*
X3604586D1*
X3615568D2*
X3622594D1*
X3710375D2*
X3715295D1*
X3724155D2*
X3726701D1*
X2928701Y731451D2*
X2961701D1*
X3003139D2*
X3041338D1*
X3062464D2*
X3095205D1*
X3146836D2*
X3174619D1*
X3200724D2*
X3212950D1*
X3231226D2*
X3242232D1*
X3261689D2*
X3266773D1*
X3298726D2*
X3302086D1*
X3312701D2*
X3319213D1*
X3354701D2*
X3357701D1*
X3405701D2*
X3408701D1*
X3424586D2*
X3435701D1*
X3474701D2*
D3*
X3480701D2*
X3483701D1*
X3489701D2*
X3495701D1*
X3595796D2*
X3602559D1*
X3612530D2*
X3620449D1*
X3708078D2*
X3713974D1*
X3722376D2*
X3726111D1*
X2928701Y728451D2*
X2958701D1*
X2999221D2*
X3038536D1*
X3060123D2*
X3085739D1*
X3147701D2*
X3174701D1*
X3193697D2*
X3208351D1*
X3224940D2*
X3237572D1*
X3261584D2*
X3267701D1*
X3285701D2*
X3291701D1*
X3299619D2*
X3302947D1*
X3312689D2*
X3321701D1*
X3327701D2*
X3342701D1*
X3351701D2*
X3356295D1*
X3366701D2*
X3369701D1*
X3375701D2*
D3*
X3384701D2*
X3387701D1*
X3393701D2*
D3*
X3404202D2*
X3408724D1*
X3420701D2*
X3426701D1*
X3432689D2*
X3435587D1*
X3444701D2*
X3453701D1*
X3459701D2*
X3468701D1*
X3474701D2*
D3*
X3480701D2*
X3484252D1*
X3491791D2*
X3505070D1*
X3591607D2*
X3600166D1*
X3609095D2*
X3617655D1*
X3705304D2*
X3712766D1*
X3720148D2*
X3724866D1*
X2850701Y725451D2*
X3034861D1*
X3057433D2*
X3075816D1*
X3185560D2*
X3202624D1*
X3217817D2*
X3231997D1*
X3261201D2*
X3288734D1*
X3300188D2*
X3303383D1*
X3312584D2*
X3354701D1*
X3360701D2*
X3378701D1*
X3384701D2*
X3393701D1*
X3402953D2*
X3408935D1*
X3432584D2*
X3435202D1*
X3442852D2*
X3468701D1*
X3474701D2*
D3*
X3480701D2*
X3485305D1*
X3494791D2*
X3515467D1*
X3586084D2*
X3597492D1*
X3605080D2*
X3614127D1*
X3701879D2*
X3711701D1*
X3717701D2*
X3722847D1*
X2850701Y722451D2*
X3030701D1*
X3054353D2*
X3068107D1*
X3176083D2*
X3196245D1*
X3209931D2*
X3225451D1*
X3260471D2*
X3285566D1*
X3300494D2*
X3303577D1*
X3312199D2*
X3330701D1*
X3339701D2*
X3342701D1*
X3348701D2*
X3378701D1*
X3384701D2*
X3393701D1*
X3401772D2*
X3409427D1*
X3432201D2*
X3434482D1*
X3441246D2*
X3460252D1*
X3465149D2*
X3486701D1*
X3498643D2*
X3527546D1*
X3578879D2*
X3594701D1*
X3600701D2*
X3609984D1*
X3697568D2*
X3720106D1*
X2850701Y719451D2*
X2931701D1*
X3050486D2*
X3062592D1*
X3164881D2*
X3189701D1*
X3201701D2*
X3217943D1*
X3259585D2*
X3268164D1*
X3276824D2*
X3282753D1*
X3300731D2*
X3303655D1*
X3311455D2*
X3312701D1*
X3318701D2*
X3321701D1*
X3327713D2*
X3330701D1*
X3336701D2*
X3360701D1*
X3366701D2*
X3378701D1*
X3384701D2*
X3393701D1*
X3400678D2*
X3411070D1*
X3431494D2*
X3433706D1*
X3440025D2*
X3458305D1*
X3467097D2*
X3485316D1*
X3503322D2*
X3540701D1*
X3570701D2*
X3588701D1*
X3594701D2*
X3605170D1*
X3692791D2*
X3716389D1*
X2882316Y716451D2*
X2964701D1*
X3045458D2*
X3058332D1*
X3152159D2*
X3180701D1*
X3189701D2*
X3209197D1*
X3258563D2*
X3268932D1*
X3277290D2*
X3281966D1*
X3301168D2*
X3303685D1*
X3310562D2*
X3312701D1*
X3318701D2*
X3321701D1*
X3327827D2*
X3339701D1*
X3345701D2*
X3360701D1*
X3366701D2*
X3393701D1*
X3399701D2*
X3412674D1*
X3430831D2*
X3433137D1*
X3439254D2*
X3444701D1*
X3450701D2*
X3456701D1*
X3468701D2*
X3474701D1*
X3480701D2*
X3484454D1*
X3509122D2*
X3599313D1*
X3688471D2*
X3711425D1*
X2914451Y713451D2*
X3003701D1*
X3039701D2*
X3054394D1*
X3139127D2*
X3168701D1*
X3174701D2*
X3198678D1*
X3257076D2*
X3261701D1*
X3267701D2*
X3269937D1*
X3278316D2*
X3282289D1*
X3301908D2*
X3303701D1*
X3309701D2*
X3312235D1*
X3318701D2*
X3321701D1*
X3328290D2*
X3413824D1*
X3430692D2*
X3432701D1*
X3438701D2*
X3441701D1*
X3447701D2*
X3484017D1*
X3516401D2*
X3592013D1*
X3684701D2*
X3705701D1*
X2946993Y710451D2*
X3050182D1*
X3127623D2*
X3185742D1*
X3255026D2*
X3271392D1*
X3279701D2*
X3282701D1*
X3302692D2*
X3311466D1*
X3329316D2*
X3345701D1*
X3351701D2*
X3363701D1*
X3372701D2*
X3387701D1*
X3396701D2*
X3399701D1*
X3408701D2*
X3414701D1*
X3431157D2*
X3450701D1*
X3459701D2*
X3465701D1*
X3474701D2*
X3477701D1*
X3483701D2*
X3483817D1*
X3525169D2*
X3583236D1*
X2979701Y707451D2*
X3045701D1*
X3118821D2*
X3170360D1*
X3252701D2*
X3273738D1*
X3303264D2*
X3310565D1*
X3330701D2*
D3*
X3360701D2*
X3363701D1*
X3372701D2*
X3375701D1*
X3381701D2*
X3387701D1*
X3396701D2*
D3*
X3431917D2*
X3435701D1*
X3441701D2*
X3447701D1*
X3483701D2*
D3*
X3534701D2*
X3573701D1*
X3111701Y704451D2*
X3153701D1*
X3255701D2*
X3258701D1*
X3270701D2*
X3276701D1*
X3303701D2*
X3309701D1*
X3372701D2*
D3*
X3432701D2*
D3*
X3222701Y959451D2*
X3218561Y956451D1*
X3214284Y953451D1*
X3209996Y950451D1*
X3205921Y947451D1*
X3202160Y944451D1*
X3198445Y941451D1*
X3194578Y938451D1*
X3190749Y935451D1*
X3187203Y932451D1*
X3183916Y929451D1*
X3180786Y926451D1*
X3177733Y923451D1*
X3174712Y920451D1*
X3171705Y917451D1*
X3168702Y914451D1*
X3165701Y911451D1*
X3162701Y908451D1*
X3159701Y905451D1*
X3156701Y902451D1*
X3153713Y899451D1*
X3150818Y896451D1*
X3148200Y893451D1*
X3145919Y890451D1*
X3143688Y887451D1*
X3141211Y884451D1*
X3138489Y881451D1*
X3135617Y878451D1*
X3132669Y875451D1*
X3129701Y872451D1*
X3126814Y869451D1*
X3124199Y866451D1*
X3121918Y863451D1*
X3119700Y860451D1*
X3117337Y857451D1*
X3115080Y854451D1*
X3113238Y851451D1*
X3111701Y848451D1*
X3309701Y959451D2*
X3333895Y956451D1*
X3356148Y953451D1*
X3376094Y950451D1*
X3394044Y947451D1*
X3410533Y944451D1*
X3425974Y941451D1*
X3440155Y938451D1*
X3452435Y935451D1*
X3462665Y932451D1*
X3471390Y929451D1*
X3479065Y926451D1*
X3485864Y923451D1*
X3491907Y920451D1*
X3497358Y917451D1*
X3502555Y914451D1*
X3507665Y911451D1*
X3512572Y908451D1*
X3517285Y905451D1*
X3521874Y902451D1*
X3526319Y899451D1*
X3530549Y896451D1*
X3534611Y893451D1*
X3538682Y890451D1*
X3542708Y887451D1*
X3546675Y884451D1*
X3550706Y881451D1*
X3554717Y878451D1*
X3558678Y875451D1*
X3562696Y872451D1*
X3566600Y869451D1*
X3570190Y866451D1*
X3573595Y863451D1*
X3577112Y860451D1*
X3580886Y857451D1*
X3584676Y854451D1*
X3588207Y851451D1*
X3591500Y848451D1*
X3594733Y845451D1*
X3598169Y842451D1*
X3601908Y839451D1*
X3605684Y836451D1*
X3609210Y833451D1*
X3612501Y830451D1*
X3615734Y827451D1*
X3619169Y824451D1*
X3622908Y821451D1*
X3626684Y818451D1*
X3630210Y815451D1*
X3633501Y812451D1*
X3636734Y809451D1*
X3640157Y806451D1*
X3643779Y803451D1*
X3647057Y800451D1*
X3649742Y797451D1*
X3650845Y794451D1*
X3651701Y791451D1*
X3237701Y959451D2*
X3231815Y956451D1*
X3226211Y953451D1*
X3221036Y950451D1*
X3216199Y947451D1*
X3211558Y944451D1*
X3207104Y941451D1*
X3202965Y938451D1*
X3199231Y935451D1*
X3195701Y932451D1*
X3267701Y959451D2*
X3270701Y956451D1*
X3279701D2*
X3305962Y953451D1*
X3330980Y950451D1*
X3353779Y947451D1*
X3373948Y944451D1*
X3392045Y941451D1*
X3408909Y938451D1*
X3424600Y935451D1*
X3438605Y932451D1*
X3450639Y929451D1*
X3460796Y926451D1*
X3469341Y923451D1*
X3476673Y920451D1*
X3483287Y917451D1*
X3489532Y914451D1*
X3495527Y911451D1*
X3501170Y908451D1*
X3506359Y905451D1*
X3511200Y902451D1*
X3515854Y899451D1*
X3520414Y896451D1*
X3524939Y893451D1*
X3529445Y890451D1*
X3533939Y887451D1*
X3538332Y884451D1*
X3542452Y881451D1*
X3546232Y878451D1*
X3549953Y875451D1*
X3553823Y872451D1*
X3557660Y869451D1*
X3561253Y866451D1*
X3564701Y863451D1*
X3231701Y950451D2*
X3225815Y947451D1*
X3220211Y944451D1*
X3215045Y941451D1*
X3210286Y938451D1*
X3205880Y935451D1*
X3201701Y932451D1*
X3234701Y950451D2*
X3236202Y947451D1*
X3237944Y944451D1*
X3239683Y941451D1*
X3241327Y938451D1*
X3242892Y935451D1*
X3244343Y932451D1*
X3245605Y929451D1*
X3246701Y926451D1*
Y950451D2*
X3246815Y947451D1*
X3247200Y944451D1*
X3247930Y941451D1*
X3248805Y938451D1*
X3249713Y935451D1*
X3250736Y932451D1*
X3251761Y929451D1*
X3252701Y926451D1*
X3285701Y950451D2*
X3310844Y947451D1*
X3334311Y944451D1*
X3356120Y941451D1*
X3376458Y938451D1*
X3395460Y935451D1*
X3412922Y932451D1*
X3428230Y929451D1*
X3441121Y926451D1*
X3452020Y923451D1*
X3461339Y920451D1*
X3469123Y917451D1*
X3475566Y914451D1*
X3481341Y911451D1*
X3487036Y908451D1*
X3492743Y905451D1*
X3498267Y902451D1*
X3503496Y899451D1*
X3508606Y896451D1*
X3513682Y893451D1*
X3518578Y890451D1*
X3523287Y887451D1*
X3527887Y884451D1*
X3532425Y881451D1*
X3536943Y878451D1*
X3541447Y875451D1*
X3545942Y872451D1*
X3550362Y869451D1*
X3554612Y866451D1*
X3558701Y863451D1*
X3168701Y947451D2*
Y944451D1*
X3177701Y947451D2*
X3177111Y944451D1*
X3175877Y941451D1*
X3173996Y938451D1*
X3171948Y935451D1*
X3170192Y932451D1*
X3168701Y929451D1*
X3060701Y944451D2*
Y941451D1*
X3246701Y947451D2*
X3249111Y944451D1*
X3250877Y941451D1*
X3251988Y938451D1*
X3252857Y935451D1*
X3253798Y932451D1*
X3254757Y929451D1*
X3255694Y926451D1*
X3256713Y923451D1*
X3257719Y920451D1*
X3258690Y917451D1*
X3259813Y914451D1*
X3261099Y911451D1*
X3262408Y908451D1*
X3263582Y905451D1*
X3264634Y902451D1*
X3265792Y899451D1*
X3267103Y896451D1*
X3268511Y893451D1*
X3269975Y890451D1*
X3271458Y887451D1*
X3272955Y884451D1*
X3274462Y881451D1*
X3276058Y878451D1*
X3277844Y875451D1*
X3279776Y872451D1*
X3281613Y869451D1*
X3283311Y866451D1*
X3285008Y863451D1*
X3286926Y860451D1*
X3289162Y857451D1*
X3291446Y854451D1*
X3293579Y851451D1*
X3295737Y848451D1*
X3298086Y845451D1*
X3300417Y842451D1*
X3302568Y839451D1*
X3304734Y836451D1*
X3307076Y833451D1*
X3309326Y830451D1*
X3311165Y827451D1*
X3312701Y824451D1*
X3252701Y947451D2*
X3280932Y944451D1*
X3307196Y941451D1*
X3331198Y938451D1*
X3353531Y935451D1*
X3374534Y932451D1*
X3393952Y929451D1*
X3411330Y926451D1*
X3426519Y923451D1*
X3439627Y920451D1*
X3450699Y917451D1*
X3459822Y914451D1*
X3467452Y911451D1*
X3474199Y908451D1*
X3480500Y905451D1*
X3486515Y902451D1*
X3492178Y899451D1*
X3497463Y896451D1*
X3502594Y893451D1*
X3507678Y890451D1*
X3512577Y887451D1*
X3517286Y884451D1*
X3521887Y881451D1*
X3526425Y878451D1*
X3530943Y875451D1*
X3535447Y872451D1*
X3539951Y869451D1*
X3544449Y866451D1*
X3548952Y863451D1*
X3553450Y860451D1*
X3557952Y857451D1*
X3562450Y854451D1*
X3566940Y851451D1*
X3571344Y848451D1*
X3575558Y845451D1*
X3579626Y842451D1*
X3583789Y839451D1*
X3588091Y836451D1*
X3592393Y833451D1*
X3596476Y830451D1*
X3600240Y827451D1*
X3603956Y824451D1*
X3607835Y821451D1*
X3611770Y818451D1*
X3615698Y815451D1*
X3619715Y812451D1*
X3623720Y809451D1*
X3627690Y806451D1*
X3631813Y803451D1*
X3636102Y800451D1*
X3640426Y797451D1*
X3644635Y794451D1*
X3648701Y791451D1*
X2958701Y941451D2*
Y938451D1*
X3231701Y944451D2*
X3226176Y941451D1*
X3221025Y938451D1*
X3216196Y935451D1*
X3211546Y932451D1*
X3206988Y929451D1*
X3202474Y926451D1*
X3198062Y923451D1*
X3193845Y920451D1*
X3189788Y917451D1*
X3185730Y914451D1*
X3181810Y911451D1*
X3178226Y908451D1*
X3174925Y905451D1*
X3171789Y902451D1*
X3168734Y899451D1*
X3165713Y896451D1*
X3162717Y893451D1*
X3159819Y890451D1*
X3157212Y887451D1*
X3155036Y884451D1*
X3153199Y881451D1*
X3151558Y878451D1*
X3150105Y875451D1*
X3148985Y872451D1*
X3148409Y869451D1*
X3148461Y866451D1*
X3149145Y863451D1*
X3150341Y860451D1*
X3151944Y857451D1*
X3153735Y854451D1*
X3155326Y851451D1*
X3156701Y848451D1*
X3231701Y944451D2*
X3234225Y941451D1*
X3236376Y938451D1*
X3238205Y935451D1*
X3239856Y932451D1*
X3241414Y929451D1*
X3242939Y926451D1*
X3244445Y923451D1*
X3245939Y920451D1*
X3247344Y917451D1*
X3248558Y914451D1*
X3249614Y911451D1*
X3250672Y908451D1*
X3251603Y905451D1*
X3252293Y902451D1*
X3252976Y899451D1*
X3253830Y896451D1*
X3254667Y893451D1*
X3255317Y890451D1*
X3255985Y887451D1*
X3256845Y884451D1*
X3257773Y881451D1*
X3258711Y878451D1*
X3259821Y875451D1*
X3261114Y872451D1*
X3262514Y869451D1*
X3263976Y866451D1*
X3265458Y863451D1*
X3266955Y860451D1*
X3268462Y857451D1*
X3270070Y854451D1*
X3271961Y851451D1*
X3274287Y848451D1*
X3276948Y845451D1*
X3279809Y842451D1*
X3282866Y839451D1*
X3286342Y836451D1*
X3290551Y833451D1*
X3295533Y830451D1*
X3301019Y827451D1*
X3306701Y824451D1*
X2850701Y938451D2*
Y935451D1*
X3078701Y941451D2*
X3075701Y938451D1*
X3171701Y941451D2*
X3168701Y938451D1*
X3165701Y935451D1*
X3162701Y932451D1*
X2796701Y935451D2*
Y932451D1*
X3003701Y938451D2*
Y935451D1*
Y932451D1*
X2949701D2*
X2952701Y929451D1*
X3186701Y926451D2*
X3183701Y923451D1*
X3186701Y926451D2*
X3189701Y923451D1*
X3252701Y920451D2*
X3249701Y917451D1*
X3252701Y920451D2*
X3255701Y917451D1*
Y914451D2*
X3252701Y911451D1*
X3258701D2*
X3255701Y905451D2*
X3256164Y902451D1*
X3256908Y899451D1*
X3257697Y896451D1*
X3258328Y893451D1*
X3258989Y890451D1*
X3259846Y887451D1*
X3260774Y884451D1*
X3261711Y881451D1*
X3262821Y878451D1*
X3264114Y875451D1*
X3265514Y872451D1*
X3266976Y869451D1*
X3268470Y866451D1*
X3270060Y863451D1*
X3271845Y860451D1*
X3273788Y857451D1*
X3275730Y854451D1*
X3277822Y851451D1*
X3280352Y848451D1*
X3283514Y845451D1*
X3287398Y842451D1*
X3291701Y839451D1*
X3261701Y905451D2*
X3262164Y902451D1*
X3262920Y899451D1*
X3263802Y896451D1*
X3264722Y893451D1*
X3265824Y890451D1*
X3267115Y887451D1*
X3268515Y884451D1*
X3269977Y881451D1*
X3271470Y878451D1*
X3273061Y875451D1*
X3274845Y872451D1*
X3276776Y869451D1*
X3278613Y866451D1*
X3280311Y863451D1*
X3281996Y860451D1*
X3283820Y857451D1*
X3285779Y854451D1*
X3287727Y851451D1*
X3289809Y848451D1*
X3292224Y845451D1*
X3294906Y842451D1*
X3297701Y839451D1*
X3078701Y896451D2*
Y893451D1*
X3126701Y896451D2*
X3126111Y893451D1*
X3124866Y890451D1*
X3122870Y887451D1*
X3120359Y884451D1*
X3117577Y881451D1*
X3114701Y878451D1*
X2994701Y893451D2*
Y890451D1*
X2913701D2*
Y887451D1*
X3090701Y893451D2*
X3087701Y890451D1*
X3117701Y893451D2*
Y890451D1*
Y887451D1*
Y884451D1*
X2826701Y887451D2*
X2825107Y884451D1*
X2823701Y881451D1*
X3006701Y890451D2*
Y887451D1*
Y884451D1*
X3096701Y881451D2*
X3099701Y878451D1*
X3144701Y881451D2*
X3141701Y878451D1*
X3138713Y875451D1*
X3135818Y872451D1*
X3133200Y869451D1*
X3130919Y866451D1*
X3128688Y863451D1*
X3126214Y860451D1*
X3123507Y857451D1*
X3120701Y854451D1*
X3150701Y881451D2*
X3148290Y878451D1*
X3146536Y875451D1*
X3145531Y872451D1*
X3145056Y869451D1*
X3144950Y866451D1*
X3145251Y863451D1*
X3145963Y860451D1*
X3146845Y857451D1*
X3147701Y854451D1*
X3570701Y860451D2*
X3567701Y857451D1*
X3570701Y860451D2*
X3573701Y857451D1*
X2841701Y845451D2*
Y842451D1*
Y839451D1*
X2856701Y845451D2*
Y842451D1*
X3162701D2*
X3178256Y839451D1*
X3191974Y836451D1*
X3203360Y833451D1*
X3212784Y830451D1*
X3220810Y827451D1*
X3227764Y824451D1*
X3233859Y821451D1*
X3239228Y818451D1*
X3244040Y815451D1*
X3248316Y812451D1*
X3251956Y809451D1*
X3254940Y806451D1*
X3257369Y803451D1*
X3259559Y800451D1*
X3261666Y797451D1*
X3263561Y794451D1*
X3265180Y791451D1*
X3266492Y788451D1*
X3267589Y785451D1*
X3268663Y782451D1*
X3269576Y779451D1*
X3270057Y776451D1*
X3269977Y773451D1*
X3269382Y770451D1*
X3268563Y767451D1*
X3267667Y764451D1*
X3266573Y761451D1*
X3265285Y758451D1*
X3263875Y755451D1*
X3262308Y752451D1*
X3260432Y749451D1*
X3258111Y746451D1*
X3255453Y743451D1*
X3252592Y740451D1*
X3249548Y737451D1*
X3246165Y734451D1*
X3242232Y731451D1*
X3237572Y728451D1*
X3231997Y725451D1*
X3225451Y722451D1*
X3217943Y719451D1*
X3209197Y716451D1*
X3198678Y713451D1*
X3185742Y710451D1*
X3170360Y707451D1*
X3153701Y704451D1*
X2895701Y839451D2*
X2898701Y836451D1*
X2994701Y839451D2*
Y836451D1*
Y833451D1*
X3138701Y839451D2*
X3158270Y836451D1*
X3175775Y833451D1*
X3190336Y830451D1*
X3202218Y827451D1*
X3212119Y824451D1*
X3220480Y821451D1*
X3227607Y818451D1*
X3233683Y815451D1*
X3238706Y812451D1*
X3242814Y809451D1*
X3246338Y806451D1*
X3249562Y803451D1*
X3252638Y800451D1*
X3255566Y797451D1*
X3258184Y794451D1*
X3260352Y791451D1*
X3262096Y788451D1*
X3263461Y785451D1*
X3264578Y782451D1*
X3265647Y779451D1*
X3266470Y776451D1*
X3266920Y773451D1*
X3266205Y770451D1*
X3265130Y767451D1*
X3263826Y764451D1*
X3262403Y761451D1*
X3260924Y758451D1*
X3259327Y755451D1*
X3257439Y752451D1*
X3255114Y749451D1*
X3252442Y746451D1*
X3249475Y743451D1*
X3246037Y740451D1*
X3241842Y737451D1*
X3236851Y734451D1*
X3231226Y731451D1*
X3224940Y728451D1*
X3217817Y725451D1*
X3209931Y722451D1*
X3201701Y719451D1*
X2940701Y836451D2*
X2943701Y833451D1*
X3039701D2*
Y830451D1*
X2985701Y833451D2*
X2988701Y830451D1*
X3084701D2*
Y827451D1*
X3030701Y830451D2*
X3033701Y827451D1*
X3150701D2*
X3165790Y824451D1*
X3178269Y821451D1*
X3188293Y818451D1*
X3196500Y815451D1*
X3203180Y812451D1*
X3208497Y809451D1*
X3212732Y806451D1*
X3216308Y803451D1*
X3219551Y800451D1*
X3222635Y797451D1*
X3225553Y794451D1*
X3228078Y791451D1*
X3229969Y788451D1*
X3231366Y785451D1*
X3232575Y782451D1*
X3233555Y779451D1*
X3234163Y776451D1*
X3234472Y773451D1*
X3234611Y770451D1*
X3234656Y767451D1*
X3234572Y764451D1*
X3234197Y761451D1*
X3233470Y758451D1*
X3232584Y755451D1*
X3231562Y752451D1*
X3230066Y749451D1*
X3227951Y746451D1*
X3225388Y743451D1*
X3222579Y740451D1*
X3219644Y737451D1*
X3216544Y734451D1*
X3212950Y731451D1*
X3208351Y728451D1*
X3202624Y725451D1*
X3196245Y722451D1*
X3189701Y719451D1*
X3075701Y827451D2*
X3078701Y824451D1*
X3120701D2*
X3142205Y821451D1*
X3160604Y818451D1*
X3174905Y815451D1*
X3185648Y812451D1*
X3193982Y809451D1*
X3200901Y806451D1*
X3206823Y803451D1*
X3211766Y800451D1*
X3215825Y797451D1*
X3219229Y794451D1*
X3222065Y791451D1*
X3224421Y788451D1*
X3226567Y785451D1*
X3228556Y782451D1*
X3230064Y779451D1*
X3230951Y776451D1*
X3231388Y773451D1*
X3231568Y770451D1*
X3231539Y767451D1*
X3231174Y764451D1*
X3230360Y761451D1*
X3229201Y758451D1*
X3227843Y755451D1*
X3226296Y752451D1*
X3224428Y749451D1*
X3222098Y746451D1*
X3219323Y743451D1*
X3215975Y740451D1*
X3211807Y737451D1*
X3206726Y734451D1*
X3200724Y731451D1*
X3193697Y728451D1*
X3185560Y725451D1*
X3176083Y722451D1*
X3164881Y719451D1*
X3152159Y716451D1*
X3139127Y713451D1*
X3127623Y710451D1*
X3118821Y707451D1*
X3111701Y704451D1*
X3282701Y818451D2*
X3283852Y815451D1*
X3285235Y812451D1*
X3286917Y809451D1*
X3288804Y806451D1*
X3290623Y803451D1*
X3292303Y800451D1*
X3293881Y797451D1*
X3295310Y794451D1*
X3296433Y791451D1*
X3297112Y788451D1*
X3297453Y785451D1*
X3297604Y782451D1*
X3297665Y779451D1*
X3297688Y776451D1*
X3297685Y773451D1*
X3297582Y770451D1*
X3297201Y767451D1*
X3296482Y764451D1*
X3295705Y761451D1*
X3295137Y758451D1*
X3294701Y755451D1*
X3285701Y818451D2*
X3293675Y815451D1*
X3301782Y812451D1*
X3310225Y809451D1*
X3319072Y806451D1*
X3328709Y803451D1*
X3340223Y800451D1*
X3355121Y797451D1*
X3374214Y794451D1*
X3396722Y791451D1*
X3420701Y788451D1*
X3543701Y815451D2*
Y812451D1*
Y809451D1*
X3556266Y806451D1*
X3566593Y803451D1*
X3574789Y800451D1*
X3581357Y797451D1*
X3586584Y794451D1*
X3590758Y791451D1*
X3594206Y788451D1*
X3597046Y785451D1*
X3599313Y782451D1*
X3601184Y779451D1*
X3602849Y776451D1*
X3604412Y773451D1*
X3605927Y770451D1*
X3607328Y767451D1*
X3608439Y764451D1*
X3609102Y761451D1*
X3609336Y758451D1*
X3609104Y755451D1*
X3608435Y752451D1*
X3607572Y749451D1*
X3606569Y746451D1*
X3605181Y743451D1*
X3603439Y740451D1*
X3601489Y737451D1*
X3599055Y734451D1*
X3595796Y731451D1*
X3591607Y728451D1*
X3586084Y725451D1*
X3578879Y722451D1*
X3570701Y719451D1*
X3555701Y815451D2*
X3569291Y812451D1*
X3580512Y809451D1*
X3589288Y806451D1*
X3596255Y803451D1*
X3601997Y800451D1*
X3606956Y797451D1*
X3611287Y794451D1*
X3614946Y791451D1*
X3617925Y788451D1*
X3620263Y785451D1*
X3622165Y782451D1*
X3623830Y779451D1*
X3625304Y776451D1*
X3626544Y773451D1*
X3627609Y770451D1*
X3628670Y767451D1*
X3629591Y764451D1*
X3630175Y761451D1*
X3630465Y758451D1*
X3630495Y755451D1*
X3630168Y752451D1*
X3629459Y749451D1*
X3628581Y746451D1*
X3627572Y743451D1*
X3626182Y740451D1*
X3624451Y737451D1*
X3622594Y734451D1*
X3620449Y731451D1*
X3617655Y728451D1*
X3614127Y725451D1*
X3609984Y722451D1*
X3605170Y719451D1*
X3599313Y716451D1*
X3592013Y713451D1*
X3583236Y710451D1*
X3573701Y707451D1*
X3012701Y806451D2*
X3009237Y803451D1*
X3005505Y800451D1*
X3001846Y797451D1*
X2998820Y794451D1*
X2996416Y791451D1*
X2995545Y788451D1*
X2995172Y785451D1*
X2995339Y782451D1*
X2995982Y779451D1*
X2996823Y776451D1*
X2997717Y773451D1*
X2998710Y770451D1*
X2999613Y767451D1*
X3000235Y764451D1*
X3000701Y761451D1*
X3015701Y806451D2*
X3016164Y803451D1*
X3016908Y800451D1*
X3017697Y797451D1*
X3018328Y794451D1*
X3018989Y791451D1*
X3019846Y788451D1*
X3020774Y785451D1*
X3021699Y782451D1*
X3022715Y779451D1*
X3023720Y776451D1*
X3024679Y773451D1*
X3025696Y770451D1*
X3026612Y767451D1*
X3027296Y764451D1*
X3027977Y761451D1*
X3028842Y758451D1*
X3029772Y755451D1*
X3030699Y752451D1*
X3031703Y749451D1*
X3032603Y746451D1*
X3033182Y743451D1*
X3033497Y740451D1*
X3033701Y737451D1*
X3150701Y806451D2*
X3147689Y803451D1*
X3144595Y800451D1*
X3141330Y797451D1*
X3138123Y794451D1*
X3135248Y791451D1*
X3134090Y788451D1*
X3134366Y785451D1*
X3134889Y782451D1*
X3135402Y779451D1*
X3136016Y776451D1*
X3136856Y773451D1*
X3137786Y770451D1*
X3138793Y767451D1*
X3140119Y764451D1*
X3141701Y761451D1*
X3153701Y806451D2*
X3154738Y803451D1*
X3155736Y800451D1*
X3156687Y797451D1*
X3157700Y794451D1*
X3158613Y791451D1*
X3159296Y788451D1*
X3159977Y785451D1*
X3160842Y782451D1*
X3161772Y779451D1*
X3162699Y776451D1*
X3163703Y773451D1*
X3164614Y770451D1*
X3165296Y767451D1*
X3165978Y764451D1*
X3166842Y761451D1*
X3167772Y758451D1*
X3168699Y755451D1*
X3169715Y752451D1*
X3170720Y749451D1*
X3171679Y746451D1*
X3172696Y743451D1*
X3173600Y740451D1*
X3174178Y737451D1*
X3174478Y734451D1*
X3174619Y731451D1*
X3174701Y728451D1*
X3294701Y809451D2*
X3295164Y806451D1*
X3295920Y803451D1*
X3296802Y800451D1*
X3297710Y797451D1*
X3298707Y794451D1*
X3299604Y791451D1*
X3300180Y788451D1*
X3300478Y785451D1*
X3300613Y782451D1*
X3300668Y779451D1*
X3300689Y776451D1*
X3300697Y773451D1*
X3300700Y770451D1*
X3300701Y767451D1*
X3294701Y809451D2*
X3301302Y806451D1*
X3308665Y803451D1*
X3317171Y800451D1*
X3327054Y797451D1*
X3338672Y794451D1*
X3352696Y791451D1*
X3369440Y788451D1*
X3387701Y785451D1*
X3099701Y803451D2*
X3096225Y800451D1*
X3092376Y797451D1*
X3088205Y794451D1*
X3083856Y791451D1*
X3079426Y788451D1*
X3075057Y785451D1*
X3070956Y782451D1*
X3067297Y779451D1*
X3064065Y776451D1*
X3061309Y773451D1*
X3059072Y770451D1*
X3057200Y767451D1*
X3055445Y764451D1*
X3053595Y761451D1*
X3051627Y758451D1*
X3049688Y755451D1*
X3047710Y752451D1*
X3045687Y749451D1*
X3043821Y746451D1*
X3042197Y743451D1*
X3040849Y740451D1*
X3039701Y737451D1*
X3105701Y803451D2*
X3105587Y800451D1*
X3105190Y797451D1*
X3104366Y794451D1*
X3103202Y791451D1*
X3101855Y788451D1*
X3100414Y785451D1*
X3098928Y782451D1*
X3097340Y779451D1*
X3095557Y776451D1*
X3093625Y773451D1*
X3091789Y770451D1*
X3090091Y767451D1*
X3088405Y764451D1*
X3086581Y761451D1*
X3084624Y758451D1*
X3082703Y755451D1*
X3080750Y752451D1*
X3078701Y749451D1*
X2889701Y800451D2*
X2887164Y797451D1*
X2884920Y794451D1*
X2882802Y791451D1*
X2880710Y788451D1*
X2878719Y785451D1*
X2876721Y782451D1*
X2874679Y779451D1*
X2872708Y776451D1*
X2870717Y773451D1*
X2868678Y770451D1*
X2866707Y767451D1*
X2864717Y764451D1*
X2862678Y761451D1*
X2860707Y758451D1*
X2858717Y755451D1*
X2856678Y752451D1*
X2854707Y749451D1*
X2852740Y746451D1*
X2850932Y743451D1*
X2849504Y740451D1*
X2849888Y737451D1*
X2850701Y734451D1*
X2955701Y800451D2*
X2957538Y797451D1*
X2959037Y794451D1*
X2960181Y791451D1*
X2959946Y788451D1*
X2959464Y785451D1*
X2958966Y782451D1*
X2958236Y779451D1*
X2957136Y776451D1*
X2954477Y773451D1*
X2951168Y770451D1*
X2947582Y767451D1*
X2944093Y764451D1*
X2940701Y761451D1*
X2943701Y758451D1*
X2942305Y755451D1*
X2941378Y752451D1*
X2940701Y749451D1*
X3687701Y800451D2*
X3688498Y797451D1*
X3691149Y794451D1*
X3694698Y791451D1*
X3698418Y788451D1*
X3701631Y785451D1*
X3704224Y782451D1*
X3706498Y779451D1*
X3708642Y776451D1*
X3710552Y773451D1*
X3712176Y770451D1*
X3713491Y767451D1*
X3714589Y764451D1*
X3715663Y761451D1*
X3716576Y758451D1*
X3717057Y755451D1*
X3716977Y752451D1*
X3716382Y749451D1*
X3715563Y746451D1*
X3714667Y743451D1*
X3713561Y740451D1*
X3712168Y737451D1*
X3710375Y734451D1*
X3708078Y731451D1*
X3705304Y728451D1*
X3701879Y725451D1*
X3697568Y722451D1*
X3692791Y719451D1*
X3688471Y716451D1*
X3684701Y713451D1*
X3690701Y800451D2*
X3697960Y797451D1*
X3704320Y794451D1*
X3709537Y791451D1*
X3713743Y788451D1*
X3717299Y785451D1*
X3720423Y782451D1*
X3723018Y779451D1*
X3724835Y776451D1*
X3725861Y773451D1*
X3726355Y770451D1*
X3726568Y767451D1*
X3726655Y764451D1*
X3726701Y761451D1*
X3588701Y800451D2*
X3591701Y797451D1*
X3594689Y794451D1*
X3597584Y791451D1*
X3600190Y788451D1*
X3602366Y785451D1*
X3604202Y782451D1*
X3605843Y779451D1*
X3607308Y776451D1*
X3608545Y773451D1*
X3609610Y770451D1*
X3610670Y767451D1*
X3611591Y764451D1*
X3612163Y761451D1*
X3612359Y758451D1*
X3612113Y755451D1*
X3611450Y752451D1*
X3610690Y749451D1*
X3610057Y746451D1*
X3609294Y743451D1*
X3608055Y740451D1*
X3606398Y737451D1*
X3604586Y734451D1*
X3602559Y731451D1*
X3600166Y728451D1*
X3597492Y725451D1*
X3594701Y722451D1*
X3591701Y800451D2*
X3597111Y797451D1*
X3601866Y794451D1*
X3605870Y791451D1*
X3609358Y788451D1*
X3612557Y785451D1*
X3615535Y782451D1*
X3618173Y779451D1*
X3620360Y776451D1*
X3622200Y773451D1*
X3623843Y770451D1*
X3625296Y767451D1*
X3626428Y764451D1*
X3627098Y761451D1*
X3627335Y758451D1*
X3627104Y755451D1*
X3626435Y752451D1*
X3625572Y749451D1*
X3624558Y746451D1*
X3623064Y743451D1*
X3620951Y740451D1*
X3618388Y737451D1*
X3615568Y734451D1*
X3612530Y731451D1*
X3609095Y728451D1*
X3605080Y725451D1*
X3600701Y722451D1*
X2889701Y797451D2*
X2889225Y794451D1*
X2888364Y791451D1*
X2887100Y788451D1*
X2885462Y785451D1*
X2883578Y782451D1*
X2881671Y779451D1*
X2879704Y776451D1*
X2877673Y773451D1*
X2875706Y770451D1*
X2873717Y767451D1*
X2871678Y764451D1*
X2869707Y761451D1*
X2867717Y758451D1*
X2865678Y755451D1*
X2863696Y752451D1*
X2861608Y749451D1*
X2859234Y746451D1*
X2856701Y743451D1*
X2907701Y797451D2*
X2907225Y794451D1*
X2906364Y791451D1*
X2905100Y788451D1*
X2903462Y785451D1*
X2901590Y782451D1*
X2899776Y779451D1*
X2898086Y776451D1*
X2896404Y773451D1*
X2894581Y770451D1*
X2892622Y767451D1*
X2890686Y764451D1*
X2888709Y761451D1*
X2886687Y758451D1*
X2884812Y755451D1*
X2883101Y752451D1*
X2881426Y749451D1*
X2879635Y746451D1*
X2877701Y743451D1*
X2925701Y797451D2*
X2922701Y794451D1*
X2919701Y791451D1*
X2937701Y788451D1*
X2937689Y785451D1*
X2937455Y782451D1*
X2936822Y779451D1*
X2931090Y776451D1*
X2921739Y773451D1*
X2911419Y770451D1*
X2902940Y767451D1*
X2895701Y764451D1*
X2906408Y761451D1*
X2913466Y758451D1*
X2918347Y755451D1*
X2917578Y752451D1*
X2913078Y749451D1*
X2899805Y746451D1*
X2883701Y743451D1*
X2889701Y740451D1*
X2949701Y797451D2*
X2952111Y794451D1*
X2953854Y791451D1*
X2955026Y788451D1*
X2955060Y785451D1*
X2954009Y782451D1*
X2951420Y779451D1*
X2948147Y776451D1*
X2944593Y773451D1*
X2941282Y770451D1*
X2938641Y767451D1*
X2936679Y764451D1*
X2936659Y761451D1*
X2936886Y758451D1*
X2936975Y755451D1*
X2935733Y752451D1*
X2933565Y749451D1*
X2930157Y746451D1*
X2925338Y743451D1*
X2919701Y740451D1*
X3150701Y797451D2*
X3147713Y794451D1*
X3144830Y791451D1*
X3142341Y788451D1*
X3140312Y785451D1*
X3139692Y782451D1*
X3140189Y779451D1*
X3140917Y776451D1*
X3141754Y773451D1*
X3142723Y770451D1*
X3143609Y767451D1*
X3144182Y764451D1*
X3144479Y761451D1*
X3144619Y758451D1*
X3144701Y755451D1*
X3153701Y797451D2*
X3153713Y794451D1*
X3153818Y791451D1*
X3154200Y788451D1*
X3154931Y785451D1*
X3155805Y782451D1*
X3156711Y779451D1*
X3157719Y776451D1*
X3158721Y773451D1*
X3159679Y770451D1*
X3160696Y767451D1*
X3161612Y764451D1*
X3162296Y761451D1*
X3162977Y758451D1*
X3163842Y755451D1*
X3164772Y752451D1*
X3165699Y749451D1*
X3166704Y746451D1*
X3167611Y743451D1*
X3168235Y740451D1*
X3168701Y737451D1*
X3459701Y794451D2*
X3435701Y791451D1*
X3411701Y788451D1*
X3474701Y794451D2*
X3472072Y791451D1*
X3469146Y788451D1*
X3466407Y785451D1*
X3464142Y782451D1*
X3462345Y779451D1*
X3460956Y776451D1*
X3459829Y773451D1*
X3458757Y770451D1*
X3457933Y767451D1*
X3457482Y764451D1*
X3458082Y761451D1*
X3458773Y758451D1*
X3459366Y755451D1*
X3460090Y752451D1*
X3461241Y749451D1*
X3462701Y746451D1*
X3006701Y794451D2*
X3003701Y791451D1*
X3000701Y788451D1*
X2997701Y785451D1*
X2999200Y782451D1*
X3000446Y779451D1*
X3001613Y776451D1*
X3002681Y773451D1*
X3003665Y770451D1*
X3004691Y767451D1*
X3005598Y764451D1*
X3006180Y761451D1*
X3006496Y758451D1*
X3006701Y755451D1*
X3015701Y794451D2*
X3015713Y791451D1*
X3015818Y788451D1*
X3016200Y785451D1*
X3016931Y782451D1*
X3017805Y779451D1*
X3018711Y776451D1*
X3019719Y773451D1*
X3020721Y770451D1*
X3021679Y767451D1*
X3022696Y764451D1*
X3023612Y761451D1*
X3024296Y758451D1*
X3024977Y755451D1*
X3025842Y752451D1*
X3026772Y749451D1*
X3027701Y746451D1*
X3028732Y743451D1*
X3029760Y740451D1*
X3030701Y737451D1*
X3093701Y791451D2*
X3090237Y788451D1*
X3086482Y785451D1*
X3082599Y782451D1*
X3078692Y779451D1*
X3074694Y776451D1*
X3070810Y773451D1*
X3067339Y770451D1*
X3064423Y767451D1*
X3062019Y764451D1*
X3059838Y761451D1*
X3057734Y758451D1*
X3055829Y755451D1*
X3054105Y752451D1*
X3052410Y749451D1*
X3050583Y746451D1*
X3048634Y743451D1*
X3046792Y740451D1*
X3045092Y737451D1*
X3043382Y734451D1*
X3041338Y731451D1*
X3038536Y728451D1*
X3034861Y725451D1*
X3030701Y722451D1*
X3099701Y791451D2*
X3097164Y788451D1*
X3094920Y785451D1*
X3092802Y782451D1*
X3090722Y779451D1*
X3088824Y776451D1*
X3087115Y773451D1*
X3085515Y770451D1*
X3083965Y767451D1*
X3082353Y764451D1*
X3080561Y761451D1*
X3078627Y758451D1*
X3076789Y755451D1*
X3075091Y752451D1*
X3073405Y749451D1*
X3071581Y746451D1*
X3069634Y743451D1*
X3067792Y740451D1*
X3066092Y737451D1*
X3064394Y734451D1*
X3062464Y731451D1*
X3060123Y728451D1*
X3057433Y725451D1*
X3054353Y722451D1*
X3050486Y719451D1*
X3045458Y716451D1*
X3039701Y713451D1*
X3441701Y788451D2*
X3438701Y785451D1*
X3459701Y788451D2*
X3459237Y785451D1*
X3458493Y782451D1*
X3457717Y779451D1*
X3457191Y776451D1*
X3456912Y773451D1*
X3456785Y770451D1*
X3456732Y767451D1*
X3456712Y764451D1*
X3456704Y761451D1*
X3456701Y758451D1*
X2910701Y785451D2*
X2907701Y782451D1*
X2904701Y779451D1*
X2937701Y785451D2*
X2934701Y782451D1*
X2931701Y779451D1*
X2985701Y782451D2*
X2981316Y779451D1*
X2977454Y776451D1*
X2974018Y773451D1*
X2970813Y770451D1*
X2967629Y767451D1*
X2964218Y764451D1*
X2960488Y761451D1*
X2956715Y758451D1*
X2953189Y755451D1*
X2949894Y752451D1*
X2946701Y749451D1*
X3123701Y782451D2*
X3120237Y779451D1*
X3116493Y776451D1*
X3112717Y773451D1*
X3109191Y770451D1*
X3105912Y767451D1*
X3102773Y764451D1*
X3099615Y761451D1*
X3096210Y758451D1*
X3092459Y755451D1*
X3088564Y752451D1*
X3084701Y749451D1*
X3126701Y782451D2*
X3127164Y779451D1*
X3127908Y776451D1*
X3128685Y773451D1*
X3129210Y770451D1*
X3129490Y767451D1*
X3129622Y764451D1*
X3129701Y761451D1*
X3357701Y782451D2*
X3344672Y779451D1*
X3333588Y776451D1*
X3324486Y773451D1*
X3316802Y770451D1*
X3309701Y767451D1*
X3384701Y782451D2*
X3398405Y779451D1*
X3410022Y776451D1*
X3419611Y773451D1*
X3427636Y770451D1*
X3434353Y767451D1*
X3440115Y764451D1*
X3445441Y761451D1*
X3450701Y758451D1*
X2988701Y779451D2*
X2988815Y776451D1*
X2989200Y773451D1*
X2989919Y770451D1*
X2990696Y767451D1*
X2991265Y764451D1*
X2991701Y761451D1*
X3708701Y782451D2*
X3711225Y779451D1*
X3713364Y776451D1*
X3715088Y773451D1*
X3716357Y770451D1*
X3717196Y767451D1*
X3717940Y764451D1*
X3718818Y761451D1*
X3719651Y758451D1*
X3720186Y755451D1*
X3720368Y752451D1*
X3720116Y749451D1*
X3719439Y746451D1*
X3718585Y743451D1*
X3717675Y740451D1*
X3716576Y737451D1*
X3715295Y734451D1*
X3713974Y731451D1*
X3712766Y728451D1*
X3711701Y725451D1*
X3714701Y782451D2*
X3717587Y779451D1*
X3720190Y776451D1*
X3722354Y773451D1*
X3724086Y770451D1*
X3725353Y767451D1*
X3726141Y764451D1*
X3726701Y761451D1*
X3378701Y779451D2*
X3362120Y776451D1*
X3347509Y773451D1*
X3335555Y770451D1*
X3325848Y767451D1*
X3317792Y764451D1*
X3311139Y761451D1*
X3305634Y758451D1*
X3300701Y755451D1*
X3360701Y779451D2*
X3379331Y776451D1*
X3395232Y773451D1*
X3407751Y770451D1*
X3417482Y767451D1*
X3425326Y764451D1*
X3432046Y761451D1*
X3437989Y758451D1*
X3443285Y755451D1*
X3448091Y752451D1*
X3452514Y749451D1*
X3456701Y746451D1*
X2982701Y773451D2*
X2979701Y770451D1*
X2976701Y767451D1*
X2973689Y764451D1*
X2970584Y761451D1*
X2967201Y758451D1*
X2963483Y755451D1*
X2959714Y752451D1*
X2956190Y749451D1*
X2952912Y746451D1*
X2949785Y743451D1*
X2946730Y740451D1*
X2943701Y737451D1*
X2985701Y773451D2*
X2985689Y770451D1*
X2985584Y767451D1*
X2985199Y764451D1*
X2984455Y761451D1*
X2983562Y758451D1*
X2982701Y755451D1*
X3123701Y770451D2*
X3118290Y767451D1*
X3113536Y764451D1*
X3109531Y761451D1*
X3106032Y758451D1*
X3102716Y755451D1*
X3099250Y752451D1*
X3095500Y749451D1*
X3091719Y746451D1*
X3088190Y743451D1*
X3084895Y740451D1*
X3081701Y737451D1*
X3126701Y770451D2*
X3126237Y767451D1*
X3125493Y764451D1*
X3124709Y761451D1*
X3124138Y758451D1*
X3123701Y755451D1*
X2895701Y758451D2*
X2892701Y755451D1*
X2889701Y752451D1*
X2913701Y758451D2*
Y755451D1*
Y752451D1*
X2967701Y746451D2*
X2964701Y743451D1*
X2961701Y740451D1*
X2958701Y737451D1*
X3006701Y746451D2*
X3008097Y743451D1*
X3009024Y740451D1*
X3009701Y737451D1*
X3105701Y746451D2*
X3102701Y743451D1*
X3099701Y740451D1*
X3096701Y737451D1*
X3147701Y746451D2*
X3148252Y743451D1*
X3149305Y740451D1*
X3150701Y737451D1*
X3312701Y740451D2*
Y737451D1*
Y734451D1*
Y731451D1*
X3312689Y728451D1*
X3312584Y725451D1*
X3312199Y722451D1*
X3311455Y719451D1*
X3310562Y716451D1*
X3309701Y713451D1*
X3315701Y740451D2*
X3318701Y737451D1*
X3317248Y734451D1*
X3319213Y731451D1*
X3321701Y728451D1*
X3726701Y740451D2*
X3725549Y737451D1*
X3724155Y734451D1*
X3722376Y731451D1*
X3720148Y728451D1*
X3717701Y725451D1*
X2970701Y740451D2*
X2967701Y737451D1*
X2964701Y734451D1*
X2961701Y731451D1*
X2958701Y728451D1*
X2955701Y725451D1*
X3006701Y740451D2*
X3006449Y737451D1*
X3005880Y734451D1*
X3003139Y731451D1*
X2999221Y728451D1*
X2994701Y725451D1*
X3108701Y740451D2*
X3105595Y737451D1*
X3101646Y734451D1*
X3095205Y731451D1*
X3085739Y728451D1*
X3075816Y725451D1*
X3068107Y722451D1*
X3062592Y719451D1*
X3058332Y716451D1*
X3054394Y713451D1*
X3050182Y710451D1*
X3045701Y707451D1*
X3144701Y740451D2*
X3145167Y737451D1*
X3145936Y734451D1*
X3146836Y731451D1*
X3147701Y728451D1*
X3261701Y737451D2*
Y734451D1*
X3261689Y731451D1*
X3261584Y728451D1*
X3261201Y725451D1*
X3260471Y722451D1*
X3259585Y719451D1*
X3258563Y716451D1*
X3257076Y713451D1*
X3255026Y710451D1*
X3252701Y707451D1*
X3255701Y704451D1*
X3264701Y737451D2*
X3265753Y734451D1*
X3266773Y731451D1*
X3267701Y728451D1*
X3435701Y737451D2*
X3429408Y734451D1*
X3424586Y731451D1*
X3420701Y728451D1*
X3447701Y737451D2*
Y734451D1*
Y731451D1*
X3435701D1*
X3435587Y728451D1*
X3435202Y725451D1*
X3434482Y722451D1*
X3433706Y719451D1*
X3433137Y716451D1*
X3432701Y713451D1*
X2880701Y737451D2*
X2877701Y734451D1*
X2880701Y737451D2*
X2883701Y734451D1*
X3297701D2*
X3298726Y731451D1*
X3299619Y728451D1*
X3300188Y725451D1*
X3300494Y722451D1*
X3300731Y719451D1*
X3301168Y716451D1*
X3301908Y713451D1*
X3302692Y710451D1*
X3303264Y707451D1*
X3303701Y704451D1*
X3300701Y734451D2*
X3302086Y731451D1*
X3302947Y728451D1*
X3303383Y725451D1*
X3303577Y722451D1*
X3303655Y719451D1*
X3303685Y716451D1*
X3303701Y713451D1*
X3726701Y734451D2*
X3726111Y731451D1*
X3724866Y728451D1*
X3722847Y725451D1*
X3720106Y722451D1*
X3716389Y719451D1*
X3711425Y716451D1*
X3705701Y713451D1*
X2928701Y734451D2*
Y731451D1*
Y728451D1*
Y725451D1*
X3354701Y731451D2*
X3351701Y728451D1*
X3357701Y731451D2*
X3356295Y728451D1*
X3354701Y725451D1*
X3405701Y731451D2*
X3404202Y728451D1*
X3402953Y725451D1*
X3401772Y722451D1*
X3400678Y719451D1*
X3399701Y716451D1*
X3408701Y731451D2*
X3408724Y728451D1*
X3408935Y725451D1*
X3409427Y722451D1*
X3411070Y719451D1*
X3412674Y716451D1*
X3413824Y713451D1*
X3414701Y710451D1*
X3474701Y731451D2*
Y728451D1*
Y725451D1*
X3480701Y731451D2*
Y728451D1*
Y725451D1*
X3483701Y731451D2*
X3484252Y728451D1*
X3485305Y725451D1*
X3486701Y722451D1*
X3485316Y719451D1*
X3484454Y716451D1*
X3484017Y713451D1*
X3483817Y710451D1*
X3483701Y707451D1*
X3489701Y731451D2*
X3491791Y728451D1*
X3494791Y725451D1*
X3498643Y722451D1*
X3503322Y719451D1*
X3509122Y716451D1*
X3516401Y713451D1*
X3525169Y710451D1*
X3534701Y707451D1*
X3495701Y731451D2*
X3505070Y728451D1*
X3515467Y725451D1*
X3527546Y722451D1*
X3540701Y719451D1*
X3285701Y728451D2*
X3291701D2*
X3288734Y725451D1*
X3285566Y722451D1*
X3282753Y719451D1*
X3281966Y716451D1*
X3282289Y713451D1*
X3282701Y710451D1*
X3327701Y728451D2*
X3342701D2*
X3366701D2*
X3360701Y725451D1*
X3369701Y728451D2*
X3375701D2*
X3384701D2*
Y725451D1*
Y722451D1*
Y719451D1*
X3387701Y728451D2*
X3393701D2*
X3429701Y731451D2*
X3426701Y728451D1*
X3432701Y731451D2*
X3432689Y728451D1*
X3432584Y725451D1*
X3432201Y722451D1*
X3431494Y719451D1*
X3430831Y716451D1*
X3430692Y713451D1*
X3431157Y710451D1*
X3431917Y707451D1*
X3432701Y704451D1*
X3444701Y728451D2*
X3442852Y725451D1*
X3441246Y722451D1*
X3440025Y719451D1*
X3439254Y716451D1*
X3438701Y713451D1*
X3453701Y728451D2*
X3459701D2*
X3468701D2*
Y725451D1*
X2850701D2*
Y722451D1*
Y719451D1*
X2882316Y716451D1*
X2914451Y713451D1*
X2946993Y710451D1*
X2979701Y707451D1*
X3378701Y725451D2*
Y722451D1*
Y719451D1*
X3393701Y725451D2*
Y722451D1*
Y719451D1*
Y716451D1*
X3330701Y725451D2*
Y722451D1*
Y719451D1*
X3342701Y725451D2*
X3339701Y722451D1*
X3336701Y719451D1*
X3345701Y725451D2*
X3342701Y722451D1*
X3345701Y725451D2*
X3348701Y722451D1*
X3462701Y725451D2*
X3460252Y722451D1*
X3458305Y719451D1*
X3456701Y716451D1*
X3462701Y725451D2*
X3465149Y722451D1*
X3467097Y719451D1*
X3468701Y716451D1*
X2898701Y722451D2*
X2931701Y719451D1*
X2964701Y716451D1*
X2997701Y713451D1*
X3267701Y722451D2*
X3268164Y719451D1*
X3268932Y716451D1*
X3269937Y713451D1*
X3271392Y710451D1*
X3273738Y707451D1*
X3276701Y704451D1*
Y722451D2*
X3276824Y719451D1*
X3277290Y716451D1*
X3278316Y713451D1*
X3279701Y710451D1*
X3318701Y722451D2*
Y719451D1*
Y716451D1*
Y713451D1*
X3321701Y722451D2*
Y719451D1*
Y716451D1*
Y713451D1*
X3327701Y722451D2*
X3327713Y719451D1*
X3327827Y716451D1*
X3328290Y713451D1*
X3329316Y710451D1*
X3330701Y707451D1*
X3360701Y722451D2*
Y719451D1*
Y716451D1*
X3366701Y722451D2*
Y719451D1*
Y716451D1*
X3591701Y722451D2*
X3588701Y719451D1*
X3594701D2*
X3183701D2*
X3180701Y716451D1*
X3189701D2*
X3312701D2*
X3312235Y713451D1*
X3311466Y710451D1*
X3310565Y707451D1*
X3309701Y704451D1*
X3342701Y719451D2*
X3339701Y716451D1*
X3342701Y719451D2*
X3345701Y716451D1*
X3447701Y719451D2*
X3444701Y716451D1*
X3441701Y713451D1*
X3453701Y719451D2*
X3450701Y716451D1*
X3447701Y713451D1*
X3477701Y719451D2*
X3474701Y716451D1*
X3477701Y719451D2*
X3480701Y716451D1*
X3003701Y713451D2*
X3171701Y716451D2*
X3168701Y713451D1*
X3171701Y716451D2*
X3174701Y713451D1*
X3264701Y716451D2*
X3261701Y713451D1*
X3267701D2*
X3360701D2*
X3345701Y710451D1*
X3330701Y707451D1*
X3342701Y713451D2*
X3351701Y710451D1*
X3360701Y707451D1*
X3363701Y713451D2*
Y710451D1*
Y707451D1*
X3372701Y713451D2*
Y710451D1*
Y707451D1*
Y704451D1*
X3387701Y713451D2*
Y710451D1*
Y707451D1*
X3396701Y713451D2*
Y710451D1*
Y707451D1*
X3402701Y713451D2*
X3399701Y710451D1*
X3396701Y707451D1*
X3405701Y713451D2*
X3408701Y710451D1*
X3453701Y713451D2*
X3450701Y710451D1*
X3447701Y707451D1*
X3456701Y713451D2*
X3459701Y710451D1*
X3468701Y713451D2*
X3465701Y710451D1*
X3471701Y713451D2*
X3474701Y710451D1*
X3480701Y713451D2*
X3477701Y710451D1*
X3378701D2*
X3375701Y707451D1*
X3372701Y704451D1*
X3378701Y710451D2*
X3381701Y707451D1*
X3438701Y710451D2*
X3435701Y707451D1*
X3432701Y704451D1*
X3438701Y710451D2*
X3441701Y707451D1*
X3261701D2*
X3258701Y704451D1*
X3270701D2*
X2091726Y1496684D2*
D64*
Y1546869D1*
X2067794Y1513431D1*
X2103664D1*
X2121480Y1501492D2*
X2119103Y1499060D1*
X2121480Y1496684D1*
X2123912Y1499060D1*
X2121480Y1501492D1*
X2148913Y1496684D2*
X2172844Y1546869D1*
X2139351D1*
X2236885Y1546924D2*
Y1496684D1*
X2260816Y1530177D2*
X2236885Y1506245D1*
X2246446Y1515807D2*
X2263193Y1496684D1*
X2290570Y1530177D2*
X2285817Y1527801D1*
X2281009Y1522992D1*
X2278632Y1515807D1*
Y1511054D1*
X2281009Y1503869D1*
X2285817Y1499116D1*
X2290570Y1496684D1*
X2297755D1*
X2302564Y1499116D1*
X2307317Y1503869D1*
X2309749Y1511054D1*
Y1515807D1*
X2307317Y1522992D1*
X2302564Y1527801D1*
X2297755Y1530177D1*
X2290570D1*
X2325188Y1546924D2*
Y1496684D1*
Y1520616D2*
X2332373Y1527801D1*
X2337182Y1530177D1*
X2344367D1*
X2349120Y1527801D1*
X2351496Y1520616D1*
Y1496684D1*
X2366936Y1530177D2*
Y1496684D1*
Y1520616D2*
X2374121Y1527801D1*
X2378929Y1530177D1*
X2386059D1*
X2390867Y1527801D1*
X2393244Y1520616D1*
Y1496684D1*
Y1520616D2*
X2400429Y1527801D1*
X2405237Y1530177D1*
X2412367D1*
X2417176Y1527801D1*
X2419607Y1520616D1*
Y1496684D1*
X2091726Y1646684D2*
Y1696869D1*
X2067794Y1663431D1*
X2103664D1*
X2121480Y1651492D2*
X2119103Y1649060D1*
X2121480Y1646684D1*
X2123912Y1649060D1*
X2121480Y1651492D1*
X2148913Y1646684D2*
X2172844Y1696869D1*
X2139351D1*
X2236885Y1696924D2*
Y1646684D1*
X2260816Y1680177D2*
X2236885Y1656245D1*
X2246446Y1665807D2*
X2263193Y1646684D1*
X2290570Y1680177D2*
X2285817Y1677801D1*
X2281009Y1672992D1*
X2278632Y1665807D1*
Y1661054D1*
X2281009Y1653869D1*
X2285817Y1649116D1*
X2290570Y1646684D1*
X2297755D1*
X2302564Y1649116D1*
X2307317Y1653869D1*
X2309749Y1661054D1*
Y1665807D1*
X2307317Y1672992D1*
X2302564Y1677801D1*
X2297755Y1680177D1*
X2290570D1*
X2325188Y1696924D2*
Y1646684D1*
Y1670616D2*
X2332373Y1677801D1*
X2337182Y1680177D1*
X2344367D1*
X2349120Y1677801D1*
X2351496Y1670616D1*
Y1646684D1*
X2366936Y1680177D2*
Y1646684D1*
Y1670616D2*
X2374121Y1677801D1*
X2378929Y1680177D1*
X2386059D1*
X2390867Y1677801D1*
X2393244Y1670616D1*
Y1646684D1*
Y1670616D2*
X2400429Y1677801D1*
X2405237Y1680177D1*
X2412367D1*
X2417176Y1677801D1*
X2419607Y1670616D1*
Y1646684D1*
X1386411Y839739D2*
X1384034Y844492D1*
X1376849Y846869D1*
X1372096D1*
X1364911Y844492D1*
X1360103Y837307D1*
X1357726Y825369D1*
Y813431D1*
X1360103Y803869D1*
X1364911Y799060D1*
X1372096Y796684D1*
X1374473D1*
X1381602Y799060D1*
X1386411Y803869D1*
X1388787Y811054D1*
Y813431D1*
X1386411Y820616D1*
X1381602Y825369D1*
X1374473Y827745D1*
X1372096D1*
X1364911Y825369D1*
X1360103Y820616D1*
X1357726Y813431D1*
X1406603Y801492D2*
X1404227Y799060D1*
X1406603Y796684D1*
X1409035Y799060D1*
X1406603Y801492D1*
X1436413Y846869D2*
X1429283Y844492D1*
X1426851Y839739D1*
Y834930D1*
X1429283Y830177D1*
X1434036Y827745D1*
X1443598Y825369D1*
X1450783Y822992D1*
X1455536Y818184D1*
X1457912Y813431D1*
Y806245D1*
X1455536Y801492D1*
X1453159Y799060D1*
X1445974Y796684D1*
X1436413D1*
X1429283Y799060D1*
X1426851Y801492D1*
X1424474Y806245D1*
Y813431D1*
X1426851Y818184D1*
X1431659Y822992D1*
X1438789Y825369D1*
X1448351Y827745D1*
X1453159Y830177D1*
X1455536Y834930D1*
Y839739D1*
X1453159Y844492D1*
X1445974Y846869D1*
X1436413D1*
X1521953Y846924D2*
Y796684D1*
X1545884Y830177D2*
X1521953Y806245D1*
X1531514Y815807D2*
X1548261Y796684D1*
X1575638Y830177D2*
X1570885Y827801D1*
X1566077Y822992D1*
X1563700Y815807D1*
Y811054D1*
X1566077Y803869D1*
X1570885Y799116D1*
X1575638Y796684D1*
X1582823D1*
X1587632Y799116D1*
X1592385Y803869D1*
X1594817Y811054D1*
Y815807D1*
X1592385Y822992D1*
X1587632Y827801D1*
X1582823Y830177D1*
X1575638D1*
X1610256Y846924D2*
Y796684D1*
Y820616D2*
X1617441Y827801D1*
X1622250Y830177D1*
X1629435D1*
X1634188Y827801D1*
X1636565Y820616D1*
Y796684D1*
X1652004Y830177D2*
Y796684D1*
Y820616D2*
X1659189Y827801D1*
X1663997Y830177D1*
X1671127D1*
X1675935Y827801D1*
X1678312Y820616D1*
Y796684D1*
Y820616D2*
X1685497Y827801D1*
X1690306Y830177D1*
X1697435D1*
X1702244Y827801D1*
X1704676Y820616D1*
Y796684D1*
X3125128Y1124716D2*
X3129937Y1127148D1*
X3137122Y1134278D1*
Y1084093D1*
X3166931Y1134278D2*
X3159746Y1131901D1*
X3154937Y1124716D1*
X3152561Y1112778D1*
Y1105593D1*
X3154937Y1093655D1*
X3159746Y1086470D1*
X3166931Y1084093D1*
X3171684D1*
X3178869Y1086470D1*
X3183622Y1093655D1*
X3186054Y1105593D1*
Y1112778D1*
X3183622Y1124716D1*
X3178869Y1131901D1*
X3171684Y1134278D1*
X3166931D1*
X3183622Y1124716D2*
X3154937Y1093655D1*
X3215863Y1134278D2*
X3208678Y1131901D1*
X3203870Y1124716D1*
X3201493Y1112778D1*
Y1105593D1*
X3203870Y1093655D1*
X3208678Y1086470D1*
X3215863Y1084093D1*
X3220617D1*
X3227802Y1086470D1*
X3232555Y1093655D1*
X3234987Y1105593D1*
Y1112778D1*
X3232555Y1124716D1*
X3227802Y1131901D1*
X3220617Y1134278D1*
X3215863D1*
X3232555Y1124716D2*
X3203870Y1093655D1*
X3299027Y1134333D2*
X3318150Y1084093D1*
X3337273Y1134333D1*
X3548747Y2579916D2*
Y2529676D1*
X3565493D1*
X3572679Y2532108D1*
X3577487Y2536861D1*
X3579864Y2541670D1*
X3582240Y2548799D1*
Y2560793D1*
X3579864Y2567978D1*
X3577487Y2572731D1*
X3572679Y2577539D1*
X3565493Y2579916D1*
X3548747D1*
X3635981Y2529676D2*
X3616803Y2579916D1*
X3597679Y2529676D1*
X3604864Y2546423D2*
X3628796D1*
X3668167Y2579916D2*
Y2529676D1*
X3651420Y2579916D2*
X3684914D1*
X3738655Y2529676D2*
X3719476Y2579916D1*
X3700353Y2529676D1*
X3707538Y2546423D2*
X3731470D1*
X421783Y2126742D2*
Y2076502D1*
X438530D1*
X445715Y2078934D1*
X450523Y2083687D1*
X452900Y2088496D1*
X455276Y2095625D1*
Y2107619D1*
X452900Y2114804D1*
X450523Y2119557D1*
X445715Y2124366D1*
X438530Y2126742D1*
X421783D1*
X487462D2*
Y2076502D1*
X470716Y2126742D2*
X504209D1*
X557950Y2076502D2*
X538771Y2126742D1*
X519648Y2076502D1*
X526833Y2093249D2*
X550765D1*
X573389Y2068212D2*
X618821D1*
X667753Y2119557D2*
X663000Y2124366D1*
X655815Y2126742D1*
X646254D1*
X639068Y2124366D1*
X634260Y2119557D1*
Y2114804D1*
X636692Y2109995D1*
X639068Y2107619D1*
X643822Y2105242D1*
X658192Y2100434D1*
X663000Y2098057D1*
X665377Y2095625D1*
X667753Y2090872D1*
Y2083687D1*
X663000Y2078934D1*
X655815Y2076502D1*
X646254D1*
X639068Y2078934D1*
X634260Y2083687D1*
X699939Y2126742D2*
Y2076502D1*
X683193Y2126742D2*
X716686D1*
X732125Y2100434D2*
X753680D1*
X760810Y2102810D1*
X763242Y2105242D1*
X765619Y2109995D1*
Y2117180D1*
X763242Y2121934D1*
X760810Y2124366D1*
X753680Y2126742D1*
X732125D1*
Y2076502D1*
X3614481Y2079916D2*
X3609673Y2077539D1*
X3604920Y2072731D1*
X3602488Y2067978D1*
X3600111Y2060793D1*
Y2048799D1*
X3602488Y2041670D1*
X3604920Y2036861D1*
X3609673Y2032108D1*
X3614481Y2029676D1*
X3624043D1*
X3628796Y2032108D1*
X3633605Y2036861D1*
X3635981Y2041670D1*
X3638358Y2048799D1*
Y2060793D1*
X3635981Y2067978D1*
X3633605Y2072731D1*
X3628796Y2077539D1*
X3624043Y2079916D1*
X3614481D1*
X3687290D2*
Y2029676D1*
X3653797Y2079916D1*
Y2029676D1*
X470743Y2340198D2*
X492298D1*
X499428Y2342574D1*
X501860Y2345006D1*
X504237Y2349759D1*
Y2356944D1*
X501860Y2361697D1*
X499428Y2364129D1*
X492298Y2366506D1*
X470743D1*
Y2316266D1*
X534046Y2366506D2*
X529237Y2364129D1*
X524484Y2359321D1*
X522052Y2354568D1*
X519676Y2347383D1*
Y2335389D1*
X522052Y2328259D1*
X524484Y2323451D1*
X529237Y2318698D1*
X534046Y2316266D1*
X543608D1*
X548361Y2318698D1*
X553169Y2323451D1*
X555546Y2328259D1*
X557922Y2335389D1*
Y2347383D1*
X555546Y2354568D1*
X553169Y2359321D1*
X548361Y2364129D1*
X543608Y2366506D1*
X534046D1*
X573362D2*
X585355Y2316266D1*
X597293Y2366506D1*
X609232Y2316266D1*
X621225Y2366506D1*
X667726D2*
X636664D1*
Y2316266D1*
X667726D1*
X636664Y2342574D2*
X655788D1*
X683165D2*
X704665D1*
X711850Y2345006D1*
X714282Y2347383D1*
X716658Y2352136D1*
Y2356944D1*
X714282Y2361697D1*
X711850Y2364129D1*
X704665Y2366506D1*
X683165D1*
Y2316266D1*
X699912Y2342574D2*
X716658Y2316266D1*
X1479857Y1032147D2*
Y1053703D1*
X1477480Y1060832D1*
X1475048Y1063264D1*
X1470295Y1065641D1*
X1463110D1*
X1458357Y1063264D1*
X1455925Y1060832D1*
X1453549Y1053703D1*
Y1032147D1*
X1503789D1*
X1453549Y1081080D2*
X1503789Y1093073D1*
X1453549Y1105012D1*
X1503789Y1116950D1*
X1453549Y1128943D1*
X1477480Y1144383D2*
Y1165882D1*
X1475048Y1173067D1*
X1472672Y1175499D1*
X1467919Y1177876D1*
X1463110D1*
X1458357Y1175499D1*
X1455925Y1173067D1*
X1453549Y1165882D1*
Y1144383D1*
X1503789D1*
X1477480Y1161129D2*
X1503789Y1177876D1*
X1453549Y1207685D2*
X1455925Y1202877D1*
X1460734Y1198124D1*
X1465487Y1195692D1*
X1472672Y1193315D1*
X1484665D1*
X1491795Y1195692D1*
X1496604Y1198124D1*
X1501357Y1202877D1*
X1503789Y1207685D1*
Y1217247D1*
X1501357Y1222000D1*
X1496604Y1226808D1*
X1491795Y1229185D1*
X1484665Y1231562D1*
X1472672D1*
X1465487Y1229185D1*
X1460734Y1226809D1*
X1455925Y1222000D1*
X1453549Y1217247D1*
Y1207685D1*
X1463166Y1247001D2*
X1460734Y1251809D1*
X1453604Y1258994D1*
X1503789D1*
X1742357Y1021398D2*
Y1042953D1*
X1739980Y1050082D1*
X1737548Y1052514D1*
X1732795Y1054891D1*
X1725610D1*
X1720857Y1052514D1*
X1718425Y1050082D1*
X1716049Y1042953D1*
Y1021398D1*
X1766289D1*
X1716049Y1070330D2*
X1766289Y1082323D1*
X1716049Y1094262D1*
X1766289Y1106200D1*
X1716049Y1118193D1*
X1739980Y1133633D2*
Y1155133D1*
X1737548Y1162318D1*
X1735172Y1164749D1*
X1730419Y1167126D1*
X1725610D1*
X1720857Y1164749D1*
X1718425Y1162318D1*
X1716049Y1155133D1*
Y1133633D1*
X1766289D1*
X1739980Y1150379D2*
X1766289Y1167126D1*
X1716049Y1196935D2*
X1718425Y1192127D1*
X1723234Y1187374D1*
X1727987Y1184942D1*
X1735172Y1182565D1*
X1747165D1*
X1754295Y1184942D1*
X1759104Y1187374D1*
X1763857Y1192127D1*
X1766289Y1196935D1*
Y1206497D1*
X1763857Y1211250D1*
X1759104Y1216059D1*
X1754295Y1218435D1*
X1747165Y1220812D1*
X1735172D1*
X1727987Y1218435D1*
X1723234Y1216059D1*
X1718425Y1211250D1*
X1716049Y1206497D1*
Y1196935D1*
X1728042Y1238683D2*
X1725666D1*
X1720857Y1241059D1*
X1718480Y1243436D1*
X1716104Y1248244D1*
Y1257806D1*
X1718480Y1262559D1*
X1720857Y1264936D1*
X1725666Y1267368D1*
X1730419D1*
X1735227Y1264936D1*
X1742357Y1260183D1*
X1766289Y1236251D1*
Y1269744D1*
X2017357Y1021398D2*
Y1042953D1*
X2014980Y1050082D1*
X2012548Y1052514D1*
X2007795Y1054891D1*
X2000610D1*
X1995857Y1052514D1*
X1993425Y1050082D1*
X1991049Y1042953D1*
Y1021398D1*
X2041289D1*
X1991049Y1070330D2*
X2041289Y1082323D1*
X1991049Y1094262D1*
X2041289Y1106200D1*
X1991049Y1118193D1*
X2014980Y1133633D2*
Y1155133D1*
X2012548Y1162318D1*
X2010172Y1164749D1*
X2005419Y1167126D1*
X2000610D1*
X1995857Y1164749D1*
X1993425Y1162318D1*
X1991049Y1155133D1*
Y1133633D1*
X2041289D1*
X2014980Y1150379D2*
X2041289Y1167126D1*
X1991049Y1196935D2*
X1993425Y1192127D1*
X1998234Y1187374D1*
X2002987Y1184942D1*
X2010172Y1182565D1*
X2022165D1*
X2029295Y1184942D1*
X2034104Y1187374D1*
X2038857Y1192127D1*
X2041289Y1196935D1*
Y1206497D1*
X2038857Y1211250D1*
X2034104Y1216059D1*
X2029295Y1218435D1*
X2022165Y1220812D1*
X2010172D1*
X2002987Y1218435D1*
X1998234Y1216059D1*
X1993425Y1211250D1*
X1991049Y1206497D1*
Y1196935D1*
X1991104Y1241059D2*
Y1267312D1*
X2010227Y1252998D1*
Y1260183D1*
X2012604Y1264936D1*
X2014980Y1267312D1*
X2022165Y1269744D1*
X2026919D1*
X2034104Y1267312D1*
X2038912Y1262559D1*
X2041289Y1255374D1*
Y1248189D1*
X2038912Y1241059D1*
X2036480Y1238683D1*
X2031727Y1236251D1*
X2434403Y805876D2*
Y755636D1*
X2449842Y781944D2*
X2471342D1*
X2478527Y784376D1*
X2480959Y786753D1*
X2483336Y791506D1*
Y796314D1*
X2480959Y801068D1*
X2478527Y803499D1*
X2471342Y805876D1*
X2449842D1*
Y755636D1*
X2466589Y781944D2*
X2483336Y755636D1*
X2529892Y805876D2*
X2498775D1*
Y755636D1*
Y781944D2*
X2517898D1*
X2574016Y805821D2*
X2550139D1*
X2547763Y784321D1*
X2550139Y786697D1*
X2557324Y789129D1*
X2564454D1*
X2571639Y786697D1*
X2576448Y781944D1*
X2578824Y774759D1*
Y770006D1*
X2576448Y762821D1*
X2571639Y758013D1*
X2564454Y755636D1*
X2557324D1*
X2550139Y758013D1*
X2547763Y760444D1*
X2545331Y765198D1*
X2618195Y755636D2*
Y805821D1*
X2594263Y772383D1*
X2630133D1*
X2659943Y805821D2*
X2652758Y803444D1*
X2647949Y796259D1*
X2645573Y784321D1*
Y777136D1*
X2647949Y765198D1*
X2652758Y758013D1*
X2659943Y755636D1*
X2664696D1*
X2671881Y758013D1*
X2676634Y765198D1*
X2679066Y777136D1*
Y784321D1*
X2676634Y796259D1*
X2671881Y803444D1*
X2664696Y805821D1*
X2659943D1*
X2676634Y796259D2*
X2647949Y765198D1*
X2727999Y805876D2*
Y755636D1*
X2694505Y805876D1*
Y755636D1*
X2948257Y1996684D2*
Y2046869D1*
X2924325Y2013431D1*
X2960195D1*
X2985196Y1996684D2*
X3009128Y2046869D1*
X2975635D1*
X3038937D2*
X3031752Y2044492D1*
X3026944Y2037307D1*
X3024567Y2025369D1*
Y2018184D1*
X3026944Y2006245D1*
X3031752Y1999060D1*
X3038937Y1996684D1*
X3043690D1*
X3050875Y1999060D1*
X3055629Y2006245D1*
X3058061Y2018184D1*
Y2025369D1*
X3055629Y2037307D1*
X3050875Y2044492D1*
X3043690Y2046869D1*
X3038937D1*
X3055629Y2037307D2*
X3026944Y2006245D1*
X3134039Y2030177D2*
X3129286Y2027801D1*
X3124477Y2022992D1*
X3122101Y2015807D1*
Y2011054D1*
X3124477Y2003869D1*
X3129286Y1999116D1*
X3134039Y1996684D1*
X3141224D1*
X3146032Y1999116D1*
X3150786Y2003869D1*
X3153217Y2011054D1*
Y2015807D1*
X3150786Y2022992D1*
X3146032Y2027801D1*
X3141224Y2030177D1*
X3134039D1*
X3168657Y2046924D2*
Y1996684D1*
Y2020616D2*
X3175842Y2027801D1*
X3180650Y2030177D1*
X3187835D1*
X3192588Y2027801D1*
X3194965Y2020616D1*
Y1996684D1*
X3210404Y2030177D2*
Y1996684D1*
Y2020616D2*
X3217589Y2027801D1*
X3222398Y2030177D1*
X3229528D1*
X3234336Y2027801D1*
X3236713Y2020616D1*
Y1996684D1*
Y2020616D2*
X3243898Y2027801D1*
X3248706Y2030177D1*
X3255836D1*
X3260644Y2027801D1*
X3263076Y2020616D1*
Y1996684D1*
X2948257Y2146684D2*
Y2196869D1*
X2924325Y2163431D1*
X2960195D1*
X2985196Y2146684D2*
X3009128Y2196869D1*
X2975635D1*
X3038937D2*
X3031752Y2194492D1*
X3026944Y2187307D1*
X3024567Y2175369D1*
Y2168184D1*
X3026944Y2156245D1*
X3031752Y2149060D1*
X3038937Y2146684D1*
X3043690D1*
X3050875Y2149060D1*
X3055629Y2156245D1*
X3058061Y2168184D1*
Y2175369D1*
X3055629Y2187307D1*
X3050875Y2194492D1*
X3043690Y2196869D1*
X3038937D1*
X3055629Y2187307D2*
X3026944Y2156245D1*
X3134039Y2180177D2*
X3129286Y2177801D1*
X3124477Y2172992D1*
X3122101Y2165807D1*
Y2161054D1*
X3124477Y2153869D1*
X3129286Y2149116D1*
X3134039Y2146684D1*
X3141224D1*
X3146032Y2149116D1*
X3150786Y2153869D1*
X3153217Y2161054D1*
Y2165807D1*
X3150786Y2172992D1*
X3146032Y2177801D1*
X3141224Y2180177D1*
X3134039D1*
X3168657Y2196924D2*
Y2146684D1*
Y2170616D2*
X3175842Y2177801D1*
X3180650Y2180177D1*
X3187835D1*
X3192588Y2177801D1*
X3194965Y2170616D1*
Y2146684D1*
X3210404Y2180177D2*
Y2146684D1*
Y2170616D2*
X3217589Y2177801D1*
X3222398Y2180177D1*
X3229528D1*
X3234336Y2177801D1*
X3236713Y2170616D1*
Y2146684D1*
Y2170616D2*
X3243898Y2177801D1*
X3248706Y2180177D1*
X3255836D1*
X3260644Y2177801D1*
X3263076Y2170616D1*
Y2146684D1*
X2948257Y2296684D2*
Y2346869D1*
X2924325Y2313431D1*
X2960195D1*
X2985196Y2296684D2*
X3009128Y2346869D1*
X2975635D1*
X3038937D2*
X3031752Y2344492D1*
X3026944Y2337307D1*
X3024567Y2325369D1*
Y2318184D1*
X3026944Y2306245D1*
X3031752Y2299060D1*
X3038937Y2296684D1*
X3043690D1*
X3050875Y2299060D1*
X3055629Y2306245D1*
X3058061Y2318184D1*
Y2325369D1*
X3055629Y2337307D1*
X3050875Y2344492D1*
X3043690Y2346869D1*
X3038937D1*
X3055629Y2337307D2*
X3026944Y2306245D1*
X3134039Y2330177D2*
X3129286Y2327801D1*
X3124477Y2322992D1*
X3122101Y2315807D1*
Y2311054D1*
X3124477Y2303869D1*
X3129286Y2299116D1*
X3134039Y2296684D1*
X3141224D1*
X3146032Y2299116D1*
X3150786Y2303869D1*
X3153217Y2311054D1*
Y2315807D1*
X3150786Y2322992D1*
X3146032Y2327801D1*
X3141224Y2330177D1*
X3134039D1*
X3168657Y2346924D2*
Y2296684D1*
Y2320616D2*
X3175842Y2327801D1*
X3180650Y2330177D1*
X3187835D1*
X3192588Y2327801D1*
X3194965Y2320616D1*
Y2296684D1*
X3210404Y2330177D2*
Y2296684D1*
Y2320616D2*
X3217589Y2327801D1*
X3222398Y2330177D1*
X3229528D1*
X3234336Y2327801D1*
X3236713Y2320616D1*
Y2296684D1*
Y2320616D2*
X3243898Y2327801D1*
X3248706Y2330177D1*
X3255836D1*
X3260644Y2327801D1*
X3263076Y2320616D1*
Y2296684D1*
X739856Y487125D2*
X744665Y489557D1*
X751850Y496687D1*
Y446502D1*
X781659Y496687D2*
X774474Y494310D1*
X769665Y487125D1*
X767289Y475187D1*
Y468002D1*
X769665Y456064D1*
X774474Y448879D1*
X781659Y446502D1*
X786412D1*
X793597Y448879D1*
X798350Y456064D1*
X800782Y468002D1*
Y475187D1*
X798350Y487125D1*
X793597Y494310D1*
X786412Y496687D1*
X781659D1*
X798350Y487125D2*
X769665Y456064D1*
X864822Y496742D2*
Y446502D1*
X888754Y479995D2*
X864822Y456064D1*
X874384Y465625D2*
X891131Y446502D1*
X918508Y479995D2*
X913755Y477619D1*
X908947Y472810D1*
X906570Y465625D1*
Y460872D1*
X908947Y453687D1*
X913755Y448934D1*
X918508Y446502D1*
X925693D1*
X930502Y448934D1*
X935255Y453687D1*
X937687Y460872D1*
Y465625D1*
X935255Y472810D1*
X930502Y477619D1*
X925693Y479995D1*
X918508D1*
X953126Y496742D2*
Y446502D1*
Y470434D2*
X960311Y477619D1*
X965119Y479995D1*
X972305D1*
X977058Y477619D1*
X979434Y470434D1*
Y446502D1*
X994874Y479995D2*
Y446502D1*
Y470434D2*
X1002059Y477619D1*
X1006867Y479995D1*
X1013997D1*
X1018805Y477619D1*
X1021182Y470434D1*
Y446502D1*
Y470434D2*
X1028367Y477619D1*
X1033175Y479995D1*
X1040305D1*
X1045114Y477619D1*
X1047545Y470434D1*
Y446502D1*
X3554209Y2322731D2*
X3549456Y2327539D1*
X3542271Y2329916D1*
X3532709D1*
X3525524Y2327539D1*
X3520716Y2322731D1*
Y2317978D1*
X3523147Y2313169D1*
X3525524Y2310793D1*
X3530277Y2308416D1*
X3544647Y2303608D1*
X3549456Y2301231D1*
X3551832Y2298799D1*
X3554209Y2294046D1*
Y2286861D1*
X3549456Y2282108D1*
X3542271Y2279676D1*
X3532709D1*
X3525524Y2282108D1*
X3520716Y2286861D1*
X3569648Y2329916D2*
X3581642Y2279676D1*
X3593580Y2329916D1*
X3605518Y2279676D1*
X3617512Y2329916D1*
X3649698D2*
Y2279676D1*
X3632951Y2329916D2*
X3666444D1*
X3717753Y2317978D2*
X3715377Y2322731D1*
X3710568Y2327539D1*
X3705815Y2329916D1*
X3696254D1*
X3691445Y2327539D1*
X3686692Y2322731D1*
X3684260Y2317978D1*
X3681883Y2310793D1*
Y2298799D1*
X3684260Y2291670D1*
X3686692Y2286861D1*
X3691445Y2282108D1*
X3696254Y2279676D1*
X3705815D1*
X3710568Y2282108D1*
X3715377Y2286861D1*
X3717753Y2291670D1*
X3733193Y2329916D2*
Y2279676D1*
X3766686Y2329916D2*
Y2279676D1*
X3733193Y2305984D2*
X3766686D1*
X2396264Y1237593D2*
Y1187353D1*
X2445197Y1230408D2*
X2440443Y1235217D1*
X2433258Y1237593D1*
X2423697D1*
X2416512Y1235217D1*
X2411703Y1230408D1*
Y1225655D1*
X2414135Y1220846D1*
X2416512Y1218470D1*
X2421265Y1216093D1*
X2435635Y1211285D1*
X2440443Y1208908D1*
X2442820Y1206476D1*
X2445197Y1201723D1*
Y1194538D1*
X2440443Y1189785D1*
X2433258Y1187353D1*
X2423697D1*
X2416512Y1189785D1*
X2411703Y1194538D1*
X2460636Y1237593D2*
Y1187353D1*
X2489321D1*
X2533445Y1237538D2*
X2509568D1*
X2507192Y1216038D1*
X2509568Y1218415D1*
X2516753Y1220846D1*
X2523883D1*
X2531068Y1218415D1*
X2535877Y1213661D1*
X2538253Y1206476D1*
Y1201723D1*
X2535877Y1194538D1*
X2531068Y1189730D1*
X2523883Y1187353D1*
X2516753D1*
X2509568Y1189730D1*
X2507192Y1192162D1*
X2504760Y1196915D1*
X2582377Y1237538D2*
X2558501D1*
X2556124Y1216038D1*
X2558501Y1218415D1*
X2565686Y1220846D1*
X2572816D1*
X2580001Y1218415D1*
X2584809Y1213661D1*
X2587186Y1206476D1*
Y1201723D1*
X2584809Y1194538D1*
X2580001Y1189730D1*
X2572816Y1187353D1*
X2565686D1*
X2558501Y1189730D1*
X2556124Y1192162D1*
X2553693Y1196915D1*
X2602625Y1227976D2*
X2607434Y1230408D1*
X2614619Y1237538D1*
Y1187353D1*
X2630058Y1227976D2*
X2634866Y1230408D1*
X2642051Y1237538D1*
Y1187353D1*
X2657491Y1227976D2*
X2662299Y1230408D1*
X2669484Y1237538D1*
Y1187353D1*
X1349077Y2320207D2*
D65*
Y2219727D1*
X1392187D1*
X1406557Y2224591D1*
X1411310Y2229344D1*
X1416063Y2238851D1*
Y2253221D1*
X1411310Y2262838D1*
X1406557Y2267591D1*
X1392187Y2272344D1*
X1406557Y2277208D1*
X1411310Y2281961D1*
X1416063Y2291467D1*
Y2301084D1*
X1411310Y2310590D1*
X1406557Y2315454D1*
X1392187Y2320207D1*
X1349077D1*
Y2272344D2*
X1392187D1*
X1446942Y2257974D2*
X1504312D1*
Y2267591D1*
X1499558Y2277208D1*
X1494805Y2281961D1*
X1485188Y2286714D1*
X1470818D1*
X1461312Y2281961D1*
X1451695Y2272344D1*
X1446942Y2257974D1*
Y2248467D1*
X1451695Y2234097D1*
X1461312Y2224591D1*
X1470818Y2219727D1*
X1485188D1*
X1494805Y2224591D1*
X1504312Y2234097D1*
X1592560Y2286714D2*
Y2219727D1*
Y2272344D2*
X1583053Y2281961D1*
X1573437Y2286714D1*
X1559177D1*
X1549560Y2281961D1*
X1540054Y2272344D1*
X1535190Y2257974D1*
Y2248467D1*
X1540054Y2234097D1*
X1549560Y2224591D1*
X1559177Y2219727D1*
X1573437D1*
X1583053Y2224591D1*
X1592560Y2234097D1*
X1680808Y2281961D2*
Y2205357D1*
X1676055Y2191098D1*
X1671302Y2186234D1*
X1661685Y2181481D1*
X1647315D1*
X1637808Y2186234D1*
X1680808Y2267591D2*
X1671302Y2277097D1*
X1661685Y2281961D1*
X1647315D1*
X1637808Y2277097D1*
X1628191Y2267591D1*
X1623438Y2253221D1*
Y2243604D1*
X1628191Y2229344D1*
X1637808Y2219727D1*
X1647315Y2214974D1*
X1661685D1*
X1671302Y2219727D1*
X1680808Y2229344D1*
X1711687Y2320207D2*
Y2219727D1*
X1742565Y2257974D2*
X1799935D1*
Y2267591D1*
X1795182Y2277208D1*
X1790428Y2281961D1*
X1780812Y2286714D1*
X1766441D1*
X1756935Y2281961D1*
X1747318Y2272344D1*
X1742565Y2257974D1*
Y2248467D1*
X1747318Y2234097D1*
X1756935Y2224591D1*
X1766441Y2219727D1*
X1780812D1*
X1790428Y2224591D1*
X1799935Y2234097D1*
X1830813Y2320207D2*
Y2219727D1*
X1873924D1*
X1888294Y2224591D1*
X1893047Y2229344D1*
X1897800Y2238851D1*
Y2253221D1*
X1893047Y2262838D1*
X1888294Y2267591D1*
X1873924Y2272344D1*
X1888294Y2277208D1*
X1893047Y2281961D1*
X1897800Y2291467D1*
Y2301084D1*
X1893047Y2310590D1*
X1888294Y2315454D1*
X1873924Y2320207D1*
X1830813D1*
Y2272344D2*
X1873924D1*
X1952555Y2286714D2*
X1943049Y2281961D1*
X1933432Y2272344D1*
X1928678Y2257974D1*
Y2248467D1*
X1933432Y2234097D1*
X1943049Y2224591D1*
X1952555Y2219727D1*
X1966925D1*
X1976542Y2224591D1*
X1986048Y2234097D1*
X1990912Y2248467D1*
Y2257974D1*
X1986048Y2272344D1*
X1976542Y2281961D1*
X1966925Y2286714D1*
X1952555D1*
X2021790D2*
Y2219727D1*
Y2267591D2*
X2036161Y2281961D1*
X2045777Y2286714D1*
X2060037D1*
X2069654Y2281961D1*
X2074407Y2267591D1*
Y2219727D1*
X2105286Y2257974D2*
X2162655D1*
Y2267591D1*
X2157902Y2277208D1*
X2153149Y2281961D1*
X2143532Y2286714D1*
X2129162D1*
X2119656Y2281961D1*
X2110039Y2272344D1*
X2105286Y2257974D1*
Y2248467D1*
X2110039Y2234097D1*
X2119656Y2224591D1*
X2129162Y2219727D1*
X2143532D1*
X2153149Y2224591D1*
X2162655Y2234097D1*
X2357722Y2305837D2*
X2348216Y2315454D1*
X2333846Y2320207D1*
X2314723D1*
X2300353Y2315454D1*
X2290736Y2305837D1*
Y2296331D1*
X2295599Y2286714D1*
X2300353Y2281961D1*
X2309859Y2277208D1*
X2338599Y2267591D1*
X2348216Y2262838D1*
X2352969Y2257974D1*
X2357722Y2248467D1*
Y2234097D1*
X2348216Y2224591D1*
X2333846Y2219727D1*
X2314723D1*
X2300353Y2224591D1*
X2290736Y2234097D1*
X2388601Y2320207D2*
Y2219727D1*
Y2267591D2*
X2402971Y2281961D1*
X2412588Y2286714D1*
X2426958D1*
X2436464Y2281961D1*
X2441218Y2267591D1*
Y2219727D1*
X2472096Y2320207D2*
X2476849Y2315454D1*
X2481713Y2320207D1*
X2476849Y2325071D1*
X2472096Y2320207D1*
X2476849Y2286714D2*
Y2219727D1*
X2512591Y2257974D2*
X2569961D1*
Y2267591D1*
X2565208Y2277208D1*
X2560455Y2281961D1*
X2550838Y2286714D1*
X2536468D1*
X2526961Y2281961D1*
X2517345Y2272344D1*
X2512591Y2257974D1*
Y2248467D1*
X2517345Y2234097D1*
X2526961Y2224591D1*
X2536468Y2219727D1*
X2550838D1*
X2560455Y2224591D1*
X2569961Y2234097D1*
X2600840Y2320207D2*
Y2219727D1*
X2689088Y2320207D2*
Y2219727D1*
Y2272344D2*
X2679582Y2281961D1*
X2669965Y2286714D1*
X2655595D1*
X2646088Y2281961D1*
X2636471Y2272344D1*
X2631718Y2257974D1*
Y2248467D1*
X2636471Y2234097D1*
X2646088Y2224591D1*
X2655595Y2219727D1*
X2669965D1*
X2679582Y2224591D1*
X2689088Y2234097D1*
X1349077Y2122344D2*
X1392076D1*
X1406446Y2127208D1*
X1411310Y2131961D1*
X1416063Y2141467D1*
Y2151084D1*
X1411310Y2160590D1*
X1406446Y2165454D1*
X1392076Y2170207D1*
X1349077D1*
Y2069727D1*
X1382570Y2122344D2*
X1416063Y2069727D1*
X1446942Y2107974D2*
X1504312D1*
Y2117591D1*
X1499558Y2127208D1*
X1494805Y2131961D1*
X1485188Y2136714D1*
X1470818D1*
X1461312Y2131961D1*
X1451695Y2122344D1*
X1446942Y2107974D1*
Y2098467D1*
X1451695Y2084097D1*
X1461312Y2074591D1*
X1470818Y2069727D1*
X1485188D1*
X1494805Y2074591D1*
X1504312Y2084097D1*
X1535190Y2136714D2*
X1563930Y2069727D1*
X1592560Y2136714D1*
X1623438Y2170207D2*
X1628191Y2165454D1*
X1633055Y2170207D1*
X1628191Y2175071D1*
X1623438Y2170207D1*
X1628191Y2136714D2*
Y2069727D1*
X1716550Y2122344D2*
X1711797Y2131961D1*
X1697427Y2136714D1*
X1683057D1*
X1668687Y2131961D1*
X1663934Y2122344D1*
X1668687Y2112838D1*
X1678304Y2107974D1*
X1702180Y2103221D1*
X1711797Y2098467D1*
X1716550Y2088851D1*
Y2084097D1*
X1711797Y2074591D1*
X1697427Y2069727D1*
X1683057D1*
X1668687Y2074591D1*
X1663934Y2084097D1*
X1747429Y2170207D2*
X1752182Y2165454D1*
X1757046Y2170207D1*
X1752182Y2175071D1*
X1747429Y2170207D1*
X1752182Y2136714D2*
Y2069727D1*
X1811801Y2136714D2*
X1802294Y2131961D1*
X1792677Y2122344D1*
X1787924Y2107974D1*
Y2098467D1*
X1792677Y2084097D1*
X1802294Y2074591D1*
X1811801Y2069727D1*
X1826171D1*
X1835788Y2074591D1*
X1845294Y2084097D1*
X1850158Y2098467D1*
Y2107974D1*
X1845294Y2122344D1*
X1835788Y2131961D1*
X1826171Y2136714D1*
X1811801D1*
X1881036D2*
Y2069727D1*
Y2117591D2*
X1895406Y2131961D1*
X1905023Y2136714D1*
X1919283D1*
X1928900Y2131961D1*
X1933653Y2117591D1*
Y2069727D1*
X2061733Y2170207D2*
Y2069727D1*
X2104843D1*
X2119213Y2074591D1*
X2123967Y2079344D1*
X2128720Y2088851D1*
Y2103221D1*
X2123967Y2112838D1*
X2119213Y2117591D1*
X2104843Y2122344D1*
X2119213Y2127208D1*
X2123967Y2131961D1*
X2128720Y2141467D1*
Y2151084D1*
X2123967Y2160590D1*
X2119213Y2165454D1*
X2104843Y2170207D1*
X2061733D1*
Y2122344D2*
X2104843D1*
X1353940Y1996220D2*
Y2000973D1*
X1358693Y2010590D1*
X1363447Y2015344D1*
X1373064Y2020097D1*
X1392187D1*
X1401693Y2015344D1*
X1406446Y2010590D1*
X1411310Y2000973D1*
Y1991467D1*
X1406446Y1981850D1*
X1396940Y1967591D1*
X1349077Y1919727D1*
X1416063D1*
X1446942D2*
X1513928Y2020097D1*
X1573547D2*
X1559177Y2015344D1*
X1549560Y2000973D1*
X1544807Y1977097D1*
Y1962727D1*
X1549560Y1938851D1*
X1559177Y1924480D1*
X1573547Y1919727D1*
X1583053D1*
X1597424Y1924480D1*
X1606930Y1938851D1*
X1611794Y1962727D1*
Y1977097D1*
X1606930Y2000973D1*
X1597424Y2015344D1*
X1583053Y2020097D1*
X1573547D1*
X1606930Y2000973D2*
X1549560Y1938851D1*
X1642672Y2000973D2*
X1652289Y2005837D1*
X1666659Y2020097D1*
Y1919727D1*
X1697538D2*
X1764524Y2020097D1*
X1800266Y1996220D2*
Y2000973D1*
X1805020Y2010590D1*
X1809773Y2015344D1*
X1819390Y2020097D1*
X1838513D1*
X1848019Y2015344D1*
X1852772Y2010590D1*
X1857636Y2000973D1*
Y1991467D1*
X1852772Y1981850D1*
X1843266Y1967591D1*
X1795403Y1919727D1*
X1862389D1*
X1922008Y2020097D2*
X1907638Y2015344D1*
X1898021Y2000973D1*
X1893268Y1977097D1*
Y1962727D1*
X1898021Y1938851D1*
X1907638Y1924480D1*
X1922008Y1919727D1*
X1931514D1*
X1945884Y1924480D1*
X1955391Y1938851D1*
X1960255Y1962727D1*
Y1977097D1*
X1955391Y2000973D1*
X1945884Y2015344D1*
X1931514Y2020097D1*
X1922008D1*
X1955391Y2000973D2*
X1898021Y1938851D1*
X1995997Y1996220D2*
Y2000973D1*
X2000750Y2010590D1*
X2005503Y2015344D1*
X2015120Y2020097D1*
X2034243D1*
X2043750Y2015344D1*
X2048503Y2010590D1*
X2053367Y2000973D1*
Y1991467D1*
X2048503Y1981850D1*
X2038996Y1967591D1*
X1991133Y1919727D1*
X2058120D1*
X2117738Y2020097D2*
X2103368Y2015344D1*
X2093751Y2000973D1*
X2088998Y1977097D1*
Y1962727D1*
X2093751Y1938851D1*
X2103368Y1924480D1*
X2117738Y1919727D1*
X2127245D1*
X2141615Y1924480D1*
X2151121Y1938851D1*
X2155985Y1962727D1*
Y1977097D1*
X2151121Y2000973D1*
X2141615Y2015344D1*
X2127245Y2020097D1*
X2117738D1*
X2151121Y2000973D2*
X2093751Y1938851D1*
X1186112Y950456D2*
D67*
X1211945D1*
X1199045Y937556D2*
X1199046Y963389D1*
X1183974Y989864D2*
Y975538D1*
X1196873Y974112D1*
X1195447Y975538D1*
X1193988Y979849D1*
Y984127D1*
X1195447Y988438D1*
X1198299Y991323D1*
X1202610Y992749D1*
X1205462D1*
X1209773Y991323D1*
X1212658Y988438D1*
X1214084Y984127D1*
Y979849D1*
X1212658Y975538D1*
X1211199Y974112D1*
X1208347Y972653D1*
X1183940Y1002012D2*
X1214084Y1013486D1*
X1183940Y1024960D1*
X878603Y965329D2*
X875751Y963903D1*
X872866Y961018D1*
X871440Y958166D1*
Y952429D1*
X872866Y949544D1*
X875751Y946692D1*
X878603Y945233D1*
X882914Y943807D1*
X890110D1*
X894388Y945233D1*
X897273Y946692D1*
X900125Y949544D1*
X901584Y952429D1*
Y958166D1*
X900125Y961018D1*
X897273Y963903D1*
X894388Y965329D1*
X890110D1*
Y958166D1*
X871440Y994688D2*
X901584D1*
X871440Y974592D1*
X901584D1*
X871440Y1003952D2*
X901584D1*
Y1014000D1*
X900125Y1018311D1*
X897273Y1021196D1*
X894388Y1022622D1*
X890110Y1024048D1*
X882914D1*
X878603Y1022622D1*
X875751Y1021196D1*
X872866Y1018311D1*
X871440Y1014000D1*
Y1003952D1*
X1881269Y1634957D2*
D68*
Y1600513D1*
X1864069Y1617713D2*
X1898513D1*
X1933813Y1637809D2*
X1914712D1*
X1912810Y1620609D1*
X1914712Y1622510D1*
X1920460Y1624456D1*
X1926163D1*
X1931911Y1622510D1*
X1935758Y1618708D1*
X1937660Y1612960D1*
Y1609157D1*
X1935758Y1603409D1*
X1931911Y1599562D1*
X1926163Y1597661D1*
X1920460D1*
X1914712Y1599562D1*
X1912810Y1601508D1*
X1910865Y1605310D1*
X1950011Y1637853D2*
X1965310Y1597661D1*
X1980608Y1637853D1*
X1897540Y1423528D2*
X1895638Y1427331D1*
X1891792Y1431177D1*
X1887989Y1433079D1*
X1880340D1*
X1876493Y1431177D1*
X1872691Y1427331D1*
X1870745Y1423528D1*
X1868844Y1417780D1*
Y1408185D1*
X1870745Y1402482D1*
X1872691Y1398635D1*
X1876493Y1394832D1*
X1880340Y1392887D1*
X1887989D1*
X1891792Y1394832D1*
X1895638Y1398635D1*
X1897540Y1402482D1*
Y1408185D1*
X1887989D1*
X1936686Y1433079D2*
Y1392887D1*
X1909891Y1433079D1*
Y1392887D1*
X1949037Y1433079D2*
Y1392887D1*
X1962434D1*
X1968183Y1394832D1*
X1972029Y1398635D1*
X1973931Y1402482D1*
X1975832Y1408185D1*
Y1417780D1*
X1973931Y1423528D1*
X1972029Y1427331D1*
X1968183Y1431177D1*
X1962434Y1433079D1*
X1949037D1*
X3635040Y1573528D2*
X3633138Y1577331D1*
X3629292Y1581177D1*
X3625489Y1583079D1*
X3617840D1*
X3613993Y1581177D1*
X3610191Y1577331D1*
X3608245Y1573528D1*
X3606344Y1567780D1*
Y1558185D1*
X3608245Y1552482D1*
X3610191Y1548635D1*
X3613993Y1544832D1*
X3617840Y1542887D1*
X3625489D1*
X3629292Y1544832D1*
X3633138Y1548635D1*
X3635040Y1552482D1*
Y1558185D1*
X3625489D1*
X3674186Y1583079D2*
Y1542887D1*
X3647391Y1583079D1*
Y1542887D1*
X3686537Y1583079D2*
Y1542887D1*
X3699934D1*
X3705683Y1544832D1*
X3709529Y1548635D1*
X3711431Y1552482D1*
X3713332Y1558185D1*
Y1567780D1*
X3711431Y1573528D1*
X3709529Y1577331D1*
X3705683Y1581177D1*
X3699934Y1583079D1*
X3686537D1*
X3618769Y1684958D2*
Y1650514D1*
X3601569Y1667714D2*
X3636013D1*
X3671313Y1687810D2*
X3652212D1*
X3650310Y1670610D1*
X3652212Y1672511D1*
X3657960Y1674457D1*
X3663663D1*
X3669411Y1672511D1*
X3673258Y1668709D1*
X3675160Y1662961D1*
Y1659158D1*
X3673258Y1653410D1*
X3669411Y1649564D1*
X3663663Y1647662D1*
X3657960D1*
X3652212Y1649564D1*
X3650310Y1651509D1*
X3648365Y1655312D1*
X3687511Y1687854D2*
X3702810Y1647662D1*
X3718108Y1687854D1*
X3633138Y1477331D2*
X3629336Y1481177D1*
X3623588Y1483079D1*
X3615939D1*
X3610191Y1481177D1*
X3606344Y1477331D1*
Y1473528D1*
X3608289Y1469681D1*
X3610191Y1467780D1*
X3613993Y1465879D1*
X3625489Y1462032D1*
X3629336Y1460131D1*
X3631237Y1458185D1*
X3633138Y1454383D1*
Y1448635D1*
X3629336Y1444832D1*
X3623588Y1442887D1*
X3615939D1*
X3610191Y1444832D1*
X3606344Y1448635D1*
X3645490Y1483079D2*
Y1442887D1*
X3658887D1*
X3664635Y1444832D1*
X3668482Y1448635D1*
X3670383Y1452482D1*
X3672284Y1458185D1*
Y1467780D1*
X3670383Y1473528D1*
X3668482Y1477331D1*
X3664635Y1481177D1*
X3658887Y1483079D1*
X3645490D1*
X3715277Y1442887D2*
X3699934Y1483079D1*
X3684636Y1442887D1*
X3690384Y1456284D2*
X3709529D1*
X3633138Y1377331D2*
X3629336Y1381177D1*
X3623588Y1383079D1*
X3615939D1*
X3610191Y1381177D1*
X3606344Y1377331D1*
Y1373528D1*
X3608289Y1369681D1*
X3610191Y1367780D1*
X3613993Y1365879D1*
X3625489Y1362032D1*
X3629336Y1360131D1*
X3631237Y1358185D1*
X3633138Y1354383D1*
Y1348635D1*
X3629336Y1344832D1*
X3623588Y1342887D1*
X3615939D1*
X3610191Y1344832D1*
X3606344Y1348635D1*
X3674186Y1373528D2*
X3672284Y1377331D1*
X3668438Y1381177D1*
X3664635Y1383079D1*
X3656986D1*
X3653139Y1381177D1*
X3649337Y1377331D1*
X3647391Y1373528D1*
X3645490Y1367780D1*
Y1358185D1*
X3647391Y1352482D1*
X3649337Y1348635D1*
X3653139Y1344832D1*
X3656986Y1342887D1*
X3664635D1*
X3668438Y1344832D1*
X3672284Y1348635D1*
X3674186Y1352482D1*
X3686537Y1383079D2*
Y1342887D1*
X3709485D1*
X1907211Y1497661D2*
X1891868Y1537853D1*
X1876569Y1497661D1*
X1882318Y1511058D2*
X1901463D1*
X1919562Y1537853D2*
Y1497661D1*
X1958708Y1537853D2*
Y1497661D1*
X1931914Y1537853D1*
Y1497661D1*
X424832Y2157079D2*
X465024D1*
Y2170476D1*
X463079Y2176224D1*
X459276Y2180071D1*
X455429Y2181972D1*
X449726Y2183873D1*
X440131D1*
X434383Y2181972D1*
X430580Y2180071D1*
X426733Y2176224D1*
X424832Y2170476D1*
Y2157079D1*
X434383Y2224921D2*
X430580Y2223019D1*
X426733Y2219173D1*
X424832Y2215370D1*
Y2207721D1*
X426733Y2203874D1*
X430580Y2200072D1*
X434383Y2198126D1*
X440131Y2196225D1*
X449726D1*
X455429Y2198126D1*
X459276Y2200072D1*
X463079Y2203874D1*
X465024Y2207721D1*
Y2215370D1*
X463079Y2219173D1*
X459276Y2223019D1*
X455429Y2224921D1*
X449725D1*
Y2215370D1*
X424832Y2264067D2*
X465024D1*
X424832Y2237272D1*
X465024D1*
X424832Y2276418D2*
X465024D1*
Y2289815D1*
X463079Y2295564D1*
X459276Y2299410D1*
X455429Y2301312D1*
X449725Y2303213D1*
X440131D1*
X434383Y2301312D1*
X430580Y2299410D1*
X426733Y2295564D1*
X424832Y2289815D1*
Y2276418D1*
X727728Y2174279D2*
X762172D1*
X744972Y2157079D2*
Y2191523D1*
X724876Y2226822D2*
Y2207721D1*
X742076Y2205820D1*
X740175Y2207721D1*
X738229Y2213469D1*
Y2219173D1*
X740175Y2224921D1*
X743977Y2228767D1*
X749725Y2230669D1*
X753528D1*
X759276Y2228767D1*
X763123Y2224921D1*
X765024Y2219173D1*
Y2213469D1*
X763123Y2207721D1*
X761177Y2205820D1*
X757375Y2203874D1*
X724832Y2243020D2*
X765024Y2258319D1*
X724832Y2273617D1*
X734383Y2485775D2*
X730580Y2483873D1*
X726733Y2480027D1*
X724832Y2476224D1*
Y2468575D1*
X726733Y2464728D1*
X730580Y2460926D1*
X734383Y2458980D1*
X740131Y2457079D1*
X749725D1*
X755429Y2458980D1*
X759276Y2460926D1*
X763079Y2464728D1*
X765024Y2468575D1*
Y2476224D1*
X763079Y2480027D1*
X759276Y2483873D1*
X755429Y2485775D1*
X749726D1*
Y2476224D1*
X724832Y2524921D2*
X765024D1*
X724832Y2498126D1*
X765024D1*
X724832Y2537272D2*
X765024D1*
Y2550669D1*
X763079Y2556417D1*
X759276Y2560264D1*
X755429Y2562165D1*
X749725Y2564067D1*
X740131D1*
X734383Y2562165D1*
X730580Y2560264D1*
X726733Y2556417D1*
X724832Y2550669D1*
Y2537272D1*
X424832Y2457079D2*
X465024Y2472377D1*
X424832Y2487676D1*
Y2500027D2*
X465024D1*
Y2513425D1*
X463079Y2519173D1*
X459276Y2523019D1*
X455429Y2524921D1*
X449725Y2526822D1*
X440131D1*
X434383Y2524921D1*
X430580Y2523019D1*
X426733Y2519173D1*
X424832Y2513425D1*
Y2500027D1*
Y2539173D2*
X465024D1*
Y2552571D1*
X463079Y2558319D1*
X459276Y2562165D1*
X455429Y2564067D1*
X449725Y2565968D1*
X440131D1*
X434383Y2564067D1*
X430580Y2562165D1*
X426733Y2558319D1*
X424832Y2552571D1*
Y2539173D1*
X985799Y943807D2*
D67*
Y956707D1*
X984340Y961018D1*
X982914Y962477D1*
X980062Y963903D1*
X977177D1*
X974325Y962477D1*
X972866Y961018D1*
X971440Y956707D1*
Y943807D1*
X1001584D1*
X985799Y953855D2*
X1001584Y963903D1*
X971440Y973166D2*
X1001584Y993262D1*
X971440D2*
X1001584Y973166D1*
X971440Y1002526D2*
X1001584D1*
Y1012574D1*
X1000125Y1016885D1*
X997273Y1019770D1*
X994388Y1021196D1*
X990110Y1022622D1*
X982914D1*
X978603Y1021196D1*
X975751Y1019770D1*
X972866Y1016885D1*
X971440Y1012574D1*
Y1002526D1*
X1071440Y953855D2*
X1101584D1*
X1071440Y943807D2*
Y963903D1*
Y973166D2*
X1101584Y993262D1*
X1071440D2*
X1101584Y973166D1*
X1071440Y1002526D2*
X1101584D1*
Y1012574D1*
X1100125Y1016885D1*
X1097273Y1019770D1*
X1094388Y1021196D1*
X1090110Y1022622D1*
X1082914D1*
X1078603Y1021196D1*
X1075751Y1019770D1*
X1072866Y1016885D1*
X1071440Y1012574D1*
Y1002526D1*
X1295374Y1109010D2*
D64*
X1292998Y1113763D1*
X1288189Y1118572D1*
X1283436Y1120948D1*
X1273874D1*
X1269066Y1118572D1*
X1264313Y1113763D1*
X1261881Y1109010D1*
X1259504Y1101825D1*
Y1089831D1*
X1261881Y1082702D1*
X1264313Y1077893D1*
X1269066Y1073140D1*
X1273874Y1070708D1*
X1283436D1*
X1288189Y1073140D1*
X1292998Y1077893D1*
X1295374Y1082702D1*
Y1089831D1*
X1283436D1*
X1310813Y1094640D2*
X1332368D1*
X1339498Y1097016D1*
X1341930Y1099448D1*
X1344307Y1104201D1*
Y1111387D1*
X1341930Y1116140D1*
X1339498Y1118572D1*
X1332368Y1120948D1*
X1310813D1*
Y1070708D1*
X1393239Y1113763D2*
X1388486Y1118572D1*
X1381301Y1120948D1*
X1371739D1*
X1364554Y1118572D1*
X1359746Y1113763D1*
Y1109010D1*
X1362178Y1104201D1*
X1364554Y1101825D1*
X1369308Y1099448D1*
X1383678Y1094640D1*
X1388486Y1092263D1*
X1390863Y1089831D1*
X1393239Y1085078D1*
Y1077893D1*
X1388486Y1073140D1*
X1381301Y1070708D1*
X1371739D1*
X1364554Y1073140D1*
X1359746Y1077893D1*
X534383Y935775D2*
D68*
X530580Y933873D1*
X526733Y930027D1*
X524832Y926224D1*
Y918575D1*
X526733Y914728D1*
X530580Y910926D1*
X534383Y908980D1*
X540131Y907079D1*
X549725D1*
X555429Y908980D1*
X559276Y910926D1*
X563079Y914728D1*
X565024Y918575D1*
Y926224D1*
X563079Y930027D1*
X559276Y933873D1*
X555429Y935775D1*
X549726D1*
Y926224D1*
X524832Y974921D2*
X565024D1*
X524832Y948126D1*
X565024D1*
X524832Y987272D2*
X565024D1*
Y1000669D1*
X563079Y1006417D1*
X559276Y1010264D1*
X555429Y1012165D1*
X549725Y1014067D1*
X540131D1*
X534383Y1012165D1*
X530580Y1010264D1*
X526733Y1006417D1*
X524832Y1000669D1*
Y987272D1*
X627728Y924279D2*
X662172D1*
X644972Y907079D2*
Y941523D1*
X624876Y976822D2*
Y957721D1*
X642076Y955820D1*
X640175Y957721D1*
X638229Y963469D1*
Y969173D1*
X640175Y974921D1*
X643977Y978767D1*
X649725Y980669D1*
X653528D1*
X659276Y978767D1*
X663123Y974921D1*
X665024Y969173D1*
Y963469D1*
X663123Y957721D1*
X661177Y955820D1*
X657375Y953874D1*
X624832Y993020D2*
X665024Y1008319D1*
X624832Y1023617D1*
X486374Y883448D2*
D64*
X481566Y881072D1*
X476813Y876263D1*
X474381Y871510D1*
X472004Y864325D1*
Y852331D1*
X474381Y845202D1*
X476813Y840393D1*
X481566Y835640D1*
X486374Y833208D1*
X495936D1*
X500689Y835640D1*
X505498Y840393D1*
X507874Y845202D1*
X510251Y852331D1*
Y864325D1*
X507874Y871510D1*
X505498Y876263D1*
X500689Y881072D1*
X495936Y883448D1*
X486374D1*
X525690Y866701D2*
Y833208D1*
Y857140D2*
X532875Y864325D1*
X537683Y866701D1*
X544813D1*
X549622Y864325D1*
X551998Y857140D1*
Y833208D1*
X567437D2*
X600931Y883393D1*
X630740Y883448D2*
X625932Y881072D1*
X621179Y876263D1*
X618747Y871510D1*
X616370Y864325D1*
Y852331D1*
X618747Y845202D1*
X621179Y840393D1*
X625932Y835640D1*
X630740Y833208D1*
X640302D1*
X645055Y835640D1*
X649863Y840393D1*
X652240Y845202D1*
X654617Y852331D1*
Y864325D1*
X652240Y871510D1*
X649863Y876263D1*
X645055Y881072D1*
X640302Y883448D1*
X630740D1*
X689179D2*
X684426D1*
X679617Y881072D1*
X677241Y873887D1*
Y833208D1*
X670056Y866701D2*
X686802D1*
X723742Y883448D2*
X718988D1*
X714180Y881072D1*
X711803Y873887D1*
Y833208D1*
X704618Y866701D2*
X721365D1*
X1352952Y1471436D2*
X1403192D1*
Y1500121D1*
X1398384Y1517937D2*
X1400816Y1515560D1*
X1403192Y1517937D1*
X1400816Y1520369D1*
X1398384Y1517937D1*
X1379260Y1535808D2*
Y1557363D1*
X1376884Y1564493D1*
X1374452Y1566925D1*
X1369699Y1569301D1*
X1362514D1*
X1357761Y1566925D1*
X1355329Y1564493D1*
X1352952Y1557363D1*
Y1535808D1*
X1403192D1*
X1398384Y1587117D2*
X1400816Y1584740D1*
X1403192Y1587117D1*
X1400816Y1589549D1*
X1398384Y1587117D1*
X2480002Y1469828D2*
X2530242D1*
X2491996Y1487700D2*
X2489619D1*
X2484810Y1490076D1*
X2482434Y1492453D1*
X2480057Y1497261D1*
Y1506823D1*
X2482434Y1511576D1*
X2484811Y1513953D1*
X2489619Y1516384D1*
X2494372D1*
X2499181Y1513953D1*
X2506310Y1509199D1*
X2530242Y1485268D1*
Y1518761D1*
X2491940Y1570070D2*
X2487187Y1567694D1*
X2482379Y1562885D1*
X2480002Y1558132D1*
Y1548570D1*
X2482379Y1543762D1*
X2487187Y1539009D1*
X2491940Y1536577D1*
X2499125Y1534200D1*
X2511119D1*
X2518249Y1536577D1*
X2523057Y1539009D1*
X2527810Y1543762D1*
X2530242Y1548570D1*
Y1558132D1*
X2527810Y1562885D1*
X2523057Y1567693D1*
X2518249Y1570070D1*
X3470634Y2421436D2*
X3470635Y2442936D1*
X3468203Y2450121D1*
X3465826Y2452553D1*
X3461073Y2454929D1*
X3456264D1*
X3451511Y2452553D1*
X3449079Y2450121D1*
X3446703Y2442936D1*
Y2421436D1*
X3496943D1*
X3470635Y2438183D2*
X3496943Y2454929D1*
X3446703Y2470369D2*
X3496943D1*
X3446703Y2519301D2*
X3496943D1*
X3446703Y2485808D1*
X3496943D1*
X3445509Y522411D2*
X3495749D1*
Y551096D1*
X3445509Y566535D2*
X3495749D1*
X3445509Y615468D2*
X3495749D1*
X3445509Y581974D1*
X3495749D1*
X503255Y477199D2*
Y426959D1*
X524810D1*
X531995Y429391D1*
X534372Y431767D1*
X536748Y436520D1*
Y443705D1*
X534372Y448514D1*
X531995Y450890D1*
X524810Y453267D1*
X531995Y455699D1*
X534372Y458076D1*
X536748Y462829D1*
Y467637D1*
X534372Y472390D1*
X531995Y474822D1*
X524810Y477199D1*
X503255D1*
Y453267D2*
X524810D1*
X590489Y426959D2*
X571311Y477199D1*
X552187Y426959D1*
X559372Y443705D2*
X583304D1*
X622675Y477199D2*
Y426959D1*
X605928Y477199D2*
X639422D1*
X603602Y715329D2*
D67*
X600750Y713903D1*
X597865Y711018D1*
X596439Y708166D1*
Y702429D1*
X597865Y699544D1*
X600750Y696692D1*
X603602Y695233D1*
X607913Y693807D1*
X615109D1*
X619387Y695233D1*
X622272Y696692D1*
X625124Y699544D1*
X626583Y702429D1*
Y708166D1*
X625124Y711018D1*
X622272Y713903D1*
X619387Y715329D1*
X615109D1*
Y708166D1*
X596439Y744688D2*
X626583D1*
X596439Y724592D1*
X626583D1*
X596439Y753952D2*
X626583D1*
Y764000D1*
X625124Y768311D1*
X622272Y771196D1*
X619387Y772622D1*
X615109Y774048D1*
X607913D1*
X603602Y772622D1*
X600750Y771196D1*
X597865Y768311D1*
X596439Y764000D1*
Y753952D1*
X508940Y693807D2*
X539084Y705281D1*
X508940Y716755D1*
Y726018D2*
X539084D1*
Y736066D1*
X537625Y740377D1*
X534773Y743262D1*
X531888Y744688D1*
X527610Y746114D1*
X520414D1*
X516103Y744688D1*
X513251Y743262D1*
X510366Y740377D1*
X508940Y736066D1*
Y726018D1*
Y755378D2*
X539084D1*
Y765426D1*
X537625Y769737D1*
X534773Y772622D1*
X531888Y774048D1*
X527610Y775474D1*
X520414D1*
X516103Y774048D1*
X513251Y772622D1*
X510366Y769737D1*
X508940Y765426D1*
Y755378D1*
X1356201Y1880003D2*
D65*
X1394448Y1779523D1*
X1432694Y1880003D1*
X1463573D2*
X1468326Y1875249D1*
X1473190Y1880003D1*
X1468326Y1884866D1*
X1463573Y1880003D1*
X1468326Y1846509D2*
Y1779523D1*
X1504068Y1846509D2*
Y1779523D1*
Y1817769D2*
X1508932Y1832139D1*
X1518438Y1841756D1*
X1528055Y1846509D1*
X1542425D1*
X1630673Y1841756D2*
Y1765152D1*
X1625920Y1750893D1*
X1621167Y1746029D1*
X1611550Y1741276D1*
X1597180D1*
X1587674Y1746029D1*
X1630673Y1827386D2*
X1621167Y1836892D1*
X1611550Y1841756D1*
X1597180D1*
X1587674Y1836892D1*
X1578057Y1827386D1*
X1573304Y1813016D1*
Y1803399D1*
X1578057Y1789139D1*
X1587674Y1779523D1*
X1597180Y1774769D1*
X1611550D1*
X1621167Y1779523D1*
X1630673Y1789139D1*
X1661552Y1880003D2*
X1666305Y1875249D1*
X1671169Y1880003D1*
X1666305Y1884866D1*
X1661552Y1880003D1*
X1666305Y1846509D2*
Y1779523D1*
X1702047Y1846509D2*
Y1779523D1*
Y1827386D2*
X1716417Y1841756D1*
X1726034Y1846509D1*
X1740294D1*
X1749911Y1841756D1*
X1754664Y1827386D1*
Y1779523D1*
X1785542Y1880003D2*
X1790296Y1875249D1*
X1795159Y1880003D1*
X1790296Y1884866D1*
X1785542Y1880003D1*
X1790296Y1846509D2*
Y1779523D1*
X1883408Y1846509D2*
Y1779523D1*
Y1832139D2*
X1873901Y1841756D1*
X1864284Y1846509D1*
X1850025D1*
X1840408Y1841756D1*
X1830902Y1832139D1*
X1826038Y1817769D1*
Y1808263D1*
X1830902Y1793893D1*
X1840408Y1784386D1*
X1850025Y1779523D1*
X1864284D1*
X1873901Y1784386D1*
X1883408Y1793893D1*
X2044981Y1880003D2*
Y1779523D1*
X2011488Y1880003D2*
X2078475D1*
X2109353Y1817769D2*
X2166723D1*
Y1827386D1*
X2161970Y1837003D1*
X2157217Y1841756D1*
X2147600Y1846509D1*
X2133230D1*
X2123723Y1841756D1*
X2114106Y1832139D1*
X2109353Y1817769D1*
Y1808263D1*
X2114106Y1793893D1*
X2123723Y1784386D1*
X2133230Y1779523D1*
X2147600D1*
X2157217Y1784386D1*
X2166723Y1793893D1*
X2255082Y1832139D2*
X2245465Y1841756D1*
X2235848Y1846509D1*
X2221588D1*
X2211972Y1841756D1*
X2202465Y1832139D1*
X2197602Y1817769D1*
Y1808263D1*
X2202465Y1793893D1*
X2211972Y1784386D1*
X2221588Y1779523D1*
X2235848D1*
X2245465Y1784386D1*
X2255082Y1793893D1*
X2285960Y1880003D2*
Y1779523D1*
Y1827386D2*
X2300330Y1841756D1*
X2309947Y1846509D1*
X2324317D1*
X2333824Y1841756D1*
X2338577Y1827386D1*
Y1779523D1*
X2466657Y1880003D2*
Y1779523D1*
X2509768D1*
X2524138Y1784386D1*
X2528891Y1789139D1*
X2533644Y1798646D1*
Y1813016D1*
X2528891Y1822633D1*
X2524138Y1827386D1*
X2509768Y1832139D1*
X2524138Y1837003D1*
X2528891Y1841756D1*
X2533644Y1851262D1*
Y1860879D1*
X2528891Y1870386D1*
X2524138Y1875249D1*
X2509768Y1880003D1*
X2466657D1*
Y1832139D2*
X2509768D1*
X2641126Y1779523D2*
X2602769Y1880003D1*
X2564522Y1779523D1*
X2578893Y1813016D2*
X2626756D1*
X2719868Y1880003D2*
Y1803510D1*
X2715115Y1789139D1*
X2710251Y1784386D1*
X2700745Y1779523D1*
X2691128D1*
X2681621Y1784386D1*
X2676868Y1789139D1*
X2672005Y1803510D1*
Y1813016D1*
X2827350Y1779523D2*
X2788993Y1880003D1*
X2750746Y1779523D1*
X2765117Y1813016D2*
X2812980D1*
X3022417Y1865632D2*
X3012911Y1875249D1*
X2998541Y1880003D1*
X2979417D1*
X2965047Y1875249D1*
X2955430Y1865632D1*
Y1856126D1*
X2960294Y1846509D1*
X2965047Y1841756D1*
X2974554Y1837003D1*
X3003294Y1827386D1*
X3012911Y1822633D1*
X3017664Y1817769D1*
X3022417Y1808263D1*
Y1793893D1*
X3012911Y1784386D1*
X2998541Y1779523D1*
X2979417D1*
X2965047Y1784386D1*
X2955430Y1793893D1*
X3129899Y1779523D2*
X3091542Y1880003D1*
X3053296Y1779523D1*
X3067666Y1813016D2*
X3115529D1*
X3222901Y1880003D2*
X3160778D1*
Y1779523D1*
X3222901D1*
X3160778Y1832139D2*
X3199024D1*
X1585040Y1311028D2*
D68*
X1583138Y1314831D1*
X1579292Y1318677D1*
X1575489Y1320579D1*
X1567840D1*
X1563993Y1318677D1*
X1560191Y1314831D1*
X1558245Y1311028D1*
X1556344Y1305280D1*
Y1295685D1*
X1558245Y1289982D1*
X1560191Y1286135D1*
X1563993Y1282332D1*
X1567840Y1280387D1*
X1575489D1*
X1579292Y1282332D1*
X1583138Y1286135D1*
X1585040Y1289982D1*
Y1295685D1*
X1575489D1*
X1624186Y1320579D2*
Y1280387D1*
X1597391Y1320579D1*
Y1280387D1*
X1636537Y1320579D2*
Y1280387D1*
X1649934D1*
X1655683Y1282332D1*
X1659529Y1286135D1*
X1661431Y1289982D1*
X1663332Y1295685D1*
Y1305280D1*
X1661431Y1311028D1*
X1659529Y1314831D1*
X1655683Y1318677D1*
X1649934Y1320579D1*
X1636537D1*
X1556269Y1009957D2*
Y975513D1*
X1539069Y992713D2*
X1573513D1*
X1608813Y1012809D2*
X1589712D1*
X1587810Y995609D1*
X1589712Y997510D1*
X1595460Y999456D1*
X1601163D1*
X1606911Y997510D1*
X1610758Y993708D1*
X1612660Y987960D1*
Y984157D1*
X1610758Y978409D1*
X1606911Y974562D1*
X1601163Y972661D1*
X1595460D1*
X1589712Y974562D1*
X1587810Y976508D1*
X1585865Y980310D1*
X1625011Y1012853D2*
X1640310Y972661D1*
X1655608Y1012853D1*
M02*
