G04 DipTrace 3.3.1.3*
G04 TopSilk.gbr*
%MOMM*%
G04 #@! TF.FileFunction,Legend,Top*
G04 #@! TF.Part,Single*
%ADD10C,0.25*%
%ADD12C,0.076*%
%ADD19C,0.254*%
%ADD20C,0.03333*%
%ADD21C,0.127*%
%ADD22C,0.1*%
%ADD65C,0.19608*%
%ADD66C,0.39216*%
%ADD68C,0.11765*%
%ADD69C,0.15686*%
%FSLAX35Y35*%
G04*
G71*
G90*
G75*
G01*
G04 TopSilk*
%LPD*%
X5902581Y3590800D2*
D10*
Y3743200D1*
X5495419Y3590800D2*
X5902581D1*
X5495419D2*
Y3743200D1*
X5902581D1*
Y3971800D2*
Y4124200D1*
X5495419Y3971800D2*
X5902581D1*
X5495419D2*
Y4124200D1*
X5902581D1*
X4092831Y1812800D2*
Y1965200D1*
X3685669Y1812800D2*
X4092831D1*
X3685669D2*
Y1965200D1*
X4092831D1*
X1154250Y1709750D2*
X1744250D1*
Y1259750D1*
X1154250D1*
Y1709750D1*
X8969047Y3127250D2*
X7445453D1*
Y2492250D1*
X8969047D2*
X7445453D1*
X8969047Y3127250D2*
D3*
X7614404D2*
Y2492250D1*
X8969047D2*
Y3127250D1*
X9358020Y6085080D2*
G02X9149152Y6087960I-102803J119726D01*
G01*
X9358020Y6328920D2*
G03X9149152Y6326040I-102803J-119726D01*
G01*
X1253970Y5699013D2*
X1762030D1*
Y5445000D1*
X1253970D1*
Y5699013D1*
X2142955Y2905013D2*
X3159045D1*
Y2651000D1*
X2142955D1*
Y2905013D1*
X8048487Y3349455D2*
X8302500D1*
Y4365545D1*
X8048487D1*
Y3349455D1*
X7794487D2*
X8048500D1*
Y4365545D1*
X7794487D1*
Y3349455D1*
X7540487D2*
X7794500D1*
Y4365545D1*
X7540487D1*
Y3349455D1*
X7286487D2*
X7540500D1*
Y4365545D1*
X7286487D1*
Y3349455D1*
X7032487D2*
X7286500D1*
Y4365545D1*
X7032487D1*
Y3349455D1*
X6778487D2*
X7032500D1*
Y4365545D1*
X6778487D1*
Y3349455D1*
X6524487D2*
X6778500D1*
Y4365545D1*
X6524487D1*
Y3349455D1*
X8302487D2*
X8556500D1*
Y4365545D1*
X8302487D1*
Y3349455D1*
X8556487D2*
X8810500D1*
Y4365545D1*
X8556487D1*
Y3349455D1*
X8810487D2*
X9064500D1*
Y4365545D1*
X8810487D1*
Y3349455D1*
X2333500Y1800100D2*
X2841500D1*
Y2308100D1*
X2333500D1*
Y1800100D1*
X2841500Y1698500D2*
X8683500D1*
Y1190500D1*
X2841500D1*
Y1698500D1*
X3666987Y3476548D2*
X3921000D1*
Y4238452D1*
X3666987D1*
Y3476548D1*
X3920987D2*
X4175000D1*
Y4238452D1*
X3920987D1*
Y3476548D1*
X4174987D2*
X4429000D1*
Y4238452D1*
X4174987D1*
Y3476548D1*
X4428987D2*
X4683000D1*
Y4238452D1*
X4428987D1*
Y3476548D1*
X9358020Y4815080D2*
G02X9149152Y4817960I-102803J119726D01*
G01*
X9358020Y5058920D2*
G03X9149152Y5056040I-102803J-119726D01*
G01*
X1253970Y2905013D2*
X1762030D1*
Y2651000D1*
X1253970D1*
Y2905013D1*
X1213000Y6504000D2*
X1803000D1*
Y6054000D1*
X1213000D1*
Y6504000D1*
X3878000Y2614750D2*
X4328000D1*
Y3204750D1*
X3878000D1*
Y2614750D1*
X4544750D2*
X4994750D1*
Y3204750D1*
X4544750D1*
Y2614750D1*
X5243250D2*
X5693250D1*
Y3204750D1*
X5243250D1*
Y2614750D1*
X6056250Y2540000D2*
X7056250D1*
Y2090000D1*
X6056250D1*
Y2540000D1*
Y2450000D2*
X7056250D1*
X8061581Y4860800D2*
Y5013200D1*
X7654419Y4860800D2*
X8061581D1*
X7654419D2*
Y5013200D1*
X8061581D1*
Y5241800D2*
Y5394200D1*
X7654419Y5241800D2*
X8061581D1*
X7654419D2*
Y5394200D1*
X8061581D1*
Y5622800D2*
Y5775200D1*
X7654419Y5622800D2*
X8061581D1*
X7654419D2*
Y5775200D1*
X8061581D1*
X2066419Y1457200D2*
Y1304800D1*
X2473581Y1457200D2*
X2066419D1*
X2473581D2*
Y1304800D1*
X2066419D1*
X2841500Y6524500D2*
X8683500D1*
Y6016500D1*
X2841500D1*
Y6524500D1*
X9358020Y5450080D2*
G02X9149152Y5452960I-102803J119726D01*
G01*
X9358020Y5693920D2*
G03X9149152Y5691040I-102803J-119726D01*
G01*
X6268070Y3020177D2*
Y2720177D1*
X6588030Y3020177D2*
Y2720177D1*
X6268070D2*
X6588030D1*
X6268070Y3020177D2*
X6378042D1*
X6478058D2*
X6588030D1*
X6378042D2*
G03X6478058Y3020177I50008J-32D01*
G01*
X2143000Y2349377D2*
D19*
Y2857377D1*
Y2349377D2*
X3159000D1*
Y2857377D1*
X1254000Y2651000D2*
X1762000D1*
Y2270000D1*
X1254000D1*
Y2651000D1*
X8683500Y6524500D2*
D20*
X8937500D1*
Y6016500D1*
X8683500D1*
Y6524500D1*
Y1698500D2*
X8937500D1*
Y1190500D1*
X8683500D1*
Y1698500D1*
X1202370Y2012570D2*
D19*
X1678620D1*
Y1710943D1*
X1202370D1*
Y2012570D1*
X4683000Y4238500D2*
X5127500D1*
Y3476500D1*
X4683000D1*
Y4238500D1*
X9064500Y4365500D2*
X9509000D1*
Y3349500D1*
X9064500D1*
Y4365500D1*
Y4111500D2*
D21*
X9509000D1*
X9064500Y3857500D2*
X9509000D1*
X9064500Y3603500D2*
X9509000D1*
X4683000Y3984500D2*
X5127500D1*
X4683000Y3730500D2*
X5127500D1*
X2905000Y2349377D2*
Y2651000D1*
X2635127Y2349377D2*
Y2651000D1*
X2381127Y2349377D2*
Y2651000D1*
X1508000Y2270003D2*
Y2651000D1*
X1444500Y1714380D2*
Y2016000D1*
X4302000Y3317750D2*
D22*
X5445000D1*
X5540250Y3222500D1*
X4778250Y3317750D2*
Y3222500D1*
X4302000Y2524000D2*
X5445000D1*
X5540250Y2619250D1*
X4778250Y2524000D2*
Y2619250D1*
X3889250Y3381250D2*
X4302000D1*
Y3222500D1*
X3889250D1*
Y3381250D1*
Y2619250D2*
X4302000D1*
Y2460500D1*
X3889250D1*
Y2619250D1*
X8182800Y2437027D2*
D12*
X8403200D1*
X8172312Y2429427D2*
X8205889D1*
X8304400D2*
X8464491D1*
X8161476Y2421827D2*
X8191693D1*
X8393728D2*
X8520867D1*
X8150614Y2414227D2*
X8178582D1*
X8205600D2*
X8213200D1*
X8243600D2*
X8342400D1*
X8457108D2*
X8571396D1*
X8046000Y2406627D2*
X8068800D1*
X8140291D2*
X8166329D1*
X8190689D2*
X8217002D1*
X8243889D2*
X8406095D1*
X8514865D2*
X8616869D1*
X7772400Y2399027D2*
X8067306D1*
X8130763D2*
X8154572D1*
X8176493D2*
X8221416D1*
X8244864D2*
X8249706D1*
X8330319D2*
X8465546D1*
X8565961D2*
X8658642D1*
X7514000Y2391427D2*
X8064181D1*
X8121352D2*
X8143289D1*
X8163406D2*
X8191604D1*
X8211996D2*
X8225822D1*
X8246715D2*
X8254181D1*
X8396853D2*
X8520795D1*
X8611805D2*
X8697759D1*
X7240400Y2383827D2*
X7810400D1*
X8046000D2*
X8059416D1*
X8111557D2*
X8132802D1*
X8151348D2*
X8178556D1*
X8217444D2*
X8229985D1*
X8248931D2*
X8256993D1*
X8457659D2*
X8572319D1*
X8654527D2*
X8733683D1*
X7103600Y2376227D2*
X7628000D1*
X8038400D2*
X8054227D1*
X8101856D2*
X8123344D1*
X8140187D2*
X8166322D1*
X8222078D2*
X8233950D1*
X8251231D2*
X8259196D1*
X8514236D2*
X8620456D1*
X8694277D2*
X8764793D1*
X7103600Y2368627D2*
X8049778D1*
X8092872D2*
X8114400D1*
X8129600D2*
X8154540D1*
X8226260D2*
X8237626D1*
X8253821D2*
X8261580D1*
X8567445D2*
X8664694D1*
X8729757D2*
X8790710D1*
X7498800Y2361027D2*
X8046000D1*
X8084546D2*
X8142993D1*
X8230207D2*
X8240825D1*
X8256419D2*
X8264008D1*
X8616635D2*
X8703475D1*
X8760243D2*
X8812812D1*
X8076617Y2353427D2*
X8131559D1*
X8234071D2*
X8243600D1*
X8258800D2*
X8266382D1*
X8660659D2*
X8736132D1*
X8785976D2*
X8832255D1*
X8068881Y2345827D2*
X8084000D1*
X8099200D2*
X8120381D1*
X8237886D2*
X8268965D1*
X8699139D2*
X8763741D1*
X8807623D2*
X8849479D1*
X8061229Y2338227D2*
X8109699D1*
X8241670D2*
X8271513D1*
X8732347D2*
X8787351D1*
X8826197D2*
X8864789D1*
X8053610Y2330627D2*
X8099421D1*
X8245229D2*
X8251200D1*
X8266400D2*
X8273973D1*
X8760395D2*
X8807070D1*
X8842951D2*
X8878599D1*
X8046003Y2323027D2*
X8089141D1*
X8248304D2*
X8276818D1*
X8783507D2*
X8823392D1*
X8858773D2*
X8891765D1*
X8038401Y2315427D2*
X8079211D1*
X8250980D2*
X8258800D1*
X8274000D2*
X8280077D1*
X8802835D2*
X8838021D1*
X8873959D2*
X8904709D1*
X8030800Y2307827D2*
X8070131D1*
X8253659D2*
X8283392D1*
X8819930D2*
X8852450D1*
X8888255D2*
X8917141D1*
X8023200Y2300227D2*
X8061768D1*
X8256019D2*
X8286366D1*
X8835890D2*
X8866908D1*
X8901401D2*
X8929080D1*
X8015600Y2292627D2*
X8053824D1*
X8257766D2*
X8267575D1*
X8282775D2*
X8289032D1*
X8851130D2*
X8880902D1*
X8913665D2*
X8940707D1*
X8008030Y2285027D2*
X8046083D1*
X8259498D2*
X8269459D1*
X8284688D2*
X8291964D1*
X8865475D2*
X8894149D1*
X8925456D2*
X8951967D1*
X7818000Y2277427D2*
X7939600D1*
X8000697D2*
X8038430D1*
X8261662D2*
X8271456D1*
X8286923D2*
X8295287D1*
X8878864D2*
X8907092D1*
X8937006D2*
X8962682D1*
X7605200Y2269827D2*
X7938106D1*
X7994065D2*
X8030840D1*
X8263780D2*
X8273054D1*
X8289253D2*
X8298852D1*
X8891862D2*
X8919953D1*
X8948471D2*
X8972972D1*
X7400000Y2262227D2*
X7840800D1*
X7916800D2*
X7934951D1*
X7988286D2*
X8023500D1*
X8265427D2*
X8274729D1*
X8292046D2*
X8302562D1*
X8904743D2*
X8932356D1*
X8959886D2*
X8983286D1*
X7179600Y2254627D2*
X7635600D1*
X7916800D2*
X7929896D1*
X7982634D2*
X8016896D1*
X8267120D2*
X8276902D1*
X8295316D2*
X8306318D1*
X8917152D2*
X8944285D1*
X8971270D2*
X8993485D1*
X7175563Y2247027D2*
X7923533D1*
X7976360D2*
X8011383D1*
X8269299D2*
X8279251D1*
X8298862D2*
X8310110D1*
X8929084D2*
X8955938D1*
X8982399D2*
X9003534D1*
X7172000Y2239427D2*
X7916486D1*
X7969464D2*
X8006729D1*
X8271650D2*
X8281626D1*
X8302565D2*
X8313929D1*
X8940737D2*
X8967435D1*
X8992837D2*
X9013748D1*
X7871200Y2231827D2*
X7909200D1*
X7962187D2*
X7977600D1*
X7994294D2*
X8002572D1*
X8274026D2*
X8284437D1*
X8306349D2*
X8317971D1*
X8952235D2*
X8978881D1*
X9002411D2*
X9023907D1*
X7954720Y2224227D2*
X7970030D1*
X7989849D2*
X7998891D1*
X8276837D2*
X8287713D1*
X8310378D2*
X8322495D1*
X8963681D2*
X8990289D1*
X9011839D2*
X9033942D1*
X7947201Y2216627D2*
X7962697D1*
X7987304D2*
X7996054D1*
X8280113D2*
X8291261D1*
X8314898D2*
X8327391D1*
X8975089D2*
X9001677D1*
X9021642D2*
X9044120D1*
X7939887Y2209027D2*
X7956065D1*
X7986099D2*
X7994593D1*
X8283661D2*
X8294965D1*
X8319791D2*
X8332044D1*
X8986500D2*
X9012875D1*
X9031364D2*
X9054011D1*
X7933262Y2201427D2*
X7950286D1*
X7985832D2*
X7994725D1*
X8287365D2*
X8298749D1*
X8324444D2*
X8336346D1*
X8997896D2*
X9023641D1*
X9040465D2*
X9063106D1*
X7927485Y2193827D2*
X7944635D1*
X7986594D2*
X7996459D1*
X8291119D2*
X8302778D1*
X8328746D2*
X8340645D1*
X9009303D2*
X9034000D1*
X9049200D2*
X9071732D1*
X7921864Y2186227D2*
X7938366D1*
X7988398D2*
X7999488D1*
X8294911D2*
X8307298D1*
X8333016D2*
X8345504D1*
X9020697D2*
X9080642D1*
X7915879Y2178627D2*
X7931510D1*
X7990631D2*
X8003550D1*
X8298729D2*
X8312221D1*
X8337637D2*
X8351168D1*
X9032103D2*
X9056800D1*
X9072000D2*
X9090202D1*
X7910160Y2171027D2*
X7924400D1*
X7992800D2*
X8008087D1*
X8302801D2*
X8317141D1*
X8342599D2*
X8356954D1*
X9043497D2*
X9099805D1*
X7905493Y2163427D2*
X8012118D1*
X8307592D2*
X8322441D1*
X8347533D2*
X8362357D1*
X9054873D2*
X9108750D1*
X7901600Y2155827D2*
X8015600D1*
X8313486D2*
X8328850D1*
X8352808D2*
X8367826D1*
X9066030D2*
X9117091D1*
X7217600Y2148227D2*
X7255600D1*
X8320226D2*
X8336860D1*
X8358924D2*
X8373775D1*
X9076705D2*
X9125283D1*
X7217600Y2140627D2*
X8030800D1*
X8327475D2*
X8346701D1*
X8365720D2*
X8379681D1*
X9087010D2*
X9133985D1*
X7217600Y2133027D2*
X8070206D1*
X8335217D2*
X8357600D1*
X8372800D2*
X8385131D1*
X9097556D2*
X9143457D1*
X7362000Y2125427D2*
X7605200D1*
X8019574D2*
X8104959D1*
X8344024D2*
X8390617D1*
X9108454D2*
X9153024D1*
X7476000Y2117827D2*
X7719200D1*
X8063922D2*
X8133803D1*
X8354688D2*
X8396550D1*
X9119355D2*
X9161956D1*
X7590000Y2110227D2*
X7833200D1*
X8100809D2*
X8157678D1*
X8367307D2*
X8402250D1*
X9129696D2*
X9170293D1*
X7704000Y2102627D2*
X8000400D1*
X8130911D2*
X8178010D1*
X8381206D2*
X8406910D1*
X9139232D2*
X9178483D1*
X7818000Y2095027D2*
X8038627D1*
X8155994D2*
X8195627D1*
X8395600D2*
X8410800D1*
X9148646D2*
X9187186D1*
X7978877Y2087427D2*
X8070239D1*
X8177175D2*
X8211066D1*
X9158473D2*
X9196657D1*
X8025488Y2079827D2*
X8095635D1*
X8195229D2*
X8224669D1*
X8334800D2*
X8342400D1*
X9168441D2*
X9206224D1*
X8061716Y2072227D2*
X8116425D1*
X8210621D2*
X8236858D1*
X8337717D2*
X8362602D1*
X8996000D2*
X9026400D1*
X9178393D2*
X9215156D1*
X8088933Y2064627D2*
X8133348D1*
X8223347D2*
X8247693D1*
X8341221D2*
X8383140D1*
X8996000D2*
X9060829D1*
X9188569D2*
X9223493D1*
X8110045Y2057027D2*
X8146818D1*
X8233752D2*
X8256913D1*
X8345481D2*
X8404529D1*
X8996000D2*
X9089254D1*
X9198714D2*
X9231683D1*
X7650800Y2049427D2*
X7658400D1*
X8000400D2*
X8008000D1*
X8127575D2*
X8157547D1*
X8242681D2*
X8264472D1*
X8350262D2*
X8366375D1*
X8381923D2*
X8426941D1*
X9027831D2*
X9111487D1*
X9208774D2*
X9240356D1*
X7642025Y2041827D2*
X7659575D1*
X7871200D2*
X7886400D1*
X7992770D2*
X8010628D1*
X8142577D2*
X8166605D1*
X8250848D2*
X8270627D1*
X8354870D2*
X8368288D1*
X8400575D2*
X8451353D1*
X9053994D2*
X9129137D1*
X9219218D2*
X9249531D1*
X7339200Y2034227D2*
X7506400D1*
X7632571D2*
X7661459D1*
X7862396D2*
X7886111D1*
X7984933D2*
X8013157D1*
X8155098D2*
X8174821D1*
X8258642D2*
X8276174D1*
X8359125D2*
X8370523D1*
X8422125D2*
X8480523D1*
X9074756D2*
X9143684D1*
X9230083D2*
X9257835D1*
X9360800D2*
X9368400D1*
X7332775Y2026627D2*
X7511053D1*
X7623300D2*
X7663456D1*
X7852644D2*
X7885107D1*
X7976661D2*
X8015566D1*
X8165381D2*
X8182633D1*
X8266058D2*
X8281512D1*
X8363122D2*
X8372823D1*
X8447163D2*
X8518266D1*
X9091395D2*
X9117600D1*
X9131306D2*
X9156246D1*
X9241038D2*
X9264638D1*
X9362819D2*
X9386789D1*
X7327088Y2019027D2*
X7337996D1*
X7383596D2*
X7422800D1*
X7497306D2*
X7514853D1*
X7615634D2*
X7665054D1*
X7842078D2*
X7883018D1*
X7968536D2*
X7992830D1*
X8008030D2*
X8018131D1*
X8174006D2*
X8190026D1*
X8272690D2*
X8286312D1*
X8366742D2*
X8375350D1*
X8476595D2*
X8566633D1*
X8783200D2*
X8821200D1*
X9104638D2*
X9125170D1*
X9143351D2*
X9167219D1*
X9251699D2*
X9267431D1*
X9369536D2*
X9402901D1*
X7321723Y2011427D2*
X7335815D1*
X7381415D2*
X7415200D1*
X7501721D2*
X7517749D1*
X7609546D2*
X7628000D1*
X7658430D2*
X7666729D1*
X7831060D2*
X7880071D1*
X7961253D2*
X7985527D1*
X8008297D2*
X8020445D1*
X8181190D2*
X8196422D1*
X8278183D2*
X8290413D1*
X8369587D2*
X8377621D1*
X8512122D2*
X8623654D1*
X8722400D2*
X8814540D1*
X9115212D2*
X9132503D1*
X9153496D2*
X9176488D1*
X9262000D2*
X9269600D1*
X9378527D2*
X9416118D1*
X7316423Y2003827D2*
X7332611D1*
X7378211D2*
X7460800D1*
X7504691D2*
X7517155D1*
X7607338D2*
X7620400D1*
X7658697D2*
X7668902D1*
X7819836D2*
X7847225D1*
X7864775D2*
X7876658D1*
X7958318D2*
X7979222D1*
X8009265D2*
X8022175D1*
X8187159D2*
X8201214D1*
X8282602D2*
X8293738D1*
X8371307D2*
X8379080D1*
X8554540D2*
X8807128D1*
X9123946D2*
X9139105D1*
X9162331D2*
X9184034D1*
X9387949D2*
X9426774D1*
X7311379Y1996227D2*
X7328462D1*
X7374062D2*
X7460770D1*
X7504776D2*
X7515933D1*
X7606394D2*
X7612800D1*
X7659665D2*
X7671251D1*
X7808768D2*
X7837712D1*
X7859088D2*
X7873006D1*
X7959018D2*
X7974082D1*
X8011115D2*
X8023901D1*
X8192595D2*
X8204752D1*
X8286059D2*
X8296517D1*
X8372171D2*
X8379836D1*
X8600800D2*
X8730000D1*
X8782025D2*
X8800190D1*
X9131140D2*
X9144617D1*
X9170435D2*
X9189957D1*
X9396090D2*
X9435782D1*
X7306318Y1988627D2*
X7323690D1*
X7369319D2*
X7384800D1*
X7453200D2*
X7460177D1*
X7502115D2*
X7514672D1*
X7582400D2*
D3*
X7606817D2*
X7616598D1*
X7661515D2*
X7673597D1*
X7798381D2*
X7827877D1*
X7853723D2*
X7869241D1*
X7932000D2*
X7939600D1*
X7960344D2*
X7972512D1*
X8013331D2*
X8026092D1*
X8197633D2*
X8207814D1*
X8288889D2*
X8299237D1*
X8372554D2*
X8380177D1*
X8524800D2*
X8593200D1*
X8780141D2*
X8794452D1*
X9136885D2*
X9149271D1*
X9177980D2*
X9194775D1*
X9402658D2*
X9443696D1*
X7301145Y1981027D2*
X7318857D1*
X7364724D2*
X7377200D1*
X7445600D2*
X7458573D1*
X7495556D2*
X7512823D1*
X7571292D2*
X7590000D1*
X7608445D2*
X7619755D1*
X7663731D2*
X7676170D1*
X7789112D2*
X7817977D1*
X7848453D2*
X7865219D1*
X7923225D2*
X7940775D1*
X7961642D2*
X7973771D1*
X8015625D2*
X8028448D1*
X8201453D2*
X8210298D1*
X8291597D2*
X8301551D1*
X8372709D2*
X8380317D1*
X8491794D2*
X8627919D1*
X8778174D2*
X8789899D1*
X9141625D2*
X9153428D1*
X9184662D2*
X9198994D1*
X9408419D2*
X9420396D1*
X9436511D2*
X9450271D1*
X7296151Y1973427D2*
X7313875D1*
X7360443D2*
X7444052D1*
X7487264D2*
X7510037D1*
X7561509D2*
X7590289D1*
X7610577D2*
X7622710D1*
X7666025D2*
X7678715D1*
X7780922D2*
X7807850D1*
X7843646D2*
X7860701D1*
X7913741D2*
X7942659D1*
X7963197D2*
X7975613D1*
X8018180D2*
X8030796D1*
X8203700D2*
X8211837D1*
X8293681D2*
X8302769D1*
X8372768D2*
X8380370D1*
X8463715D2*
X8535996D1*
X8579596D2*
X8657348D1*
X8776842D2*
X8786381D1*
X9145842D2*
X9157139D1*
X9190203D2*
X9202727D1*
X9413851D2*
X9425815D1*
X9443107D2*
X9454875D1*
X7291108Y1965827D2*
X7308731D1*
X7356181D2*
X7420364D1*
X7478261D2*
X7503299D1*
X7552804D2*
X7591264D1*
X7612841D2*
X7625416D1*
X7668580D2*
X7681144D1*
X7773940D2*
X7798009D1*
X7839316D2*
X7855808D1*
X7904174D2*
X7944626D1*
X7965326D2*
X7977735D1*
X8020718D2*
X8033340D1*
X8204808D2*
X8212621D1*
X8294821D2*
X8302566D1*
X8372759D2*
X8380390D1*
X8440655D2*
X8498981D1*
X8619878D2*
X8681639D1*
X8776136D2*
X8783526D1*
X9149801D2*
X9160273D1*
X9194866D2*
X9205869D1*
X9418690D2*
X9430182D1*
X9448588D2*
X9457472D1*
X7285942Y1958227D2*
X7303746D1*
X7351562D2*
X7394220D1*
X7469873D2*
X7494918D1*
X7544685D2*
X7567200D1*
X7582370D2*
X7593087D1*
X7615357D2*
X7627909D1*
X7671118D2*
X7683721D1*
X7768273D2*
X7789217D1*
X7835262D2*
X7851156D1*
X7895242D2*
X7945958D1*
X7967682D2*
X7980190D1*
X8023145D2*
X8035647D1*
X8205263D2*
X8212972D1*
X8293011D2*
X8301060D1*
X8372499D2*
X8380397D1*
X8421190D2*
X8468696D1*
X8651593D2*
X8701969D1*
X8775813D2*
X8780808D1*
X9153640D2*
X9162969D1*
X9199026D2*
X9208568D1*
X9422805D2*
X9433395D1*
X9452975D2*
X9458723D1*
X7280950Y1950627D2*
X7298707D1*
X7346601D2*
X7372740D1*
X7463181D2*
X7485831D1*
X7536619D2*
X7559600D1*
X7582103D2*
X7595055D1*
X7617644D2*
X7630509D1*
X7673545D2*
X7686041D1*
X7763532D2*
X7781829D1*
X7831336D2*
X7846854D1*
X7886936D2*
X7918294D1*
X7938425D2*
X7946666D1*
X7970233D2*
X7982435D1*
X8025722D2*
X8037376D1*
X8205190D2*
X8213086D1*
X8290287D2*
X8298985D1*
X8371533D2*
X8380400D1*
X8403200D2*
X8444106D1*
X8676245D2*
X8718985D1*
X8775680D2*
X8778721D1*
X9157189D2*
X9165656D1*
X9202709D2*
X9211255D1*
X9426135D2*
X9435521D1*
X9456186D2*
X9459263D1*
X7275908Y1943027D2*
X7293542D1*
X7341696D2*
X7354400D1*
X7458212D2*
X7476994D1*
X7527976D2*
X7551970D1*
X7581129D2*
X7596495D1*
X7619221D2*
X7632807D1*
X7676122D2*
X7687773D1*
X7759086D2*
X7775738D1*
X7827252D2*
X7842584D1*
X7878984D2*
X7906249D1*
X7936540D2*
X7947001D1*
X7973593D2*
X7983885D1*
X8028041D2*
X8039101D1*
X8204265D2*
X8212873D1*
X8286984D2*
X8296715D1*
X8369713D2*
X8423699D1*
X8696117D2*
X8733584D1*
X8775628D2*
X8777579D1*
X9160004D2*
X9167988D1*
X9205576D2*
X9213588D1*
X9428916D2*
X9437407D1*
X9458181D2*
X9459483D1*
X7270742Y1935427D2*
X7288550D1*
X7336688D2*
X7381526D1*
X7458160D2*
X7468400D1*
X7518528D2*
X7544103D1*
X7579245D2*
X7597600D1*
X7620400D2*
X7634281D1*
X7678441D2*
X7689500D1*
X7754399D2*
X7770214D1*
X7822713D2*
X7837963D1*
X7870983D2*
X7896104D1*
X7934553D2*
X7947200D1*
X7977600D2*
X7984639D1*
X8029774D2*
X8041292D1*
X8202204D2*
X8211924D1*
X8283379D2*
X8293943D1*
X8367745D2*
X8406844D1*
X8713140D2*
X8747075D1*
X8775609D2*
X8779099D1*
X9161684D2*
X9169439D1*
X9207274D2*
X9215069D1*
X9431637D2*
X9439629D1*
X9459600D2*
D3*
X7265750Y1927827D2*
X7283508D1*
X7331565D2*
X7399406D1*
X7458736D2*
X7476000D1*
X7508970D2*
X7535535D1*
X7576983D2*
X7635082D1*
X7680174D2*
X7691692D1*
X7749413D2*
X7764884D1*
X7817812D2*
X7833007D1*
X7862358D2*
X7887240D1*
X7933107D2*
X7984993D1*
X8031500D2*
X8043648D1*
X8199266D2*
X8210081D1*
X8279632D2*
X8290680D1*
X8366305D2*
X8392896D1*
X8728196D2*
X8760400D1*
X8775600D2*
X8780850D1*
X9162276D2*
X9169935D1*
X9207873D2*
X9215803D1*
X9433951D2*
X9441740D1*
X7260708Y1920227D2*
X7278342D1*
X7326815D2*
X7346800D1*
X7400000D2*
X7411771D1*
X7458962D2*
X7472464D1*
X7500036D2*
X7526114D1*
X7574800D2*
X7635600D1*
X7681900D2*
X7694048D1*
X7744500D2*
X7760057D1*
X7813157D2*
X7828138D1*
X7852855D2*
X7878839D1*
X7932000D2*
X7985200D1*
X8033692D2*
X8045996D1*
X8195827D2*
X8207838D1*
X8275586D2*
X8287107D1*
X8365200D2*
X8380400D1*
X8741612D2*
X8782353D1*
X9161689D2*
X9169310D1*
X9207288D2*
X9215879D1*
X9435169D2*
X9443097D1*
X7255542Y1912627D2*
X7273322D1*
X7322482D2*
X7339200D1*
X7400000D2*
X7409823D1*
X7455816D2*
X7470115D1*
X7491690D2*
X7516566D1*
X7684092D2*
X7696396D1*
X7739490D2*
X7755690D1*
X7808855D2*
X7823191D1*
X7842986D2*
X7870057D1*
X8036048D2*
X8048570D1*
X8191909D2*
X8205248D1*
X8270803D2*
X8283137D1*
X8753789D2*
X8784187D1*
X9159994D2*
X9167631D1*
X9205593D2*
X9215051D1*
X9434966D2*
X9443556D1*
X7250550Y1905027D2*
X7268032D1*
X7318238D2*
X7398423D1*
X7450322D2*
X7468400D1*
X7483600D2*
X7507640D1*
X7686448D2*
X7698940D1*
X7734365D2*
X7751396D1*
X7804584D2*
X7818000D1*
X7833200D2*
X7860557D1*
X8038396D2*
X8051115D1*
X8187176D2*
X8201458D1*
X8264913D2*
X8278385D1*
X8764993D2*
X8787103D1*
X9157807D2*
X9165706D1*
X9203407D2*
X9213255D1*
X9433460D2*
X9442918D1*
X7245567Y1897427D2*
X7262017D1*
X7313699D2*
X7364798D1*
X7441689D2*
X7499335D1*
X7536800D2*
X7635600D1*
X7688801D2*
X7701218D1*
X7729639D2*
X7746767D1*
X7799963D2*
X7850980D1*
X7886400D2*
X7992800D1*
X8040941D2*
X8053544D1*
X8181274D2*
X8196101D1*
X8258144D2*
X8272507D1*
X8775600D2*
X8790800D1*
X9155267D2*
X9164104D1*
X9200837D2*
X9211029D1*
X9431385D2*
X9441204D1*
X7240986Y1889827D2*
X7255600D1*
X7308800D2*
X7324000D1*
X7429482D2*
X7491413D1*
X7529200D2*
X7639136D1*
X7691411D2*
X7702685D1*
X7725525D2*
X7741832D1*
X7795031D2*
X7842039D1*
X7878800D2*
X7994197D1*
X8043239D2*
X8056121D1*
X8174243D2*
X8189608D1*
X8250628D2*
X8265771D1*
X9151751D2*
X9162170D1*
X9197054D2*
X9208475D1*
X9429115D2*
X9439040D1*
X7237367Y1882227D2*
X7339200D1*
X7415200D2*
X7483675D1*
X7521600D2*
X7641485D1*
X7694016D2*
X7703483D1*
X7722109D2*
X7737164D1*
X7790364D2*
X7833691D1*
X7871200D2*
X7996864D1*
X8044819D2*
X8058411D1*
X8165762D2*
X8182492D1*
X8241917D2*
X8258524D1*
X8410800D2*
X8418400D1*
X9147336D2*
X9159031D1*
X9191700D2*
X9204954D1*
X9426313D2*
X9436735D1*
X9459600D2*
D3*
X7238340Y1874627D2*
X7476000D1*
X7514000D2*
X7536800D1*
X7634962D2*
X7643200D1*
X7696400D2*
X7704000D1*
X7719200D2*
X7732857D1*
X7786057D2*
X7825600D1*
X7863600D2*
X7886133D1*
X7986380D2*
X8000400D1*
X8046000D2*
X8059877D1*
X8155201D2*
X8175057D1*
X8231290D2*
X8250812D1*
X8281600D2*
X8289200D1*
X8410800D2*
X8426000D1*
X8722400D2*
X8752800D1*
X9142397D2*
X9154833D1*
X9185208D2*
X9200566D1*
X9422784D2*
X9433950D1*
X9456683D2*
X9459600D1*
X7240400Y1867027D2*
X7308800D1*
X7324000D2*
X7529200D1*
X7633522D2*
X7728526D1*
X7781755D2*
X7876128D1*
X7988328D2*
X8060637D1*
X8142329D2*
X8167204D1*
X8218647D2*
X8242243D1*
X8281600D2*
X8291867D1*
X8372800D2*
X8380400D1*
X8410800D2*
X8422319D1*
X8706458D2*
X8752800D1*
X9136231D2*
X9150242D1*
X9178063D2*
X9195864D1*
X9418241D2*
X9430706D1*
X9453151D2*
X9459600D1*
X7438000Y1859427D2*
X7521600D1*
X7626578D2*
X7723348D1*
X7776867D2*
X7859811D1*
X7990610D2*
X8060992D1*
X8127125D2*
X8158098D1*
X8204398D2*
X8232280D1*
X8281570D2*
X8294451D1*
X8375398D2*
X8383908D1*
X8410800D2*
X8427299D1*
X8517200D2*
X8524800D1*
X8646400D2*
X8654000D1*
X8694242D2*
X8722400D1*
X8821200D2*
D3*
X8836400D2*
X8844000D1*
X8859200D2*
X8874400D1*
X9127975D2*
X9145108D1*
X9170368D2*
X9190430D1*
X9412422D2*
X9427358D1*
X9448645D2*
X9458106D1*
X7438000Y1851827D2*
X7514000D1*
X7616651D2*
X7716248D1*
X7770936D2*
X7835829D1*
X7992800D2*
X8061200D1*
X8109323D2*
X8146447D1*
X8188473D2*
X8220475D1*
X8281303D2*
X8296800D1*
X8342400D2*
X8357600D1*
X8377660D2*
X8386091D1*
X8410770D2*
X8433600D1*
X8448800D2*
X8486800D1*
X8509600D2*
X8521238D1*
X8547600D2*
X8555200D1*
X8570400D2*
D3*
X8593200D2*
X8600800D1*
X8616000D2*
D3*
X8642602D2*
X8654000D1*
X8684400D2*
X8699600D1*
X8714770D2*
X8722111D1*
X8745200D2*
X8768000D1*
X8783200D2*
X8806000D1*
X8821200D2*
D3*
X8836400D2*
X8845397D1*
X8864496D2*
X8898135D1*
X9117362D2*
X9139046D1*
X9161667D2*
X9183351D1*
X9405395D2*
X9424300D1*
X9442999D2*
X9454951D1*
X7240400Y1844227D2*
X7706940D1*
X7764122D2*
X7810692D1*
X8088711D2*
X8131940D1*
X8170428D2*
X8206349D1*
X8280335D2*
X8350084D1*
X8379101D2*
X8387196D1*
X8410503D2*
X8517200D1*
X8532400D2*
X8578000D1*
X8593200D2*
X8616000D1*
X8639440D2*
X8654000D1*
X8714503D2*
X8721136D1*
X8740517D2*
X8806000D1*
X8821200D2*
D3*
X8836400D2*
X8848064D1*
X8872094D2*
X8924475D1*
X9103372D2*
X9132270D1*
X9151495D2*
X9174412D1*
X9396717D2*
X9421600D1*
X9436800D2*
X9449837D1*
X7240400Y1836627D2*
X7696400D1*
X7756319D2*
X7791162D1*
X8064701D2*
X8115778D1*
X8150450D2*
X8189767D1*
X8278485D2*
X8342059D1*
X8379875D2*
X8387685D1*
X8409529D2*
X8456400D1*
X8479200D2*
X8486800D1*
X8502000D2*
X8578000D1*
X8593200D2*
X8616000D1*
X8636447D2*
X8654000D1*
X8713535D2*
X8719313D1*
X8736449D2*
X8784597D1*
X8797003D2*
X8851600D1*
X8881853D2*
X8955074D1*
X9085118D2*
X9125200D1*
X9140400D2*
X9163917D1*
X9385797D2*
X9442892D1*
X7240400Y1829027D2*
X7445600D1*
X7746523D2*
X7777190D1*
X8036324D2*
X8099200D1*
X8129600D2*
X8170748D1*
X8276239D2*
X8297975D1*
X8319912D2*
X8334933D1*
X8380478D2*
X8387884D1*
X8407645D2*
X8410800D1*
X8426000D2*
X8433600D1*
X8448830D2*
X8456400D1*
X8471600D2*
X8532400D1*
X8547600D2*
X8578000D1*
X8593200D2*
X8616000D1*
X8633677D2*
X8654000D1*
X8711744D2*
X8717345D1*
X8733355D2*
X8779664D1*
X8801936D2*
X8848092D1*
X8893706D2*
X8988400D1*
X9064400D2*
X9110000D1*
X9125200D2*
X9151722D1*
X9373695D2*
X9433478D1*
X7320491Y1821427D2*
X7529200D1*
X7733786D2*
X7766399D1*
X8004094D2*
X8076400D1*
X8099200D2*
X8148589D1*
X8273650D2*
X8299918D1*
X8321092D2*
X8332938D1*
X8381584D2*
X8387961D1*
X8405383D2*
X8410800D1*
X8426000D2*
X8433600D1*
X8449119D2*
X8479200D1*
X8494400D2*
X8532400D1*
X8547600D2*
X8616000D1*
X8631200D2*
X8669200D1*
X8710063D2*
X8715905D1*
X8731401D2*
X8745200D1*
X8760400D2*
X8775600D1*
X8806000D2*
X8821200D1*
X8836400D2*
X8845909D1*
X8908401D2*
X9136884D1*
X9362751D2*
X9420900D1*
X7401901Y1813827D2*
X7628000D1*
X7719200D2*
X7756423D1*
X7971079D2*
X8046000D1*
X8061200D2*
X8121941D1*
X8269885D2*
X8281600D1*
X8296800D2*
X8302465D1*
X8323691D2*
X8333757D1*
X8383458D2*
X8388000D1*
X8403200D2*
X8409620D1*
X8426000D2*
X8433600D1*
X8450294D2*
X8669200D1*
X8709711D2*
X8714800D1*
X8730000D2*
X8737600D1*
X8752800D2*
X8844802D1*
X8926840D2*
X9118391D1*
X9353200D2*
X9406400D1*
X7484340Y1806227D2*
X7745752D1*
X7941937D2*
X8089171D1*
X8264689D2*
X8306151D1*
X8327200D2*
X8334800D1*
X8385445D2*
X8407672D1*
X8452892D2*
X8494400D1*
X8509600D2*
X8540000D1*
X8562800D2*
X8600800D1*
X8623600D2*
X8631200D1*
X8654000D2*
X8669200D1*
X8710889D2*
X8760400D1*
X8783200D2*
X8798400D1*
X8821200D2*
X8828800D1*
X8844000D2*
X8844294D1*
X8949054D2*
X9096156D1*
X7567200Y1798627D2*
X7734400D1*
X7919639D2*
X8050203D1*
X8258800D2*
X8312093D1*
X8386892D2*
X8405390D1*
X8456400D2*
D3*
X8532400D2*
X8540000D1*
X8562800D2*
X8570400D1*
X8585600D2*
X8600800D1*
X8623600D2*
D3*
X8712816D2*
X8722400D1*
X8737600D2*
X8752800D1*
X8844000D2*
D3*
X8973200D2*
X9072000D1*
X7901600Y1791027D2*
X8008000D1*
X8266400D2*
X8274000D1*
X8304400D2*
X8319600D1*
X8388000D2*
X8403200D1*
X8562800D2*
D3*
X8714800D2*
D3*
X8182800Y2437027D2*
X8172312Y2429427D1*
X8161476Y2421827D1*
X8150614Y2414227D1*
X8140291Y2406627D1*
X8130763Y2399027D1*
X8121352Y2391427D1*
X8111557Y2383827D1*
X8101856Y2376227D1*
X8092872Y2368627D1*
X8084546Y2361027D1*
X8076617Y2353427D1*
X8068881Y2345827D1*
X8061229Y2338227D1*
X8053610Y2330627D1*
X8046003Y2323027D1*
X8038401Y2315427D1*
X8030800Y2307827D1*
X8023200Y2300227D1*
X8015600Y2292627D1*
X8008030Y2285027D1*
X8000697Y2277427D1*
X7994065Y2269827D1*
X7988286Y2262227D1*
X7982634Y2254627D1*
X7976360Y2247027D1*
X7969464Y2239427D1*
X7962187Y2231827D1*
X7954720Y2224227D1*
X7947201Y2216627D1*
X7939887Y2209027D1*
X7933262Y2201427D1*
X7927485Y2193827D1*
X7921864Y2186227D1*
X7915879Y2178627D1*
X7910160Y2171027D1*
X7905493Y2163427D1*
X7901600Y2155827D1*
X8403200Y2437027D2*
X8464491Y2429427D1*
X8520867Y2421827D1*
X8571396Y2414227D1*
X8616869Y2406627D1*
X8658642Y2399027D1*
X8697759Y2391427D1*
X8733683Y2383827D1*
X8764793Y2376227D1*
X8790710Y2368627D1*
X8812812Y2361027D1*
X8832255Y2353427D1*
X8849479Y2345827D1*
X8864789Y2338227D1*
X8878599Y2330627D1*
X8891765Y2323027D1*
X8904709Y2315427D1*
X8917141Y2307827D1*
X8929080Y2300227D1*
X8940707Y2292627D1*
X8951967Y2285027D1*
X8962682Y2277427D1*
X8972972Y2269827D1*
X8983286Y2262227D1*
X8993485Y2254627D1*
X9003534Y2247027D1*
X9013748Y2239427D1*
X9023907Y2231827D1*
X9033942Y2224227D1*
X9044120Y2216627D1*
X9054011Y2209027D1*
X9063106Y2201427D1*
X9071732Y2193827D1*
X9080642Y2186227D1*
X9090202Y2178627D1*
X9099805Y2171027D1*
X9108750Y2163427D1*
X9117091Y2155827D1*
X9125283Y2148227D1*
X9133985Y2140627D1*
X9143457Y2133027D1*
X9153024Y2125427D1*
X9161956Y2117827D1*
X9170293Y2110227D1*
X9178483Y2102627D1*
X9187186Y2095027D1*
X9196657Y2087427D1*
X9206224Y2079827D1*
X9215156Y2072227D1*
X9223493Y2064627D1*
X9231683Y2057027D1*
X9240356Y2049427D1*
X9249531Y2041827D1*
X9257835Y2034227D1*
X9264638Y2026627D1*
X9267431Y2019027D1*
X9269600Y2011427D1*
X8220800Y2437027D2*
X8205889Y2429427D1*
X8191693Y2421827D1*
X8178582Y2414227D1*
X8166329Y2406627D1*
X8154572Y2399027D1*
X8143289Y2391427D1*
X8132802Y2383827D1*
X8123344Y2376227D1*
X8114400Y2368627D1*
X8296800Y2437027D2*
X8304400Y2429427D1*
X8327200D2*
X8393728Y2421827D1*
X8457108Y2414227D1*
X8514865Y2406627D1*
X8565961Y2399027D1*
X8611805Y2391427D1*
X8654527Y2383827D1*
X8694277Y2376227D1*
X8729757Y2368627D1*
X8760243Y2361027D1*
X8785976Y2353427D1*
X8807623Y2345827D1*
X8826197Y2338227D1*
X8842951Y2330627D1*
X8858773Y2323027D1*
X8873959Y2315427D1*
X8888255Y2307827D1*
X8901401Y2300227D1*
X8913665Y2292627D1*
X8925456Y2285027D1*
X8937006Y2277427D1*
X8948471Y2269827D1*
X8959886Y2262227D1*
X8971270Y2254627D1*
X8982399Y2247027D1*
X8992837Y2239427D1*
X9002411Y2231827D1*
X9011839Y2224227D1*
X9021642Y2216627D1*
X9031364Y2209027D1*
X9040465Y2201427D1*
X9049200Y2193827D1*
X8205600Y2414227D2*
X8190689Y2406627D1*
X8176493Y2399027D1*
X8163406Y2391427D1*
X8151348Y2383827D1*
X8140187Y2376227D1*
X8129600Y2368627D1*
X8213200Y2414227D2*
X8217002Y2406627D1*
X8221416Y2399027D1*
X8225822Y2391427D1*
X8229985Y2383827D1*
X8233950Y2376227D1*
X8237626Y2368627D1*
X8240825Y2361027D1*
X8243600Y2353427D1*
Y2414227D2*
X8243889Y2406627D1*
X8244864Y2399027D1*
X8246715Y2391427D1*
X8248931Y2383827D1*
X8251231Y2376227D1*
X8253821Y2368627D1*
X8256419Y2361027D1*
X8258800Y2353427D1*
X8342400Y2414227D2*
X8406095Y2406627D1*
X8465546Y2399027D1*
X8520795Y2391427D1*
X8572319Y2383827D1*
X8620456Y2376227D1*
X8664694Y2368627D1*
X8703475Y2361027D1*
X8736132Y2353427D1*
X8763741Y2345827D1*
X8787351Y2338227D1*
X8807070Y2330627D1*
X8823392Y2323027D1*
X8838021Y2315427D1*
X8852450Y2307827D1*
X8866908Y2300227D1*
X8880902Y2292627D1*
X8894149Y2285027D1*
X8907092Y2277427D1*
X8919953Y2269827D1*
X8932356Y2262227D1*
X8944285Y2254627D1*
X8955938Y2247027D1*
X8967435Y2239427D1*
X8978881Y2231827D1*
X8990289Y2224227D1*
X9001677Y2216627D1*
X9012875Y2209027D1*
X9023641Y2201427D1*
X9034000Y2193827D1*
X8046000Y2406627D2*
Y2399027D1*
X8068800Y2406627D2*
X8067306Y2399027D1*
X8064181Y2391427D1*
X8059416Y2383827D1*
X8054227Y2376227D1*
X8049778Y2368627D1*
X8046000Y2361027D1*
X7772400Y2399027D2*
Y2391427D1*
X8243600Y2406627D2*
X8249706Y2399027D1*
X8254181Y2391427D1*
X8256993Y2383827D1*
X8259196Y2376227D1*
X8261580Y2368627D1*
X8264008Y2361027D1*
X8266382Y2353427D1*
X8268965Y2345827D1*
X8271513Y2338227D1*
X8273973Y2330627D1*
X8276818Y2323027D1*
X8280077Y2315427D1*
X8283392Y2307827D1*
X8286366Y2300227D1*
X8289032Y2292627D1*
X8291964Y2285027D1*
X8295287Y2277427D1*
X8298852Y2269827D1*
X8302562Y2262227D1*
X8306318Y2254627D1*
X8310110Y2247027D1*
X8313929Y2239427D1*
X8317971Y2231827D1*
X8322495Y2224227D1*
X8327391Y2216627D1*
X8332044Y2209027D1*
X8336346Y2201427D1*
X8340645Y2193827D1*
X8345504Y2186227D1*
X8351168Y2178627D1*
X8356954Y2171027D1*
X8362357Y2163427D1*
X8367826Y2155827D1*
X8373775Y2148227D1*
X8379681Y2140627D1*
X8385131Y2133027D1*
X8390617Y2125427D1*
X8396550Y2117827D1*
X8402250Y2110227D1*
X8406910Y2102627D1*
X8410800Y2095027D1*
X8258800Y2406627D2*
X8330319Y2399027D1*
X8396853Y2391427D1*
X8457659Y2383827D1*
X8514236Y2376227D1*
X8567445Y2368627D1*
X8616635Y2361027D1*
X8660659Y2353427D1*
X8699139Y2345827D1*
X8732347Y2338227D1*
X8760395Y2330627D1*
X8783507Y2323027D1*
X8802835Y2315427D1*
X8819930Y2307827D1*
X8835890Y2300227D1*
X8851130Y2292627D1*
X8865475Y2285027D1*
X8878864Y2277427D1*
X8891862Y2269827D1*
X8904743Y2262227D1*
X8917152Y2254627D1*
X8929084Y2247027D1*
X8940737Y2239427D1*
X8952235Y2231827D1*
X8963681Y2224227D1*
X8975089Y2216627D1*
X8986500Y2209027D1*
X8997896Y2201427D1*
X9009303Y2193827D1*
X9020697Y2186227D1*
X9032103Y2178627D1*
X9043497Y2171027D1*
X9054873Y2163427D1*
X9066030Y2155827D1*
X9076705Y2148227D1*
X9087010Y2140627D1*
X9097556Y2133027D1*
X9108454Y2125427D1*
X9119355Y2117827D1*
X9129696Y2110227D1*
X9139232Y2102627D1*
X9148646Y2095027D1*
X9158473Y2087427D1*
X9168441Y2079827D1*
X9178393Y2072227D1*
X9188569Y2064627D1*
X9198714Y2057027D1*
X9208774Y2049427D1*
X9219218Y2041827D1*
X9230083Y2034227D1*
X9241038Y2026627D1*
X9251699Y2019027D1*
X9262000Y2011427D1*
X7514000Y2391427D2*
Y2383827D1*
X8205600Y2399027D2*
X8191604Y2391427D1*
X8178556Y2383827D1*
X8166322Y2376227D1*
X8154540Y2368627D1*
X8142993Y2361027D1*
X8131559Y2353427D1*
X8120381Y2345827D1*
X8109699Y2338227D1*
X8099421Y2330627D1*
X8089141Y2323027D1*
X8079211Y2315427D1*
X8070131Y2307827D1*
X8061768Y2300227D1*
X8053824Y2292627D1*
X8046083Y2285027D1*
X8038430Y2277427D1*
X8030840Y2269827D1*
X8023500Y2262227D1*
X8016896Y2254627D1*
X8011383Y2247027D1*
X8006729Y2239427D1*
X8002572Y2231827D1*
X7998891Y2224227D1*
X7996054Y2216627D1*
X7994593Y2209027D1*
X7994725Y2201427D1*
X7996459Y2193827D1*
X7999488Y2186227D1*
X8003550Y2178627D1*
X8008087Y2171027D1*
X8012118Y2163427D1*
X8015600Y2155827D1*
X8205600Y2399027D2*
X8211996Y2391427D1*
X8217444Y2383827D1*
X8222078Y2376227D1*
X8226260Y2368627D1*
X8230207Y2361027D1*
X8234071Y2353427D1*
X8237886Y2345827D1*
X8241670Y2338227D1*
X8245229Y2330627D1*
X8248304Y2323027D1*
X8250980Y2315427D1*
X8253659Y2307827D1*
X8256019Y2300227D1*
X8257766Y2292627D1*
X8259498Y2285027D1*
X8261662Y2277427D1*
X8263780Y2269827D1*
X8265427Y2262227D1*
X8267120Y2254627D1*
X8269299Y2247027D1*
X8271650Y2239427D1*
X8274026Y2231827D1*
X8276837Y2224227D1*
X8280113Y2216627D1*
X8283661Y2209027D1*
X8287365Y2201427D1*
X8291119Y2193827D1*
X8294911Y2186227D1*
X8298729Y2178627D1*
X8302801Y2171027D1*
X8307592Y2163427D1*
X8313486Y2155827D1*
X8320226Y2148227D1*
X8327475Y2140627D1*
X8335217Y2133027D1*
X8344024Y2125427D1*
X8354688Y2117827D1*
X8367307Y2110227D1*
X8381206Y2102627D1*
X8395600Y2095027D1*
X7240400Y2383827D2*
Y2376227D1*
X7818000Y2391427D2*
X7810400Y2383827D1*
X8053600Y2391427D2*
X8046000Y2383827D1*
X8038400Y2376227D1*
X8030800Y2368627D1*
X7103600Y2376227D2*
Y2368627D1*
X7628000Y2383827D2*
Y2376227D1*
Y2368627D1*
X7491200D2*
X7498800Y2361027D1*
X8091600Y2353427D2*
X8084000Y2345827D1*
X8091600Y2353427D2*
X8099200Y2345827D1*
X8258800Y2338227D2*
X8251200Y2330627D1*
X8258800Y2338227D2*
X8266400Y2330627D1*
Y2323027D2*
X8258800Y2315427D1*
X8274000D2*
X8266400Y2300227D2*
X8267575Y2292627D1*
X8269459Y2285027D1*
X8271456Y2277427D1*
X8273054Y2269827D1*
X8274729Y2262227D1*
X8276902Y2254627D1*
X8279251Y2247027D1*
X8281626Y2239427D1*
X8284437Y2231827D1*
X8287713Y2224227D1*
X8291261Y2216627D1*
X8294965Y2209027D1*
X8298749Y2201427D1*
X8302778Y2193827D1*
X8307298Y2186227D1*
X8312221Y2178627D1*
X8317141Y2171027D1*
X8322441Y2163427D1*
X8328850Y2155827D1*
X8336860Y2148227D1*
X8346701Y2140627D1*
X8357600Y2133027D1*
X8281600Y2300227D2*
X8282775Y2292627D1*
X8284688Y2285027D1*
X8286923Y2277427D1*
X8289253Y2269827D1*
X8292046Y2262227D1*
X8295316Y2254627D1*
X8298862Y2247027D1*
X8302565Y2239427D1*
X8306349Y2231827D1*
X8310378Y2224227D1*
X8314898Y2216627D1*
X8319791Y2209027D1*
X8324444Y2201427D1*
X8328746Y2193827D1*
X8333016Y2186227D1*
X8337637Y2178627D1*
X8342599Y2171027D1*
X8347533Y2163427D1*
X8352808Y2155827D1*
X8358924Y2148227D1*
X8365720Y2140627D1*
X8372800Y2133027D1*
X7818000Y2277427D2*
Y2269827D1*
X7939600Y2277427D2*
X7938106Y2269827D1*
X7934951Y2262227D1*
X7929896Y2254627D1*
X7923533Y2247027D1*
X7916486Y2239427D1*
X7909200Y2231827D1*
X7605200Y2269827D2*
Y2262227D1*
X7400000D2*
Y2254627D1*
X7848400Y2269827D2*
X7840800Y2262227D1*
X7916800Y2269827D2*
Y2262227D1*
Y2254627D1*
Y2247027D1*
X7179600Y2254627D2*
X7175563Y2247027D1*
X7172000Y2239427D1*
X7635600Y2262227D2*
Y2254627D1*
Y2247027D1*
X7863600Y2239427D2*
X7871200Y2231827D1*
X7985200Y2239427D2*
X7977600Y2231827D1*
X7970030Y2224227D1*
X7962697Y2216627D1*
X7956065Y2209027D1*
X7950286Y2201427D1*
X7944635Y2193827D1*
X7938366Y2186227D1*
X7931510Y2178627D1*
X7924400Y2171027D1*
X8000400Y2239427D2*
X7994294Y2231827D1*
X7989849Y2224227D1*
X7987304Y2216627D1*
X7986099Y2209027D1*
X7985832Y2201427D1*
X7986594Y2193827D1*
X7988398Y2186227D1*
X7990631Y2178627D1*
X7992800Y2171027D1*
X9064400Y2186227D2*
X9056800Y2178627D1*
X9064400Y2186227D2*
X9072000Y2178627D1*
X7217600Y2148227D2*
Y2140627D1*
Y2133027D1*
X7255600Y2148227D2*
Y2140627D1*
X8030800D2*
X8070206Y2133027D1*
X8104959Y2125427D1*
X8133803Y2117827D1*
X8157678Y2110227D1*
X8178010Y2102627D1*
X8195627Y2095027D1*
X8211066Y2087427D1*
X8224669Y2079827D1*
X8236858Y2072227D1*
X8247693Y2064627D1*
X8256913Y2057027D1*
X8264472Y2049427D1*
X8270627Y2041827D1*
X8276174Y2034227D1*
X8281512Y2026627D1*
X8286312Y2019027D1*
X8290413Y2011427D1*
X8293738Y2003827D1*
X8296517Y1996227D1*
X8299237Y1988627D1*
X8301551Y1981027D1*
X8302769Y1973427D1*
X8302566Y1965827D1*
X8301060Y1958227D1*
X8298985Y1950627D1*
X8296715Y1943027D1*
X8293943Y1935427D1*
X8290680Y1927827D1*
X8287107Y1920227D1*
X8283137Y1912627D1*
X8278385Y1905027D1*
X8272507Y1897427D1*
X8265771Y1889827D1*
X8258524Y1882227D1*
X8250812Y1874627D1*
X8242243Y1867027D1*
X8232280Y1859427D1*
X8220475Y1851827D1*
X8206349Y1844227D1*
X8189767Y1836627D1*
X8170748Y1829027D1*
X8148589Y1821427D1*
X8121941Y1813827D1*
X8089171Y1806227D1*
X8050203Y1798627D1*
X8008000Y1791027D1*
X7354400Y2133027D2*
X7362000Y2125427D1*
X7605200Y2133027D2*
Y2125427D1*
Y2117827D1*
X7970000Y2133027D2*
X8019574Y2125427D1*
X8063922Y2117827D1*
X8100809Y2110227D1*
X8130911Y2102627D1*
X8155994Y2095027D1*
X8177175Y2087427D1*
X8195229Y2079827D1*
X8210621Y2072227D1*
X8223347Y2064627D1*
X8233752Y2057027D1*
X8242681Y2049427D1*
X8250848Y2041827D1*
X8258642Y2034227D1*
X8266058Y2026627D1*
X8272690Y2019027D1*
X8278183Y2011427D1*
X8282602Y2003827D1*
X8286059Y1996227D1*
X8288889Y1988627D1*
X8291597Y1981027D1*
X8293681Y1973427D1*
X8294821Y1965827D1*
X8293011Y1958227D1*
X8290287Y1950627D1*
X8286984Y1943027D1*
X8283379Y1935427D1*
X8279632Y1927827D1*
X8275586Y1920227D1*
X8270803Y1912627D1*
X8264913Y1905027D1*
X8258144Y1897427D1*
X8250628Y1889827D1*
X8241917Y1882227D1*
X8231290Y1874627D1*
X8218647Y1867027D1*
X8204398Y1859427D1*
X8188473Y1851827D1*
X8170428Y1844227D1*
X8150450Y1836627D1*
X8129600Y1829027D1*
X7468400Y2125427D2*
X7476000Y2117827D1*
X7719200D2*
Y2110227D1*
X7582400Y2117827D2*
X7590000Y2110227D1*
X7833200D2*
Y2102627D1*
X7696400Y2110227D2*
X7704000Y2102627D1*
X8000400D2*
X8038627Y2095027D1*
X8070239Y2087427D1*
X8095635Y2079827D1*
X8116425Y2072227D1*
X8133348Y2064627D1*
X8146818Y2057027D1*
X8157547Y2049427D1*
X8166605Y2041827D1*
X8174821Y2034227D1*
X8182633Y2026627D1*
X8190026Y2019027D1*
X8196422Y2011427D1*
X8201214Y2003827D1*
X8204752Y1996227D1*
X8207814Y1988627D1*
X8210298Y1981027D1*
X8211837Y1973427D1*
X8212621Y1965827D1*
X8212972Y1958227D1*
X8213086Y1950627D1*
X8212873Y1943027D1*
X8211924Y1935427D1*
X8210081Y1927827D1*
X8207838Y1920227D1*
X8205248Y1912627D1*
X8201458Y1905027D1*
X8196101Y1897427D1*
X8189608Y1889827D1*
X8182492Y1882227D1*
X8175057Y1874627D1*
X8167204Y1867027D1*
X8158098Y1859427D1*
X8146447Y1851827D1*
X8131940Y1844227D1*
X8115778Y1836627D1*
X8099200Y1829027D1*
X7810400Y2102627D2*
X7818000Y2095027D1*
X7924400D2*
X7978877Y2087427D1*
X8025488Y2079827D1*
X8061716Y2072227D1*
X8088933Y2064627D1*
X8110045Y2057027D1*
X8127575Y2049427D1*
X8142577Y2041827D1*
X8155098Y2034227D1*
X8165381Y2026627D1*
X8174006Y2019027D1*
X8181190Y2011427D1*
X8187159Y2003827D1*
X8192595Y1996227D1*
X8197633Y1988627D1*
X8201453Y1981027D1*
X8203700Y1973427D1*
X8204808Y1965827D1*
X8205263Y1958227D1*
X8205190Y1950627D1*
X8204265Y1943027D1*
X8202204Y1935427D1*
X8199266Y1927827D1*
X8195827Y1920227D1*
X8191909Y1912627D1*
X8187176Y1905027D1*
X8181274Y1897427D1*
X8174243Y1889827D1*
X8165762Y1882227D1*
X8155201Y1874627D1*
X8142329Y1867027D1*
X8127125Y1859427D1*
X8109323Y1851827D1*
X8088711Y1844227D1*
X8064701Y1836627D1*
X8036324Y1829027D1*
X8004094Y1821427D1*
X7971079Y1813827D1*
X7941937Y1806227D1*
X7919639Y1798627D1*
X7901600Y1791027D1*
X8334800Y2079827D2*
X8337717Y2072227D1*
X8341221Y2064627D1*
X8345481Y2057027D1*
X8350262Y2049427D1*
X8354870Y2041827D1*
X8359125Y2034227D1*
X8363122Y2026627D1*
X8366742Y2019027D1*
X8369587Y2011427D1*
X8371307Y2003827D1*
X8372171Y1996227D1*
X8372554Y1988627D1*
X8372709Y1981027D1*
X8372768Y1973427D1*
X8372759Y1965827D1*
X8372499Y1958227D1*
X8371533Y1950627D1*
X8369713Y1943027D1*
X8367745Y1935427D1*
X8366305Y1927827D1*
X8365200Y1920227D1*
X8342400Y2079827D2*
X8362602Y2072227D1*
X8383140Y2064627D1*
X8404529Y2057027D1*
X8426941Y2049427D1*
X8451353Y2041827D1*
X8480523Y2034227D1*
X8518266Y2026627D1*
X8566633Y2019027D1*
X8623654Y2011427D1*
X8684400Y2003827D1*
X8996000Y2072227D2*
Y2064627D1*
Y2057027D1*
X9027831Y2049427D1*
X9053994Y2041827D1*
X9074756Y2034227D1*
X9091395Y2026627D1*
X9104638Y2019027D1*
X9115212Y2011427D1*
X9123946Y2003827D1*
X9131140Y1996227D1*
X9136885Y1988627D1*
X9141625Y1981027D1*
X9145842Y1973427D1*
X9149801Y1965827D1*
X9153640Y1958227D1*
X9157189Y1950627D1*
X9160004Y1943027D1*
X9161684Y1935427D1*
X9162276Y1927827D1*
X9161689Y1920227D1*
X9159994Y1912627D1*
X9157807Y1905027D1*
X9155267Y1897427D1*
X9151751Y1889827D1*
X9147336Y1882227D1*
X9142397Y1874627D1*
X9136231Y1867027D1*
X9127975Y1859427D1*
X9117362Y1851827D1*
X9103372Y1844227D1*
X9085118Y1836627D1*
X9064400Y1829027D1*
X9026400Y2072227D2*
X9060829Y2064627D1*
X9089254Y2057027D1*
X9111487Y2049427D1*
X9129137Y2041827D1*
X9143684Y2034227D1*
X9156246Y2026627D1*
X9167219Y2019027D1*
X9176488Y2011427D1*
X9184034Y2003827D1*
X9189957Y1996227D1*
X9194775Y1988627D1*
X9198994Y1981027D1*
X9202727Y1973427D1*
X9205869Y1965827D1*
X9208568Y1958227D1*
X9211255Y1950627D1*
X9213588Y1943027D1*
X9215069Y1935427D1*
X9215803Y1927827D1*
X9215879Y1920227D1*
X9215051Y1912627D1*
X9213255Y1905027D1*
X9211029Y1897427D1*
X9208475Y1889827D1*
X9204954Y1882227D1*
X9200566Y1874627D1*
X9195864Y1867027D1*
X9190430Y1859427D1*
X9183351Y1851827D1*
X9174412Y1844227D1*
X9163917Y1836627D1*
X9151722Y1829027D1*
X9136884Y1821427D1*
X9118391Y1813827D1*
X9096156Y1806227D1*
X9072000Y1798627D1*
X7650800Y2049427D2*
X7642025Y2041827D1*
X7632571Y2034227D1*
X7623300Y2026627D1*
X7615634Y2019027D1*
X7609546Y2011427D1*
X7607338Y2003827D1*
X7606394Y1996227D1*
X7606817Y1988627D1*
X7608445Y1981027D1*
X7610577Y1973427D1*
X7612841Y1965827D1*
X7615357Y1958227D1*
X7617644Y1950627D1*
X7619221Y1943027D1*
X7620400Y1935427D1*
X7658400Y2049427D2*
X7659575Y2041827D1*
X7661459Y2034227D1*
X7663456Y2026627D1*
X7665054Y2019027D1*
X7666729Y2011427D1*
X7668902Y2003827D1*
X7671251Y1996227D1*
X7673597Y1988627D1*
X7676170Y1981027D1*
X7678715Y1973427D1*
X7681144Y1965827D1*
X7683721Y1958227D1*
X7686041Y1950627D1*
X7687773Y1943027D1*
X7689500Y1935427D1*
X7691692Y1927827D1*
X7694048Y1920227D1*
X7696396Y1912627D1*
X7698940Y1905027D1*
X7701218Y1897427D1*
X7702685Y1889827D1*
X7703483Y1882227D1*
X7704000Y1874627D1*
X8000400Y2049427D2*
X7992770Y2041827D1*
X7984933Y2034227D1*
X7976661Y2026627D1*
X7968536Y2019027D1*
X7961253Y2011427D1*
X7958318Y2003827D1*
X7959018Y1996227D1*
X7960344Y1988627D1*
X7961642Y1981027D1*
X7963197Y1973427D1*
X7965326Y1965827D1*
X7967682Y1958227D1*
X7970233Y1950627D1*
X7973593Y1943027D1*
X7977600Y1935427D1*
X8008000Y2049427D2*
X8010628Y2041827D1*
X8013157Y2034227D1*
X8015566Y2026627D1*
X8018131Y2019027D1*
X8020445Y2011427D1*
X8022175Y2003827D1*
X8023901Y1996227D1*
X8026092Y1988627D1*
X8028448Y1981027D1*
X8030796Y1973427D1*
X8033340Y1965827D1*
X8035647Y1958227D1*
X8037376Y1950627D1*
X8039101Y1943027D1*
X8041292Y1935427D1*
X8043648Y1927827D1*
X8045996Y1920227D1*
X8048570Y1912627D1*
X8051115Y1905027D1*
X8053544Y1897427D1*
X8056121Y1889827D1*
X8058411Y1882227D1*
X8059877Y1874627D1*
X8060637Y1867027D1*
X8060992Y1859427D1*
X8061200Y1851827D1*
X8365200Y2057027D2*
X8366375Y2049427D1*
X8368288Y2041827D1*
X8370523Y2034227D1*
X8372823Y2026627D1*
X8375350Y2019027D1*
X8377621Y2011427D1*
X8379080Y2003827D1*
X8379836Y1996227D1*
X8380177Y1988627D1*
X8380317Y1981027D1*
X8380370Y1973427D1*
X8380390Y1965827D1*
X8380397Y1958227D1*
X8380400Y1950627D1*
X8365200Y2057027D2*
X8381923Y2049427D1*
X8400575Y2041827D1*
X8422125Y2034227D1*
X8447163Y2026627D1*
X8476595Y2019027D1*
X8512122Y2011427D1*
X8554540Y2003827D1*
X8600800Y1996227D1*
X7871200Y2041827D2*
X7862396Y2034227D1*
X7852644Y2026627D1*
X7842078Y2019027D1*
X7831060Y2011427D1*
X7819836Y2003827D1*
X7808768Y1996227D1*
X7798381Y1988627D1*
X7789112Y1981027D1*
X7780922Y1973427D1*
X7773940Y1965827D1*
X7768273Y1958227D1*
X7763532Y1950627D1*
X7759086Y1943027D1*
X7754399Y1935427D1*
X7749413Y1927827D1*
X7744500Y1920227D1*
X7739490Y1912627D1*
X7734365Y1905027D1*
X7729639Y1897427D1*
X7725525Y1889827D1*
X7722109Y1882227D1*
X7719200Y1874627D1*
X7886400Y2041827D2*
X7886111Y2034227D1*
X7885107Y2026627D1*
X7883018Y2019027D1*
X7880071Y2011427D1*
X7876658Y2003827D1*
X7873006Y1996227D1*
X7869241Y1988627D1*
X7865219Y1981027D1*
X7860701Y1973427D1*
X7855808Y1965827D1*
X7851156Y1958227D1*
X7846854Y1950627D1*
X7842584Y1943027D1*
X7837963Y1935427D1*
X7833007Y1927827D1*
X7828138Y1920227D1*
X7823191Y1912627D1*
X7818000Y1905027D1*
X7339200Y2034227D2*
X7332775Y2026627D1*
X7327088Y2019027D1*
X7321723Y2011427D1*
X7316423Y2003827D1*
X7311379Y1996227D1*
X7306318Y1988627D1*
X7301145Y1981027D1*
X7296151Y1973427D1*
X7291108Y1965827D1*
X7285942Y1958227D1*
X7280950Y1950627D1*
X7275908Y1943027D1*
X7270742Y1935427D1*
X7265750Y1927827D1*
X7260708Y1920227D1*
X7255542Y1912627D1*
X7250550Y1905027D1*
X7245567Y1897427D1*
X7240986Y1889827D1*
X7237367Y1882227D1*
X7238340Y1874627D1*
X7240400Y1867027D1*
X7506400Y2034227D2*
X7511053Y2026627D1*
X7514853Y2019027D1*
X7517749Y2011427D1*
X7517155Y2003827D1*
X7515933Y1996227D1*
X7514672Y1988627D1*
X7512823Y1981027D1*
X7510037Y1973427D1*
X7503299Y1965827D1*
X7494918Y1958227D1*
X7485831Y1950627D1*
X7476994Y1943027D1*
X7468400Y1935427D1*
X7476000Y1927827D1*
X7472464Y1920227D1*
X7470115Y1912627D1*
X7468400Y1905027D1*
X9360800Y2034227D2*
X9362819Y2026627D1*
X9369536Y2019027D1*
X9378527Y2011427D1*
X9387949Y2003827D1*
X9396090Y1996227D1*
X9402658Y1988627D1*
X9408419Y1981027D1*
X9413851Y1973427D1*
X9418690Y1965827D1*
X9422805Y1958227D1*
X9426135Y1950627D1*
X9428916Y1943027D1*
X9431637Y1935427D1*
X9433951Y1927827D1*
X9435169Y1920227D1*
X9434966Y1912627D1*
X9433460Y1905027D1*
X9431385Y1897427D1*
X9429115Y1889827D1*
X9426313Y1882227D1*
X9422784Y1874627D1*
X9418241Y1867027D1*
X9412422Y1859427D1*
X9405395Y1851827D1*
X9396717Y1844227D1*
X9385797Y1836627D1*
X9373695Y1829027D1*
X9362751Y1821427D1*
X9353200Y1813827D1*
X9368400Y2034227D2*
X9386789Y2026627D1*
X9402901Y2019027D1*
X9416118Y2011427D1*
X9426774Y2003827D1*
X9435782Y1996227D1*
X9443696Y1988627D1*
X9450271Y1981027D1*
X9454875Y1973427D1*
X9457472Y1965827D1*
X9458723Y1958227D1*
X9459263Y1950627D1*
X9459483Y1943027D1*
X9459600Y1935427D1*
X9110000Y2034227D2*
X9117600Y2026627D1*
X9125170Y2019027D1*
X9132503Y2011427D1*
X9139105Y2003827D1*
X9144617Y1996227D1*
X9149271Y1988627D1*
X9153428Y1981027D1*
X9157139Y1973427D1*
X9160273Y1965827D1*
X9162969Y1958227D1*
X9165656Y1950627D1*
X9167988Y1943027D1*
X9169439Y1935427D1*
X9169935Y1927827D1*
X9169310Y1920227D1*
X9167631Y1912627D1*
X9165706Y1905027D1*
X9164104Y1897427D1*
X9162170Y1889827D1*
X9159031Y1882227D1*
X9154833Y1874627D1*
X9150242Y1867027D1*
X9145108Y1859427D1*
X9139046Y1851827D1*
X9132270Y1844227D1*
X9125200Y1836627D1*
X9117600Y2034227D2*
X9131306Y2026627D1*
X9143351Y2019027D1*
X9153496Y2011427D1*
X9162331Y2003827D1*
X9170435Y1996227D1*
X9177980Y1988627D1*
X9184662Y1981027D1*
X9190203Y1973427D1*
X9194866Y1965827D1*
X9199026Y1958227D1*
X9202709Y1950627D1*
X9205576Y1943027D1*
X9207274Y1935427D1*
X9207873Y1927827D1*
X9207288Y1920227D1*
X9205593Y1912627D1*
X9203407Y1905027D1*
X9200837Y1897427D1*
X9197054Y1889827D1*
X9191700Y1882227D1*
X9185208Y1874627D1*
X9178063Y1867027D1*
X9170368Y1859427D1*
X9161667Y1851827D1*
X9151495Y1844227D1*
X9140400Y1836627D1*
X7339200Y2026627D2*
X7337996Y2019027D1*
X7335815Y2011427D1*
X7332611Y2003827D1*
X7328462Y1996227D1*
X7323690Y1988627D1*
X7318857Y1981027D1*
X7313875Y1973427D1*
X7308731Y1965827D1*
X7303746Y1958227D1*
X7298707Y1950627D1*
X7293542Y1943027D1*
X7288550Y1935427D1*
X7283508Y1927827D1*
X7278342Y1920227D1*
X7273322Y1912627D1*
X7268032Y1905027D1*
X7262017Y1897427D1*
X7255600Y1889827D1*
X7384800Y2026627D2*
X7383596Y2019027D1*
X7381415Y2011427D1*
X7378211Y2003827D1*
X7374062Y1996227D1*
X7369319Y1988627D1*
X7364724Y1981027D1*
X7360443Y1973427D1*
X7356181Y1965827D1*
X7351562Y1958227D1*
X7346601Y1950627D1*
X7341696Y1943027D1*
X7336688Y1935427D1*
X7331565Y1927827D1*
X7326815Y1920227D1*
X7322482Y1912627D1*
X7318238Y1905027D1*
X7313699Y1897427D1*
X7308800Y1889827D1*
X7430400Y2026627D2*
X7422800Y2019027D1*
X7415200Y2011427D1*
X7460800Y2003827D1*
X7460770Y1996227D1*
X7460177Y1988627D1*
X7458573Y1981027D1*
X7444052Y1973427D1*
X7420364Y1965827D1*
X7394220Y1958227D1*
X7372740Y1950627D1*
X7354400Y1943027D1*
X7381526Y1935427D1*
X7399406Y1927827D1*
X7411771Y1920227D1*
X7409823Y1912627D1*
X7398423Y1905027D1*
X7364798Y1897427D1*
X7324000Y1889827D1*
X7339200Y1882227D1*
X7491200Y2026627D2*
X7497306Y2019027D1*
X7501721Y2011427D1*
X7504691Y2003827D1*
X7504776Y1996227D1*
X7502115Y1988627D1*
X7495556Y1981027D1*
X7487264Y1973427D1*
X7478261Y1965827D1*
X7469873Y1958227D1*
X7463181Y1950627D1*
X7458212Y1943027D1*
X7458160Y1935427D1*
X7458736Y1927827D1*
X7458962Y1920227D1*
X7455816Y1912627D1*
X7450322Y1905027D1*
X7441689Y1897427D1*
X7429482Y1889827D1*
X7415200Y1882227D1*
X8000400Y2026627D2*
X7992830Y2019027D1*
X7985527Y2011427D1*
X7979222Y2003827D1*
X7974082Y1996227D1*
X7972512Y1988627D1*
X7973771Y1981027D1*
X7975613Y1973427D1*
X7977735Y1965827D1*
X7980190Y1958227D1*
X7982435Y1950627D1*
X7983885Y1943027D1*
X7984639Y1935427D1*
X7984993Y1927827D1*
X7985200Y1920227D1*
X8008000Y2026627D2*
X8008030Y2019027D1*
X8008297Y2011427D1*
X8009265Y2003827D1*
X8011115Y1996227D1*
X8013331Y1988627D1*
X8015625Y1981027D1*
X8018180Y1973427D1*
X8020718Y1965827D1*
X8023145Y1958227D1*
X8025722Y1950627D1*
X8028041Y1943027D1*
X8029774Y1935427D1*
X8031500Y1927827D1*
X8033692Y1920227D1*
X8036048Y1912627D1*
X8038396Y1905027D1*
X8040941Y1897427D1*
X8043239Y1889827D1*
X8044819Y1882227D1*
X8046000Y1874627D1*
X8783200Y2019027D2*
X8722400Y2011427D1*
X8661600Y2003827D1*
X8821200Y2019027D2*
X8814540Y2011427D1*
X8807128Y2003827D1*
X8800190Y1996227D1*
X8794452Y1988627D1*
X8789899Y1981027D1*
X8786381Y1973427D1*
X8783526Y1965827D1*
X8780808Y1958227D1*
X8778721Y1950627D1*
X8777579Y1943027D1*
X8779099Y1935427D1*
X8780850Y1927827D1*
X8782353Y1920227D1*
X8784187Y1912627D1*
X8787103Y1905027D1*
X8790800Y1897427D1*
X7635600Y2019027D2*
X7628000Y2011427D1*
X7620400Y2003827D1*
X7612800Y1996227D1*
X7616598Y1988627D1*
X7619755Y1981027D1*
X7622710Y1973427D1*
X7625416Y1965827D1*
X7627909Y1958227D1*
X7630509Y1950627D1*
X7632807Y1943027D1*
X7634281Y1935427D1*
X7635082Y1927827D1*
X7635600Y1920227D1*
X7658400Y2019027D2*
X7658430Y2011427D1*
X7658697Y2003827D1*
X7659665Y1996227D1*
X7661515Y1988627D1*
X7663731Y1981027D1*
X7666025Y1973427D1*
X7668580Y1965827D1*
X7671118Y1958227D1*
X7673545Y1950627D1*
X7676122Y1943027D1*
X7678441Y1935427D1*
X7680174Y1927827D1*
X7681900Y1920227D1*
X7684092Y1912627D1*
X7686448Y1905027D1*
X7688801Y1897427D1*
X7691411Y1889827D1*
X7694016Y1882227D1*
X7696400Y1874627D1*
X7856000Y2011427D2*
X7847225Y2003827D1*
X7837712Y1996227D1*
X7827877Y1988627D1*
X7817977Y1981027D1*
X7807850Y1973427D1*
X7798009Y1965827D1*
X7789217Y1958227D1*
X7781829Y1950627D1*
X7775738Y1943027D1*
X7770214Y1935427D1*
X7764884Y1927827D1*
X7760057Y1920227D1*
X7755690Y1912627D1*
X7751396Y1905027D1*
X7746767Y1897427D1*
X7741832Y1889827D1*
X7737164Y1882227D1*
X7732857Y1874627D1*
X7728526Y1867027D1*
X7723348Y1859427D1*
X7716248Y1851827D1*
X7706940Y1844227D1*
X7696400Y1836627D1*
X7871200Y2011427D2*
X7864775Y2003827D1*
X7859088Y1996227D1*
X7853723Y1988627D1*
X7848453Y1981027D1*
X7843646Y1973427D1*
X7839316Y1965827D1*
X7835262Y1958227D1*
X7831336Y1950627D1*
X7827252Y1943027D1*
X7822713Y1935427D1*
X7817812Y1927827D1*
X7813157Y1920227D1*
X7808855Y1912627D1*
X7804584Y1905027D1*
X7799963Y1897427D1*
X7795031Y1889827D1*
X7790364Y1882227D1*
X7786057Y1874627D1*
X7781755Y1867027D1*
X7776867Y1859427D1*
X7770936Y1851827D1*
X7764122Y1844227D1*
X7756319Y1836627D1*
X7746523Y1829027D1*
X7733786Y1821427D1*
X7719200Y1813827D1*
X8737600Y2003827D2*
X8730000Y1996227D1*
X8783200Y2003827D2*
X8782025Y1996227D1*
X8780141Y1988627D1*
X8778174Y1981027D1*
X8776842Y1973427D1*
X8776136Y1965827D1*
X8775813Y1958227D1*
X8775680Y1950627D1*
X8775628Y1943027D1*
X8775609Y1935427D1*
X8775600Y1927827D1*
X7392400Y1996227D2*
X7384800Y1988627D1*
X7377200Y1981027D1*
X7460800Y1996227D2*
X7453200Y1988627D1*
X7445600Y1981027D1*
X7582400Y1988627D2*
X7571292Y1981027D1*
X7561509Y1973427D1*
X7552804Y1965827D1*
X7544685Y1958227D1*
X7536619Y1950627D1*
X7527976Y1943027D1*
X7518528Y1935427D1*
X7508970Y1927827D1*
X7500036Y1920227D1*
X7491690Y1912627D1*
X7483600Y1905027D1*
X7932000Y1988627D2*
X7923225Y1981027D1*
X7913741Y1973427D1*
X7904174Y1965827D1*
X7895242Y1958227D1*
X7886936Y1950627D1*
X7878984Y1943027D1*
X7870983Y1935427D1*
X7862358Y1927827D1*
X7852855Y1920227D1*
X7842986Y1912627D1*
X7833200Y1905027D1*
X7939600Y1988627D2*
X7940775Y1981027D1*
X7942659Y1973427D1*
X7944626Y1965827D1*
X7945958Y1958227D1*
X7946666Y1950627D1*
X7947001Y1943027D1*
X7947200Y1935427D1*
X8524800Y1988627D2*
X8491794Y1981027D1*
X8463715Y1973427D1*
X8440655Y1965827D1*
X8421190Y1958227D1*
X8403200Y1950627D1*
X8593200Y1988627D2*
X8627919Y1981027D1*
X8657348Y1973427D1*
X8681639Y1965827D1*
X8701969Y1958227D1*
X8718985Y1950627D1*
X8733584Y1943027D1*
X8747075Y1935427D1*
X8760400Y1927827D1*
X7590000Y1981027D2*
X7590289Y1973427D1*
X7591264Y1965827D1*
X7593087Y1958227D1*
X7595055Y1950627D1*
X7596495Y1943027D1*
X7597600Y1935427D1*
X9414000Y1988627D2*
X9420396Y1981027D1*
X9425815Y1973427D1*
X9430182Y1965827D1*
X9433395Y1958227D1*
X9435521Y1950627D1*
X9437407Y1943027D1*
X9439629Y1935427D1*
X9441740Y1927827D1*
X9443097Y1920227D1*
X9443556Y1912627D1*
X9442918Y1905027D1*
X9441204Y1897427D1*
X9439040Y1889827D1*
X9436735Y1882227D1*
X9433950Y1874627D1*
X9430706Y1867027D1*
X9427358Y1859427D1*
X9424300Y1851827D1*
X9421600Y1844227D1*
X9429200Y1988627D2*
X9436511Y1981027D1*
X9443107Y1973427D1*
X9448588Y1965827D1*
X9452975Y1958227D1*
X9456186Y1950627D1*
X9458181Y1943027D1*
X9459600Y1935427D1*
X8578000Y1981027D2*
X8535996Y1973427D1*
X8498981Y1965827D1*
X8468696Y1958227D1*
X8444106Y1950627D1*
X8423699Y1943027D1*
X8406844Y1935427D1*
X8392896Y1927827D1*
X8380400Y1920227D1*
X8532400Y1981027D2*
X8579596Y1973427D1*
X8619878Y1965827D1*
X8651593Y1958227D1*
X8676245Y1950627D1*
X8696117Y1943027D1*
X8713140Y1935427D1*
X8728196Y1927827D1*
X8741612Y1920227D1*
X8753789Y1912627D1*
X8764993Y1905027D1*
X8775600Y1897427D1*
X7574800Y1965827D2*
X7567200Y1958227D1*
X7559600Y1950627D1*
X7551970Y1943027D1*
X7544103Y1935427D1*
X7535535Y1927827D1*
X7526114Y1920227D1*
X7516566Y1912627D1*
X7507640Y1905027D1*
X7499335Y1897427D1*
X7491413Y1889827D1*
X7483675Y1882227D1*
X7476000Y1874627D1*
X7582400Y1965827D2*
X7582370Y1958227D1*
X7582103Y1950627D1*
X7581129Y1943027D1*
X7579245Y1935427D1*
X7576983Y1927827D1*
X7574800Y1920227D1*
X7932000Y1958227D2*
X7918294Y1950627D1*
X7906249Y1943027D1*
X7896104Y1935427D1*
X7887240Y1927827D1*
X7878839Y1920227D1*
X7870057Y1912627D1*
X7860557Y1905027D1*
X7850980Y1897427D1*
X7842039Y1889827D1*
X7833691Y1882227D1*
X7825600Y1874627D1*
X7939600Y1958227D2*
X7938425Y1950627D1*
X7936540Y1943027D1*
X7934553Y1935427D1*
X7933107Y1927827D1*
X7932000Y1920227D1*
X7354400Y1927827D2*
X7346800Y1920227D1*
X7339200Y1912627D1*
X7400000Y1927827D2*
Y1920227D1*
Y1912627D1*
X7536800Y1897427D2*
X7529200Y1889827D1*
X7521600Y1882227D1*
X7514000Y1874627D1*
X7635600Y1897427D2*
X7639136Y1889827D1*
X7641485Y1882227D1*
X7643200Y1874627D1*
X7886400Y1897427D2*
X7878800Y1889827D1*
X7871200Y1882227D1*
X7863600Y1874627D1*
X7992800Y1897427D2*
X7994197Y1889827D1*
X7996864Y1882227D1*
X8000400Y1874627D1*
X8410800Y1882227D2*
Y1874627D1*
Y1867027D1*
Y1859427D1*
X8410770Y1851827D1*
X8410503Y1844227D1*
X8409529Y1836627D1*
X8407645Y1829027D1*
X8405383Y1821427D1*
X8403200Y1813827D1*
X8418400Y1882227D2*
X8426000Y1874627D1*
X8422319Y1867027D1*
X8427299Y1859427D1*
X8433600Y1851827D1*
X9459600Y1882227D2*
X9456683Y1874627D1*
X9453151Y1867027D1*
X9448645Y1859427D1*
X9442999Y1851827D1*
X9436800Y1844227D1*
X7544400Y1882227D2*
X7536800Y1874627D1*
X7529200Y1867027D1*
X7521600Y1859427D1*
X7514000Y1851827D1*
X7506400Y1844227D1*
X7635600Y1882227D2*
X7634962Y1874627D1*
X7633522Y1867027D1*
X7626578Y1859427D1*
X7616651Y1851827D1*
X7605200Y1844227D1*
X7894000Y1882227D2*
X7886133Y1874627D1*
X7876128Y1867027D1*
X7859811Y1859427D1*
X7835829Y1851827D1*
X7810692Y1844227D1*
X7791162Y1836627D1*
X7777190Y1829027D1*
X7766399Y1821427D1*
X7756423Y1813827D1*
X7745752Y1806227D1*
X7734400Y1798627D1*
X7985200Y1882227D2*
X7986380Y1874627D1*
X7988328Y1867027D1*
X7990610Y1859427D1*
X7992800Y1851827D1*
X8281600Y1874627D2*
Y1867027D1*
X8281570Y1859427D1*
X8281303Y1851827D1*
X8280335Y1844227D1*
X8278485Y1836627D1*
X8276239Y1829027D1*
X8273650Y1821427D1*
X8269885Y1813827D1*
X8264689Y1806227D1*
X8258800Y1798627D1*
X8266400Y1791027D1*
X8289200Y1874627D2*
X8291867Y1867027D1*
X8294451Y1859427D1*
X8296800Y1851827D1*
X8722400Y1874627D2*
X8706458Y1867027D1*
X8694242Y1859427D1*
X8684400Y1851827D1*
X8752800Y1874627D2*
Y1867027D1*
Y1859427D1*
X8722400D1*
X8722111Y1851827D1*
X8721136Y1844227D1*
X8719313Y1836627D1*
X8717345Y1829027D1*
X8715905Y1821427D1*
X8714800Y1813827D1*
X7316400Y1874627D2*
X7308800Y1867027D1*
X7316400Y1874627D2*
X7324000Y1867027D1*
X8372800D2*
X8375398Y1859427D1*
X8377660Y1851827D1*
X8379101Y1844227D1*
X8379875Y1836627D1*
X8380478Y1829027D1*
X8381584Y1821427D1*
X8383458Y1813827D1*
X8385445Y1806227D1*
X8386892Y1798627D1*
X8388000Y1791027D1*
X8380400Y1867027D2*
X8383908Y1859427D1*
X8386091Y1851827D1*
X8387196Y1844227D1*
X8387685Y1836627D1*
X8387884Y1829027D1*
X8387961Y1821427D1*
X8388000Y1813827D1*
X9459600Y1867027D2*
X9458106Y1859427D1*
X9454951Y1851827D1*
X9449837Y1844227D1*
X9442892Y1836627D1*
X9433478Y1829027D1*
X9420900Y1821427D1*
X9406400Y1813827D1*
X7438000Y1867027D2*
Y1859427D1*
Y1851827D1*
Y1844227D1*
X8517200Y1859427D2*
X8509600Y1851827D1*
X8524800Y1859427D2*
X8521238Y1851827D1*
X8517200Y1844227D1*
X8646400Y1859427D2*
X8642602Y1851827D1*
X8639440Y1844227D1*
X8636447Y1836627D1*
X8633677Y1829027D1*
X8631200Y1821427D1*
X8654000Y1859427D2*
Y1851827D1*
Y1844227D1*
Y1836627D1*
Y1829027D1*
Y1821427D1*
X8669200D1*
Y1813827D1*
Y1806227D1*
X8821200Y1859427D2*
Y1851827D1*
Y1844227D1*
X8836400Y1859427D2*
Y1851827D1*
Y1844227D1*
X8844000Y1859427D2*
X8845397Y1851827D1*
X8848064Y1844227D1*
X8851600Y1836627D1*
X8848092Y1829027D1*
X8845909Y1821427D1*
X8844802Y1813827D1*
X8844294Y1806227D1*
X8844000Y1798627D1*
X8859200Y1859427D2*
X8864496Y1851827D1*
X8872094Y1844227D1*
X8881853Y1836627D1*
X8893706Y1829027D1*
X8908401Y1821427D1*
X8926840Y1813827D1*
X8949054Y1806227D1*
X8973200Y1798627D1*
X8874400Y1859427D2*
X8898135Y1851827D1*
X8924475Y1844227D1*
X8955074Y1836627D1*
X8988400Y1829027D1*
X8342400Y1851827D2*
X8357600D2*
X8350084Y1844227D1*
X8342059Y1836627D1*
X8334933Y1829027D1*
X8332938Y1821427D1*
X8333757Y1813827D1*
X8334800Y1806227D1*
X8448800Y1851827D2*
X8486800D2*
X8547600D2*
X8532400Y1844227D1*
X8555200Y1851827D2*
X8570400D2*
X8593200D2*
Y1844227D1*
Y1836627D1*
Y1829027D1*
X8600800Y1851827D2*
X8616000D2*
X8707200Y1859427D2*
X8699600Y1851827D1*
X8714800Y1859427D2*
X8714770Y1851827D1*
X8714503Y1844227D1*
X8713535Y1836627D1*
X8711744Y1829027D1*
X8710063Y1821427D1*
X8709711Y1813827D1*
X8710889Y1806227D1*
X8712816Y1798627D1*
X8714800Y1791027D1*
X8745200Y1851827D2*
X8740517Y1844227D1*
X8736449Y1836627D1*
X8733355Y1829027D1*
X8731401Y1821427D1*
X8730000Y1813827D1*
X8768000Y1851827D2*
X8783200D2*
X8806000D2*
Y1844227D1*
X7240400D2*
Y1836627D1*
Y1829027D1*
X7320491Y1821427D1*
X7401901Y1813827D1*
X7484340Y1806227D1*
X7567200Y1798627D1*
X8578000Y1844227D2*
Y1836627D1*
Y1829027D1*
X8616000Y1844227D2*
Y1836627D1*
Y1829027D1*
Y1821427D1*
X8456400Y1844227D2*
Y1836627D1*
Y1829027D1*
X8486800Y1844227D2*
X8479200Y1836627D1*
X8471600Y1829027D1*
X8494400Y1844227D2*
X8486800Y1836627D1*
X8494400Y1844227D2*
X8502000Y1836627D1*
X8790800Y1844227D2*
X8784597Y1836627D1*
X8779664Y1829027D1*
X8775600Y1821427D1*
X8790800Y1844227D2*
X8797003Y1836627D1*
X8801936Y1829027D1*
X8806000Y1821427D1*
X7362000Y1836627D2*
X7445600Y1829027D1*
X7529200Y1821427D1*
X7612800Y1813827D1*
X8296800Y1836627D2*
X8297975Y1829027D1*
X8299918Y1821427D1*
X8302465Y1813827D1*
X8306151Y1806227D1*
X8312093Y1798627D1*
X8319600Y1791027D1*
Y1836627D2*
X8319912Y1829027D1*
X8321092Y1821427D1*
X8323691Y1813827D1*
X8327200Y1806227D1*
X8426000Y1836627D2*
Y1829027D1*
Y1821427D1*
Y1813827D1*
X8433600Y1836627D2*
Y1829027D1*
Y1821427D1*
Y1813827D1*
X8448800Y1836627D2*
X8448830Y1829027D1*
X8449119Y1821427D1*
X8450294Y1813827D1*
X8452892Y1806227D1*
X8456400Y1798627D1*
X8532400Y1836627D2*
Y1829027D1*
Y1821427D1*
X8547600Y1836627D2*
Y1829027D1*
Y1821427D1*
X9117600Y1836627D2*
X9110000Y1829027D1*
X9125200D2*
X8084000D2*
X8076400Y1821427D1*
X8099200D2*
X8410800D2*
X8409620Y1813827D1*
X8407672Y1806227D1*
X8405390Y1798627D1*
X8403200Y1791027D1*
X8486800Y1829027D2*
X8479200Y1821427D1*
X8486800Y1829027D2*
X8494400Y1821427D1*
X8752800Y1829027D2*
X8745200Y1821427D1*
X8737600Y1813827D1*
X8768000Y1829027D2*
X8760400Y1821427D1*
X8752800Y1813827D1*
X8828800Y1829027D2*
X8821200Y1821427D1*
X8828800Y1829027D2*
X8836400Y1821427D1*
X7628000Y1813827D2*
X8053600Y1821427D2*
X8046000Y1813827D1*
X8053600Y1821427D2*
X8061200Y1813827D1*
X8289200Y1821427D2*
X8281600Y1813827D1*
X8296800D2*
X8532400D2*
X8494400Y1806227D1*
X8456400Y1798627D1*
X8486800Y1813827D2*
X8509600Y1806227D1*
X8532400Y1798627D1*
X8540000Y1813827D2*
Y1806227D1*
Y1798627D1*
X8562800Y1813827D2*
Y1806227D1*
Y1798627D1*
Y1791027D1*
X8600800Y1813827D2*
Y1806227D1*
Y1798627D1*
X8623600Y1813827D2*
Y1806227D1*
Y1798627D1*
X8638800Y1813827D2*
X8631200Y1806227D1*
X8623600Y1798627D1*
X8646400Y1813827D2*
X8654000Y1806227D1*
X8768000Y1813827D2*
X8760400Y1806227D1*
X8752800Y1798627D1*
X8775600Y1813827D2*
X8783200Y1806227D1*
X8806000Y1813827D2*
X8798400Y1806227D1*
X8813600Y1813827D2*
X8821200Y1806227D1*
X8836400Y1813827D2*
X8828800Y1806227D1*
X8578000D2*
X8570400Y1798627D1*
X8562800Y1791027D1*
X8578000Y1806227D2*
X8585600Y1798627D1*
X8730000Y1806227D2*
X8722400Y1798627D1*
X8714800Y1791027D1*
X8730000Y1806227D2*
X8737600Y1798627D1*
X8281600D2*
X8274000Y1791027D1*
X8304400D2*
X5312984Y3801577D2*
D65*
Y3929046D1*
X5252197Y3844114D1*
X5343307D1*
X5388559Y3813790D2*
X5382522Y3807614D1*
X5388559Y3801577D1*
X5394736Y3807614D1*
X5388559Y3813790D1*
X5458238Y3801577D2*
X5519025Y3929046D1*
X5433951D1*
X5681687Y3929187D2*
Y3801577D1*
X5742473Y3886650D2*
X5681687Y3825864D1*
X5705973Y3850150D2*
X5748510Y3801577D1*
X5818049Y3886650D2*
X5805975Y3880614D1*
X5793762Y3868400D1*
X5787725Y3850150D1*
Y3838077D1*
X5793762Y3819827D1*
X5805975Y3807754D1*
X5818049Y3801577D1*
X5836299D1*
X5848512Y3807754D1*
X5860585Y3819827D1*
X5866762Y3838077D1*
Y3850150D1*
X5860585Y3868400D1*
X5848512Y3880614D1*
X5836299Y3886650D1*
X5818049D1*
X5905978Y3929187D2*
Y3801577D1*
Y3862364D2*
X5924228Y3880614D1*
X5936441Y3886650D1*
X5954691D1*
X5966764Y3880614D1*
X5972801Y3862364D1*
Y3801577D1*
X6012016Y3886650D2*
Y3801577D1*
Y3862364D2*
X6030266Y3880614D1*
X6042480Y3886650D1*
X6060590D1*
X6072803Y3880614D1*
X6078840Y3862364D1*
Y3801577D1*
Y3862364D2*
X6097090Y3880614D1*
X6109303Y3886650D1*
X6127413D1*
X6139626Y3880614D1*
X6145803Y3862364D1*
Y3801577D1*
X5312984Y4182577D2*
Y4310046D1*
X5252197Y4225114D1*
X5343307D1*
X5388559Y4194790D2*
X5382522Y4188614D1*
X5388559Y4182577D1*
X5394736Y4188614D1*
X5388559Y4194790D1*
X5458238Y4182577D2*
X5519025Y4310046D1*
X5433951D1*
X5681687Y4310187D2*
Y4182577D1*
X5742473Y4267650D2*
X5681687Y4206864D1*
X5705973Y4231150D2*
X5748510Y4182577D1*
X5818049Y4267650D2*
X5805975Y4261614D1*
X5793762Y4249400D1*
X5787725Y4231150D1*
Y4219077D1*
X5793762Y4200827D1*
X5805975Y4188754D1*
X5818049Y4182577D1*
X5836299D1*
X5848512Y4188754D1*
X5860585Y4200827D1*
X5866762Y4219077D1*
Y4231150D1*
X5860585Y4249400D1*
X5848512Y4261614D1*
X5836299Y4267650D1*
X5818049D1*
X5905978Y4310187D2*
Y4182577D1*
Y4243364D2*
X5924228Y4261614D1*
X5936441Y4267650D1*
X5954691D1*
X5966764Y4261614D1*
X5972801Y4243364D1*
Y4182577D1*
X6012016Y4267650D2*
Y4182577D1*
Y4243364D2*
X6030266Y4261614D1*
X6042480Y4267650D1*
X6060590D1*
X6072803Y4261614D1*
X6078840Y4243364D1*
Y4182577D1*
Y4243364D2*
X6097090Y4261614D1*
X6109303Y4267650D1*
X6127413D1*
X6139626Y4261614D1*
X6145803Y4243364D1*
Y4182577D1*
X3521484Y2132937D2*
X3515447Y2145010D1*
X3497197Y2151046D1*
X3485124D1*
X3466874Y2145010D1*
X3454660Y2126760D1*
X3448624Y2096437D1*
Y2066114D1*
X3454660Y2041827D1*
X3466874Y2029614D1*
X3485124Y2023577D1*
X3491160D1*
X3509270Y2029614D1*
X3521484Y2041827D1*
X3527520Y2060077D1*
Y2066114D1*
X3521484Y2084364D1*
X3509270Y2096437D1*
X3491160Y2102473D1*
X3485124D1*
X3466874Y2096437D1*
X3454660Y2084364D1*
X3448624Y2066114D1*
X3572772Y2035790D2*
X3566736Y2029614D1*
X3572772Y2023577D1*
X3578949Y2029614D1*
X3572772Y2035790D1*
X3648488Y2151046D2*
X3630378Y2145010D1*
X3624201Y2132937D1*
Y2120723D1*
X3630378Y2108650D1*
X3642451Y2102473D1*
X3666738Y2096437D1*
X3684988Y2090400D1*
X3697061Y2078187D1*
X3703098Y2066114D1*
Y2047864D1*
X3697061Y2035790D1*
X3691025Y2029614D1*
X3672775Y2023577D1*
X3648488D1*
X3630378Y2029614D1*
X3624201Y2035790D1*
X3618165Y2047864D1*
Y2066114D1*
X3624201Y2078187D1*
X3636415Y2090400D1*
X3654525Y2096437D1*
X3678811Y2102473D1*
X3691025Y2108650D1*
X3697061Y2120723D1*
Y2132937D1*
X3691025Y2145010D1*
X3672775Y2151046D1*
X3648488D1*
X3865760Y2151187D2*
Y2023577D1*
X3926546Y2108650D2*
X3865760Y2047864D1*
X3890046Y2072150D2*
X3932583Y2023577D1*
X4002122Y2108650D2*
X3990049Y2102614D1*
X3977835Y2090400D1*
X3971799Y2072150D1*
Y2060077D1*
X3977835Y2041827D1*
X3990049Y2029754D1*
X4002122Y2023577D1*
X4020372D1*
X4032585Y2029754D1*
X4044658Y2041827D1*
X4050835Y2060077D1*
Y2072150D1*
X4044658Y2090400D1*
X4032585Y2102614D1*
X4020372Y2108650D1*
X4002122D1*
X4090051Y2151187D2*
Y2023577D1*
Y2084364D2*
X4108301Y2102614D1*
X4120514Y2108650D1*
X4138764D1*
X4150837Y2102614D1*
X4156874Y2084364D1*
Y2023577D1*
X4196090Y2108650D2*
Y2023577D1*
Y2084364D2*
X4214340Y2102614D1*
X4226553Y2108650D1*
X4244663D1*
X4256876Y2102614D1*
X4262913Y2084364D1*
Y2023577D1*
Y2084364D2*
X4281163Y2102614D1*
X4293376Y2108650D1*
X4311486D1*
X4323699Y2102614D1*
X4329876Y2084364D1*
Y2023577D1*
X7937825Y2856779D2*
X7950039Y2862956D1*
X7968289Y2881065D1*
Y2753596D1*
X8044005Y2881065D2*
X8025755Y2875029D1*
X8013541Y2856779D1*
X8007505Y2826456D1*
Y2808206D1*
X8013541Y2777883D1*
X8025755Y2759633D1*
X8044005Y2753596D1*
X8056078D1*
X8074328Y2759633D1*
X8086401Y2777883D1*
X8092578Y2808206D1*
Y2826456D1*
X8086401Y2856779D1*
X8074328Y2875029D1*
X8056078Y2881065D1*
X8044005D1*
X8086401Y2856779D2*
X8013541Y2777883D1*
X8168293Y2881065D2*
X8150043Y2875029D1*
X8137830Y2856779D1*
X8131793Y2826456D1*
Y2808206D1*
X8137830Y2777883D1*
X8150043Y2759633D1*
X8168293Y2753596D1*
X8180366D1*
X8198616Y2759633D1*
X8210689Y2777883D1*
X8216866Y2808206D1*
Y2826456D1*
X8210689Y2856779D1*
X8198616Y2875029D1*
X8180366Y2881065D1*
X8168293D1*
X8210689Y2856779D2*
X8137830Y2777883D1*
X8379528Y2881206D2*
X8428102Y2753596D1*
X8476675Y2881206D1*
X9013817Y6552987D2*
Y6425377D1*
X9056353D1*
X9074603Y6431554D1*
X9086817Y6443627D1*
X9092853Y6455841D1*
X9098890Y6473950D1*
Y6504414D1*
X9092853Y6522664D1*
X9086817Y6534737D1*
X9074603Y6546950D1*
X9056353Y6552987D1*
X9013817D1*
X9235392Y6425377D2*
X9186679Y6552987D1*
X9138106Y6425377D1*
X9156356Y6467914D2*
X9217142D1*
X9317144Y6552987D2*
Y6425377D1*
X9274608Y6552987D2*
X9359681D1*
X9496183Y6425377D2*
X9447470Y6552987D1*
X9398897Y6425377D1*
X9417147Y6467914D2*
X9477933D1*
X1071329Y5401925D2*
Y5274315D1*
X1113865D1*
X1132115Y5280492D1*
X1144329Y5292565D1*
X1150365Y5304779D1*
X1156402Y5322888D1*
Y5353352D1*
X1150365Y5371602D1*
X1144329Y5383675D1*
X1132115Y5395888D1*
X1113865Y5401925D1*
X1071329D1*
X1238154D2*
Y5274315D1*
X1195618Y5401925D2*
X1280691D1*
X1417193Y5274315D2*
X1368480Y5401925D1*
X1319906Y5274315D1*
X1338156Y5316852D2*
X1398943D1*
X1456409Y5253258D2*
X1571805D1*
X1696094Y5383675D2*
X1684020Y5395888D1*
X1665770Y5401925D1*
X1641484D1*
X1623234Y5395888D1*
X1611020Y5383675D1*
Y5371602D1*
X1617197Y5359388D1*
X1623234Y5353352D1*
X1635307Y5347315D1*
X1671807Y5335102D1*
X1684020Y5329065D1*
X1690057Y5322888D1*
X1696094Y5310815D1*
Y5292565D1*
X1684020Y5280492D1*
X1665770Y5274315D1*
X1641484D1*
X1623234Y5280492D1*
X1611020Y5292565D1*
X1777846Y5401925D2*
Y5274315D1*
X1735309Y5401925D2*
X1820382D1*
X1859598Y5335102D2*
X1914348D1*
X1932458Y5341138D1*
X1938635Y5347315D1*
X1944671Y5359388D1*
Y5377638D1*
X1938635Y5389711D1*
X1932458Y5395888D1*
X1914348Y5401925D1*
X1859598D1*
Y5274315D1*
X9180783Y5282987D2*
X9168569Y5276950D1*
X9156496Y5264737D1*
X9150319Y5252664D1*
X9144283Y5234414D1*
Y5203950D1*
X9150319Y5185841D1*
X9156496Y5173627D1*
X9168569Y5161554D1*
X9180783Y5155377D1*
X9205069D1*
X9217142Y5161554D1*
X9229356Y5173627D1*
X9235392Y5185841D1*
X9241429Y5203950D1*
Y5234414D1*
X9235392Y5252664D1*
X9229356Y5264737D1*
X9217142Y5276950D1*
X9205069Y5282987D1*
X9180783D1*
X9365717D2*
Y5155377D1*
X9280644Y5282987D1*
Y5155377D1*
X1195688Y5944102D2*
X1250438D1*
X1268547Y5950138D1*
X1274724Y5956315D1*
X1280761Y5968388D1*
Y5986638D1*
X1274724Y5998711D1*
X1268547Y6004888D1*
X1250438Y6010925D1*
X1195688D1*
Y5883315D1*
X1356477Y6010925D2*
X1344263Y6004888D1*
X1332190Y5992675D1*
X1326013Y5980602D1*
X1319977Y5962352D1*
Y5931888D1*
X1326013Y5913779D1*
X1332190Y5901565D1*
X1344263Y5889492D1*
X1356477Y5883315D1*
X1380763D1*
X1392836Y5889492D1*
X1405050Y5901565D1*
X1411086Y5913779D1*
X1417123Y5931888D1*
Y5962352D1*
X1411086Y5980602D1*
X1405050Y5992675D1*
X1392836Y6004888D1*
X1380763Y6010925D1*
X1356477D1*
X1456338D2*
X1486802Y5883315D1*
X1517125Y6010925D1*
X1547448Y5883315D1*
X1577912Y6010925D1*
X1696023D2*
X1617127D1*
Y5883315D1*
X1696023D1*
X1617127Y5950138D2*
X1665700D1*
X1735239D2*
X1789849D1*
X1808099Y5956315D1*
X1814276Y5962352D1*
X1820312Y5974425D1*
Y5986638D1*
X1814276Y5998711D1*
X1808099Y6004888D1*
X1789849Y6010925D1*
X1735239D1*
Y5883315D1*
X1777776Y5950138D2*
X1820312Y5883315D1*
X3758836Y2621655D2*
X3758837Y2676404D1*
X3752800Y2694514D1*
X3746623Y2700691D1*
X3734550Y2706728D1*
X3716300D1*
X3704227Y2700691D1*
X3698050Y2694514D1*
X3692013Y2676405D1*
Y2621655D1*
X3819623D1*
X3692014Y2745943D2*
X3819623Y2776406D1*
X3692014Y2806730D1*
X3819623Y2837053D1*
X3692014Y2867516D1*
X3752800Y2906732D2*
Y2961341D1*
X3746623Y2979591D1*
X3740587Y2985768D1*
X3728513Y2991805D1*
X3716300D1*
X3704227Y2985768D1*
X3698050Y2979591D1*
X3692014Y2961341D1*
Y2906732D1*
X3819623D1*
X3752800Y2949268D2*
X3819623Y2991805D1*
X3692014Y3067521D2*
X3698050Y3055307D1*
X3710263Y3043234D1*
X3722337Y3037057D1*
X3740587Y3031021D1*
X3771050D1*
X3789160Y3037057D1*
X3801373Y3043234D1*
X3813446Y3055307D1*
X3819623Y3067520D1*
Y3091807D1*
X3813446Y3103880D1*
X3801373Y3116094D1*
X3789160Y3122130D1*
X3771050Y3128167D1*
X3740587D1*
X3722337Y3122130D1*
X3710263Y3116094D1*
X3698050Y3103880D1*
X3692013Y3091807D1*
X3692014Y3067521D1*
X3716440Y3167382D2*
X3710263Y3179596D1*
X3692154Y3197846D1*
X3819623D1*
X4425586Y2594350D2*
X4425587Y2649100D1*
X4419550Y2667209D1*
X4413373Y2673386D1*
X4401300Y2679423D1*
X4383050D1*
X4370977Y2673386D1*
X4364800Y2667209D1*
X4358763Y2649100D1*
Y2594350D1*
X4486373D1*
X4358764Y2718638D2*
X4486373Y2749102D1*
X4358764Y2779425D1*
X4486373Y2809748D1*
X4358764Y2840211D1*
X4419550Y2879427D2*
Y2934037D1*
X4413373Y2952287D1*
X4407337Y2958463D1*
X4395263Y2964500D1*
X4383050D1*
X4370977Y2958464D1*
X4364800Y2952287D1*
X4358764Y2934037D1*
Y2879427D1*
X4486373D1*
X4419550Y2921963D2*
X4486373Y2964500D1*
X4358764Y3040216D2*
X4364800Y3028002D1*
X4377013Y3015929D1*
X4389087Y3009752D1*
X4407337Y3003716D1*
X4437800D1*
X4455910Y3009752D1*
X4468123Y3015929D1*
X4480196Y3028002D1*
X4486373Y3040216D1*
Y3064502D1*
X4480196Y3076575D1*
X4468123Y3088789D1*
X4455910Y3094825D1*
X4437800Y3100862D1*
X4407337D1*
X4389087Y3094825D1*
X4377013Y3088789D1*
X4364800Y3076575D1*
X4358763Y3064502D1*
X4358764Y3040216D1*
X4389227Y3146254D2*
X4383190D1*
X4370977Y3152291D1*
X4364940Y3158328D1*
X4358904Y3170541D1*
Y3194828D1*
X4364940Y3206901D1*
X4370977Y3212937D1*
X4383190Y3219114D1*
X4395263D1*
X4407477Y3212937D1*
X4425587Y3200864D1*
X4486373Y3140078D1*
Y3225151D1*
X5124086Y2594350D2*
X5124087Y2649100D1*
X5118050Y2667209D1*
X5111873Y2673386D1*
X5099800Y2679423D1*
X5081550D1*
X5069477Y2673386D1*
X5063300Y2667209D1*
X5057263Y2649100D1*
Y2594350D1*
X5184873D1*
X5057264Y2718638D2*
X5184873Y2749102D1*
X5057264Y2779425D1*
X5184873Y2809748D1*
X5057264Y2840211D1*
X5118050Y2879427D2*
Y2934037D1*
X5111873Y2952287D1*
X5105837Y2958463D1*
X5093763Y2964500D1*
X5081550D1*
X5069477Y2958464D1*
X5063300Y2952287D1*
X5057264Y2934037D1*
Y2879427D1*
X5184873D1*
X5118050Y2921963D2*
X5184873Y2964500D1*
X5057264Y3040216D2*
X5063300Y3028002D1*
X5075513Y3015929D1*
X5087587Y3009752D1*
X5105837Y3003716D1*
X5136300D1*
X5154410Y3009752D1*
X5166623Y3015929D1*
X5178696Y3028002D1*
X5184873Y3040216D1*
Y3064502D1*
X5178696Y3076575D1*
X5166623Y3088789D1*
X5154410Y3094825D1*
X5136300Y3100862D1*
X5105837D1*
X5087587Y3094825D1*
X5075513Y3088789D1*
X5063300Y3076575D1*
X5057263Y3064502D1*
X5057264Y3040216D1*
X5057404Y3152291D2*
Y3218974D1*
X5105977Y3182614D1*
Y3200864D1*
X5112013Y3212937D1*
X5118050Y3218974D1*
X5136300Y3225151D1*
X5148373D1*
X5166623Y3218974D1*
X5178836Y3206901D1*
X5184873Y3188651D1*
Y3170401D1*
X5178836Y3152291D1*
X5172660Y3146254D1*
X5160587Y3140078D1*
X6183384Y2046925D2*
Y1919315D1*
X6222599Y1986138D2*
X6277209D1*
X6295459Y1992315D1*
X6301636Y1998352D1*
X6307672Y2010425D1*
Y2022638D1*
X6301636Y2034711D1*
X6295459Y2040888D1*
X6277209Y2046925D1*
X6222599D1*
Y1919315D1*
X6265136Y1986138D2*
X6307672Y1919315D1*
X6425925Y2046925D2*
X6346888D1*
Y1919315D1*
Y1986138D2*
X6395461D1*
X6538000Y2046785D2*
X6477354D1*
X6471317Y1992175D1*
X6477354Y1998211D1*
X6495604Y2004388D1*
X6513713D1*
X6531963Y1998211D1*
X6544177Y1986138D1*
X6550213Y1967888D1*
Y1955815D1*
X6544177Y1937565D1*
X6531963Y1925352D1*
X6513713Y1919315D1*
X6495604D1*
X6477354Y1925352D1*
X6471317Y1931529D1*
X6465140Y1943602D1*
X6650216Y1919315D2*
Y2046785D1*
X6589429Y1961852D1*
X6680539D1*
X6756254Y2046785D2*
X6738004Y2040748D1*
X6725791Y2022498D1*
X6719754Y1992175D1*
Y1973925D1*
X6725791Y1943602D1*
X6738004Y1925352D1*
X6756254Y1919315D1*
X6768328D1*
X6786578Y1925352D1*
X6798651Y1943602D1*
X6804828Y1973925D1*
Y1992175D1*
X6798651Y2022498D1*
X6786578Y2040748D1*
X6768328Y2046785D1*
X6756254D1*
X6798651Y2022498D2*
X6725791Y1943602D1*
X6929116Y2046925D2*
Y1919315D1*
X6844043Y2046925D1*
Y1919315D1*
X7488573Y5071577D2*
Y5199046D1*
X7427787Y5114114D1*
X7518896D1*
X7582398Y5071577D2*
X7643185Y5199046D1*
X7558112D1*
X7718901D2*
X7700651Y5193010D1*
X7688437Y5174760D1*
X7682401Y5144437D1*
Y5126187D1*
X7688437Y5095864D1*
X7700651Y5077614D1*
X7718901Y5071577D1*
X7730974D1*
X7749224Y5077614D1*
X7761297Y5095864D1*
X7767474Y5126187D1*
Y5144437D1*
X7761297Y5174760D1*
X7749224Y5193010D1*
X7730974Y5199046D1*
X7718901D1*
X7761297Y5174760D2*
X7688437Y5095864D1*
X7960459Y5156650D2*
X7948386Y5150614D1*
X7936172Y5138400D1*
X7930136Y5120150D1*
Y5108077D1*
X7936172Y5089827D1*
X7948386Y5077754D1*
X7960459Y5071577D1*
X7978709D1*
X7990922Y5077754D1*
X8002995Y5089827D1*
X8009172Y5108077D1*
Y5120150D1*
X8002995Y5138400D1*
X7990922Y5150614D1*
X7978709Y5156650D1*
X7960459D1*
X8048388Y5199187D2*
Y5071577D1*
Y5132364D2*
X8066638Y5150614D1*
X8078852Y5156650D1*
X8097102D1*
X8109175Y5150614D1*
X8115211Y5132364D1*
Y5071577D1*
X8154427Y5156650D2*
Y5071577D1*
Y5132364D2*
X8172677Y5150614D1*
X8184890Y5156650D1*
X8203000D1*
X8215213Y5150614D1*
X8221250Y5132364D1*
Y5071577D1*
Y5132364D2*
X8239500Y5150614D1*
X8251713Y5156650D1*
X8269823D1*
X8282036Y5150614D1*
X8288213Y5132364D1*
Y5071577D1*
X7488573Y5452577D2*
Y5580046D1*
X7427787Y5495114D1*
X7518896D1*
X7582398Y5452577D2*
X7643185Y5580046D1*
X7558112D1*
X7718901D2*
X7700651Y5574010D1*
X7688437Y5555760D1*
X7682401Y5525437D1*
Y5507187D1*
X7688437Y5476864D1*
X7700651Y5458614D1*
X7718901Y5452577D1*
X7730974D1*
X7749224Y5458614D1*
X7761297Y5476864D1*
X7767474Y5507187D1*
Y5525437D1*
X7761297Y5555760D1*
X7749224Y5574010D1*
X7730974Y5580046D1*
X7718901D1*
X7761297Y5555760D2*
X7688437Y5476864D1*
X7960459Y5537650D2*
X7948386Y5531614D1*
X7936172Y5519400D1*
X7930136Y5501150D1*
Y5489077D1*
X7936172Y5470827D1*
X7948386Y5458754D1*
X7960459Y5452577D1*
X7978709D1*
X7990922Y5458754D1*
X8002995Y5470827D1*
X8009172Y5489077D1*
Y5501150D1*
X8002995Y5519400D1*
X7990922Y5531614D1*
X7978709Y5537650D1*
X7960459D1*
X8048388Y5580187D2*
Y5452577D1*
Y5513364D2*
X8066638Y5531614D1*
X8078852Y5537650D1*
X8097102D1*
X8109175Y5531614D1*
X8115211Y5513364D1*
Y5452577D1*
X8154427Y5537650D2*
Y5452577D1*
Y5513364D2*
X8172677Y5531614D1*
X8184890Y5537650D1*
X8203000D1*
X8215213Y5531614D1*
X8221250Y5513364D1*
Y5452577D1*
Y5513364D2*
X8239500Y5531614D1*
X8251713Y5537650D1*
X8269823D1*
X8282036Y5531614D1*
X8288213Y5513364D1*
Y5452577D1*
X7488573Y5833577D2*
Y5961046D1*
X7427787Y5876114D1*
X7518896D1*
X7582398Y5833577D2*
X7643185Y5961046D1*
X7558112D1*
X7718901D2*
X7700651Y5955010D1*
X7688437Y5936760D1*
X7682401Y5906437D1*
Y5888187D1*
X7688437Y5857864D1*
X7700651Y5839614D1*
X7718901Y5833577D1*
X7730974D1*
X7749224Y5839614D1*
X7761297Y5857864D1*
X7767474Y5888187D1*
Y5906437D1*
X7761297Y5936760D1*
X7749224Y5955010D1*
X7730974Y5961046D1*
X7718901D1*
X7761297Y5936760D2*
X7688437Y5857864D1*
X7960459Y5918650D2*
X7948386Y5912614D1*
X7936172Y5900400D1*
X7930136Y5882150D1*
Y5870077D1*
X7936172Y5851827D1*
X7948386Y5839754D1*
X7960459Y5833577D1*
X7978709D1*
X7990922Y5839754D1*
X8002995Y5851827D1*
X8009172Y5870077D1*
Y5882150D1*
X8002995Y5900400D1*
X7990922Y5912614D1*
X7978709Y5918650D1*
X7960459D1*
X8048388Y5961187D2*
Y5833577D1*
Y5894364D2*
X8066638Y5912614D1*
X8078852Y5918650D1*
X8097102D1*
X8109175Y5912614D1*
X8115211Y5894364D1*
Y5833577D1*
X8154427Y5918650D2*
Y5833577D1*
Y5894364D2*
X8172677Y5912614D1*
X8184890Y5918650D1*
X8203000D1*
X8215213Y5912614D1*
X8221250Y5894364D1*
Y5833577D1*
Y5894364D2*
X8239500Y5912614D1*
X8251713Y5918650D1*
X8269823D1*
X8282036Y5912614D1*
X8288213Y5894364D1*
Y5833577D1*
X1879235Y1237298D2*
X1891448Y1243475D1*
X1909698Y1261585D1*
Y1134115D1*
X1985414Y1261585D2*
X1967164Y1255548D1*
X1954950Y1237298D1*
X1948914Y1206975D1*
Y1188725D1*
X1954950Y1158402D1*
X1967164Y1140152D1*
X1985414Y1134115D1*
X1997487D1*
X2015737Y1140152D1*
X2027810Y1158402D1*
X2033987Y1188725D1*
Y1206975D1*
X2027810Y1237298D1*
X2015737Y1255548D1*
X1997487Y1261585D1*
X1985414D1*
X2027810Y1237298D2*
X1954950Y1158402D1*
X2196649Y1261725D2*
Y1134115D1*
X2257436Y1219188D2*
X2196649Y1158402D1*
X2220936Y1182688D2*
X2263472Y1134115D1*
X2333011Y1219188D2*
X2320938Y1213152D1*
X2308724Y1200938D1*
X2302688Y1182688D1*
Y1170615D1*
X2308724Y1152365D1*
X2320938Y1140292D1*
X2333011Y1134115D1*
X2351261D1*
X2363474Y1140292D1*
X2375547Y1152365D1*
X2381724Y1170615D1*
Y1182688D1*
X2375547Y1200938D1*
X2363474Y1213152D1*
X2351261Y1219188D1*
X2333011D1*
X2420940Y1261725D2*
Y1134115D1*
Y1194902D2*
X2439190Y1213152D1*
X2451403Y1219188D1*
X2469653D1*
X2481727Y1213152D1*
X2487763Y1194902D1*
Y1134115D1*
X2526979Y1219188D2*
Y1134115D1*
Y1194902D2*
X2545229Y1213152D1*
X2557442Y1219188D1*
X2575552D1*
X2587765Y1213152D1*
X2593802Y1194902D1*
Y1134115D1*
Y1194902D2*
X2612052Y1213152D1*
X2624265Y1219188D1*
X2642375D1*
X2654588Y1213152D1*
X2660765Y1194902D1*
Y1134115D1*
X9027691Y5899737D2*
X9015618Y5911950D1*
X8997368Y5917987D1*
X8973081D1*
X8954831Y5911950D1*
X8942618Y5899737D1*
Y5887664D1*
X8948795Y5875450D1*
X8954831Y5869414D1*
X8966904Y5863377D1*
X9003404Y5851164D1*
X9015618Y5845127D1*
X9021654Y5838950D1*
X9027691Y5826877D1*
Y5808627D1*
X9015618Y5796554D1*
X8997368Y5790377D1*
X8973081D1*
X8954831Y5796554D1*
X8942618Y5808627D1*
X9066906Y5917987D2*
X9097370Y5790377D1*
X9127693Y5917987D1*
X9158016Y5790377D1*
X9188480Y5917987D1*
X9270232D2*
Y5790377D1*
X9227695Y5917987D2*
X9312768D1*
X9443094Y5887664D2*
X9437057Y5899737D1*
X9424844Y5911950D1*
X9412770Y5917987D1*
X9388484D1*
X9376270Y5911950D1*
X9364197Y5899737D1*
X9358020Y5887664D1*
X9351984Y5869414D1*
Y5838950D1*
X9358020Y5820841D1*
X9364197Y5808627D1*
X9376270Y5796554D1*
X9388484Y5790377D1*
X9412770D1*
X9424844Y5796554D1*
X9437057Y5808627D1*
X9443094Y5820841D1*
X9482309Y5917987D2*
Y5790377D1*
X9567382Y5917987D2*
Y5790377D1*
X9482309Y5857200D2*
X9567382D1*
X6081060Y3206163D2*
Y3078554D1*
X6205349Y3187913D2*
X6193276Y3200127D1*
X6175026Y3206163D1*
X6150740D1*
X6132490Y3200127D1*
X6120276Y3187913D1*
Y3175840D1*
X6126453Y3163627D1*
X6132490Y3157590D1*
X6144563Y3151554D1*
X6181063Y3139340D1*
X6193276Y3133304D1*
X6199313Y3127127D1*
X6205349Y3115054D1*
Y3096804D1*
X6193276Y3084731D1*
X6175026Y3078554D1*
X6150740D1*
X6132490Y3084731D1*
X6120276Y3096804D1*
X6244565Y3206163D2*
Y3078554D1*
X6317425D1*
X6429500Y3206023D2*
X6368854D1*
X6362817Y3151413D1*
X6368854Y3157450D1*
X6387104Y3163627D1*
X6405213D1*
X6423463Y3157450D1*
X6435677Y3145377D1*
X6441713Y3127127D1*
Y3115054D1*
X6435677Y3096804D1*
X6423463Y3084590D1*
X6405213Y3078554D1*
X6387104D1*
X6368854Y3084590D1*
X6362817Y3090767D1*
X6356640Y3102840D1*
X6553789Y3206023D2*
X6493142D1*
X6487106Y3151413D1*
X6493142Y3157450D1*
X6511392Y3163627D1*
X6529502D1*
X6547752Y3157450D1*
X6559966Y3145377D1*
X6566002Y3127127D1*
Y3115054D1*
X6559966Y3096804D1*
X6547752Y3084590D1*
X6529502Y3078554D1*
X6511392D1*
X6493142Y3084590D1*
X6487106Y3090767D1*
X6480929Y3102840D1*
X6605218Y3181736D2*
X6617431Y3187913D1*
X6635681Y3206023D1*
Y3078554D1*
X6674897Y3181736D2*
X6687110Y3187913D1*
X6705360Y3206023D1*
Y3078554D1*
X6744576Y3181736D2*
X6756790Y3187913D1*
X6775040Y3206023D1*
Y3078554D1*
X3426655Y5893327D2*
D66*
Y5638107D1*
X3536155D1*
X3572655Y5650461D1*
X3584728Y5662534D1*
X3596801Y5686680D1*
Y5723180D1*
X3584728Y5747607D1*
X3572655Y5759680D1*
X3536155Y5771753D1*
X3572655Y5784107D1*
X3584728Y5796180D1*
X3596801Y5820327D1*
Y5844753D1*
X3584728Y5868900D1*
X3572655Y5881253D1*
X3536155Y5893327D1*
X3426655D1*
Y5771753D2*
X3536155D1*
X3675232Y5735253D2*
X3820951D1*
Y5759680D1*
X3808878Y5784107D1*
X3796805Y5796180D1*
X3772378Y5808253D1*
X3735878D1*
X3711732Y5796180D1*
X3687305Y5771753D1*
X3675232Y5735253D1*
Y5711107D1*
X3687305Y5674607D1*
X3711732Y5650461D1*
X3735878Y5638107D1*
X3772378D1*
X3796805Y5650461D1*
X3820951Y5674607D1*
X4045102Y5808253D2*
Y5638107D1*
Y5771753D2*
X4020956Y5796180D1*
X3996529Y5808253D1*
X3960310D1*
X3935883Y5796180D1*
X3911736Y5771753D1*
X3899383Y5735253D1*
Y5711107D1*
X3911736Y5674607D1*
X3935883Y5650461D1*
X3960310Y5638107D1*
X3996529D1*
X4020956Y5650461D1*
X4045102Y5674607D1*
X4269252Y5796180D2*
Y5601607D1*
X4257179Y5565388D1*
X4245106Y5553034D1*
X4220679Y5540961D1*
X4184179D1*
X4160033Y5553034D1*
X4269252Y5759680D2*
X4245106Y5783827D1*
X4220679Y5796180D1*
X4184179D1*
X4160033Y5783827D1*
X4135606Y5759680D1*
X4123533Y5723180D1*
Y5698753D1*
X4135606Y5662534D1*
X4160033Y5638107D1*
X4184179Y5626034D1*
X4220679D1*
X4245106Y5638107D1*
X4269252Y5662534D1*
X4347684Y5893327D2*
Y5638107D1*
X4426115Y5735253D2*
X4571834D1*
Y5759680D1*
X4559761Y5784107D1*
X4547688Y5796180D1*
X4523261Y5808253D1*
X4486761D1*
X4462615Y5796180D1*
X4438188Y5771753D1*
X4426115Y5735253D1*
Y5711107D1*
X4438188Y5674607D1*
X4462615Y5650461D1*
X4486761Y5638107D1*
X4523261D1*
X4547688Y5650461D1*
X4571834Y5674607D1*
X4650266Y5893327D2*
Y5638107D1*
X4759766D1*
X4796266Y5650461D1*
X4808339Y5662534D1*
X4820412Y5686680D1*
Y5723180D1*
X4808339Y5747607D1*
X4796266Y5759680D1*
X4759766Y5771753D1*
X4796266Y5784107D1*
X4808339Y5796180D1*
X4820412Y5820327D1*
Y5844753D1*
X4808339Y5868900D1*
X4796266Y5881253D1*
X4759766Y5893327D1*
X4650266D1*
Y5771753D2*
X4759766D1*
X4959490Y5808253D2*
X4935343Y5796180D1*
X4910916Y5771753D1*
X4898843Y5735253D1*
Y5711107D1*
X4910916Y5674607D1*
X4935343Y5650461D1*
X4959490Y5638107D1*
X4995990D1*
X5020416Y5650461D1*
X5044563Y5674607D1*
X5056916Y5711107D1*
Y5735253D1*
X5044563Y5771753D1*
X5020416Y5796180D1*
X4995990Y5808253D1*
X4959490D1*
X5135348D2*
Y5638107D1*
Y5759680D2*
X5171848Y5796180D1*
X5196275Y5808253D1*
X5232494D1*
X5256921Y5796180D1*
X5268994Y5759680D1*
Y5638107D1*
X5347425Y5735253D2*
X5493145D1*
Y5759680D1*
X5481071Y5784107D1*
X5468998Y5796180D1*
X5444571Y5808253D1*
X5408071D1*
X5383925Y5796180D1*
X5359498Y5771753D1*
X5347425Y5735253D1*
Y5711107D1*
X5359498Y5674607D1*
X5383925Y5650461D1*
X5408071Y5638107D1*
X5444571D1*
X5468998Y5650461D1*
X5493145Y5674607D1*
X5988615Y5856827D2*
X5964469Y5881253D1*
X5927969Y5893327D1*
X5879396D1*
X5842896Y5881253D1*
X5818469Y5856827D1*
Y5832680D1*
X5830823Y5808253D1*
X5842896Y5796180D1*
X5867042Y5784107D1*
X5940042Y5759680D1*
X5964469Y5747607D1*
X5976542Y5735253D1*
X5988615Y5711107D1*
Y5674607D1*
X5964469Y5650461D1*
X5927969Y5638107D1*
X5879396D1*
X5842896Y5650461D1*
X5818469Y5674607D1*
X6067046Y5893327D2*
Y5638107D1*
Y5759680D2*
X6103546Y5796180D1*
X6127973Y5808253D1*
X6164473D1*
X6188619Y5796180D1*
X6200693Y5759680D1*
Y5638107D1*
X6279124Y5893327D2*
X6291197Y5881253D1*
X6303551Y5893327D1*
X6291197Y5905680D1*
X6279124Y5893327D1*
X6291197Y5808253D2*
Y5638107D1*
X6381982Y5735253D2*
X6527701D1*
Y5759680D1*
X6515628Y5784107D1*
X6503555Y5796180D1*
X6479128Y5808253D1*
X6442628D1*
X6418482Y5796180D1*
X6394055Y5771753D1*
X6381982Y5735253D1*
Y5711107D1*
X6394055Y5674607D1*
X6418482Y5650461D1*
X6442628Y5638107D1*
X6479128D1*
X6503555Y5650461D1*
X6527701Y5674607D1*
X6606133Y5893327D2*
Y5638107D1*
X6830283Y5893327D2*
Y5638107D1*
Y5771753D2*
X6806137Y5796180D1*
X6781710Y5808253D1*
X6745210D1*
X6721064Y5796180D1*
X6696637Y5771753D1*
X6684564Y5735253D1*
Y5711107D1*
X6696637Y5674607D1*
X6721064Y5650461D1*
X6745210Y5638107D1*
X6781710D1*
X6806137Y5650461D1*
X6830283Y5674607D1*
X3426655Y5390753D2*
X3535874D1*
X3572374Y5403107D1*
X3584728Y5415180D1*
X3596801Y5439327D1*
Y5463753D1*
X3584728Y5487900D1*
X3572374Y5500253D1*
X3535874Y5512327D1*
X3426655D1*
Y5257107D1*
X3511728Y5390753D2*
X3596801Y5257107D1*
X3675232Y5354253D2*
X3820951D1*
Y5378680D1*
X3808878Y5403107D1*
X3796805Y5415180D1*
X3772378Y5427253D1*
X3735878D1*
X3711732Y5415180D1*
X3687305Y5390753D1*
X3675232Y5354253D1*
Y5330107D1*
X3687305Y5293607D1*
X3711732Y5269461D1*
X3735878Y5257107D1*
X3772378D1*
X3796805Y5269461D1*
X3820951Y5293607D1*
X3899383Y5427253D2*
X3972383Y5257107D1*
X4045102Y5427253D1*
X4123533Y5512327D2*
X4135606Y5500253D1*
X4147960Y5512327D1*
X4135606Y5524680D1*
X4123533Y5512327D1*
X4135606Y5427253D2*
Y5257107D1*
X4360038Y5390753D2*
X4347965Y5415180D1*
X4311465Y5427253D1*
X4274965D1*
X4238465Y5415180D1*
X4226392Y5390753D1*
X4238465Y5366607D1*
X4262892Y5354253D1*
X4323538Y5342180D1*
X4347965Y5330107D1*
X4360038Y5305680D1*
Y5293607D1*
X4347965Y5269461D1*
X4311465Y5257107D1*
X4274965D1*
X4238465Y5269461D1*
X4226392Y5293607D1*
X4438469Y5512327D2*
X4450542Y5500253D1*
X4462896Y5512327D1*
X4450542Y5524680D1*
X4438469Y5512327D1*
X4450542Y5427253D2*
Y5257107D1*
X4601974Y5427253D2*
X4577827Y5415180D1*
X4553400Y5390753D1*
X4541327Y5354253D1*
Y5330107D1*
X4553400Y5293607D1*
X4577827Y5269461D1*
X4601974Y5257107D1*
X4638474D1*
X4662900Y5269461D1*
X4687047Y5293607D1*
X4699400Y5330107D1*
Y5354253D1*
X4687047Y5390753D1*
X4662900Y5415180D1*
X4638474Y5427253D1*
X4601974D1*
X4777832D2*
Y5257107D1*
Y5378680D2*
X4814332Y5415180D1*
X4838759Y5427253D1*
X4874978D1*
X4899405Y5415180D1*
X4911478Y5378680D1*
Y5257107D1*
X5419021Y5451680D2*
X5406948Y5475827D1*
X5382521Y5500253D1*
X5358375Y5512327D1*
X5309802D1*
X5285375Y5500253D1*
X5261229Y5475827D1*
X5248875Y5451680D1*
X5236802Y5415180D1*
Y5354253D1*
X5248875Y5318034D1*
X5261229Y5293607D1*
X5285375Y5269461D1*
X5309802Y5257107D1*
X5358375D1*
X5382521Y5269461D1*
X5406948Y5293607D1*
X5419021Y5318034D1*
X3439008Y5070400D2*
Y5082473D1*
X3451081Y5106900D1*
X3463155Y5118973D1*
X3487581Y5131046D1*
X3536155D1*
X3560301Y5118973D1*
X3572374Y5106900D1*
X3584728Y5082473D1*
Y5058327D1*
X3572374Y5033900D1*
X3548228Y4997680D1*
X3426655Y4876107D1*
X3596801D1*
X3675232D2*
X3845378Y5131046D1*
X3996810D2*
X3960310Y5118973D1*
X3935883Y5082473D1*
X3923810Y5021827D1*
Y4985327D1*
X3935883Y4924680D1*
X3960310Y4888180D1*
X3996810Y4876107D1*
X4020956D1*
X4057456Y4888180D1*
X4081602Y4924680D1*
X4093956Y4985327D1*
Y5021827D1*
X4081602Y5082473D1*
X4057456Y5118973D1*
X4020956Y5131046D1*
X3996810D1*
X4081602Y5082473D2*
X3935883Y4924680D1*
X4172387Y5082473D2*
X4196814Y5094827D1*
X4233314Y5131046D1*
Y4876107D1*
X4311745D2*
X4481892Y5131046D1*
X4572677Y5070400D2*
Y5082473D1*
X4584750Y5106900D1*
X4596823Y5118973D1*
X4621250Y5131046D1*
X4669823D1*
X4693969Y5118973D1*
X4706042Y5106900D1*
X4718396Y5082473D1*
Y5058327D1*
X4706042Y5033900D1*
X4681896Y4997680D1*
X4560323Y4876107D1*
X4730469D1*
X4881900Y5131046D2*
X4845400Y5118973D1*
X4820974Y5082473D1*
X4808900Y5021827D1*
Y4985327D1*
X4820974Y4924680D1*
X4845400Y4888180D1*
X4881900Y4876107D1*
X4906047D1*
X4942547Y4888180D1*
X4966693Y4924680D1*
X4979047Y4985327D1*
Y5021827D1*
X4966693Y5082473D1*
X4942547Y5118973D1*
X4906047Y5131046D1*
X4881900D1*
X4966693Y5082473D2*
X4820974Y4924680D1*
X5069832Y5070400D2*
Y5082473D1*
X5081905Y5106900D1*
X5093978Y5118973D1*
X5118405Y5131046D1*
X5166978D1*
X5191124Y5118973D1*
X5203197Y5106900D1*
X5215551Y5082473D1*
Y5058327D1*
X5203197Y5033900D1*
X5179051Y4997680D1*
X5057478Y4876107D1*
X5227624D1*
X5379055Y5131046D2*
X5342555Y5118973D1*
X5318129Y5082473D1*
X5306055Y5021827D1*
Y4985327D1*
X5318129Y4924680D1*
X5342555Y4888180D1*
X5379055Y4876107D1*
X5403202D1*
X5439702Y4888180D1*
X5463848Y4924680D1*
X5476202Y4985327D1*
Y5021827D1*
X5463848Y5082473D1*
X5439702Y5118973D1*
X5403202Y5131046D1*
X5379055D1*
X5463848Y5082473D2*
X5318129Y4924680D1*
X3012726Y2414158D2*
D68*
X3078341D1*
X3045575Y2381393D2*
X3045576Y2447008D1*
X3007293Y2514253D2*
Y2477866D1*
X3040059Y2474244D1*
X3036437Y2477866D1*
X3032730Y2488816D1*
Y2499681D1*
X3036437Y2510631D1*
X3043680Y2517960D1*
X3054630Y2521581D1*
X3061874D1*
X3072824Y2517959D1*
X3080152Y2510631D1*
X3083774Y2499681D1*
Y2488816D1*
X3080152Y2477866D1*
X3076446Y2474244D1*
X3069202Y2470538D1*
X3007209Y2545111D2*
X3083774Y2574255D1*
X3007209Y2603399D1*
X2231652Y2451935D2*
X2224409Y2448313D1*
X2217080Y2440985D1*
X2213458Y2433741D1*
Y2419169D1*
X2217080Y2411841D1*
X2224408Y2404597D1*
X2231652Y2400891D1*
X2242602Y2397269D1*
X2260880D1*
X2271746Y2400891D1*
X2279074Y2404597D1*
X2286318Y2411841D1*
X2290024Y2419169D1*
Y2433741D1*
X2286318Y2440985D1*
X2279074Y2448313D1*
X2271746Y2451935D1*
X2260880D1*
Y2433741D1*
X2213459Y2526508D2*
X2290024D1*
X2213459Y2475464D1*
X2290024D1*
X2213459Y2550038D2*
X2290024Y2550037D1*
Y2575559D1*
X2286318Y2586509D1*
X2279074Y2593837D1*
X2271746Y2597459D1*
X2260880Y2601081D1*
X2242602D1*
X2231652Y2597459D1*
X2224409Y2593838D1*
X2217080Y2586509D1*
X2213459Y2575559D1*
Y2550038D1*
X4778424Y4152790D2*
D69*
Y4065303D1*
X4734736Y4108990D2*
X4822224D1*
X4911884Y4160034D2*
X4863367D1*
X4858538Y4116347D1*
X4863367Y4121176D1*
X4877967Y4126117D1*
X4892455D1*
X4907055Y4121176D1*
X4916826Y4111517D1*
X4921655Y4096917D1*
Y4087259D1*
X4916826Y4072659D1*
X4907055Y4062888D1*
X4892455Y4058059D1*
X4877967D1*
X4863367Y4062888D1*
X4858538Y4067830D1*
X4853597Y4077488D1*
X4953028Y4160147D2*
X4991886Y4058059D1*
X5030745Y4160147D1*
X4819751Y3615761D2*
X4814922Y3625420D1*
X4805151Y3635191D1*
X4795492Y3640020D1*
X4776063D1*
X4766292Y3635191D1*
X4756634Y3625420D1*
X4751692Y3615761D1*
X4746863Y3601161D1*
Y3576791D1*
X4751692Y3562303D1*
X4756634Y3552532D1*
X4766292Y3542874D1*
X4776063Y3537932D1*
X4795492D1*
X4805151Y3542874D1*
X4814922Y3552532D1*
X4819751Y3562303D1*
Y3576791D1*
X4795492D1*
X4919182Y3640020D2*
Y3537932D1*
X4851123Y3640020D1*
Y3537932D1*
X4950554Y3640020D2*
Y3537932D1*
X4984584D1*
X4999184Y3542874D1*
X5008954Y3552532D1*
X5013784Y3562303D1*
X5018613Y3576791D1*
Y3601161D1*
X5013784Y3615761D1*
X5008954Y3625420D1*
X4999184Y3635191D1*
X4984584Y3640020D1*
X4950554D1*
X9233001Y3996761D2*
X9228172Y4006420D1*
X9218401Y4016191D1*
X9208742Y4021020D1*
X9189313D1*
X9179542Y4016191D1*
X9169884Y4006420D1*
X9164942Y3996761D1*
X9160113Y3982161D1*
Y3957791D1*
X9164942Y3943303D1*
X9169884Y3933532D1*
X9179542Y3923874D1*
X9189313Y3918932D1*
X9208742D1*
X9218401Y3923874D1*
X9228172Y3933532D1*
X9233001Y3943303D1*
Y3957791D1*
X9208742D1*
X9332432Y4021020D2*
Y3918932D1*
X9264373Y4021020D1*
Y3918932D1*
X9363804Y4021020D2*
Y3918932D1*
X9397834D1*
X9412434Y3923874D1*
X9422204Y3933532D1*
X9427034Y3943303D1*
X9431863Y3957791D1*
Y3982161D1*
X9427034Y3996761D1*
X9422204Y4006420D1*
X9412434Y4016191D1*
X9397834Y4021020D1*
X9363804D1*
X9191674Y4279794D2*
Y4192306D1*
X9147986Y4235994D2*
X9235474D1*
X9325134Y4287038D2*
X9276617D1*
X9271788Y4243350D1*
X9276617Y4248179D1*
X9291217Y4253121D1*
X9305705D1*
X9320305Y4248179D1*
X9330076Y4238521D1*
X9334905Y4223921D1*
Y4214262D1*
X9330076Y4199662D1*
X9320305Y4189891D1*
X9305705Y4185062D1*
X9291217D1*
X9276617Y4189891D1*
X9271788Y4194833D1*
X9266847Y4204491D1*
X9366278Y4287150D2*
X9405136Y4185062D1*
X9443995Y4287150D1*
X9228172Y3752420D2*
X9218513Y3762191D1*
X9203913Y3767020D1*
X9184484D1*
X9169884Y3762191D1*
X9160113Y3752420D1*
Y3742761D1*
X9165055Y3732991D1*
X9169884Y3728161D1*
X9179542Y3723332D1*
X9208742Y3713561D1*
X9218513Y3708732D1*
X9223342Y3703791D1*
X9228172Y3694132D1*
Y3679532D1*
X9218513Y3669874D1*
X9203913Y3664932D1*
X9184484D1*
X9169884Y3669874D1*
X9160113Y3679532D1*
X9259544Y3767020D2*
Y3664932D1*
X9293573D1*
X9308173Y3669874D1*
X9317944Y3679532D1*
X9322773Y3689303D1*
X9327603Y3703791D1*
Y3728161D1*
X9322773Y3742761D1*
X9317944Y3752420D1*
X9308173Y3762191D1*
X9293573Y3767020D1*
X9259544D1*
X9436804Y3664932D2*
X9397834Y3767020D1*
X9358975Y3664932D1*
X9373575Y3698961D2*
X9422204D1*
X9228172Y3498420D2*
X9218513Y3508191D1*
X9203913Y3513020D1*
X9184484D1*
X9169884Y3508191D1*
X9160113Y3498420D1*
Y3488761D1*
X9165055Y3478991D1*
X9169884Y3474161D1*
X9179542Y3469332D1*
X9208742Y3459561D1*
X9218513Y3454732D1*
X9223342Y3449791D1*
X9228172Y3440132D1*
Y3425532D1*
X9218513Y3415874D1*
X9203913Y3410932D1*
X9184484D1*
X9169884Y3415874D1*
X9160113Y3425532D1*
X9332432Y3488761D2*
X9327603Y3498420D1*
X9317832Y3508191D1*
X9308173Y3513020D1*
X9288744D1*
X9278973Y3508191D1*
X9269315Y3498420D1*
X9264373Y3488761D1*
X9259544Y3474161D1*
Y3449791D1*
X9264373Y3435303D1*
X9269315Y3425532D1*
X9278973Y3415874D1*
X9288744Y3410932D1*
X9308173D1*
X9317832Y3415874D1*
X9327603Y3425532D1*
X9332432Y3435303D1*
X9363804Y3513020D2*
Y3410932D1*
X9422092D1*
X4844316Y3804059D2*
X4805345Y3906147D1*
X4766486Y3804059D1*
X4781086Y3838088D2*
X4829716D1*
X4875688Y3906147D2*
Y3804059D1*
X4975119Y3906147D2*
Y3804059D1*
X4907061Y3906147D1*
Y3804059D1*
X1079073Y5478980D2*
X1181161D1*
Y5513009D1*
X1176220Y5527609D1*
X1166561Y5537380D1*
X1156790Y5542209D1*
X1142303Y5547038D1*
X1117932D1*
X1103332Y5542209D1*
X1093674Y5537380D1*
X1083903Y5527609D1*
X1079073Y5513009D1*
Y5478980D1*
X1103332Y5651299D2*
X1093674Y5646469D1*
X1083903Y5636699D1*
X1079074Y5627040D1*
Y5607611D1*
X1083903Y5597840D1*
X1093674Y5588182D1*
X1103332Y5583240D1*
X1117932Y5578411D1*
X1142303D1*
X1156790Y5583240D1*
X1166561Y5588182D1*
X1176220Y5597840D1*
X1181161Y5607611D1*
Y5627040D1*
X1176220Y5636699D1*
X1166561Y5646469D1*
X1156790Y5651299D1*
X1142303D1*
Y5627040D1*
X1079074Y5750730D2*
X1181161D1*
X1079074Y5682671D1*
X1181161D1*
X1079074Y5782102D2*
X1181161D1*
Y5816131D1*
X1176220Y5830731D1*
X1166561Y5840502D1*
X1156790Y5845331D1*
X1142303Y5850161D1*
X1117932D1*
X1103332Y5845331D1*
X1093673Y5840502D1*
X1083903Y5830731D1*
X1079074Y5816131D1*
Y5782102D1*
X1848430Y5522668D2*
X1935917D1*
X1892230Y5478980D2*
Y5566468D1*
X1841186Y5656128D2*
Y5607611D1*
X1884874Y5602782D1*
X1880044Y5607611D1*
X1875103Y5622211D1*
Y5636699D1*
X1880044Y5651299D1*
X1889703Y5661069D1*
X1904303Y5665899D1*
X1913961D1*
X1928561Y5661069D1*
X1938332Y5651299D1*
X1943161Y5636699D1*
Y5622211D1*
X1938332Y5607611D1*
X1933390Y5602782D1*
X1923732Y5597840D1*
X1841074Y5697271D2*
X1943161Y5736130D1*
X1841074Y5774988D1*
X1865332Y6313868D2*
X1855674Y6309039D1*
X1845903Y6299268D1*
X1841073Y6289609D1*
Y6270180D1*
X1845903Y6260409D1*
X1855673Y6250751D1*
X1865332Y6245809D1*
X1879932Y6240980D1*
X1904303D1*
X1918790Y6245809D1*
X1928561Y6250751D1*
X1938220Y6260409D1*
X1943161Y6270180D1*
Y6289609D1*
X1938220Y6299268D1*
X1928561Y6309038D1*
X1918790Y6313868D1*
X1904303D1*
Y6289609D1*
X1841074Y6413299D2*
X1943161D1*
X1841074Y6345240D1*
X1943161D1*
X1841074Y6444671D2*
X1943161D1*
Y6478700D1*
X1938220Y6493300D1*
X1928561Y6503071D1*
X1918790Y6507900D1*
X1904303Y6512730D1*
X1879932D1*
X1865332Y6507900D1*
X1855674Y6503071D1*
X1845903Y6493300D1*
X1841074Y6478700D1*
Y6444671D1*
X1079073Y6240980D2*
X1181161Y6279838D1*
X1079074Y6318697D1*
Y6350069D2*
X1181161D1*
Y6384099D1*
X1176220Y6398699D1*
X1166561Y6408469D1*
X1156790Y6413299D1*
X1142303Y6418128D1*
X1117932D1*
X1103332Y6413299D1*
X1093674Y6408469D1*
X1083903Y6398699D1*
X1079074Y6384099D1*
Y6350069D1*
Y6449500D2*
X1181161D1*
Y6483530D1*
X1176220Y6498130D1*
X1166561Y6507900D1*
X1156790Y6512730D1*
X1142303Y6517559D1*
X1117932D1*
X1103332Y6512730D1*
X1093674Y6507900D1*
X1083903Y6498130D1*
X1079074Y6483530D1*
Y6449500D1*
X2503930Y2397269D2*
D68*
Y2430035D1*
X2500224Y2440985D1*
X2496602Y2444691D1*
X2489359Y2448313D1*
X2482030D1*
X2474787Y2444691D1*
X2471080Y2440985D1*
X2467458Y2430035D1*
Y2397269D1*
X2544024D1*
X2503930Y2422791D2*
X2544024Y2448313D1*
X2467459Y2471843D2*
X2544024Y2522886D1*
X2467459D2*
X2544024Y2471842D1*
X2467459Y2546416D2*
X2544024D1*
Y2571937D1*
X2540318Y2582887D1*
X2533074Y2590216D1*
X2525746Y2593837D1*
X2514880Y2597459D1*
X2496602D1*
X2485652Y2593838D1*
X2478409Y2590216D1*
X2471080Y2582888D1*
X2467459Y2571938D1*
Y2546416D1*
X2721458Y2422791D2*
X2798024D1*
X2721458Y2397269D2*
X2721459Y2448313D1*
Y2471843D2*
X2798024Y2522886D1*
X2721459D2*
X2798024Y2471842D1*
X2721459Y2546416D2*
X2798024D1*
Y2571937D1*
X2794318Y2582887D1*
X2787074Y2590216D1*
X2779746Y2593837D1*
X2768880Y2597459D1*
X2750602D1*
X2739652Y2593838D1*
X2732409Y2590216D1*
X2725080Y2582888D1*
X2721459Y2571938D1*
Y2546416D1*
X3290250Y2816885D2*
D65*
X3284214Y2828958D1*
X3272000Y2841172D1*
X3259927Y2847208D1*
X3235641D1*
X3223427Y2841172D1*
X3211354Y2828958D1*
X3205177Y2816885D1*
X3199141Y2798635D1*
Y2768172D1*
X3205177Y2750062D1*
X3211354Y2737849D1*
X3223427Y2725776D1*
X3235641Y2719599D1*
X3259927D1*
X3272000Y2725776D1*
X3284214Y2737849D1*
X3290250Y2750062D1*
Y2768172D1*
X3259927D1*
X3329466Y2780385D2*
X3384216D1*
X3402326Y2786422D1*
X3408502Y2792599D1*
X3414539Y2804672D1*
Y2822922D1*
X3408502Y2834995D1*
X3402326Y2841172D1*
X3384216Y2847208D1*
X3329466D1*
Y2719599D1*
X3538828Y2828958D2*
X3526755Y2841172D1*
X3508505Y2847208D1*
X3484218D1*
X3465968Y2841172D1*
X3453755Y2828958D1*
Y2816885D1*
X3459932Y2804672D1*
X3465968Y2798635D1*
X3478041Y2792599D1*
X3514541Y2780385D1*
X3526755Y2774349D1*
X3532791Y2768172D1*
X3538828Y2756099D1*
Y2737849D1*
X3526755Y2725776D1*
X3508505Y2719599D1*
X3484218D1*
X3465968Y2725776D1*
X3453755Y2737849D1*
X1357332Y2376868D2*
D69*
X1347674Y2372039D1*
X1337903Y2362268D1*
X1333073Y2352609D1*
Y2333180D1*
X1337903Y2323409D1*
X1347673Y2313751D1*
X1357332Y2308809D1*
X1371932Y2303980D1*
X1396303D1*
X1410790Y2308809D1*
X1420561Y2313751D1*
X1430220Y2323409D1*
X1435161Y2333180D1*
Y2352609D1*
X1430220Y2362268D1*
X1420561Y2372038D1*
X1410790Y2376868D1*
X1396303D1*
Y2352609D1*
X1333074Y2476299D2*
X1435161D1*
X1333074Y2408240D1*
X1435161D1*
X1333074Y2507671D2*
X1435161D1*
Y2541700D1*
X1430220Y2556300D1*
X1420561Y2566071D1*
X1410790Y2570900D1*
X1396303Y2575730D1*
X1371932D1*
X1357332Y2570900D1*
X1347674Y2566071D1*
X1337903Y2556300D1*
X1333074Y2541700D1*
Y2507671D1*
X1594430Y2347668D2*
X1681917D1*
X1638230Y2303980D2*
Y2391468D1*
X1587186Y2481128D2*
Y2432611D1*
X1630874Y2427782D1*
X1626044Y2432611D1*
X1621103Y2447211D1*
Y2461699D1*
X1626044Y2476299D1*
X1635703Y2486069D1*
X1650303Y2490899D1*
X1659961D1*
X1674561Y2486069D1*
X1684332Y2476299D1*
X1689161Y2461699D1*
Y2447211D1*
X1684332Y2432611D1*
X1679390Y2427782D1*
X1669732Y2422840D1*
X1587074Y2522271D2*
X1689161Y2561130D1*
X1587074Y2599988D1*
X1235391Y2243958D2*
D65*
X1223177Y2237922D1*
X1211104Y2225708D1*
X1204927Y2213635D1*
X1198891Y2195385D1*
Y2164922D1*
X1204927Y2146812D1*
X1211104Y2134599D1*
X1223177Y2122526D1*
X1235391Y2116349D1*
X1259677D1*
X1271750Y2122526D1*
X1283964Y2134599D1*
X1290000Y2146812D1*
X1296037Y2164922D1*
Y2195385D1*
X1290000Y2213635D1*
X1283964Y2225708D1*
X1271750Y2237922D1*
X1259677Y2243958D1*
X1235391D1*
X1335252Y2201422D2*
Y2116349D1*
Y2177135D2*
X1353502Y2195385D1*
X1365716Y2201422D1*
X1383826D1*
X1396039Y2195385D1*
X1402076Y2177135D1*
Y2116349D1*
X1441291D2*
X1526364Y2243818D1*
X1602080Y2243958D2*
X1589866Y2237922D1*
X1577793Y2225708D1*
X1571616Y2213635D1*
X1565580Y2195385D1*
Y2164922D1*
X1571616Y2146812D1*
X1577793Y2134599D1*
X1589866Y2122526D1*
X1602080Y2116349D1*
X1626366D1*
X1638440Y2122526D1*
X1650653Y2134599D1*
X1656690Y2146812D1*
X1662726Y2164922D1*
Y2195385D1*
X1656690Y2213635D1*
X1650653Y2225708D1*
X1638440Y2237922D1*
X1626366Y2243958D1*
X1602080D1*
X1750515D2*
X1738442D1*
X1726228Y2237922D1*
X1720192Y2219672D1*
Y2116349D1*
X1701942Y2201422D2*
X1744478D1*
X1838304Y2243958D2*
X1826231D1*
X1814017Y2237922D1*
X1807981Y2219672D1*
Y2116349D1*
X1789731Y2201422D2*
X1832267D1*
X3436498Y3737448D2*
X3564108D1*
Y3810307D1*
X3551895Y3855559D2*
X3558072Y3849523D1*
X3564108Y3855559D1*
X3558072Y3861736D1*
X3551895Y3855559D1*
X3503322Y3900952D2*
Y3955702D1*
X3497285Y3973811D1*
X3491108Y3979988D1*
X3479035Y3986025D1*
X3460785D1*
X3448712Y3979988D1*
X3442535Y3973811D1*
X3436499Y3955702D1*
Y3900952D1*
X3564108D1*
X3551895Y4031277D2*
X3558072Y4025240D1*
X3564108Y4031277D1*
X3558072Y4037454D1*
X3551895Y4031277D1*
X6299205Y3733364D2*
X6426815D1*
X6329669Y3778757D2*
X6323632D1*
X6311419Y3784793D1*
X6305382Y3790830D1*
X6299346Y3803043D1*
Y3827330D1*
X6305382Y3839403D1*
X6311419Y3845439D1*
X6323632Y3851616D1*
X6335705D1*
X6347919Y3845439D1*
X6366028Y3833366D1*
X6426815Y3772580D1*
Y3857653D1*
X6329528Y3987978D2*
X6317455Y3981942D1*
X6305242Y3969728D1*
X6299205Y3957655D1*
Y3933369D1*
X6305242Y3921155D1*
X6317455Y3909082D1*
X6329528Y3902905D1*
X6347778Y3896868D1*
X6378242D1*
X6396351Y3902905D1*
X6408565Y3909082D1*
X6420638Y3921155D1*
X6426815Y3933368D1*
Y3957655D1*
X6420638Y3969728D1*
X6408565Y3981941D1*
X6396351Y3987978D1*
X8815412Y6150448D2*
Y6205057D1*
X8809235Y6223307D1*
X8803198Y6229484D1*
X8791125Y6235521D1*
X8778912D1*
X8766839Y6229484D1*
X8760662Y6223307D1*
X8754625Y6205057D1*
Y6150448D1*
X8882235D1*
X8815412Y6192984D2*
X8882235Y6235520D1*
X8754625Y6274736D2*
X8882235D1*
X8754625Y6399025D2*
X8882235D1*
X8754625Y6313952D1*
X8882235D1*
X8751592Y1326924D2*
X8879201D1*
X8879202Y1399784D1*
X8751592Y1438999D2*
X8879201D1*
X8751592Y1563288D2*
X8879201D1*
X8751592Y1478215D1*
X8879201D1*
X1278267Y1212085D2*
Y1084475D1*
X1333017D1*
X1351267Y1090652D1*
X1357304Y1096689D1*
X1363340Y1108762D1*
Y1127012D1*
X1357304Y1139225D1*
X1351267Y1145262D1*
X1333017Y1151298D1*
X1351267Y1157475D1*
X1357304Y1163512D1*
X1363340Y1175585D1*
Y1187798D1*
X1357304Y1199871D1*
X1351267Y1206048D1*
X1333017Y1212085D1*
X1278267D1*
Y1151298D2*
X1333017D1*
X1499843Y1084475D2*
X1451129Y1212085D1*
X1402556Y1084475D1*
X1420806Y1127012D2*
X1481593D1*
X1581595Y1212085D2*
Y1084475D1*
X1539058Y1212085D2*
X1624131D1*
X1533149Y1816935D2*
D68*
X1525905Y1813313D1*
X1518577Y1805985D1*
X1514955Y1798741D1*
Y1784169D1*
X1518577Y1776841D1*
X1525905Y1769597D1*
X1533149Y1765891D1*
X1544099Y1762269D1*
X1562377D1*
X1573243Y1765891D1*
X1580571Y1769597D1*
X1587815Y1776841D1*
X1591521Y1784169D1*
Y1798741D1*
X1587815Y1805985D1*
X1580571Y1813313D1*
X1573243Y1816935D1*
X1562377D1*
Y1798741D1*
X1514955Y1891508D2*
X1591521D1*
X1514955Y1840464D1*
X1591521D1*
X1514955Y1915038D2*
X1591521Y1915037D1*
Y1940559D1*
X1587815Y1951509D1*
X1580571Y1958837D1*
X1573243Y1962459D1*
X1562377Y1966081D1*
X1544099D1*
X1533149Y1962459D1*
X1525905Y1958838D1*
X1518577Y1951509D1*
X1514955Y1940559D1*
Y1915038D1*
X1292708Y1762269D2*
X1369274Y1791413D1*
X1292709Y1820557D1*
Y1844086D2*
X1369274D1*
Y1869608D1*
X1365568Y1880558D1*
X1358324Y1887886D1*
X1350996Y1891508D1*
X1340130Y1895130D1*
X1321852D1*
X1310902Y1891508D1*
X1303659Y1887886D1*
X1296330Y1880558D1*
X1292709Y1869608D1*
Y1844086D1*
Y1918659D2*
X1369274D1*
Y1944181D1*
X1365568Y1955131D1*
X1358324Y1962459D1*
X1350996Y1966081D1*
X1340130Y1969703D1*
X1321852D1*
X1310902Y1966081D1*
X1303659Y1962459D1*
X1296330Y1955131D1*
X1292709Y1944181D1*
Y1918659D1*
X3444751Y4775207D2*
D66*
X3541897Y4519987D1*
X3639043Y4775207D1*
X3717475D2*
X3729548Y4763133D1*
X3741902Y4775207D1*
X3729548Y4787560D1*
X3717475Y4775207D1*
X3729548Y4690133D2*
Y4519987D1*
X3820333Y4690133D2*
Y4519987D1*
Y4617133D2*
X3832687Y4653633D1*
X3856833Y4678060D1*
X3881260Y4690133D1*
X3917760D1*
X4141911Y4678060D2*
Y4483487D1*
X4129838Y4447268D1*
X4117765Y4434914D1*
X4093338Y4422841D1*
X4056838D1*
X4032691Y4434914D1*
X4141911Y4641560D2*
X4117765Y4665707D1*
X4093338Y4678060D1*
X4056838D1*
X4032691Y4665707D1*
X4008265Y4641560D1*
X3996191Y4605060D1*
Y4580633D1*
X4008265Y4544414D1*
X4032691Y4519987D1*
X4056838Y4507914D1*
X4093338D1*
X4117765Y4519987D1*
X4141911Y4544414D1*
X4220342Y4775207D2*
X4232415Y4763133D1*
X4244769Y4775207D1*
X4232415Y4787560D1*
X4220342Y4775207D1*
X4232415Y4690133D2*
Y4519987D1*
X4323200Y4690133D2*
Y4519987D1*
Y4641560D2*
X4359700Y4678060D1*
X4384127Y4690133D1*
X4420347D1*
X4444773Y4678060D1*
X4456847Y4641560D1*
Y4519987D1*
X4535278Y4775207D2*
X4547351Y4763133D1*
X4559705Y4775207D1*
X4547351Y4787560D1*
X4535278Y4775207D1*
X4547351Y4690133D2*
Y4519987D1*
X4783855Y4690133D2*
Y4519987D1*
Y4653633D2*
X4759709Y4678060D1*
X4735282Y4690133D1*
X4699063D1*
X4674636Y4678060D1*
X4650490Y4653633D1*
X4638136Y4617133D1*
Y4592987D1*
X4650490Y4556487D1*
X4674636Y4532341D1*
X4699063Y4519987D1*
X4735282D1*
X4759709Y4532341D1*
X4783855Y4556487D1*
X5194253Y4775207D2*
Y4519987D1*
X5109180Y4775207D2*
X5279326D1*
X5357757Y4617133D2*
X5503476D1*
Y4641560D1*
X5491403Y4665987D1*
X5479330Y4678060D1*
X5454903Y4690133D1*
X5418403D1*
X5394257Y4678060D1*
X5369830Y4653633D1*
X5357757Y4617133D1*
Y4592987D1*
X5369830Y4556487D1*
X5394257Y4532341D1*
X5418403Y4519987D1*
X5454903D1*
X5479330Y4532341D1*
X5503476Y4556487D1*
X5727908Y4653633D2*
X5703481Y4678060D1*
X5679054Y4690133D1*
X5642835D1*
X5618408Y4678060D1*
X5594262Y4653633D1*
X5581908Y4617133D1*
Y4592987D1*
X5594262Y4556487D1*
X5618408Y4532341D1*
X5642835Y4519987D1*
X5679054D1*
X5703481Y4532341D1*
X5727908Y4556487D1*
X5806339Y4775207D2*
Y4519987D1*
Y4641560D2*
X5842839Y4678060D1*
X5867266Y4690133D1*
X5903766D1*
X5927912Y4678060D1*
X5939985Y4641560D1*
Y4519987D1*
X6265310Y4775207D2*
Y4519987D1*
X6374810D1*
X6411310Y4532341D1*
X6423383Y4544414D1*
X6435456Y4568560D1*
Y4605060D1*
X6423383Y4629487D1*
X6411310Y4641560D1*
X6374810Y4653633D1*
X6411310Y4665987D1*
X6423383Y4678060D1*
X6435456Y4702207D1*
Y4726633D1*
X6423383Y4750780D1*
X6411310Y4763133D1*
X6374810Y4775207D1*
X6265310D1*
Y4653633D2*
X6374810D1*
X6708460Y4519987D2*
X6611033Y4775207D1*
X6513887Y4519987D1*
X6550387Y4605060D2*
X6671960D1*
X6908465Y4775207D2*
Y4580914D1*
X6896392Y4544414D1*
X6884038Y4532341D1*
X6859892Y4519987D1*
X6835465D1*
X6811319Y4532341D1*
X6799245Y4544414D1*
X6786892Y4580914D1*
Y4605060D1*
X7181469Y4519987D2*
X7084042Y4775207D1*
X6986896Y4519987D1*
X7023396Y4605060D2*
X7144969D1*
X7676940Y4738707D2*
X7652793Y4763133D1*
X7616293Y4775207D1*
X7567720D1*
X7531220Y4763133D1*
X7506793Y4738707D1*
Y4714560D1*
X7519147Y4690133D1*
X7531220Y4678060D1*
X7555366Y4665987D1*
X7628366Y4641560D1*
X7652793Y4629487D1*
X7664866Y4617133D1*
X7676940Y4592987D1*
Y4556487D1*
X7652793Y4532341D1*
X7616293Y4519987D1*
X7567720D1*
X7531220Y4532341D1*
X7506793Y4556487D1*
X7949944Y4519987D2*
X7852517Y4775207D1*
X7755371Y4519987D1*
X7791871Y4605060D2*
X7913444D1*
X8186168Y4775207D2*
X8028375D1*
Y4519987D1*
X8186168D1*
X8028375Y4653633D2*
X8125522D1*
X4026001Y3330011D2*
D69*
X4021172Y3339670D1*
X4011401Y3349441D1*
X4001742Y3354270D1*
X3982313D1*
X3972542Y3349441D1*
X3962884Y3339670D1*
X3957942Y3330011D1*
X3953113Y3315411D1*
Y3291041D1*
X3957942Y3276553D1*
X3962884Y3266782D1*
X3972542Y3257124D1*
X3982313Y3252182D1*
X4001742D1*
X4011401Y3257124D1*
X4021172Y3266782D1*
X4026001Y3276553D1*
Y3291041D1*
X4001742D1*
X4125432Y3354270D2*
Y3252182D1*
X4057373Y3354270D1*
Y3252182D1*
X4156804Y3354270D2*
Y3252182D1*
X4190834D1*
X4205434Y3257124D1*
X4215204Y3266782D1*
X4220034Y3276553D1*
X4224863Y3291041D1*
Y3315411D1*
X4220034Y3330011D1*
X4215204Y3339670D1*
X4205434Y3349441D1*
X4190834Y3354270D1*
X4156804D1*
X3952924Y2565290D2*
Y2477803D1*
X3909236Y2521490D2*
X3996724D1*
X4086384Y2572534D2*
X4037867D1*
X4033038Y2528847D1*
X4037867Y2533676D1*
X4052467Y2538617D1*
X4066955D1*
X4081555Y2533676D1*
X4091326Y2524017D1*
X4096155Y2509417D1*
Y2499759D1*
X4091326Y2485159D1*
X4081555Y2475388D1*
X4066955Y2470559D1*
X4052467D1*
X4037867Y2475388D1*
X4033038Y2480330D1*
X4028097Y2489988D1*
X4127528Y2572647D2*
X4166386Y2470559D1*
X4205245Y2572647D1*
M02*
