G04 DipTrace 3.3.1.3*
G04 BottomMask.gbr*
%MOMM*%
G04 #@! TF.FileFunction,Soldermask,Bot*
G04 #@! TF.Part,Single*
%ADD38C,1.9*%
%ADD40R,1.9X1.9*%
%FSLAX35Y35*%
G04*
G71*
G90*
G75*
G01*
G04 BotMask*
%LPD*%
D40*
X5953000Y1254000D3*
D38*
X6207000D3*
X6461000D3*
X6715000D3*
X6969000D3*
X7223000D3*
X7477000D3*
X7731000D3*
D40*
X8239000D3*
D38*
X8493000D3*
X8747000D3*
X9001000D3*
X9255000D3*
X9509000D3*
X9763000D3*
X10017000D3*
D40*
X7731000Y6080000D3*
D38*
X7985000D3*
X8239000D3*
X8493000D3*
X8747000D3*
X9001000D3*
X9255000D3*
X9509000D3*
D40*
X10525000Y1762000D3*
D38*
X10271000D3*
X10525000Y2016000D3*
X10271000D3*
X10525000Y2270000D3*
X10271000D3*
X10525000Y2524000D3*
X10271000D3*
X10525000Y2778000D3*
X10271000D3*
X10525000Y3032000D3*
X10271000D3*
X10525000Y3286000D3*
X10271000D3*
X10525000Y3540000D3*
X10271000D3*
X10525000Y3794000D3*
X10271000D3*
X10525000Y4048000D3*
X10271000D3*
X10525000Y4302000D3*
X10271000D3*
X10525000Y4556000D3*
X10271000D3*
X10525000Y4810000D3*
X10271000D3*
X10525000Y5064000D3*
X10271000D3*
X10525000Y5318000D3*
X10271000D3*
X10525000Y5572000D3*
X10271000D3*
X10525000Y5826000D3*
X10271000D3*
X10525000Y6080000D3*
X10271000D3*
D40*
X9509000Y6461000D3*
D38*
X9255000D3*
X9001000D3*
X8747000D3*
D40*
X2524000Y6080000D3*
D38*
X2778000D3*
D40*
X4175000Y1254000D3*
D38*
X4429000D3*
X4683000D3*
X4937000D3*
X5191000D3*
X5445000D3*
D40*
X3286000Y5826000D3*
D38*
Y6080000D3*
X3540000Y5826000D3*
Y6080000D3*
X3794000Y5826000D3*
Y6080000D3*
X4048000Y5826000D3*
Y6080000D3*
X4302000Y5826000D3*
Y6080000D3*
X4556000Y5826000D3*
Y6080000D3*
X4810000Y5826000D3*
Y6080000D3*
X5064000Y5826000D3*
Y6080000D3*
D40*
X5445000Y5826000D3*
D38*
Y6080000D3*
X5699000Y5826000D3*
Y6080000D3*
X5953000Y5826000D3*
Y6080000D3*
X6207000Y5826000D3*
Y6080000D3*
X6461000Y5826000D3*
Y6080000D3*
X6715000Y5826000D3*
Y6080000D3*
X6969000Y5826000D3*
Y6080000D3*
X7223000Y5826000D3*
Y6080000D3*
D40*
X1317500Y5318000D3*
D38*
Y5572000D3*
Y5826000D3*
Y6080000D3*
D40*
X1571500Y5318000D3*
D38*
Y5572000D3*
Y5826000D3*
Y6080000D3*
D40*
X1317500Y4111500D3*
D38*
Y4365500D3*
Y4619500D3*
Y4873500D3*
D40*
X1571500Y4111500D3*
D38*
Y4365500D3*
Y4619500D3*
Y4873500D3*
D40*
X1317500Y2905000D3*
D38*
Y3159000D3*
Y3413000D3*
Y3667000D3*
D40*
X1571500Y2905000D3*
D38*
Y3159000D3*
Y3413000D3*
Y3667000D3*
D40*
X1317500Y1698500D3*
D38*
Y1952500D3*
Y2206500D3*
Y2460500D3*
D40*
X1571500Y1698500D3*
D38*
Y1952500D3*
Y2206500D3*
Y2460500D3*
D40*
X5762500Y4492500D3*
D38*
X6016500D3*
X6270500D3*
X6524500D3*
D40*
X5762500Y4238500D3*
D38*
X6016500D3*
X6270500D3*
X6524500D3*
D40*
X5762500Y3984500D3*
D38*
X6016500D3*
X6270500D3*
X6524500D3*
D40*
X5762500Y3730500D3*
D38*
X6016500D3*
X6270500D3*
X6524500D3*
D40*
X5762500Y3476500D3*
D38*
X6016500D3*
X6270500D3*
X6524500D3*
D40*
X5762500Y3222500D3*
D38*
X6016500D3*
X6270500D3*
X6524500D3*
D40*
X5762500Y2968500D3*
D38*
X6016500D3*
X6270500D3*
X6524500D3*
D40*
X5762500Y2714500D3*
D38*
X6016500D3*
X6270500D3*
X6524500D3*
M02*
