G04 DipTrace 3.3.1.3*
G04 Inner1.gbr*
%MOMM*%
G04 #@! TF.FileFunction,Copper,L2,Inr*
G04 #@! TF.Part,Single*
G04 #@! TA.AperFunction,Conductor*
%ADD14C,0.5*%
G04 #@! TA.AperFunction,ComponentPad*
%ADD21R,1.7X1.7*%
%ADD22C,1.7*%
G04 #@! TA.AperFunction,ViaPad*
%ADD26C,1.016*%
%FSLAX35Y35*%
G04*
G71*
G90*
G75*
G01*
G04 Inner1*
%LPD*%
X2907090Y2744283D2*
D14*
X2790010Y2627203D1*
Y2014350D1*
X2846010Y1958350D1*
X2790010Y1902350D1*
Y1754420D1*
X2909430Y1635000D1*
X5002810Y3606000D2*
Y4843440D1*
X4308450Y5537800D1*
X2910810Y3513210D2*
Y3757200D1*
X2846010Y1958350D2*
X3547500D1*
X3603500Y2014350D1*
Y2149800D1*
X6270500Y2714500D2*
Y2968500D1*
Y4238500D2*
Y4492500D1*
Y3984500D2*
Y4238500D1*
Y3730500D2*
Y3984500D1*
Y3476500D2*
Y3730500D1*
Y3222500D2*
Y3476500D1*
Y2968500D2*
Y3222500D1*
X1571500Y5572000D2*
X1444500Y5445000D1*
Y4492500D1*
X1571500Y4365500D1*
X6016500Y4492500D2*
Y4238500D1*
X1571500Y3159000D2*
X1444500Y3032000D1*
Y2079500D1*
X1571500Y1952500D1*
Y4365500D2*
X1444500Y4238500D1*
Y3286000D1*
X1571500Y3159000D1*
X6016500Y2968500D2*
Y2714500D1*
Y3222500D2*
Y2968500D1*
Y3476500D2*
Y3222500D1*
Y3730500D2*
Y3476500D1*
Y3984500D2*
Y3730500D1*
Y4238500D2*
Y3984500D1*
X7941800Y5098300D2*
X7893060Y5049560D1*
Y2941933D1*
X8239000Y2595993D1*
Y1254000D1*
X5401800Y5005500D2*
Y1437010D1*
X5457800Y1381010D1*
X6079990D1*
X6207000Y1254000D1*
X3921750Y2596020D2*
X3772950Y2447220D1*
X3419540D1*
X3032010Y2059690D1*
X6136700Y2532510D2*
X5999910D1*
X5963110Y2569310D1*
X5598700D1*
X2910810Y3217510D2*
X3011300Y3318000D1*
Y3910150D1*
X3090650Y3989500D1*
X3943600D1*
X4222000Y4267900D1*
X8239010Y4576300D2*
Y5208600D1*
X8239000D1*
X3090650Y3989500D2*
X3017450Y4062700D1*
Y4207900D1*
X3032010Y2059690D2*
Y3096310D1*
X2910810Y3217510D1*
X3017450Y4207900D2*
Y5278900D1*
X4333700Y3404000D2*
Y3013950D1*
X2524000Y6080000D2*
Y1174200D1*
X2580000Y1118200D1*
X5309200D1*
X5445000Y1254000D1*
X8873750Y5005500D2*
X8549000D1*
X8493000Y4949500D1*
Y1254000D1*
X6863800Y3823300D2*
Y4243500D1*
X6807800Y3061300D2*
Y3193200D1*
X6524500Y3476500D1*
X8914400Y2900000D2*
X9509000Y2305400D1*
Y1254000D1*
X6873700Y1635000D2*
X6900600Y1661900D1*
Y2592400D1*
X6524500Y2968500D1*
X8109390Y3129700D2*
Y2936310D1*
X8366000Y2679700D1*
Y1174200D1*
X8422000Y1118200D1*
X9119200D1*
X9255000Y1254000D1*
D26*
X3521800Y3229300D3*
X7800260Y4669100D3*
X2910810Y3757200D3*
X7953300Y1635000D3*
X3603500Y2149800D3*
X6674300Y5540360D3*
X3505250Y4690600D3*
X4308450Y5537800D3*
X2909430Y1635000D3*
X5915500Y1529700D3*
X2907090Y2744283D3*
X5002810Y3606000D3*
X7800260Y2526520D3*
X6270500Y1529700D3*
X5188500Y3603500D3*
X2910810Y3513210D3*
X7160250Y3603500D3*
X2112000Y3615610D3*
X6400100Y1473810D3*
X7941800Y5098300D3*
X2616800Y4653800D3*
X2918500Y4811800D3*
X2899300Y5093300D3*
X2366510Y4704700D3*
X3179250Y5278900D3*
X5401800Y5005500D3*
X3584107Y2653860D3*
X3698500Y4653800D3*
X6068830Y5677300D3*
X4308450Y5351500D3*
X3682490Y3231700D3*
X6074300Y1970100D3*
X1791300Y5093300D3*
X4314800Y4873500D3*
X4278000Y5191100D3*
X3308850Y5288550D3*
X4216800Y5445000D3*
X3494690Y4082300D3*
X5579510Y3926000D3*
X4238550Y3794000D3*
X4314800Y4175100D3*
X3521800Y4310450D3*
X3413000Y4218690D3*
X4314800Y4403360D3*
Y4561000D3*
X2910810Y2883300D3*
X8424610Y5208600D3*
X5499490Y5447560D3*
X8009300Y4243500D3*
Y3957500D3*
X3159000Y3496800D3*
X5521760Y3349500D3*
X4238550Y2714500D3*
X4333700Y3013950D3*
Y3404000D3*
X4216800Y3105600D3*
X3413000Y1519690D3*
X3640290Y1698500D3*
X1841320Y2362800D3*
X2414630Y1410200D3*
X4277877Y2131453D3*
X3413000Y2055420D3*
X4598630Y2110500D3*
X4272800Y2270000D3*
X8873750Y5005500D3*
X8331810Y5655800D3*
Y5115800D3*
X6767100Y5034800D3*
X8821600Y4873500D3*
X8493000Y5655800D3*
X9382000Y4662600D3*
X9102000Y5748600D3*
X9706010Y4597800D3*
X8366000Y4218690D3*
X6863800Y4243500D3*
Y3823300D3*
X8009300Y4458300D3*
X8102100Y3823300D3*
X8728800Y3794000D3*
Y4429000D3*
X8078660Y1767000D3*
X6807800Y3061300D3*
X5505900Y2705410D3*
X8620000Y2956800D3*
X8914400Y2900000D3*
X8331800Y2956800D3*
X6154670Y3095500D3*
X8728800Y2714500D3*
Y3349500D3*
X6873700Y1635000D3*
X6807800Y1503010D3*
X8620000Y1519690D3*
X6807800Y2062900D3*
X7032500Y2510100D3*
X8839800Y1635000D3*
Y2362800D3*
X8951200Y2270000D3*
X6095300Y5540360D3*
X3017450Y5278900D3*
Y4207900D3*
X3879200Y2149800D3*
X4222000Y4267900D3*
X8239000Y3077600D3*
X2910810Y3217510D3*
X5769300Y5354750D3*
X3032010Y2059690D3*
X8239010Y4576300D3*
X8239000Y5208600D3*
X5598700Y2569310D3*
X3921750Y2596020D3*
X8146190Y2417300D3*
X6136700Y2532510D3*
X8109390Y3129700D3*
D21*
X5953000Y1254000D3*
D22*
X6207000D3*
X6461000D3*
X6715000D3*
X6969000D3*
X7223000D3*
X7477000D3*
X7731000D3*
D21*
X8239000D3*
D22*
X8493000D3*
X8747000D3*
X9001000D3*
X9255000D3*
X9509000D3*
X9763000D3*
X10017000D3*
D21*
X7731000Y6080000D3*
D22*
X7985000D3*
X8239000D3*
X8493000D3*
X8747000D3*
X9001000D3*
X9255000D3*
X9509000D3*
D21*
X10525000Y1762000D3*
D22*
X10271000D3*
X10525000Y2016000D3*
X10271000D3*
X10525000Y2270000D3*
X10271000D3*
X10525000Y2524000D3*
X10271000D3*
X10525000Y2778000D3*
X10271000D3*
X10525000Y3032000D3*
X10271000D3*
X10525000Y3286000D3*
X10271000D3*
X10525000Y3540000D3*
X10271000D3*
X10525000Y3794000D3*
X10271000D3*
X10525000Y4048000D3*
X10271000D3*
X10525000Y4302000D3*
X10271000D3*
X10525000Y4556000D3*
X10271000D3*
X10525000Y4810000D3*
X10271000D3*
X10525000Y5064000D3*
X10271000D3*
X10525000Y5318000D3*
X10271000D3*
X10525000Y5572000D3*
X10271000D3*
X10525000Y5826000D3*
X10271000D3*
X10525000Y6080000D3*
X10271000D3*
D21*
X9509000Y6461000D3*
D22*
X9255000D3*
X9001000D3*
X8747000D3*
D21*
X2524000Y6080000D3*
D22*
X2778000D3*
D21*
X4175000Y1254000D3*
D22*
X4429000D3*
X4683000D3*
X4937000D3*
X5191000D3*
X5445000D3*
D21*
X3286000Y5826000D3*
D22*
Y6080000D3*
X3540000Y5826000D3*
Y6080000D3*
X3794000Y5826000D3*
Y6080000D3*
X4048000Y5826000D3*
Y6080000D3*
X4302000Y5826000D3*
Y6080000D3*
X4556000Y5826000D3*
Y6080000D3*
X4810000Y5826000D3*
Y6080000D3*
X5064000Y5826000D3*
Y6080000D3*
D21*
X5445000Y5826000D3*
D22*
Y6080000D3*
X5699000Y5826000D3*
Y6080000D3*
X5953000Y5826000D3*
Y6080000D3*
X6207000Y5826000D3*
Y6080000D3*
X6461000Y5826000D3*
Y6080000D3*
X6715000Y5826000D3*
Y6080000D3*
X6969000Y5826000D3*
Y6080000D3*
X7223000Y5826000D3*
Y6080000D3*
D21*
X1317500Y5318000D3*
D22*
Y5572000D3*
Y5826000D3*
Y6080000D3*
D21*
X1571500Y5318000D3*
D22*
Y5572000D3*
Y5826000D3*
Y6080000D3*
D21*
X1317500Y4111500D3*
D22*
Y4365500D3*
Y4619500D3*
Y4873500D3*
D21*
X1571500Y4111500D3*
D22*
Y4365500D3*
Y4619500D3*
Y4873500D3*
D21*
X1317500Y2905000D3*
D22*
Y3159000D3*
Y3413000D3*
Y3667000D3*
D21*
X1571500Y2905000D3*
D22*
Y3159000D3*
Y3413000D3*
Y3667000D3*
D21*
X1317500Y1698500D3*
D22*
Y1952500D3*
Y2206500D3*
Y2460500D3*
D21*
X1571500Y1698500D3*
D22*
Y1952500D3*
Y2206500D3*
Y2460500D3*
D21*
X5762500Y4492500D3*
D22*
X6016500D3*
X6270500D3*
X6524500D3*
D21*
X5762500Y4238500D3*
D22*
X6016500D3*
X6270500D3*
X6524500D3*
D21*
X5762500Y3984500D3*
D22*
X6016500D3*
X6270500D3*
X6524500D3*
D21*
X5762500Y3730500D3*
D22*
X6016500D3*
X6270500D3*
X6524500D3*
D21*
X5762500Y3476500D3*
D22*
X6016500D3*
X6270500D3*
X6524500D3*
D21*
X5762500Y3222500D3*
D22*
X6016500D3*
X6270500D3*
X6524500D3*
D21*
X5762500Y2968500D3*
D22*
X6016500D3*
X6270500D3*
X6524500D3*
D21*
X5762500Y2714500D3*
D22*
X6016500D3*
X6270500D3*
X6524500D3*
M02*
