%
T1C0.0191F200S100
X013865Y012714
X014498Y012723
X016602Y012227
X017062Y011866
X016687Y010687
X015440Y010221
X014111Y010448
X014187Y008464
X013437Y008092
X011937Y008109
X011454Y006437
X013437Y005983
X014332Y006687
X015272Y008464
X016842Y008392
X016822Y008937
X018105Y008309
X021677Y010651
X022042Y010115
X024160Y009971
X024231Y012187
X026802Y012052
X027687Y009882
X026802Y008122
X027062Y006437
X026802Y005917
X025197Y005802
X024687Y006022
X023289Y006022
X023915Y007756
X021739Y013187
X020427Y014187
X019696Y014197
X021967Y015457
X021267Y019707
X021652Y021447
X022714Y021082
X023997Y021812
X023893Y022352
X026277Y021812
X026642Y019822
X027023Y016707
X027023Y015052
X028190Y014187
X031533Y015581
X031898Y015052
X031533Y016707
X031533Y017552
X032437Y018017
X032937Y016609
X034365Y017437
X034731Y019187
X034936Y019707
X033168Y020506
X032802Y020141
X032437Y020506
X031267Y020072
X030710Y018382
X032802Y022267
X033437Y022267
X035835Y022632
X036937Y018357
X038213Y018102
X034365Y014937
X034365Y013187
X033937Y011641
X034365Y010687
X035096Y011417
X034802Y009302
X035241Y008937
X034802Y006437
X033937Y005983
X031806Y006957
X031312Y006437
X032072Y009517
X030710Y009947
X031927Y012322
X032437Y012117
X032802Y011641
X017062Y013402
X016687Y014937
X016987Y016437
X016622Y016803
X016987Y017336
X016987Y017957
X016987Y019187
X016843Y020437
X016962Y021069
X016602Y021437
X016962Y021802
X013027Y020821
X012517Y020783
X011880Y020783
X011415Y020052
X011490Y018944
X010302Y018322
X009317Y018522
X007052Y020052
X008315Y014235
X011460Y013832
X011460Y014792
X012437Y013767
X011460Y012667
X011460Y011352
X011445Y010804
X007249Y009302
X009506Y005552
X011880Y016567
X013437Y016609
X013865Y016970
X013759Y016072
X014561Y018322
X013800Y018467
T2C0.0433F200S100
X023437Y004937
X024437Y004937
X025437Y004937
X026437Y004937
X027437Y004937
X028437Y004937
X029437Y004937
X030437Y004937
X032437Y004937
X033437Y004937
X034437Y004937
X035437Y004937
X036437Y004937
X037437Y004937
X038437Y004937
X039437Y004937
X040437Y006937
X041437Y006937
X041437Y007937
X041437Y008937
X040437Y008937
X040437Y007937
X040437Y009937
X040437Y010937
X040437Y011937
X041437Y011937
X041437Y010937
X041437Y009937
X041437Y012937
X041437Y013937
X041437Y014937
X040437Y014937
X040437Y013937
X040437Y012937
X040437Y015937
X040437Y016937
X040437Y017937
X041437Y017937
X041437Y016937
X041437Y015937
X041437Y018937
X041437Y019937
X041437Y020937
X040437Y020937
X040437Y019937
X040437Y018937
X040437Y021937
X040437Y022937
X041437Y022937
X041437Y021937
X041437Y023937
X040437Y023937
X037437Y023937
X036437Y023937
X035437Y023937
X034437Y023937
X033437Y023937
X032437Y023937
X031437Y023937
X030437Y023937
X028437Y023937
X027437Y023937
X026437Y023937
X025437Y023937
X024437Y023937
X023437Y023937
X022437Y023937
X021437Y023937
X021437Y022937
X022437Y022937
X023437Y022937
X024437Y022937
X025437Y022937
X026437Y022937
X027437Y022937
X028437Y022937
X025687Y017687
X024687Y017687
X024687Y016687
X025687Y016687
X025687Y015687
X024687Y015687
X024687Y014687
X025687Y014687
X025687Y013687
X024687Y013687
X023687Y013687
X023687Y014687
X023687Y015687
X022687Y015687
X022687Y014687
X022687Y013687
X022687Y012687
X023687Y012687
X023687Y011687
X022687Y011687
X022687Y010687
X023687Y010687
X024687Y010687
X025687Y010687
X025687Y011687
X025687Y012687
X024687Y012687
X024687Y011687
X023687Y016687
X023687Y017687
X022687Y017687
X022687Y016687
X019937Y022937
X019937Y023937
X018937Y023937
X017937Y023937
X016937Y023937
X015937Y023937
X014937Y023937
X013937Y023937
X013937Y022937
X014937Y022937
X015937Y022937
X016937Y022937
X017937Y022937
X018937Y022937
X012937Y022937
X012937Y023937
X010937Y023937
X009937Y023937
X006187Y023937
X006187Y022937
X005187Y022937
X005187Y023937
X005187Y021937
X005187Y020937
X006187Y020937
X006187Y021937
X006187Y019187
X006187Y018187
X005187Y018187
X005187Y019187
X005187Y017187
X005187Y016187
X006187Y016187
X006187Y017187
X006187Y014437
X006187Y013437
X006187Y012437
X006187Y011437
X005187Y011437
X005187Y012437
X005187Y013437
X005187Y014437
X005187Y009687
X005187Y008687
X006187Y008687
X006187Y009687
X006187Y007687
X006187Y006687
X005187Y006687
X005187Y007687
X016437Y004937
X017437Y004937
X018437Y004937
X019437Y004937
X020437Y004937
X021437Y004937
X034437Y025437
X035437Y025437
X036437Y025437
X037437Y025437
M30
