%
T1C0.0191F200S100
X009928Y-013723
X010561Y-013714
X012665Y-014210
X013125Y-014571
X012750Y-015750
X011503Y-016216
X010174Y-015989
X010250Y-017973
X009500Y-018345
X008000Y-018328
X007517Y-020000
X009500Y-020454
X010395Y-019750
X011335Y-017973
X012905Y-018045
X012885Y-017500
X014168Y-018128
X017740Y-015786
X018105Y-016322
X020223Y-016466
X020294Y-014250
X022865Y-014385
X023750Y-016555
X022865Y-018315
X023125Y-020000
X022865Y-020520
X021260Y-020635
X020750Y-020415
X019352Y-020415
X019978Y-018681
X017802Y-013250
X016490Y-012250
X015759Y-012240
X018030Y-010980
X017330Y-006730
X017715Y-004990
X018777Y-005355
X020060Y-004625
X019956Y-004085
X022340Y-004625
X022705Y-006615
X023086Y-009730
X023086Y-011385
X024253Y-012250
X027596Y-010856
X027961Y-011385
X027596Y-009730
X027596Y-008885
X028500Y-008420
X029000Y-009828
X030428Y-009000
X030794Y-007250
X030999Y-006730
X029231Y-005931
X028865Y-006296
X028500Y-005931
X027330Y-006365
X026773Y-008055
X028865Y-004170
X029500Y-004170
X031898Y-003805
X033000Y-008080
X034276Y-008335
X030428Y-011500
X030428Y-013250
X030000Y-014796
X030428Y-015750
X031159Y-015020
X030865Y-017135
X031304Y-017500
X030865Y-020000
X030000Y-020454
X027869Y-019480
X027375Y-020000
X028135Y-016920
X026773Y-016490
X027990Y-014115
X028500Y-014320
X028865Y-014796
X013125Y-013035
X012750Y-011500
X013050Y-010000
X012685Y-009634
X013050Y-009101
X013050Y-008480
X013050Y-007250
X012906Y-006000
X013025Y-005368
X012665Y-005000
X013025Y-004635
X009090Y-005616
X008580Y-005654
X007943Y-005654
X007478Y-006385
X007553Y-007493
X006365Y-008115
X005380Y-007915
X003115Y-006385
X004378Y-012202
X007523Y-012605
X007523Y-011645
X008500Y-012670
X007523Y-013770
X007523Y-015085
X007508Y-015633
X003312Y-017135
X005569Y-020885
X007943Y-009870
X009500Y-009828
X009928Y-009467
X009822Y-010365
X010624Y-008115
X009863Y-007970
T2C0.0433F200S100
X019500Y-021500
X020500Y-021500
X021500Y-021500
X022500Y-021500
X023500Y-021500
X024500Y-021500
X025500Y-021500
X026500Y-021500
X028500Y-021500
X029500Y-021500
X030500Y-021500
X031500Y-021500
X032500Y-021500
X033500Y-021500
X034500Y-021500
X035500Y-021500
X036500Y-019500
X037500Y-019500
X037500Y-018500
X037500Y-017500
X036500Y-017500
X036500Y-018500
X036500Y-016500
X036500Y-015500
X036500Y-014500
X037500Y-014500
X037500Y-015500
X037500Y-016500
X037500Y-013500
X037500Y-012500
X037500Y-011500
X036500Y-011500
X036500Y-012500
X036500Y-013500
X036500Y-010500
X036500Y-009500
X036500Y-008500
X037500Y-008500
X037500Y-009500
X037500Y-010500
X037500Y-007500
X037500Y-006500
X037500Y-005500
X036500Y-005500
X036500Y-006500
X036500Y-007500
X036500Y-004500
X036500Y-003500
X037500Y-003500
X037500Y-004500
X037500Y-002500
X036500Y-002500
X033500Y-002500
X032500Y-002500
X031500Y-002500
X030500Y-002500
X029500Y-002500
X028500Y-002500
X027500Y-002500
X026500Y-002500
X024500Y-002500
X023500Y-002500
X022500Y-002500
X021500Y-002500
X020500Y-002500
X019500Y-002500
X018500Y-002500
X017500Y-002500
X017500Y-003500
X018500Y-003500
X019500Y-003500
X020500Y-003500
X021500Y-003500
X022500Y-003500
X023500Y-003500
X024500Y-003500
X021750Y-008750
X020750Y-008750
X019750Y-008750
X018750Y-008750
X018750Y-009750
X019750Y-009750
X020750Y-009750
X021750Y-009750
X021750Y-010750
X020750Y-010750
X019750Y-010750
X018750Y-010750
X018750Y-011750
X018750Y-012750
X019750Y-012750
X019750Y-011750
X020750Y-011750
X020750Y-012750
X021750Y-012750
X021750Y-011750
X021750Y-013750
X020750Y-013750
X020750Y-014750
X021750Y-014750
X021750Y-015750
X020750Y-015750
X019750Y-015750
X019750Y-014750
X019750Y-013750
X018750Y-013750
X018750Y-014750
X018750Y-015750
X017500Y-021500
X016500Y-021500
X015500Y-021500
X014500Y-021500
X013500Y-021500
X012500Y-021500
X002250Y-019750
X001250Y-019750
X001250Y-018750
X002250Y-018750
X002250Y-017750
X001250Y-017750
X001250Y-016750
X002250Y-016750
X002250Y-015000
X001250Y-015000
X001250Y-014000
X002250Y-014000
X002250Y-013000
X001250Y-013000
X001250Y-012000
X002250Y-012000
X002250Y-010250
X001250Y-010250
X001250Y-009250
X002250Y-009250
X002250Y-008250
X001250Y-008250
X001250Y-007250
X002250Y-007250
X002250Y-005500
X001250Y-005500
X001250Y-004500
X002250Y-004500
X002250Y-003500
X001250Y-003500
X001250Y-002500
X002250Y-002500
X006000Y-002500
X007000Y-002500
X009000Y-002500
X010000Y-002500
X011000Y-002500
X012000Y-002500
X013000Y-002500
X014000Y-002500
X015000Y-002500
X015000Y-003500
X014000Y-003500
X013000Y-003500
X012000Y-003500
X011000Y-003500
X010000Y-003500
X009000Y-003500
X016000Y-003500
X016000Y-002500
X030500Y-001000
X031500Y-001000
X032500Y-001000
X033500Y-001000
M30
