G04 DipTrace 3.3.1.3*
G04 Top.gbr*
%MOMM*%
G04 #@! TF.FileFunction,Copper,L1,Top*
G04 #@! TF.Part,Single*
G04 #@! TA.AperFunction,Conductor*
%ADD13C,0.28*%
G04 #@! TA.AperFunction,CopperBalancing*
%ADD15C,0.635*%
%ADD18R,0.6X1.1*%
%ADD20R,1.1X0.6*%
G04 #@! TA.AperFunction,ComponentPad*
%ADD21R,1.7X1.7*%
%ADD22C,1.7*%
%ADD23R,1.6X1.8*%
%ADD24R,1.8X1.6*%
%ADD25R,0.6X2.0*%
G04 #@! TA.AperFunction,ViaPad*
%ADD26C,1.016*%
%FSLAX35Y35*%
G04*
G71*
G90*
G75*
G01*
G04 Top*
%LPD*%
X6270500Y4492500D2*
D13*
X6312500D1*
X6327470Y4507470D1*
Y4614263D1*
X6263733Y4678000D1*
X6244500D1*
X5915500D1*
X5299000D1*
X5243000Y4734000D1*
Y4873500D1*
X7800250Y2714500D2*
Y2526520D1*
X7800260D1*
X5002810Y3606000D2*
X4135750D1*
X4079750Y3662000D1*
Y3857500D1*
X6270500Y2968500D2*
X6143500Y2841500D1*
X5945500D1*
X5889500Y2785500D1*
Y2804613D1*
X5852613Y2841500D1*
X5492000D1*
X5365000Y2714500D1*
X5243000D1*
X3603500Y4445000D2*
Y4592350D1*
X3505250Y4690600D1*
X7160250Y3603500D2*
Y3893317D1*
X7214973Y3948040D1*
X7702657D1*
X7794500Y3856197D1*
Y3794000D1*
X5915500Y1698500D2*
Y1529700D1*
X6270500Y2714500D2*
X6397500Y2841500D1*
X6595500D1*
X6651500Y2785500D1*
Y2644510D1*
X6707500Y2588510D1*
X6844600D1*
X6900600Y2532510D1*
Y1985257D1*
X6854580Y1939237D1*
X6754143D1*
X6702500Y1990880D1*
Y2404500D1*
X6646500Y2460500D1*
X6540500D1*
X9864000Y2714500D2*
Y2603600D1*
X10012000Y2455600D1*
Y1725587D1*
X9921413Y1635000D1*
X9890000D1*
X5243000Y2714500D2*
Y2582500D1*
X5187000Y2526500D1*
X4180000D1*
Y1830500D1*
X4079750Y1730250D1*
Y1698500D1*
X5188500Y3603500D2*
X5320500D1*
X5376500Y3659500D1*
Y3740130D1*
X5322630Y3794000D1*
X5254500D1*
X4308450Y5537800D2*
X4270313D1*
X4177613Y5630500D1*
X3662233D1*
X3603500Y5571767D1*
Y5524500D1*
X5889500Y2785500D2*
Y2645510D1*
X6002500Y2532510D1*
Y2460500D1*
X5905500D1*
X6244500Y4678000D2*
Y4810000D1*
X5905500Y5572000D2*
X5854993D1*
X5826000Y5600993D1*
Y5897000D1*
X5882000Y5953000D1*
X6532000D1*
X6588000Y5897000D1*
Y5700010D1*
X6555500D1*
X6499500Y5644010D1*
Y5572000D1*
X6540500D1*
X6674300Y5540360D2*
Y5644010D1*
X6618300Y5700010D1*
X6588000D1*
X2910810Y3757200D2*
X2874010Y3794000D1*
X2746250D1*
X2907087Y2744282D2*
X2752000D1*
Y2714500D1*
X7953300Y1635000D2*
X7794500D1*
X3603500Y2286000D2*
Y2149800D1*
X2909430Y1635000D2*
X2750627D1*
X1571500Y2206500D2*
X1317500D1*
Y3413000D2*
X1571500D1*
X1317500Y4619500D2*
X1571500D1*
X1317500Y5826000D2*
X1571500D1*
X5915500Y4678000D2*
Y4810000D1*
X9864000Y4873500D2*
X9856597D1*
X9730427Y4999670D1*
Y6126593D1*
X9650010Y6207010D1*
X9254990D1*
X9001000Y6461000D1*
X9864000Y3794000D2*
Y3850000D1*
X9927617D1*
X10010767Y3933150D1*
Y4785477D1*
X9922743Y4873500D1*
X9864000D1*
Y2714500D2*
X9898620D1*
X10025657Y2841537D1*
Y3689310D1*
X9920967Y3794000D1*
X9864000D1*
X7800260Y2526520D2*
X9649723D1*
X9837703Y2714500D1*
X9864000D1*
X4180000Y2526500D2*
X4079750Y2626750D1*
Y2778000D1*
X3505250Y4690600D2*
X2831740D1*
X2740500Y4781840D1*
Y4873500D1*
X3505250Y4690600D2*
Y4732600D1*
X3556050Y4783400D1*
X4030613D1*
X4100000Y4852787D1*
Y4937000D1*
X5915500Y1529700D2*
X5495420D1*
X5390120Y1635000D1*
X5238627D1*
X3521800Y3229300D2*
X3536697D1*
X3587497Y3280100D1*
Y3365500D1*
X3603500D1*
X6270500Y1529700D2*
X6256500Y1543700D1*
Y1698500D1*
X6244500D1*
X7800260Y4669100D2*
X7783000Y4686360D1*
Y4873500D1*
X2112000Y3615610D2*
Y4057930D1*
X2165570Y4111500D1*
X2264250D1*
Y4003520D1*
X2310270Y3957500D1*
X2466250D1*
X2818250D1*
X2918250Y3857500D1*
X3032000D1*
X2466250Y3957500D2*
Y4111500D1*
X1571500Y5572000D2*
X1317500D1*
X1571500Y4365500D2*
X1317500D1*
X1571500Y3159000D2*
X1317500D1*
X1571500Y1952500D2*
X1317500D1*
X7941800Y5098300D2*
X8184487D1*
X8239000Y5043787D1*
Y4937000D1*
X7503000Y5191000D2*
X7582793D1*
X7625000Y5233207D1*
Y5584500D1*
X7681000Y5640500D1*
X7885800D1*
X7941800Y5584500D1*
Y5098300D1*
X7301000Y5191000D2*
X7503000D1*
X3433250Y4937000D2*
Y5045993D1*
X3466257Y5079000D1*
X3547500D1*
X3689500Y4937000D1*
X3820000D1*
X3547500Y5079000D2*
X3603500Y5135000D1*
Y5254500D1*
X4314800Y4873500D2*
X4492500D1*
X1317500Y6080000D2*
X1444500Y5953000D1*
X1642500D1*
X1698500Y5897000D1*
Y4929500D1*
X1754500Y4873500D1*
X1978500D1*
X2258500Y5191000D2*
X2460500D1*
X2918500Y4811800D2*
Y4875600D1*
X2979900Y4937000D1*
X3052250D1*
X2460500Y5191000D2*
X2541677D1*
X2604860Y5127817D1*
Y4653800D1*
X2616800D1*
X2899300Y5093300D2*
X3115890D1*
X3179250Y5029940D1*
Y4937000D1*
X2460500Y4873500D2*
Y4755500D1*
X2409700Y4704700D1*
X2366510D1*
X2307620D1*
X2258500Y4753820D1*
Y4873500D1*
X1978500Y5191000D2*
Y5508500D1*
X2460500D2*
X2506500D1*
X2638500Y5640500D1*
X2851617D1*
X2885927Y5606190D1*
Y5239500D1*
X2939327Y5186100D1*
X3250240D1*
X3306250Y5130090D1*
Y4937000D1*
X1978500Y5508500D2*
Y5640500D1*
X2034500Y5696500D1*
X2404500D1*
X2460500Y5640500D1*
Y5508500D1*
X4772500Y5191000D2*
X4963000D1*
X3179250Y5477000D2*
Y5278900D1*
X4963000Y5191000D2*
Y5115013D1*
X5072513Y5005500D1*
X5401800D1*
X4048000Y5228500D2*
X3793500D1*
Y5254500D1*
Y5524500D2*
Y5508500D1*
X4048000D1*
X5905500Y2365500D2*
X6018300D1*
X6074300Y2309500D1*
Y1970100D1*
X4308450Y5351500D2*
X3754500D1*
X3698500Y5407500D1*
Y5524500D1*
X5905500Y5477000D2*
X6002500D1*
Y5610970D1*
X6068830Y5677300D1*
X3584106Y2653861D2*
X3698500Y2539467D1*
Y2286000D1*
Y4445000D2*
Y4653800D1*
X6074300Y1970100D2*
Y1900840D1*
X6136967Y1838173D1*
X6598173D1*
X6646500Y1886500D1*
Y2322070D1*
X6603070Y2365500D1*
X6540500D1*
X6068830Y5677300D2*
X6367500D1*
X6423500Y5621300D1*
Y5477000D1*
X6540500D1*
X3682490Y3231700D2*
X3698500Y3247710D1*
Y3365500D1*
X4963000Y4873500D2*
X4772500D1*
X3308850Y5288550D2*
Y5424190D1*
X3306250Y5426790D1*
Y5477000D1*
X4772500Y4873500D2*
Y4946267D1*
X4689603Y5029163D1*
X4354557D1*
X4278000Y5105720D1*
Y5191100D1*
X4492500Y5191000D2*
X4566650D1*
X4635623Y5259973D1*
Y5438667D1*
X4705457Y5508500D1*
X4772500D1*
X4963000D1*
X4772500D2*
Y5605197D1*
X4691197Y5686500D1*
X3489250D1*
X3433250Y5630500D1*
Y5477000D1*
X5243000Y5508500D2*
Y5191000D1*
X4216800Y5445000D2*
X4458790D1*
X4492500Y5508500D1*
X1317500Y4873500D2*
X1190500Y4746500D1*
Y3850000D1*
X1246500Y3794000D1*
X1984250D1*
X3603500Y4175000D2*
Y4027510D1*
X3547490Y3971500D1*
X3661490Y3857500D1*
X3799750D1*
X3547490Y3971500D2*
X3433490Y3857500D1*
X3413000D1*
X3698500Y4175000D2*
Y4045510D1*
X3754500Y3989510D1*
X4166000D1*
X4222000Y4045510D1*
Y4267900D1*
X3921750Y2596020D2*
X3939747D1*
Y2878080D1*
X3889490Y2928337D1*
X3736163D1*
X3698500Y2966000D1*
Y3095500D1*
X3879200Y2149800D2*
X3792220D1*
X3698500Y2056080D1*
Y2016000D1*
X6136700Y2532510D2*
Y2365500D1*
X6270500D1*
X5769300Y5354750D2*
Y5477000D1*
X5635500D1*
X6095300Y5540360D2*
X6158660Y5477000D1*
X6270500D1*
X5598700Y2569310D2*
X5687673D1*
X5732500Y2524483D1*
Y2416050D1*
X5681950Y2365500D1*
X5635500D1*
X3032000Y2238500D2*
Y2059690D1*
X3032010D1*
X8239000Y4397500D2*
Y4576300D1*
X8239010D1*
X8239000Y5208600D2*
Y5477000D1*
Y3077600D2*
Y3318000D1*
X4222000Y4267900D2*
Y5044453D1*
X4174003Y5092450D1*
X3731050D1*
X3698500Y5125000D1*
Y5254500D1*
X8146190Y2417300D2*
X8188200D1*
X8239000Y2366500D1*
Y2238500D1*
X3017450Y5278900D2*
X3052250Y5313700D1*
Y5477000D1*
X3017450Y4207900D2*
X3032000Y4222450D1*
Y4397500D1*
X2910810Y3217510D2*
X2932617Y3195703D1*
X2990163D1*
X3032000Y3237540D1*
Y3318000D1*
X2466250Y3794000D2*
Y3686113D1*
X2546343Y3606020D1*
X3103000D1*
X3159000Y3662020D1*
Y3857500D1*
X2264250Y3794000D2*
X2466250D1*
X4784000Y4111500D2*
Y4102867D1*
X4974500D1*
Y4111500D1*
X3494690Y4082300D2*
X3215000D1*
X3159000Y4138300D1*
Y4397500D1*
X4974500Y4111500D2*
Y4023000D1*
X5036100Y3961400D1*
X5579510D1*
Y3926000D1*
X3793500Y4175000D2*
Y4207103D1*
X4048000D1*
Y4149000D1*
X3793500Y4445000D2*
Y4429000D1*
X4048000D1*
X6524500Y4492500D2*
X6651500Y4619500D1*
Y4817500D1*
X6707500Y4873500D1*
X7021000D1*
X3286000Y3857500D2*
Y3947827D1*
X3220327Y4013500D1*
X2970903D1*
X2906403Y4078000D1*
Y4506113D1*
X2844977Y4567540D1*
X2519233D1*
X2466250Y4514557D1*
Y4429000D1*
X2264250D2*
Y4340477D1*
X2189770Y4265997D1*
X2083670D1*
X1984250Y4166577D1*
Y4111500D1*
X2466250Y4429000D2*
X2264250D1*
X2746250Y4111500D2*
Y4429000D1*
X1317500Y4111500D2*
X1444500Y4238500D1*
X1642500D1*
X1698500Y4294500D1*
Y4373000D1*
X1754500Y4429000D1*
X1984250D1*
X4238550Y3794000D2*
X4504000D1*
X4314800Y4175100D2*
Y3989510D1*
X4370800Y3933510D1*
X4740110D1*
X4784000Y3889620D1*
Y3794000D1*
X3521800Y4310450D2*
Y4483500D1*
X3465800Y4539500D1*
X3343707D1*
X3286000Y4481793D1*
Y4397500D1*
X4784000Y3794000D2*
X4974500D1*
X4314800Y4403360D2*
Y4347800D1*
X4365600Y4297000D1*
X4570010D1*
X4626010Y4241000D1*
Y4161843D1*
X4575667Y4111500D1*
X4504000D1*
X4570010Y4297000D2*
X4586197D1*
X4718197Y4429000D1*
X4784000D1*
X3413000Y4218690D2*
Y4397500D1*
X4784000Y4429000D2*
Y4434190D1*
X4974500D1*
Y4429000D1*
X5254500D2*
Y4111500D1*
X4314800Y4561000D2*
X4460700D1*
X4504000Y4517700D1*
Y4429000D1*
X3032000Y2778000D2*
Y2850463D1*
X2975273Y2907190D1*
X2910810D1*
Y2883300D1*
X2472000D1*
X2343957D1*
X2270000Y2957257D1*
Y3032000D1*
X2472000Y2883300D2*
Y3032000D1*
X5635500Y5572000D2*
X5545860D1*
X5499490Y5525630D1*
Y5447560D1*
X8424610Y5208600D2*
X8564000D1*
X8620000Y5152600D1*
Y4937000D1*
X5499490Y5447560D2*
Y4898160D1*
X5587650Y4810000D1*
X5635500D1*
X1317500Y3667000D2*
X1134510Y3484010D1*
Y2770500D1*
X1190510Y2714500D1*
X1990000D1*
X3603500Y3095500D2*
Y2834000D1*
X3485000Y2715500D1*
Y2712450D1*
X3472807Y2700257D1*
X3413000D1*
Y2778000D1*
X3603500Y2834000D2*
X3659500Y2778000D1*
X3799750D1*
X8009300Y4243500D2*
Y4266337D1*
X7617033D1*
X7514500Y4163803D1*
Y4111500D1*
X7312500D1*
X8009300Y3957500D2*
X8023300Y3943500D1*
X8102100D1*
X8129500Y3916100D1*
X8239000D1*
Y3857500D1*
X2270000Y2714500D2*
X2472000D1*
Y2632407D1*
X2534407Y2570000D1*
X3103000D1*
X3159000Y2626000D1*
Y2778000D1*
Y3496800D2*
Y3318000D1*
X4963000Y3032000D2*
Y2973517D1*
X5069347Y2867170D1*
X5392430D1*
X5521760Y2996500D1*
Y3349500D1*
X4772500Y3032000D2*
X4963000D1*
X3793500Y3095500D2*
Y3069500D1*
X4048000D1*
X3793500Y3365500D2*
Y3248500D1*
X3849500Y3192500D1*
X3952627D1*
X4048000Y3287873D1*
Y3349500D1*
X2472000D2*
Y3353923D1*
X2270000D1*
Y3349500D1*
Y3283380D1*
X2150620Y3164000D1*
X2092000D1*
X2148000Y3108000D1*
Y2570000D1*
X2204000Y2514000D1*
X3230000D1*
X3286000Y2570000D1*
Y2778000D1*
X2092000Y3164000D2*
X2046383D1*
X1990000Y3107617D1*
Y3032000D1*
X2752000Y3349500D2*
Y3032000D1*
X1317500Y2905000D2*
X1444500Y3032000D1*
X1756000D1*
X1812000Y3088000D1*
Y3293500D1*
X1868000Y3349500D1*
X1990000D1*
X4238550Y2714500D2*
X4492500D1*
X4772500D2*
X4703110D1*
X4614500Y2803110D1*
Y3108000D1*
X4670500Y3164000D1*
X5029000D1*
X5110557Y3245557D1*
Y3455103D1*
X5058437Y3507223D1*
X4830777D1*
X4800500Y3537500D1*
X3342000D1*
X3286000Y3481500D1*
Y3318000D1*
X4963000Y2714500D2*
X4772500D1*
X3413000Y3318000D2*
Y3406733D1*
X3477767Y3471500D1*
X4168500D1*
X4236000Y3404000D1*
X4333700D1*
X4772500Y3349500D2*
X4963000D1*
X4333700Y3404000D2*
Y3430247D1*
X4384953Y3481500D1*
X4717470D1*
X4772500Y3426470D1*
Y3349500D1*
X4333700Y3013950D2*
X4351750Y3032000D1*
X4492500D1*
X5243000Y3349500D2*
Y3032000D1*
X4216800Y3105600D2*
X4275200Y3164000D1*
X4382497D1*
X4492500Y3274003D1*
Y3349500D1*
X3032000Y1698500D2*
Y1767000D1*
X2576103D1*
X2470627Y1872477D1*
Y1952500D1*
X2280123D2*
X2191827D1*
X2132067Y1892740D1*
Y1164263D1*
X2178130Y1118200D1*
X7341200D1*
X7477000Y1254000D1*
X2470627Y1952500D2*
X2280123D1*
X1317500Y2460500D2*
X1190500Y2333500D1*
Y1503000D1*
X1246500Y1447000D1*
X1885497D1*
X2000123Y1561627D1*
Y1635000D1*
X3799750Y1698500D2*
X3640290D1*
X3413000Y1519690D2*
Y1698500D1*
X3640290D2*
Y1791300D1*
X3603500Y1828090D1*
Y2016000D1*
X2470627Y1635000D2*
Y1572793D1*
X2540420Y1503000D1*
X3027000D1*
X3159000Y1635000D1*
Y1698500D1*
X2280123Y1635000D2*
X2470627D1*
X1841320Y2362800D2*
X1936520Y2458000D1*
X3103000D1*
X3159000Y2402000D1*
Y2238500D1*
X4756623Y1952500D2*
Y1945787D1*
X4958627D1*
Y1952500D1*
X2414630Y1410200D2*
X2422240Y1417810D1*
X5024630D1*
X5080630Y1473810D1*
X5173430Y1381010D1*
X7603990D1*
X7731000Y1254000D1*
X4958627Y1952500D2*
X5010680D1*
X5080630Y1882550D1*
Y1473810D1*
X3793500Y2016000D2*
Y1990000D1*
X4048000D1*
Y2270000D2*
Y2352113D1*
X4008113Y2392000D1*
X3844020D1*
X3793500Y2341480D1*
Y2286000D1*
X2000123Y1952500D2*
Y2013940D1*
X2106010Y2119827D1*
X2210247D1*
X2280123Y2189703D1*
Y2270000D1*
X2470627D2*
Y2303890D1*
X2568737Y2402000D1*
X2847593D1*
X2872630Y2376963D1*
Y1957453D1*
X2952097Y1877987D1*
X3190413D1*
X3286000Y1782400D1*
Y1698500D1*
X2280123Y2270000D2*
X2470627D1*
X2750627D2*
Y1952500D1*
X1317500Y1698500D2*
X1444500Y1825500D1*
X1766120D1*
X1822120Y1881500D1*
Y2214000D1*
X1878120Y2270000D1*
X2000123D1*
X4277876Y2131453D2*
Y1685924D1*
X4328800Y1635000D1*
X4476623D1*
X4958627D2*
Y1628130D1*
X4756623D1*
Y1635000D1*
X4733570D1*
X4572380Y1473810D1*
X3561800D1*
X3505800Y1529810D1*
Y1840500D1*
X3449800Y1896500D1*
X3342000D1*
X3286000Y1952500D1*
Y2238500D1*
X4958627Y2270000D2*
Y2263153D1*
X4756623D1*
Y2270000D1*
X3413000Y2055420D2*
Y2238500D1*
X4598630Y2110500D2*
Y2020477D1*
X4530653Y1952500D1*
X4476623D1*
X4756623Y2270000D2*
Y2211230D1*
X4655893Y2110500D1*
X4598630D1*
X5238627Y2270000D2*
Y1952500D1*
X4272800Y2270000D2*
X4476623D1*
X7301000Y4873500D2*
X7503000D1*
Y4934377D1*
X7574123Y5005500D1*
X7905000D1*
X8168990Y4741510D1*
X8305973D1*
X8366000Y4801537D1*
Y4937000D1*
X8873750Y5005500D2*
Y5116950D1*
X8726100Y5264600D1*
X8570000D1*
X8533200Y5301400D1*
X8418013D1*
X8366000Y5353413D1*
Y5477000D1*
X9382000Y5191000D2*
Y5005500D1*
X8873750D1*
X9584000Y5191000D2*
X9382000D1*
X5635500Y5382000D2*
Y5127500D1*
X5915500D2*
X5968763D1*
X5979633Y5138370D1*
Y5354290D1*
X5951923Y5382000D1*
X5905500D1*
X8078660Y1767000D2*
Y1781420D1*
X8239000D1*
Y1698500D1*
X7514500Y1952500D2*
Y1899373D1*
X7646873Y1767000D1*
X8078660D1*
X7312500Y1952500D2*
X7514500D1*
X8331810Y5655800D2*
X8291110Y5696500D1*
X7608057D1*
X7503000Y5591443D1*
Y5508500D1*
X8331810Y5115800D2*
X8452857D1*
X8493000Y5075657D1*
Y4937000D1*
X7301000Y5508500D2*
Y5435980D1*
X7217450Y5352430D1*
X7118800D1*
X7021000Y5254630D1*
Y5191000D1*
X7503000Y5508500D2*
X7301000D1*
X7783000D2*
Y5191000D1*
X6767100Y5034800D2*
Y5452500D1*
X6823100Y5508500D1*
X7021000D1*
X8821600Y4873500D2*
X9102000D1*
X9382000D2*
Y4662600D1*
X8493000Y5655800D2*
Y5477000D1*
X9382000Y4662600D2*
X9528000D1*
X9584000Y4718600D1*
Y4873500D1*
X2740500Y5191000D2*
Y5508500D1*
X1791300Y5093300D2*
X1879100Y5005500D1*
X2044500D1*
X2100500Y5061500D1*
Y5435020D1*
X2173980Y5508500D1*
X2258500D1*
X9584000D2*
X9382000D1*
Y5385437D1*
X9319563Y5323000D1*
X9102000D1*
X8673313D1*
X8620000Y5376313D1*
Y5477000D1*
X9102000Y5323000D2*
Y5191000D1*
X9864000Y5508500D2*
Y5191000D1*
X9102000Y5748600D2*
Y5508500D1*
X6524500Y3984500D2*
Y3979500D1*
X6954567D1*
X7032500Y3901567D1*
Y3794000D1*
X6270500Y5572000D2*
X6367500D1*
Y4890670D1*
X6448170Y4810000D1*
X6524500D1*
Y4857833D1*
X6608667Y4942000D1*
X6828150D1*
X6916560Y5030410D1*
X7103907D1*
X7167193Y4967123D1*
Y4604307D1*
X7210500Y4561000D1*
X8046100D1*
X8102100Y4505000D1*
Y4055500D1*
X8158100Y3999500D1*
X8620000D1*
Y3857500D1*
X7514500Y3794000D2*
Y3700633D1*
X7589110Y3626023D1*
X8248040D1*
X8366000Y3743983D1*
Y3857500D1*
X7312500Y3794000D2*
X7514500D1*
X9706010Y4597800D2*
Y4175640D1*
X9641870Y4111500D1*
X9584000D1*
X8366000Y4218690D2*
Y4397500D1*
X9584000Y4111500D2*
Y4115397D1*
X9382000D1*
Y4111500D1*
X6244500Y5127500D2*
X6225040D1*
X6171357Y5181183D1*
Y5344983D1*
X6208373Y5382000D1*
X6270500D1*
X6540500D2*
X6595960D1*
X6646500Y5331460D1*
Y5218903D1*
X6555097Y5127500D1*
X6524500D1*
X7312500Y4429000D2*
Y4358277D1*
X7244757Y4290533D1*
X7112597D1*
X7038143Y4216080D1*
X7010723Y4243500D1*
X6863800D1*
Y3823300D2*
Y3537500D1*
X6919800Y3481500D1*
X7225050D1*
X7281050Y3537500D1*
X8437000D1*
X8493000Y3593500D1*
Y3857500D1*
X7038143Y4216080D2*
Y4111500D1*
X7032500D1*
X7514500Y4429000D2*
X7312500D1*
X8009300Y4458300D2*
X7794500D1*
Y4429000D1*
X8102100Y3823300D2*
X7972500D1*
X7916500Y3879300D1*
Y4050630D1*
X7855630Y4111500D1*
X7794500D1*
X5762500Y3984500D2*
X5889500Y4111500D1*
X6595500D1*
X6651500Y4167500D1*
Y4373000D1*
X6707500Y4429000D1*
X7032500D1*
X8728800Y3794000D2*
X9102000D1*
X9584000D2*
X9382000D1*
X9355107D1*
X9223107Y3926000D1*
X8977270D1*
X8847770Y4055500D1*
X8549000D1*
X8493000Y4111500D1*
Y4397500D1*
X9584000Y4429000D2*
X9382000D1*
X9102000Y4111500D2*
X8676000D1*
X8620000Y4167500D1*
Y4397500D1*
X9382000Y4429000D2*
Y4348447D1*
X9312750Y4279197D1*
X9195483D1*
X9102000Y4185713D1*
Y4111500D1*
X9864000Y4429000D2*
Y4111500D1*
X8728800Y4429000D2*
X9102000D1*
X6807800Y3061300D2*
Y2770500D1*
X6863800Y2714500D1*
X7038250D1*
X5505900Y2705410D2*
Y2460500D1*
X5416110Y2370710D1*
Y1788300D1*
X5505910Y1698500D1*
X5635500D1*
X8620000Y2956800D2*
Y2778000D1*
X5635500Y2460500D2*
X5505900D1*
X5635500D2*
X5630290D1*
X7318250Y2714500D2*
Y2724100D1*
X7520250D1*
Y2714500D1*
Y2757487D1*
X7609263Y2846500D1*
X7956360D1*
X8181150Y2621710D1*
X8311707D1*
X8366000Y2676003D1*
Y2778000D1*
Y3318000D2*
Y3105600D1*
X8422000Y3049600D1*
X8764800D1*
X8914400Y2900000D1*
X9382000D1*
X9529093D1*
X9584000Y2954907D1*
Y3032000D1*
X9382000Y2900000D2*
Y3032000D1*
X5915500Y2016000D2*
Y1927830D1*
X5845773Y1858103D1*
X5530530D1*
X5484300Y1904333D1*
Y2175217D1*
X5579583Y2270500D1*
X5635500D1*
Y2016000D2*
X5699983D1*
X5757500Y2073517D1*
Y2185623D1*
X5842377Y2270500D1*
X5905500D1*
X7520250Y3349500D2*
Y3355277D1*
X7318250D1*
Y3349500D1*
Y3293270D1*
X7216980Y3192000D1*
X7038250D1*
X6699750D1*
X6603250Y3095500D1*
X6154670D1*
X8331800Y2956800D2*
X8421730D1*
X8493000Y2885530D1*
Y2778000D1*
X7038250Y3192000D2*
Y3032000D1*
X7800250D2*
Y3349500D1*
X5762500Y3476500D2*
X5889500Y3349500D1*
X7038250D1*
X8728800Y2714500D2*
X9102000D1*
X9584000D2*
Y2790503D1*
X9634500D1*
X9721067Y2877070D1*
Y3474407D1*
X9680457Y3515017D1*
X8560243D1*
X8493000Y3447773D1*
Y3318000D1*
X9382000Y2714500D2*
X9584000D1*
X9382000Y3349500D2*
Y3274093D1*
X9271907Y3164000D1*
X9102000D1*
X8676050D1*
X8620000Y3220050D1*
Y3318000D1*
X9102000Y3164000D2*
Y3032000D1*
X9584000Y3349500D2*
X9382000D1*
X9864000D2*
Y3032000D1*
X8728800Y3349500D2*
X9102000D1*
X6873700Y1635000D2*
X7032500D1*
X6807800Y1503010D2*
X6580500D1*
X6524500Y1559010D1*
Y1698500D1*
X8620000Y1519690D2*
Y1698500D1*
X6807800Y2062900D2*
Y2476510D1*
X6751800Y2532510D1*
X6453510D1*
X6397510Y2476510D1*
Y2460500D1*
X6270500D1*
X7312500Y1635000D2*
Y1553847D1*
X7363347Y1503000D1*
X7514500D1*
X8273187D1*
X8366000Y1595813D1*
Y1698500D1*
X7514500Y1503000D2*
Y1635000D1*
X10017000Y1254000D2*
X9732000Y1539000D1*
Y1952500D1*
Y2399600D1*
X9676000Y2455600D1*
X8422000D1*
X8366000Y2399600D1*
Y2238500D1*
X9408000Y1952500D2*
X9610000D1*
X9732000D1*
X6270500Y2270500D2*
X6244500D1*
Y2016000D1*
X6540500Y2270500D2*
X6466490D1*
X6411227Y2215237D1*
Y2125087D1*
X6520313Y2016000D1*
X6524500D1*
X8493000Y1698500D2*
Y1859800D1*
X8437000Y1915800D1*
X8078670D1*
X8022670Y1971800D1*
Y2346000D1*
X7966670Y2402000D1*
X7570340D1*
X7514500Y2346160D1*
Y2270000D1*
Y2185970D1*
X7413030Y2084500D1*
X7312500D1*
X7121893D1*
X7032500Y1995107D1*
Y1952500D1*
X7312500Y2084500D2*
Y2270000D1*
X7794500Y1952500D2*
Y2270000D1*
X7032500Y2510100D2*
Y2270000D1*
X8839800Y1635000D2*
X9128000D1*
X9610000D2*
X9408000D1*
X9371903D1*
X9203187Y1803717D1*
X8902273D1*
X8734190Y1971800D1*
X8549000D1*
X8493000Y2027800D1*
Y2238500D1*
X9610000Y2270000D2*
Y2205577D1*
X9488923Y2084500D1*
X9408000D1*
X9128000D1*
X8682087D1*
X8620000Y2146587D1*
Y2238500D1*
X9128000Y2084500D2*
Y1952500D1*
X9408000Y2084500D2*
Y2270000D1*
X9890000D2*
Y1952500D1*
X8951200Y2270000D2*
X9128000D1*
X8109390Y3129700D2*
Y2976410D1*
X8239000Y2846800D1*
Y2778000D1*
X7520250Y3032000D2*
X7556167D1*
X7642260Y3118093D1*
Y3425500D1*
X7698260Y3481500D1*
X8053390D1*
X8109390Y3425500D1*
Y3129700D1*
X7318250Y3032000D2*
X7520250D1*
D26*
X3521800Y3229300D3*
X7800260Y4669100D3*
X2910810Y3757200D3*
X7953300Y1635000D3*
X3603500Y2149800D3*
X6674300Y5540360D3*
X3505250Y4690600D3*
X4308450Y5537800D3*
X2909430Y1635000D3*
X5915500Y1529700D3*
X2907087Y2744282D3*
X5002810Y3606000D3*
X7800260Y2526520D3*
X6270500Y1529700D3*
X5188500Y3603500D3*
X2910810Y3513210D3*
X7160250Y3603500D3*
X2112000Y3615610D3*
X6400100Y1473810D3*
X7941800Y5098300D3*
X2616800Y4653800D3*
X2918500Y4811800D3*
X2899300Y5093300D3*
X2366510Y4704700D3*
X3179250Y5278900D3*
X5401800Y5005500D3*
X3584106Y2653861D3*
X3698500Y4653800D3*
X6068830Y5677300D3*
X4308450Y5351500D3*
X3682490Y3231700D3*
X6074300Y1970100D3*
X1791300Y5093300D3*
X4314800Y4873500D3*
X4278000Y5191100D3*
X3308850Y5288550D3*
X4216800Y5445000D3*
X3494690Y4082300D3*
X5579510Y3926000D3*
X4238550Y3794000D3*
X4314800Y4175100D3*
X3521800Y4310450D3*
X3413000Y4218690D3*
X4314800Y4403360D3*
Y4561000D3*
X2910810Y2883300D3*
X8424610Y5208600D3*
X5499490Y5447560D3*
X8009300Y4243500D3*
Y3957500D3*
X3159000Y3496800D3*
X5521760Y3349500D3*
X4238550Y2714500D3*
X4333700Y3013950D3*
Y3404000D3*
X4216800Y3105600D3*
X3413000Y1519690D3*
X3640290Y1698500D3*
X1841320Y2362800D3*
X2414630Y1410200D3*
X4277876Y2131453D3*
X3413000Y2055420D3*
X4598630Y2110500D3*
X4272800Y2270000D3*
X8873750Y5005500D3*
X8331810Y5655800D3*
Y5115800D3*
X6767100Y5034800D3*
X8821600Y4873500D3*
X8493000Y5655800D3*
X9382000Y4662600D3*
X9102000Y5748600D3*
X9706010Y4597800D3*
X8366000Y4218690D3*
X6863800Y4243500D3*
Y3823300D3*
X8009300Y4458300D3*
X8102100Y3823300D3*
X8728800Y3794000D3*
Y4429000D3*
X8078660Y1767000D3*
X6807800Y3061300D3*
X5505900Y2705410D3*
X8620000Y2956800D3*
X8914400Y2900000D3*
X8331800Y2956800D3*
X6154670Y3095500D3*
X8728800Y2714500D3*
Y3349500D3*
X6873700Y1635000D3*
X6807800Y1503010D3*
X8620000Y1519690D3*
X6807800Y2062900D3*
X7032500Y2510100D3*
X8839800Y1635000D3*
Y2362800D3*
X8951200Y2270000D3*
X6095300Y5540360D3*
X3017450Y5278900D3*
Y4207900D3*
X3879200Y2149800D3*
X4222000Y4267900D3*
X8239000Y3077600D3*
X2910810Y3217510D3*
X5769300Y5354750D3*
X3032010Y2059690D3*
X8239010Y4576300D3*
X8239000Y5208600D3*
X5598700Y2569310D3*
X3921750Y2596020D3*
X8146190Y2417300D3*
X6136700Y2532510D3*
X8109390Y3129700D3*
X1165100Y6493083D2*
D15*
X8591768D1*
X8902242D2*
X9099815D1*
X9667685D2*
X10740896D1*
X1165100Y6429917D2*
X8591586D1*
X8902424D2*
X9099542D1*
X9667685D2*
X10740896D1*
X1165100Y6366750D2*
X8621026D1*
X8872984D2*
X9129073D1*
X9667685D2*
X10740896D1*
X1165100Y6303583D2*
X10740896D1*
X1165100Y6240417D2*
X10740896D1*
X1165100Y6177250D2*
X1193917D1*
X1695067D2*
X2365323D1*
X2682633D2*
X3162485D1*
X5187502D2*
X5321456D1*
X7346565D2*
X7572393D1*
X9632502D2*
X10147446D1*
X10648505D2*
X10740896D1*
X1726239Y6114083D2*
X2365323D1*
X2682633D2*
X3131222D1*
X5218765D2*
X5290193D1*
X7377737D2*
X7572393D1*
X9663765D2*
X10116183D1*
X10679768D2*
X10740896D1*
X1727333Y6050917D2*
X2365323D1*
X2682633D2*
X3130128D1*
X5219859D2*
X5289190D1*
X7378830D2*
X7572393D1*
X9664859D2*
X10115180D1*
X10680862D2*
X10740896D1*
X1165100Y5987750D2*
X1189998D1*
X1729065D2*
X2365323D1*
X2682633D2*
X3158474D1*
X5191513D2*
X5317446D1*
X7350484D2*
X7572393D1*
X9636513D2*
X10143435D1*
X10652515D2*
X10740896D1*
X1165100Y5924583D2*
X1351599D1*
X1781291D2*
X3127393D1*
X5186409D2*
X5286365D1*
X7345471D2*
X10148539D1*
X10647411D2*
X10740896D1*
X1165100Y5861417D2*
X1610818D1*
X1786122D2*
X3127393D1*
X5218492D2*
X5286365D1*
X7377463D2*
X9060714D1*
X9143232D2*
X10116547D1*
X10679495D2*
X10740896D1*
X1165100Y5798250D2*
X1610818D1*
X1786122D2*
X3127393D1*
X5220133D2*
X5286365D1*
X7379104D2*
X8988526D1*
X9215510D2*
X10114907D1*
X10681135D2*
X10740896D1*
X1165100Y5735083D2*
X1610818D1*
X1786122D2*
X1951795D1*
X2487216D2*
X3127393D1*
X5192515D2*
X5286365D1*
X7351487D2*
X7525362D1*
X8586877D2*
X8978318D1*
X9225627D2*
X10142433D1*
X10653518D2*
X10740896D1*
X1165100Y5671917D2*
X1196196D1*
X1786122D2*
X1897198D1*
X2941487D2*
X3356990D1*
X4827112D2*
X5942159D1*
X6493440D2*
X7462198D1*
X8616317D2*
X9005844D1*
X9198192D2*
X10149724D1*
X10646317D2*
X10740896D1*
X1786122Y5608750D2*
X1824828D1*
X5396682D2*
X5461274D1*
X5764182D2*
X5914815D1*
X6511122D2*
X6867380D1*
X8025784D2*
X8135401D1*
X8723596D2*
X8948331D1*
X10017685D2*
X10116821D1*
X10679130D2*
X10740896D1*
X1786122Y5545583D2*
X1824828D1*
X3536851D2*
X3594880D1*
X4285067D2*
X4338904D1*
X6669169D2*
X6738865D1*
X8029429D2*
X8135401D1*
X8723596D2*
X8948331D1*
X10017685D2*
X10114633D1*
X10681317D2*
X10740896D1*
X1165100Y5482417D2*
X1187992D1*
X1786122D2*
X1824828D1*
X3536851D2*
X3594880D1*
X8029429D2*
X8135401D1*
X8723596D2*
X8948331D1*
X10017685D2*
X10141521D1*
X10654521D2*
X10740896D1*
X1786122Y5419250D2*
X1824828D1*
X3536851D2*
X3594880D1*
X6066057D2*
X6095049D1*
X8029429D2*
X8135401D1*
X8723596D2*
X8948331D1*
X10017685D2*
X10150909D1*
X10645133D2*
X10740896D1*
X1786122Y5356083D2*
X1824828D1*
X8029429D2*
X8135401D1*
X10017685D2*
X10117185D1*
X10678765D2*
X10740896D1*
X1786122Y5292917D2*
X1824828D1*
X3433218D2*
X3499815D1*
X8029429D2*
X8149985D1*
X10017685D2*
X10114451D1*
X10681591D2*
X10740896D1*
X1786122Y5229750D2*
X1824828D1*
X3417633D2*
X3499815D1*
X8029429D2*
X8116443D1*
X8882281D2*
X8948331D1*
X10017685D2*
X10140518D1*
X10655432D2*
X10740896D1*
X3385276Y5166583D2*
X3499815D1*
X10017685D2*
X10152094D1*
X10643948D2*
X10740896D1*
X1165100Y5103417D2*
X1610818D1*
X6069156D2*
X6090827D1*
X8723596D2*
X8765948D1*
X10017685D2*
X10117550D1*
X10678492D2*
X10740896D1*
X1165100Y5040250D2*
X1610818D1*
X6069156D2*
X6090827D1*
X8723596D2*
X8754555D1*
X10017685D2*
X10114268D1*
X10681773D2*
X10740896D1*
X1165100Y4977083D2*
X1199477D1*
X2692476D2*
X2872003D1*
X3973622D2*
X4134373D1*
X6069156D2*
X6090827D1*
X8054768D2*
X8135401D1*
X8723596D2*
X8752823D1*
X9737685D2*
X10139607D1*
X10656435D2*
X10740896D1*
X2692476Y4913917D2*
X2840466D1*
X3536851D2*
X3591235D1*
X3973622D2*
X4134373D1*
X5116682D2*
X5320909D1*
X5789156D2*
X6279854D1*
X7656643D2*
X7875271D1*
X9737685D2*
X10153279D1*
X10642672D2*
X10740896D1*
X2692476Y4850750D2*
X2800636D1*
X3536851D2*
X3666339D1*
X3973622D2*
X4134373D1*
X5116682D2*
X5427094D1*
X5789156D2*
X6290336D1*
X7656643D2*
X7938435D1*
X9737685D2*
X10117914D1*
X10678127D2*
X10740896D1*
X1703635Y4787583D2*
X1824828D1*
X2692476D2*
X2796534D1*
X3536851D2*
X3666339D1*
X3973622D2*
X4134373D1*
X5116682D2*
X5481873D1*
X5789156D2*
X6349308D1*
X6742906D2*
X6867380D1*
X7656643D2*
X8001599D1*
X8908987D2*
X8948331D1*
X9737685D2*
X10113995D1*
X10681955D2*
X10740896D1*
X1354911Y4724417D2*
X1534073D1*
X1608935D2*
X1824828D1*
X2717815D2*
X2832719D1*
X3004286D2*
X3597524D1*
X3799534D2*
X4134373D1*
X4309677D2*
X4338904D1*
X5116682D2*
X5481873D1*
X5789156D2*
X6370818D1*
X6739169D2*
X6867380D1*
X7656643D2*
X8064763D1*
X8410237D2*
X8948331D1*
X9737685D2*
X10138696D1*
X10657346D2*
X10740896D1*
X1278166Y4661250D2*
X2229789D1*
X2740966D2*
X3574282D1*
X3822685D2*
X4134373D1*
X4383596D2*
X5481873D1*
X5789156D2*
X6370818D1*
X6739169D2*
X7079568D1*
X7254872D2*
X8149711D1*
X8327385D2*
X9257589D1*
X9811968D2*
X10154555D1*
X10387372D2*
X10408596D1*
X10641396D2*
X10740896D1*
X1278166Y4598083D2*
X2309360D1*
X2935745D2*
X3280974D1*
X3528466D2*
X3588045D1*
X3809013D2*
X4134373D1*
X4544924D2*
X5603826D1*
X6132593D2*
X6408370D1*
X6736252D2*
X7079750D1*
X8361383D2*
X9276729D1*
X9830471D2*
X10118279D1*
X10677672D2*
X10740896D1*
X1278166Y4534917D2*
X1830571D1*
X5408166D2*
X5603826D1*
X6169143D2*
X6371912D1*
X6688218D2*
X6878865D1*
X8787398D2*
X8948331D1*
X10017685D2*
X10113813D1*
X10682138D2*
X10740896D1*
X1432932Y4471750D2*
X1456052D1*
X5408166D2*
X5603826D1*
X6173700D2*
X6367263D1*
X10017685D2*
X10137784D1*
X10658258D2*
X10740896D1*
X5408166Y4408583D2*
X5603826D1*
X6149911D2*
X6391052D1*
X10017685D2*
X10155831D1*
X10386096D2*
X10409862D1*
X10640120D2*
X10740896D1*
X1792229Y4345417D2*
X1830571D1*
X5408166D2*
X5603826D1*
X6131317D2*
X6409737D1*
X6745185D2*
X6797836D1*
X8818570D2*
X8948331D1*
X10017685D2*
X10118643D1*
X10677307D2*
X10740896D1*
X1785211Y4282250D2*
X1830571D1*
X5408166D2*
X5603826D1*
X6168687D2*
X6372276D1*
X8723596D2*
X8948331D1*
X10017685D2*
X10113630D1*
X10682320D2*
X10740896D1*
X1744377Y4219083D2*
X1830571D1*
X3246643D2*
X3288539D1*
X5408166D2*
X5603826D1*
X6173883D2*
X6367081D1*
X8189755D2*
X8241586D1*
X8707646D2*
X8948331D1*
X10017685D2*
X10136873D1*
X10659078D2*
X10740896D1*
X1730159Y4155917D2*
X1830571D1*
X5408166D2*
X5603826D1*
X6738349D2*
X6778240D1*
X8189755D2*
X8259633D1*
X10017685D2*
X10157198D1*
X10384820D2*
X10411219D1*
X10638843D2*
X10740896D1*
X1730159Y4092750D2*
X1830571D1*
X5408166D2*
X5603826D1*
X6698062D2*
X6878865D1*
X7992333D2*
X8014451D1*
X8189755D2*
X8407563D1*
X10017685D2*
X10119099D1*
X10676942D2*
X10740896D1*
X1730159Y4029583D2*
X1830571D1*
X6168323D2*
X6372641D1*
X10017685D2*
X10113448D1*
X10682502D2*
X10740896D1*
X1730159Y3966417D2*
X1830571D1*
X6174065D2*
X6366899D1*
X8723596D2*
X8815532D1*
X10017685D2*
X10136052D1*
X10659989D2*
X10740896D1*
X1278166Y3903250D2*
X1830571D1*
X3953388D2*
X4187328D1*
X6151643D2*
X6389321D1*
X7668127D2*
X7828878D1*
X8780015D2*
X8878696D1*
X9737685D2*
X10158565D1*
X10383453D2*
X10412483D1*
X10637476D2*
X10740896D1*
X2619924Y3840083D2*
X2814399D1*
X3537398D2*
X3557602D1*
X3953388D2*
X4123435D1*
X5128166D2*
X5492172D1*
X6128583D2*
X6412380D1*
X6636630D2*
X6740597D1*
X7668127D2*
X7838904D1*
X9737685D2*
X10119464D1*
X10676487D2*
X10740896D1*
X2619924Y3776917D2*
X2901170D1*
X3516617D2*
X3644464D1*
X3953388D2*
X4115323D1*
X5128166D2*
X5603826D1*
X6167867D2*
X6373097D1*
X6675914D2*
X6748891D1*
X7668127D2*
X7897602D1*
X9737685D2*
X10113357D1*
X10682685D2*
X10740896D1*
X2619924Y3713750D2*
X2928331D1*
X3516617D2*
X3646104D1*
X3953388D2*
X4145584D1*
X5128166D2*
X5603826D1*
X6174247D2*
X6366808D1*
X6682203D2*
X6776143D1*
X7668127D2*
X8051638D1*
X9737685D2*
X10135232D1*
X10660810D2*
X10740896D1*
X1729247Y3650583D2*
X1830571D1*
X3245823D2*
X4350388D1*
X5128166D2*
X5603826D1*
X6152463D2*
X6388500D1*
X6660510D2*
X6776143D1*
X8580679D2*
X8948331D1*
X9737685D2*
X10159933D1*
X10382086D2*
X10414013D1*
X10636018D2*
X10740896D1*
X1707737Y3587417D2*
X1990987D1*
X2233010D2*
X2443617D1*
X3241083D2*
X3270584D1*
X5078127D2*
X5603826D1*
X6127216D2*
X6413839D1*
X6635172D2*
X6776143D1*
X6951448D2*
X7209633D1*
X9723739D2*
X10119920D1*
X10676031D2*
X10740896D1*
X1376877Y3524250D2*
X1512107D1*
X1630901D2*
X2030818D1*
X2193179D2*
X3037797D1*
X5162711D2*
X5603826D1*
X6167502D2*
X6373552D1*
X6675458D2*
X6777237D1*
X9791643D2*
X10113175D1*
X10682867D2*
X10740896D1*
X1232867Y3461083D2*
X1836404D1*
X2905666D2*
X2928331D1*
X5396682D2*
X5476768D1*
X5566760D2*
X5603826D1*
X6174338D2*
X6366625D1*
X6682385D2*
X6818891D1*
X10017685D2*
X10134412D1*
X10661630D2*
X10740896D1*
X1222112Y3397917D2*
X1795115D1*
X2905666D2*
X2928331D1*
X7953870D2*
X8015636D1*
X10017685D2*
X10161391D1*
X10380627D2*
X10415414D1*
X10634651D2*
X10740896D1*
X1222112Y3334750D2*
X1735597D1*
X3516617D2*
X3594880D1*
X7953870D2*
X8021742D1*
X10017685D2*
X10120375D1*
X10675666D2*
X10740896D1*
X1426370Y3271583D2*
X1462615D1*
X1680393D2*
X1724386D1*
X3516617D2*
X3564985D1*
X4211604D2*
X4338904D1*
X5396682D2*
X5426638D1*
X7953870D2*
X8021742D1*
X10017685D2*
X10113084D1*
X10682958D2*
X10740896D1*
X5396682Y3208417D2*
X5434112D1*
X6195575D2*
X6366534D1*
X7953870D2*
X8014998D1*
X10017685D2*
X10133591D1*
X10662359D2*
X10740896D1*
X3060979Y3145250D2*
X3499815D1*
X5396682D2*
X5434112D1*
X7953870D2*
X7986013D1*
X8453622D2*
X8573448D1*
X10017685D2*
X10162849D1*
X10379169D2*
X10416873D1*
X10633192D2*
X10740896D1*
X2905666Y3082083D2*
X3499815D1*
X5396682D2*
X5434112D1*
X7953870D2*
X7994946D1*
X8853661D2*
X8948331D1*
X10017685D2*
X10120831D1*
X10675211D2*
X10740896D1*
X2905666Y3018917D2*
X3499815D1*
X5396682D2*
X5422901D1*
X7953870D2*
X8021742D1*
X8916825D2*
X8948331D1*
X10017685D2*
X10112901D1*
X10683049D2*
X10740896D1*
X1790497Y2955750D2*
X1836404D1*
X3048036D2*
X3515857D1*
X6174612D2*
X6366352D1*
X6682567D2*
X6720180D1*
X7953870D2*
X8024386D1*
X10017685D2*
X10132862D1*
X10663179D2*
X10740896D1*
X1730159Y2892583D2*
X1836404D1*
X4026122D2*
X4338904D1*
X5539143D2*
X5603826D1*
X6154833D2*
X6386130D1*
X6662880D2*
X6720180D1*
X8031617D2*
X8071873D1*
X8725419D2*
X8790193D1*
X10017685D2*
X10164308D1*
X10377620D2*
X10418331D1*
X10631643D2*
X10740896D1*
X1730159Y2829417D2*
X1836404D1*
X4027398D2*
X4205011D1*
X4272125D2*
X4338904D1*
X5475979D2*
X5603826D1*
X6122750D2*
X6418214D1*
X6630797D2*
X6720180D1*
X8094781D2*
X8135037D1*
X8762333D2*
X8813344D1*
X9793284D2*
X10121287D1*
X10674664D2*
X10740896D1*
X2625666Y2766250D2*
X2888865D1*
X4027398D2*
X4126078D1*
X5116682D2*
X5398383D1*
X6166044D2*
X6374920D1*
X6674091D2*
X6720271D1*
X9737685D2*
X10112810D1*
X10683232D2*
X10740896D1*
X2625666Y2703083D2*
X2928331D1*
X4027398D2*
X4114685D1*
X5116682D2*
X5381521D1*
X6174703D2*
X6366261D1*
X6682750D2*
X6753904D1*
X7673870D2*
X7978448D1*
X9737685D2*
X10132042D1*
X10663909D2*
X10740896D1*
X4037698Y2639917D2*
X4140662D1*
X5116682D2*
X5401300D1*
X6192112D2*
X6385401D1*
X6663609D2*
X6825089D1*
X7673870D2*
X8041612D1*
X9737685D2*
X10165857D1*
X10376161D2*
X10419880D1*
X10630093D2*
X10740896D1*
X1165100Y2576750D2*
X1212784D1*
X1422268D2*
X1466808D1*
X1676200D2*
X1836404D1*
X3373609D2*
X3488331D1*
X3777112D2*
X3798865D1*
X4044625D2*
X4338904D1*
X5116682D2*
X5418253D1*
X5921135D2*
X5945167D1*
X6252541D2*
X6376469D1*
X6828857D2*
X6884607D1*
X7673870D2*
X8104776D1*
X8388088D2*
X8948331D1*
X9737685D2*
X10121742D1*
X10674208D2*
X10740896D1*
X1720588Y2513583D2*
X1870766D1*
X3350914D2*
X3603084D1*
X3786135D2*
X3830857D1*
X4012633D2*
X5418253D1*
X5820146D2*
X6013800D1*
X6886461D2*
X6908109D1*
X7156890D2*
X8071508D1*
X8220927D2*
X8358709D1*
X9739325D2*
X10112719D1*
X10683323D2*
X10740896D1*
X1729794Y2450417D2*
X1755870D1*
X3287021D2*
X3610831D1*
X4070966D2*
X5374503D1*
X6669169D2*
X6712615D1*
X6895484D2*
X6924255D1*
X7140758D2*
X7497472D1*
X8276435D2*
X8296183D1*
X9801760D2*
X10131313D1*
X10664638D2*
X10740896D1*
X3516617Y2387250D2*
X3594880D1*
X4211604D2*
X4252407D1*
X4293179D2*
X4322993D1*
X10043661D2*
X10167498D1*
X10374521D2*
X10421430D1*
X10628544D2*
X10740896D1*
X1391552Y2324083D2*
X1497433D1*
X1645575D2*
X1723383D1*
X3516617D2*
X3594880D1*
X10043661D2*
X10122289D1*
X10673752D2*
X10740896D1*
X1278166Y2260917D2*
X1749360D1*
X3516617D2*
X3594880D1*
X8110276D2*
X8135401D1*
X8723596D2*
X8773787D1*
X10043661D2*
X10112628D1*
X10683414D2*
X10740896D1*
X1278166Y2197750D2*
X1734503D1*
X3516617D2*
X3594880D1*
X8110276D2*
X8135401D1*
X8723596D2*
X8851443D1*
X10043661D2*
X10130584D1*
X10665367D2*
X10740896D1*
X1278166Y2134583D2*
X1734503D1*
X8110276D2*
X8135401D1*
X10043661D2*
X10169138D1*
X10372880D2*
X10423071D1*
X10626903D2*
X10740896D1*
X1418987Y2071417D2*
X1469998D1*
X1673010D2*
X1734503D1*
X8110276D2*
X8135401D1*
X10043661D2*
X10122836D1*
X10673205D2*
X10740896D1*
X3144651Y2008250D2*
X3198396D1*
X8110276D2*
X8407745D1*
X10043661D2*
X10112537D1*
X10683414D2*
X10740896D1*
X6734156Y1945083D2*
X6793461D1*
X6822157D2*
X6878865D1*
X8882190D2*
X8974399D1*
X10043661D2*
X10129854D1*
X10666096D2*
X10740896D1*
X3691161Y1881917D2*
X3884360D1*
X6733974D2*
X6878865D1*
X7948127D2*
X7991209D1*
X8577580D2*
X8702784D1*
X10043661D2*
X10170779D1*
X10683596D2*
X10740896D1*
X3953388Y1818750D2*
X4190245D1*
X5927698D2*
X6035037D1*
X6700067D2*
X6878865D1*
X8723596D2*
X8765948D1*
X10043661D2*
X10123292D1*
X10683596D2*
X10740896D1*
X1813922Y1755583D2*
X1846521D1*
X3953388D2*
X4190245D1*
X5168271D2*
X5335310D1*
X5789156D2*
X6370818D1*
X6678101D2*
X6878865D1*
X8723596D2*
X8829112D1*
X9819625D2*
X10112537D1*
X10683596D2*
X10740896D1*
X1730159Y1692417D2*
X1846521D1*
X3953388D2*
X4190245D1*
X5168271D2*
X5390727D1*
X5789156D2*
X6370818D1*
X6678101D2*
X6764203D1*
X9819625D2*
X10129216D1*
X10683596D2*
X10740896D1*
X1730159Y1629250D2*
X1846521D1*
X2624299D2*
X2928331D1*
X3953388D2*
X4213214D1*
X5168271D2*
X5456990D1*
X5789156D2*
X6370818D1*
X6678101D2*
X6749438D1*
X7668127D2*
X8135401D1*
X9819625D2*
X10190011D1*
X10683596D2*
X10740896D1*
X1730159Y1566083D2*
X1846521D1*
X3953388D2*
X4279295D1*
X5168271D2*
X5481873D1*
X5789156D2*
X6320050D1*
X9826187D2*
X10740896D1*
X3148205Y1502917D2*
X3289724D1*
X5172828D2*
X6279308D1*
X8394377D2*
X8496795D1*
X8743284D2*
X8974399D1*
X9889351D2*
X10740896D1*
X1999586Y1439750D2*
X2044399D1*
X2219703D2*
X2293956D1*
X8330575D2*
X8526690D1*
X8713297D2*
X9709946D1*
X9952607D2*
X10740896D1*
X1165100Y1376583D2*
X1199568D1*
X1932502D2*
X2044399D1*
X2219703D2*
X2295050D1*
X7827724D2*
X8080349D1*
X8589703D2*
X8650284D1*
X8843726D2*
X8904308D1*
X9097750D2*
X9158331D1*
X9351682D2*
X9412263D1*
X9605705D2*
X9666287D1*
X10113752D2*
X10740896D1*
X1165100Y1313417D2*
X2044399D1*
X2219703D2*
X2340623D1*
X2488674D2*
X4016339D1*
X5083596D2*
X5121938D1*
X7877580D2*
X8080349D1*
X10163609D2*
X10740896D1*
X1165100Y1250250D2*
X2044399D1*
X2219703D2*
X4016339D1*
X5095627D2*
X5286365D1*
X5603583D2*
X5794321D1*
X7889612D2*
X8080349D1*
X10175549D2*
X10740896D1*
X1165100Y1187083D2*
X2044399D1*
X7874117D2*
X8080349D1*
X10160146D2*
X10740896D1*
X3530546Y5376790D2*
X3623150D1*
X3619456Y5388523D1*
X3617459Y5401147D1*
X3601210Y5402210D1*
Y5605192D1*
X3530454Y5605210D1*
X3530540Y5376777D1*
X3506210Y5160374D2*
Y5309671D1*
X3425084Y5309710D1*
X3426940Y5288550D1*
X3425486Y5270077D1*
X3421160Y5252058D1*
X3414069Y5234938D1*
X3404387Y5219138D1*
X3392352Y5205048D1*
X3378262Y5193013D1*
X3365906Y5185260D1*
X3375561Y5172564D1*
X3381352Y5161198D1*
X3385294Y5149067D1*
X3387290Y5136468D1*
X3387540Y5115233D1*
X3413463Y5140814D1*
X3423783Y5148311D1*
X3435148Y5154103D1*
X3447280Y5158044D1*
X3459879Y5160040D1*
X3506270Y5160290D1*
X3639192Y4297290D2*
X3890698D1*
X3890710Y4322634D1*
X3639293Y4322710D1*
X3639526Y4301185D1*
X3639062Y4297264D1*
X3779791Y4567290D2*
X3890698D1*
X3890710Y4576290D1*
X4140723D1*
X4140710Y5010830D1*
X4010670Y5011160D1*
X3967376D1*
X3967290Y4779710D1*
X3672710D1*
Y4857457D1*
X3658392Y4861898D1*
X3647026Y4867689D1*
X3636706Y4875187D1*
X3530511Y4981028D1*
X3530540Y4769710D1*
X3028773Y4769709D1*
X3023719Y4758188D1*
X3014037Y4742388D1*
X3002002Y4728298D1*
X2987912Y4716263D1*
X2972112Y4706581D1*
X2954992Y4699490D1*
X2936973Y4695164D1*
X2918500Y4693710D1*
X2900027Y4695164D1*
X2882008Y4699490D1*
X2864888Y4706581D1*
X2849088Y4716263D1*
X2834998Y4728298D1*
X2822963Y4742388D1*
X2813281Y4758188D1*
X2806190Y4775308D1*
X2801864Y4793327D1*
X2800410Y4811800D1*
X2801864Y4830273D1*
X2806190Y4848292D1*
X2813281Y4865412D1*
X2822963Y4881212D1*
X2834998Y4895302D1*
X2841355Y4901178D1*
X2846070Y4912505D1*
X2852735Y4923381D1*
X2861019Y4933081D1*
X2903234Y4975296D1*
X2890035Y4975574D1*
X2871732Y4978473D1*
X2854109Y4984199D1*
X2837598Y4992612D1*
X2822607Y5003504D1*
X2809504Y5016607D1*
X2798612Y5031598D1*
X2797426Y5033715D1*
X2686085Y5033710D1*
X2686212Y4749337D1*
X2700302Y4737302D1*
X2712337Y4723212D1*
X2722019Y4707412D1*
X2729110Y4690292D1*
X2733436Y4672273D1*
X2734890Y4653800D1*
X2734695Y4648842D1*
X2851355Y4648580D1*
X2863954Y4646584D1*
X2876085Y4642643D1*
X2887451Y4636851D1*
X2897771Y4629354D1*
X2962718Y4564764D1*
X3254062Y4564790D1*
X3290913Y4601313D1*
X3301233Y4608811D1*
X3312598Y4614602D1*
X3324730Y4618544D1*
X3337329Y4620539D1*
X3465800Y4620790D1*
X3478517Y4619789D1*
X3490920Y4616811D1*
X3502705Y4611930D1*
X3513581Y4605265D1*
X3523298Y4596962D1*
X3583614Y4536294D1*
X3591111Y4525974D1*
X3596903Y4514608D1*
X3600849Y4502452D1*
X3601210Y4567290D1*
X3617161D1*
X3602963Y4584388D1*
X3593281Y4600188D1*
X3586190Y4617308D1*
X3581864Y4635327D1*
X3580410Y4653800D1*
X3581864Y4672273D1*
X3586190Y4690292D1*
X3593281Y4707412D1*
X3602963Y4723212D1*
X3614998Y4737302D1*
X3629088Y4749337D1*
X3644888Y4759019D1*
X3662008Y4766110D1*
X3680027Y4770436D1*
X3698500Y4771890D1*
X3716973Y4770436D1*
X3734992Y4766110D1*
X3752112Y4759019D1*
X3767912Y4749337D1*
X3782002Y4737302D1*
X3794037Y4723212D1*
X3803719Y4707412D1*
X3810810Y4690292D1*
X3815136Y4672273D1*
X3816590Y4653800D1*
X3815136Y4635327D1*
X3810810Y4617308D1*
X3803719Y4600188D1*
X3794037Y4584388D1*
X3782002Y4570298D1*
X3779795Y4568257D1*
X3510312Y3217790D2*
X3565182D1*
X3564400Y3231700D1*
X3565854Y3250173D1*
X3570180Y3268192D1*
X3577271Y3285312D1*
X3586953Y3301112D1*
X3598988Y3315202D1*
X3601195Y3317243D1*
X3601211Y3390228D1*
X3511430Y3390210D1*
X3510291Y3368623D1*
Y3217776D1*
X3522236Y2973210D2*
X3506210D1*
Y3150670D1*
X3061711Y3150800D1*
X3056482Y3147061D1*
X3042957Y3133890D1*
X3032637Y3126392D1*
X3021272Y3120601D1*
X3009140Y3116659D1*
X2996541Y3114664D1*
X2964422Y3112291D1*
X2947302Y3105200D1*
X2929283Y3100874D1*
X2910810Y3099420D1*
X2899279Y3100052D1*
X2899290Y3000891D1*
X2920075Y3001026D1*
X2938378Y2998127D1*
X2956001Y2992401D1*
X2964517Y2988466D1*
X2981651Y2988229D1*
X2994250Y2986234D1*
X3006382Y2982292D1*
X3017747Y2976501D1*
X3028067Y2969003D1*
X3052153Y2945271D1*
X3383291Y2945198D1*
X3510291Y2945289D1*
Y2855693D1*
X3522210Y2904000D1*
Y2973180D1*
X3510312Y2138289D2*
X3665807D1*
X3691225Y2163767D1*
X3601211Y2163709D1*
Y2408289D1*
X3617161D1*
X3617210Y2505753D1*
X3587203Y2535801D1*
X3574840Y2536135D1*
X3556538Y2539034D1*
X3538915Y2544760D1*
X3522404Y2553173D1*
X3507412Y2564065D1*
X3494309Y2577168D1*
X3483417Y2592159D1*
X3475005Y2608670D1*
X3474240Y2610743D1*
X3367283Y2610709D1*
X3367040Y2563622D1*
X3365044Y2551023D1*
X3361102Y2538892D1*
X3355311Y2527526D1*
X3347814Y2517206D1*
X3287481Y2456519D1*
X3277781Y2448235D1*
X3266905Y2441570D1*
X3255120Y2436688D1*
X3242717Y2433711D1*
X3236353Y2432959D1*
X3236311Y2427120D1*
X3239289Y2414717D1*
X3240040Y2408353D1*
X3258710Y2405790D1*
X3510290D1*
Y2138277D1*
X3890700Y1893709D2*
X3696211Y1893800D1*
X3699127Y1855789D1*
X3890625D1*
X3890710Y1893660D1*
X5536543Y5669290D2*
X5757790D1*
Y5558339D1*
X5775678Y5558039D1*
X5782041Y5557284D1*
X5783210Y5574290D1*
X5921296D1*
X5921460Y5617348D1*
X5923456Y5629947D1*
X5927397Y5642078D1*
X5933189Y5653444D1*
X5940686Y5663764D1*
X5950239Y5673671D1*
X5929177Y5675585D1*
X5905940Y5681164D1*
X5883862Y5690309D1*
X5863486Y5702795D1*
X5845315Y5718315D1*
X5829795Y5736486D1*
X5826084Y5742040D1*
X5814802Y5727096D1*
X5797904Y5710198D1*
X5778571Y5696151D1*
X5757279Y5685302D1*
X5734551Y5677918D1*
X5710949Y5674179D1*
X5687051D1*
X5663449Y5677918D1*
X5640721Y5685302D1*
X5619429Y5696151D1*
X5600096Y5710198D1*
X5597317Y5712766D1*
X5597290Y5673710D1*
X5292710D1*
Y5978290D1*
X5331629D1*
X5321795Y5990486D1*
X5309309Y6010862D1*
X5300164Y6032940D1*
X5294585Y6056177D1*
X5292710Y6080000D1*
X5294585Y6103823D1*
X5300164Y6127060D1*
X5309309Y6149138D1*
X5321795Y6169514D1*
X5337315Y6187685D1*
X5355486Y6203205D1*
X5375862Y6215691D1*
X5397940Y6224836D1*
X5421177Y6230415D1*
X5445000Y6232290D1*
X5468823Y6230415D1*
X5492060Y6224836D1*
X5514138Y6215691D1*
X5534514Y6203205D1*
X5552685Y6187685D1*
X5568205Y6169514D1*
X5571916Y6163960D1*
X5583198Y6178904D1*
X5600096Y6195802D1*
X5619429Y6209849D1*
X5640721Y6220698D1*
X5663449Y6228082D1*
X5687051Y6231821D1*
X5710949D1*
X5734551Y6228082D1*
X5757279Y6220698D1*
X5778571Y6209849D1*
X5797904Y6195802D1*
X5814802Y6178904D1*
X5825916Y6163960D1*
X5837198Y6178904D1*
X5854096Y6195802D1*
X5873429Y6209849D1*
X5894721Y6220698D1*
X5917449Y6228082D1*
X5941051Y6231821D1*
X5964949D1*
X5988551Y6228082D1*
X6011279Y6220698D1*
X6032571Y6209849D1*
X6051904Y6195802D1*
X6068802Y6178904D1*
X6079916Y6163960D1*
X6091198Y6178904D1*
X6108096Y6195802D1*
X6127429Y6209849D1*
X6148721Y6220698D1*
X6171449Y6228082D1*
X6195051Y6231821D1*
X6218949D1*
X6242551Y6228082D1*
X6265279Y6220698D1*
X6286571Y6209849D1*
X6305904Y6195802D1*
X6322802Y6178904D1*
X6333916Y6163960D1*
X6345198Y6178904D1*
X6362096Y6195802D1*
X6381429Y6209849D1*
X6402721Y6220698D1*
X6425449Y6228082D1*
X6449051Y6231821D1*
X6472949D1*
X6496551Y6228082D1*
X6519279Y6220698D1*
X6540571Y6209849D1*
X6559904Y6195802D1*
X6576802Y6178904D1*
X6587916Y6163960D1*
X6599198Y6178904D1*
X6616096Y6195802D1*
X6635429Y6209849D1*
X6656721Y6220698D1*
X6679449Y6228082D1*
X6703051Y6231821D1*
X6726949D1*
X6750551Y6228082D1*
X6773279Y6220698D1*
X6794571Y6209849D1*
X6813904Y6195802D1*
X6830802Y6178904D1*
X6841916Y6163960D1*
X6853198Y6178904D1*
X6870096Y6195802D1*
X6889429Y6209849D1*
X6910721Y6220698D1*
X6933449Y6228082D1*
X6957051Y6231821D1*
X6980949D1*
X7004551Y6228082D1*
X7027279Y6220698D1*
X7048571Y6209849D1*
X7067904Y6195802D1*
X7084802Y6178904D1*
X7095916Y6163960D1*
X7107198Y6178904D1*
X7124096Y6195802D1*
X7143429Y6209849D1*
X7164721Y6220698D1*
X7187449Y6228082D1*
X7211051Y6231821D1*
X7234949D1*
X7258551Y6228082D1*
X7281279Y6220698D1*
X7302571Y6209849D1*
X7321904Y6195802D1*
X7338802Y6178904D1*
X7352849Y6159571D1*
X7363698Y6138279D1*
X7371082Y6115551D1*
X7374821Y6091949D1*
Y6068051D1*
X7371082Y6044449D1*
X7363698Y6021721D1*
X7352849Y6000429D1*
X7338802Y5981096D1*
X7321904Y5964198D1*
X7306960Y5953084D1*
X7321904Y5941802D1*
X7338802Y5924904D1*
X7352849Y5905571D1*
X7363698Y5884279D1*
X7371082Y5861551D1*
X7374821Y5837949D1*
Y5814051D1*
X7371082Y5790449D1*
X7363698Y5767721D1*
X7352849Y5746429D1*
X7338802Y5727096D1*
X7321904Y5710198D1*
X7302571Y5696151D1*
X7281279Y5685302D1*
X7258551Y5677918D1*
X7234949Y5674179D1*
X7211051D1*
X7187449Y5677918D1*
X7164721Y5685302D1*
X7143429Y5696151D1*
X7124096Y5710198D1*
X7107198Y5727096D1*
X7096084Y5742040D1*
X7084802Y5727096D1*
X7067904Y5710198D1*
X7048571Y5696151D1*
X7027279Y5685302D1*
X7004551Y5677918D1*
X6980949Y5674179D1*
X6957051D1*
X6933449Y5677918D1*
X6910721Y5685302D1*
X6889429Y5696151D1*
X6870096Y5710198D1*
X6853198Y5727096D1*
X6842084Y5742040D1*
X6830802Y5727096D1*
X6813904Y5710198D1*
X6794571Y5696151D1*
X6773279Y5685302D1*
X6750551Y5677918D1*
X6726949Y5674179D1*
X6703051D1*
X6679449Y5677918D1*
X6656721Y5685302D1*
X6635429Y5696151D1*
X6616096Y5710198D1*
X6599198Y5727096D1*
X6588084Y5742040D1*
X6576802Y5727096D1*
X6559904Y5710198D1*
X6540571Y5696151D1*
X6519279Y5685302D1*
X6496551Y5677918D1*
X6484128Y5675503D1*
X6492811Y5663774D1*
X6498602Y5652408D1*
X6502544Y5640277D1*
X6504540Y5627678D1*
X6504790Y5574360D1*
X6662790Y5574290D1*
Y5430188D1*
X6685859Y5407063D1*
X6686060Y5458878D1*
X6688056Y5471477D1*
X6691998Y5483608D1*
X6697789Y5494974D1*
X6705286Y5505294D1*
X6765619Y5565981D1*
X6775319Y5574265D1*
X6786195Y5580930D1*
X6797980Y5585812D1*
X6810383Y5588789D1*
X6823100Y5589790D1*
X6873686D1*
X6873711Y5665789D1*
X7462442D1*
X7555263Y5758314D1*
X7565583Y5765811D1*
X7576948Y5771603D1*
X7589080Y5775544D1*
X7601679Y5777540D1*
X7771390Y5777790D1*
X8297488Y5777540D1*
X8310087Y5775544D1*
X8316253Y5773803D1*
X8341075Y5773526D1*
X8359378Y5770627D1*
X8377001Y5764901D1*
X8393512Y5756488D1*
X8408503Y5745596D1*
X8412360Y5742031D1*
X8423588Y5751337D1*
X8439388Y5761019D1*
X8456508Y5768110D1*
X8474527Y5772436D1*
X8493000Y5773890D1*
X8511473Y5772436D1*
X8529492Y5768110D1*
X8546612Y5761019D1*
X8562412Y5751337D1*
X8576502Y5739302D1*
X8588537Y5725212D1*
X8598219Y5709412D1*
X8605310Y5692292D1*
X8609636Y5674273D1*
X8611090Y5655800D1*
X8610458Y5644269D1*
X8717291Y5644289D1*
Y5404303D1*
X8954681Y5404290D1*
X8954710Y5665790D1*
X9017874D1*
X9006463Y5679188D1*
X8996781Y5694988D1*
X8989690Y5712108D1*
X8985364Y5730127D1*
X8983910Y5748600D1*
X8985364Y5767073D1*
X8989690Y5785092D1*
X8996781Y5802212D1*
X9006463Y5818012D1*
X9018498Y5832102D1*
X9032588Y5844137D1*
X9048388Y5853819D1*
X9065508Y5860910D1*
X9083527Y5865236D1*
X9102000Y5866690D1*
X9120473Y5865236D1*
X9138492Y5860910D1*
X9155612Y5853819D1*
X9171412Y5844137D1*
X9185502Y5832102D1*
X9197537Y5818012D1*
X9207219Y5802212D1*
X9214310Y5785092D1*
X9218636Y5767073D1*
X9220090Y5748600D1*
X9218636Y5730127D1*
X9214310Y5712108D1*
X9207219Y5694988D1*
X9197537Y5679188D1*
X9186166Y5665816D1*
X9731290Y5665699D1*
X10011290Y5665790D1*
Y5351210D1*
X9945209D1*
X9950044Y5348290D1*
X10011290D1*
Y5033710D1*
X9463210Y5033709D1*
X9483377Y5030790D1*
X9731290D1*
Y4716210D1*
X9665209D1*
X9665037Y4712197D1*
X9669518Y4710110D1*
X9687537Y4714436D1*
X9706010Y4715890D1*
X9724483Y4714436D1*
X9742502Y4710110D1*
X9759622Y4703019D1*
X9775422Y4693337D1*
X9789512Y4681302D1*
X9801547Y4667212D1*
X9811229Y4651412D1*
X9818320Y4634292D1*
X9822646Y4616273D1*
X9824100Y4597800D1*
X9823468Y4586269D1*
X10011290Y4586290D1*
Y4271710D1*
X9945209D1*
X9950043Y4268790D1*
X10011290D1*
Y3954210D1*
X9309902D1*
X9328044Y3951289D1*
X9731291D1*
Y3636709D1*
X8954711D1*
Y3712634D1*
X8814435Y3712710D1*
X8805493Y3704204D1*
X8790502Y3693312D1*
X8773991Y3684899D1*
X8756368Y3679173D1*
X8738065Y3676274D1*
X8719535D1*
X8701232Y3679173D1*
X8683609Y3684899D1*
X8672628Y3690215D1*
X8574283Y3690209D1*
X8574290Y3596279D1*
X9686835Y3596056D1*
X9699433Y3594061D1*
X9711565Y3590119D1*
X9722931Y3584328D1*
X9733250Y3576830D1*
X9778550Y3531882D1*
X9786834Y3522182D1*
X9793509Y3511283D1*
X9810044Y3506789D1*
X10011291D1*
Y3192209D1*
X9945210D1*
X9950043Y3189290D1*
X10011290D1*
Y2874710D1*
X9802293D1*
X9801356Y2864353D1*
X9798378Y2851950D1*
X9793497Y2840165D1*
X9786832Y2829289D1*
X9778529Y2819572D1*
X9731306Y2772348D1*
X9731291Y2557209D1*
X8954711D1*
Y2633134D1*
X8814435Y2633210D1*
X8805493Y2624704D1*
X8790502Y2613812D1*
X8773991Y2605399D1*
X8756368Y2599673D1*
X8738065Y2596774D1*
X8719535D1*
X8701232Y2599673D1*
X8683609Y2605399D1*
X8672628Y2610715D1*
X8415746Y2610710D1*
X8364500Y2559897D1*
X8354181Y2552399D1*
X8342815Y2546608D1*
X8330683Y2542666D1*
X8318085Y2540671D1*
X8181150Y2540420D1*
X8168433Y2541421D1*
X8156030Y2544399D1*
X8144245Y2549280D1*
X8133369Y2555945D1*
X8123652Y2564248D1*
X7922650Y2765248D1*
X7667519Y2765210D1*
X7667540Y2557210D1*
X7140788D1*
X7147327Y2537668D1*
X7150226Y2519365D1*
Y2500835D1*
X7147327Y2482532D1*
X7141601Y2464909D1*
X7133188Y2448398D1*
X7122296Y2433407D1*
X7116666Y2427316D1*
X7480687Y2427290D1*
X7517546Y2463814D1*
X7527866Y2471311D1*
X7539232Y2477102D1*
X7551363Y2481044D1*
X7563962Y2483040D1*
X7733673Y2483290D1*
X7973048Y2483040D1*
X7985647Y2481044D1*
X7997778Y2477102D1*
X8009144Y2471311D1*
X8019464Y2463814D1*
X8024168Y2459463D1*
X8033880Y2453792D1*
X8040971Y2470912D1*
X8050653Y2486712D1*
X8062688Y2500802D1*
X8076778Y2512837D1*
X8092578Y2522519D1*
X8109698Y2529610D1*
X8127717Y2533936D1*
X8146190Y2535390D1*
X8164663Y2533936D1*
X8182682Y2529610D1*
X8199802Y2522519D1*
X8215602Y2512837D1*
X8229692Y2500802D1*
X8241727Y2486712D1*
X8251409Y2470912D1*
X8253001Y2467458D1*
X8290603Y2429859D1*
X8296689Y2442074D1*
X8304187Y2452394D1*
X8364519Y2513081D1*
X8374219Y2521365D1*
X8385095Y2528030D1*
X8396880Y2532912D1*
X8409283Y2535890D1*
X8422000Y2536890D1*
X9682378Y2536640D1*
X9694977Y2534644D1*
X9707108Y2530703D1*
X9718474Y2524911D1*
X9728794Y2517414D1*
X9789481Y2457081D1*
X9797765Y2447381D1*
X9804430Y2436505D1*
X9807111Y2430685D1*
X9812711Y2427289D1*
X10037291D1*
Y2112709D1*
X9971210D1*
X9976044Y2109789D1*
X10037291D1*
Y1795209D1*
X9813345D1*
X9813290Y1572695D1*
X9983410Y1402551D1*
X10005051Y1405821D1*
X10028949D1*
X10052551Y1402082D1*
X10075279Y1394698D1*
X10096571Y1383849D1*
X10115904Y1369802D1*
X10132802Y1352904D1*
X10146849Y1333571D1*
X10157698Y1312279D1*
X10165082Y1289551D1*
X10168821Y1265949D1*
Y1242051D1*
X10165082Y1218449D1*
X10157698Y1195721D1*
X10146849Y1174429D1*
X10135665Y1158727D1*
X10747169Y1158750D1*
X10747250Y6556284D1*
X9661279Y6556250D1*
X9661291Y6308709D1*
X9356711D1*
Y6347629D1*
X9344514Y6337795D1*
X9324138Y6325309D1*
X9302060Y6316164D1*
X9278823Y6310585D1*
X9255000Y6308710D1*
X9231177Y6310585D1*
X9207940Y6316164D1*
X9185862Y6325309D1*
X9165486Y6337795D1*
X9147315Y6353315D1*
X9131795Y6371486D1*
X9119309Y6391862D1*
X9110164Y6413940D1*
X9104585Y6437177D1*
X9102710Y6461000D1*
X9104585Y6484823D1*
X9110164Y6508060D1*
X9119309Y6530138D1*
X9131795Y6550514D1*
X9136335Y6556273D1*
X8865758Y6556250D1*
X8876849Y6540571D1*
X8887698Y6519279D1*
X8895082Y6496551D1*
X8898821Y6472949D1*
Y6449051D1*
X8895082Y6425449D1*
X8887698Y6402721D1*
X8876849Y6381429D1*
X8862802Y6362096D1*
X8845904Y6345198D1*
X8826571Y6331151D1*
X8805279Y6320302D1*
X8782551Y6312918D1*
X8758949Y6309179D1*
X8735051D1*
X8711449Y6312918D1*
X8688721Y6320302D1*
X8667429Y6331151D1*
X8648096Y6345198D1*
X8631198Y6362096D1*
X8617151Y6381429D1*
X8606302Y6402721D1*
X8598918Y6425449D1*
X8595179Y6449051D1*
Y6472949D1*
X8598918Y6496551D1*
X8606302Y6519279D1*
X8617151Y6540571D1*
X8628335Y6556273D1*
X1158831Y6556250D1*
X1158750Y4829706D1*
X1168918Y4839880D1*
X1165679Y4861551D1*
Y4885449D1*
X1169418Y4909051D1*
X1176802Y4931779D1*
X1187651Y4953071D1*
X1201698Y4972404D1*
X1218596Y4989302D1*
X1237929Y5003349D1*
X1259221Y5014198D1*
X1281949Y5021582D1*
X1305551Y5025321D1*
X1329449D1*
X1353051Y5021582D1*
X1375779Y5014198D1*
X1397071Y5003349D1*
X1416404Y4989302D1*
X1433302Y4972404D1*
X1444416Y4957460D1*
X1455698Y4972404D1*
X1472596Y4989302D1*
X1491929Y5003349D1*
X1513221Y5014198D1*
X1535949Y5021582D1*
X1559551Y5025321D1*
X1583449D1*
X1607051Y5021582D1*
X1617167Y5018729D1*
X1617210Y5165659D1*
X1165211Y5165709D1*
Y5470289D1*
X1204130D1*
X1194295Y5482486D1*
X1181809Y5502862D1*
X1172664Y5524940D1*
X1167085Y5548177D1*
X1165210Y5572000D1*
X1167085Y5595823D1*
X1172664Y5619060D1*
X1181809Y5641138D1*
X1194295Y5661514D1*
X1209815Y5679685D1*
X1227986Y5695205D1*
X1248362Y5707691D1*
X1270440Y5716836D1*
X1293677Y5722415D1*
X1317500Y5724290D1*
X1341323Y5722415D1*
X1364560Y5716836D1*
X1386638Y5707691D1*
X1407014Y5695205D1*
X1425185Y5679685D1*
X1440705Y5661514D1*
X1444416Y5655960D1*
X1455698Y5670904D1*
X1472596Y5687802D1*
X1491929Y5701849D1*
X1513221Y5712698D1*
X1535949Y5720082D1*
X1559551Y5723821D1*
X1583449D1*
X1607051Y5720082D1*
X1617167Y5717229D1*
X1617210Y5863289D1*
X1595833Y5871710D1*
X1438122Y5871960D1*
X1425523Y5873956D1*
X1413392Y5877898D1*
X1402026Y5883689D1*
X1391706Y5891186D1*
X1351121Y5931418D1*
X1329449Y5928179D1*
X1305551D1*
X1281949Y5931918D1*
X1259221Y5939302D1*
X1237929Y5950151D1*
X1218596Y5964198D1*
X1201698Y5981096D1*
X1187651Y6000429D1*
X1176802Y6021721D1*
X1169418Y6044449D1*
X1165679Y6068051D1*
Y6091949D1*
X1169418Y6115551D1*
X1176802Y6138279D1*
X1187651Y6159571D1*
X1201698Y6178904D1*
X1218596Y6195802D1*
X1237929Y6209849D1*
X1259221Y6220698D1*
X1281949Y6228082D1*
X1305551Y6231821D1*
X1329449D1*
X1353051Y6228082D1*
X1375779Y6220698D1*
X1397071Y6209849D1*
X1416404Y6195802D1*
X1433302Y6178904D1*
X1444416Y6163960D1*
X1455698Y6178904D1*
X1472596Y6195802D1*
X1491929Y6209849D1*
X1513221Y6220698D1*
X1535949Y6228082D1*
X1559551Y6231821D1*
X1583449D1*
X1607051Y6228082D1*
X1629779Y6220698D1*
X1651071Y6209849D1*
X1670404Y6195802D1*
X1687302Y6178904D1*
X1701349Y6159571D1*
X1712198Y6138279D1*
X1719582Y6115551D1*
X1723321Y6091949D1*
Y6068051D1*
X1719582Y6044449D1*
X1712198Y6021721D1*
X1704475Y6006012D1*
X1760314Y5949794D1*
X1767811Y5939474D1*
X1773602Y5928108D1*
X1777544Y5915977D1*
X1779540Y5903378D1*
X1779790Y5733667D1*
Y5210763D1*
X1791300Y5211390D1*
X1809773Y5209936D1*
X1827792Y5205610D1*
X1831224Y5204344D1*
X1831210Y5348290D1*
X1897291D1*
X1892457Y5351210D1*
X1831210D1*
Y5665790D1*
X1901301D1*
X1906070Y5677405D1*
X1912735Y5688281D1*
X1921019Y5697981D1*
X1981706Y5758314D1*
X1992026Y5765811D1*
X2003392Y5771603D1*
X2015523Y5775544D1*
X2028122Y5777540D1*
X2197833Y5777790D1*
X2410878Y5777540D1*
X2423477Y5775544D1*
X2435608Y5771603D1*
X2446974Y5765811D1*
X2457294Y5758314D1*
X2517981Y5697981D1*
X2526265Y5688281D1*
X2532930Y5677405D1*
X2535611Y5671585D1*
X2546544Y5665790D1*
X2548822D1*
X2585706Y5702314D1*
X2596026Y5709811D1*
X2607392Y5715602D1*
X2619523Y5719544D1*
X2632122Y5721540D1*
X2801833Y5721790D1*
X2857995Y5721540D1*
X2870593Y5719544D1*
X2882725Y5715602D1*
X2894091Y5709811D1*
X2904410Y5702314D1*
X2947740Y5658984D1*
X2955250Y5648642D1*
X2978294Y5644290D1*
X3353187D1*
X3355938Y5655620D1*
X3360820Y5667405D1*
X3363953Y5672995D1*
X3321623Y5673710D1*
X3133710D1*
Y5978290D1*
X3172629D1*
X3162795Y5990486D1*
X3150309Y6010862D1*
X3141164Y6032940D1*
X3135585Y6056177D1*
X3133710Y6080000D1*
X3135585Y6103823D1*
X3141164Y6127060D1*
X3150309Y6149138D1*
X3162795Y6169514D1*
X3178315Y6187685D1*
X3196486Y6203205D1*
X3216862Y6215691D1*
X3238940Y6224836D1*
X3262177Y6230415D1*
X3286000Y6232290D1*
X3309823Y6230415D1*
X3333060Y6224836D1*
X3355138Y6215691D1*
X3375514Y6203205D1*
X3393685Y6187685D1*
X3409205Y6169514D1*
X3412916Y6163960D1*
X3424198Y6178904D1*
X3441096Y6195802D1*
X3460429Y6209849D1*
X3481721Y6220698D1*
X3504449Y6228082D1*
X3528051Y6231821D1*
X3551949D1*
X3575551Y6228082D1*
X3598279Y6220698D1*
X3619571Y6209849D1*
X3638904Y6195802D1*
X3655802Y6178904D1*
X3666916Y6163960D1*
X3678198Y6178904D1*
X3695096Y6195802D1*
X3714429Y6209849D1*
X3735721Y6220698D1*
X3758449Y6228082D1*
X3782051Y6231821D1*
X3805949D1*
X3829551Y6228082D1*
X3852279Y6220698D1*
X3873571Y6209849D1*
X3892904Y6195802D1*
X3909802Y6178904D1*
X3920916Y6163960D1*
X3932198Y6178904D1*
X3949096Y6195802D1*
X3968429Y6209849D1*
X3989721Y6220698D1*
X4012449Y6228082D1*
X4036051Y6231821D1*
X4059949D1*
X4083551Y6228082D1*
X4106279Y6220698D1*
X4127571Y6209849D1*
X4146904Y6195802D1*
X4163802Y6178904D1*
X4174916Y6163960D1*
X4186198Y6178904D1*
X4203096Y6195802D1*
X4222429Y6209849D1*
X4243721Y6220698D1*
X4266449Y6228082D1*
X4290051Y6231821D1*
X4313949D1*
X4337551Y6228082D1*
X4360279Y6220698D1*
X4381571Y6209849D1*
X4400904Y6195802D1*
X4417802Y6178904D1*
X4428916Y6163960D1*
X4440198Y6178904D1*
X4457096Y6195802D1*
X4476429Y6209849D1*
X4497721Y6220698D1*
X4520449Y6228082D1*
X4544051Y6231821D1*
X4567949D1*
X4591551Y6228082D1*
X4614279Y6220698D1*
X4635571Y6209849D1*
X4654904Y6195802D1*
X4671802Y6178904D1*
X4682916Y6163960D1*
X4694198Y6178904D1*
X4711096Y6195802D1*
X4730429Y6209849D1*
X4751721Y6220698D1*
X4774449Y6228082D1*
X4798051Y6231821D1*
X4821949D1*
X4845551Y6228082D1*
X4868279Y6220698D1*
X4889571Y6209849D1*
X4908904Y6195802D1*
X4925802Y6178904D1*
X4936916Y6163960D1*
X4948198Y6178904D1*
X4965096Y6195802D1*
X4984429Y6209849D1*
X5005721Y6220698D1*
X5028449Y6228082D1*
X5052051Y6231821D1*
X5075949D1*
X5099551Y6228082D1*
X5122279Y6220698D1*
X5143571Y6209849D1*
X5162904Y6195802D1*
X5179802Y6178904D1*
X5193849Y6159571D1*
X5204698Y6138279D1*
X5212082Y6115551D1*
X5215821Y6091949D1*
Y6068051D1*
X5212082Y6044449D1*
X5204698Y6021721D1*
X5193849Y6000429D1*
X5179802Y5981096D1*
X5162904Y5964198D1*
X5147960Y5953084D1*
X5162904Y5941802D1*
X5179802Y5924904D1*
X5193849Y5905571D1*
X5204698Y5884279D1*
X5212082Y5861551D1*
X5215821Y5837949D1*
Y5814051D1*
X5212082Y5790449D1*
X5204698Y5767721D1*
X5193849Y5746429D1*
X5179802Y5727096D1*
X5162904Y5710198D1*
X5143571Y5696151D1*
X5122279Y5685302D1*
X5099551Y5677918D1*
X5075949Y5674179D1*
X5052051D1*
X5028449Y5677918D1*
X5005721Y5685302D1*
X4984429Y5696151D1*
X4965096Y5710198D1*
X4948198Y5727096D1*
X4937084Y5742040D1*
X4925802Y5727096D1*
X4908904Y5710198D1*
X4889571Y5696151D1*
X4868279Y5685302D1*
X4845551Y5677918D1*
X4821949Y5674179D1*
X4818635Y5674049D1*
X4835211Y5665789D1*
X5390291D1*
X5390389Y5492751D1*
X5398802Y5509262D1*
X5409694Y5524253D1*
X5418568Y5533447D1*
X5420446Y5544607D1*
X5424388Y5556738D1*
X5430179Y5568104D1*
X5437676Y5578424D1*
X5488379Y5629481D1*
X5498079Y5637765D1*
X5508978Y5644441D1*
X5513210Y5661377D1*
Y5669290D1*
X5536543D1*
X5813744Y2462789D2*
X6027791D1*
Y2446292D1*
X6043420Y2442812D1*
X6055227Y2437918D1*
X6053198Y2449008D1*
X6041163Y2463098D1*
X6031481Y2478898D1*
X6024390Y2496018D1*
X6020064Y2514037D1*
X6018610Y2532510D1*
X6020064Y2550983D1*
X6022512Y2562343D1*
X6004551Y2562679D1*
X5980949Y2566418D1*
X5958221Y2573802D1*
X5936929Y2584651D1*
X5917596Y2598698D1*
X5914817Y2601266D1*
X5914791Y2562209D1*
X5804595D1*
X5809812Y2549603D1*
X5812789Y2537200D1*
X5813790Y2524483D1*
Y2462778D1*
X6252026Y2557789D2*
X6363770D1*
X6400716Y2594323D1*
X6411036Y2601821D1*
X6416628Y2604950D1*
X6416815Y2606815D1*
X6401295Y2624986D1*
X6388809Y2645362D1*
X6379664Y2667440D1*
X6374085Y2690677D1*
X6372210Y2714500D1*
X6374085Y2738323D1*
X6379664Y2761560D1*
X6388809Y2783638D1*
X6401295Y2804014D1*
X6416815Y2822185D1*
X6434986Y2837705D1*
X6440540Y2841416D1*
X6425596Y2852698D1*
X6408698Y2869596D1*
X6394651Y2888929D1*
X6383802Y2910221D1*
X6376418Y2932949D1*
X6372679Y2956551D1*
Y2980449D1*
X6376418Y3004051D1*
X6379271Y3014167D1*
X6240398Y3014210D1*
X6224082Y2999963D1*
X6208282Y2990281D1*
X6191162Y2983190D1*
X6173143Y2978864D1*
X6168503Y2978315D1*
X6168321Y2956551D1*
X6164582Y2932949D1*
X6157198Y2910221D1*
X6146349Y2888929D1*
X6132302Y2869596D1*
X6115404Y2852698D1*
X6100460Y2841584D1*
X6115404Y2830302D1*
X6132302Y2813404D1*
X6146349Y2794071D1*
X6157198Y2772779D1*
X6164582Y2750051D1*
X6168321Y2726449D1*
Y2702551D1*
X6164582Y2678949D1*
X6157198Y2656221D1*
X6154010Y2649307D1*
X6173192Y2644820D1*
X6190312Y2637729D1*
X6206112Y2628047D1*
X6220202Y2616012D1*
X6232237Y2601922D1*
X6241919Y2586122D1*
X6249010Y2569002D1*
X6251986Y2557768D1*
X6662791Y2451214D2*
Y2420771D1*
X6708314Y2374864D1*
X6715811Y2364544D1*
X6721602Y2353178D1*
X6725549Y2341022D1*
X6726510Y2342900D1*
Y2442887D1*
X6705133Y2451220D1*
X6662751D1*
X5800711Y1199509D2*
Y1299769D1*
X5590305Y1299720D1*
X5595415Y1277823D1*
X5597290Y1254000D1*
X5595415Y1230177D1*
X5589836Y1206940D1*
X5587104Y1199534D1*
X5800721Y1199490D1*
X7882821Y1242051D2*
X7879082Y1218449D1*
X7871698Y1195721D1*
X7860849Y1174429D1*
X7849665Y1158727D1*
X8086622Y1158750D1*
X8086710Y1406290D1*
X8391290D1*
Y1367371D1*
X8403486Y1377205D1*
X8423862Y1389691D1*
X8445940Y1398836D1*
X8469177Y1404415D1*
X8493000Y1406290D1*
X8516823Y1404415D1*
X8540060Y1398836D1*
X8562138Y1389691D1*
X8582514Y1377205D1*
X8600685Y1361685D1*
X8616205Y1343514D1*
X8619916Y1337960D1*
X8631198Y1352904D1*
X8648096Y1369802D1*
X8667429Y1383849D1*
X8688721Y1394698D1*
X8711449Y1402082D1*
X8735051Y1405821D1*
X8758949D1*
X8782551Y1402082D1*
X8805279Y1394698D1*
X8826571Y1383849D1*
X8845904Y1369802D1*
X8862802Y1352904D1*
X8873916Y1337960D1*
X8885198Y1352904D1*
X8902096Y1369802D1*
X8921429Y1383849D1*
X8942721Y1394698D1*
X8965449Y1402082D1*
X8989051Y1405821D1*
X9012949D1*
X9036551Y1402082D1*
X9059279Y1394698D1*
X9080571Y1383849D1*
X9099904Y1369802D1*
X9116802Y1352904D1*
X9127916Y1337960D1*
X9139198Y1352904D1*
X9156096Y1369802D1*
X9175429Y1383849D1*
X9196721Y1394698D1*
X9219449Y1402082D1*
X9243051Y1405821D1*
X9266949D1*
X9290551Y1402082D1*
X9313279Y1394698D1*
X9334571Y1383849D1*
X9353904Y1369802D1*
X9370802Y1352904D1*
X9381916Y1337960D1*
X9393198Y1352904D1*
X9410096Y1369802D1*
X9429429Y1383849D1*
X9450721Y1394698D1*
X9473449Y1402082D1*
X9497051Y1405821D1*
X9520949D1*
X9544551Y1402082D1*
X9567279Y1394698D1*
X9588571Y1383849D1*
X9607904Y1369802D1*
X9624802Y1352904D1*
X9635916Y1337960D1*
X9647198Y1352904D1*
X9664096Y1369802D1*
X9683429Y1383849D1*
X9704721Y1394698D1*
X9727449Y1402082D1*
X9750263Y1405727D1*
X9678346Y1477692D1*
X8980710Y1477710D1*
Y1553634D1*
X8925383Y1553710D1*
X8916493Y1545204D1*
X8901502Y1534312D1*
X8884991Y1525899D1*
X8867368Y1520173D1*
X8849065Y1517274D1*
X8830535D1*
X8812232Y1520173D1*
X8794609Y1525899D1*
X8778098Y1534312D1*
X8763107Y1545204D1*
X8750004Y1558307D1*
X8739112Y1573298D1*
X8730699Y1589809D1*
X8724973Y1607432D1*
X8722074Y1625735D1*
Y1644265D1*
X8724973Y1662568D1*
X8730699Y1680191D1*
X8739112Y1696702D1*
X8750004Y1711693D1*
X8763107Y1724796D1*
X8778098Y1735688D1*
X8794609Y1744101D1*
X8812232Y1749827D1*
X8830535Y1752726D1*
X8838027Y1753020D1*
X8700489Y1890539D1*
X8568210Y1890510D1*
X8572044Y1878777D1*
X8574041Y1866153D1*
X8592711Y1865789D1*
X8717291D1*
Y1586610D1*
X8725219Y1573302D1*
X8732310Y1556182D1*
X8736636Y1538163D1*
X8738090Y1519690D1*
X8736636Y1501217D1*
X8732310Y1483198D1*
X8725219Y1466078D1*
X8715537Y1450278D1*
X8703502Y1436188D1*
X8689412Y1424153D1*
X8673612Y1414471D1*
X8656492Y1407380D1*
X8638473Y1403054D1*
X8620000Y1401600D1*
X8601527Y1403054D1*
X8583508Y1407380D1*
X8566388Y1414471D1*
X8550588Y1424153D1*
X8536498Y1436188D1*
X8524463Y1450278D1*
X8514781Y1466078D1*
X8507690Y1483198D1*
X8503364Y1501217D1*
X8501910Y1519690D1*
X8502542Y1531221D1*
X8416293Y1531209D1*
X8325980Y1441186D1*
X8315661Y1433689D1*
X8304295Y1427898D1*
X8292164Y1423956D1*
X8279565Y1421960D1*
X8109853Y1421710D1*
X7678278D1*
X7697369Y1402592D1*
X7719051Y1405821D1*
X7742949D1*
X7766551Y1402082D1*
X7789279Y1394698D1*
X7810571Y1383849D1*
X7829904Y1369802D1*
X7846802Y1352904D1*
X7860849Y1333571D1*
X7871698Y1312279D1*
X7879082Y1289551D1*
X7882821Y1265949D1*
Y1242051D1*
X4205290Y5605204D2*
Y5562548D1*
X4226065Y5562726D1*
X4244368Y5559827D1*
X4261991Y5554101D1*
X4278502Y5545688D1*
X4293493Y5534796D1*
X4302343Y5526295D1*
X4345224Y5526290D1*
X4345211Y5605233D1*
X4205298Y5605210D1*
X4716994Y5348290D2*
X5161791Y5348289D1*
X5156957Y5351209D1*
X4716991D1*
X3947040Y3908240D2*
Y3700210D1*
X3652460D1*
Y3776681D1*
X3636370Y3780189D1*
X3624585Y3785070D1*
X3613709Y3791735D1*
X3603992Y3800038D1*
X3547487Y3856542D1*
X3510294Y3819342D1*
X3510290Y3690210D1*
X3240283D1*
X3240040Y3655642D1*
X3238044Y3643043D1*
X3234102Y3630912D1*
X3228311Y3619546D1*
X3220814Y3609226D1*
X3216463Y3604522D1*
X3220702Y3597488D1*
X3235693Y3586596D1*
X3248796Y3573493D1*
X3255040Y3565459D1*
X3289206Y3599314D1*
X3299526Y3606811D1*
X3310892Y3612602D1*
X3323023Y3616544D1*
X3335622Y3618540D1*
X3505333Y3618790D1*
X4806878Y3618540D1*
X4819477Y3616544D1*
X4831608Y3612602D1*
X4842974Y3606811D1*
X4853294Y3599314D1*
X4864438Y3588523D1*
X5064815Y3588263D1*
X5077413Y3586267D1*
X5089545Y3582326D1*
X5100911Y3576535D1*
X5111230Y3569037D1*
X5168036Y3512589D1*
X5172384Y3507883D1*
X5189044Y3506790D1*
X5390290D1*
Y3192210D1*
X5324210D1*
X5329044Y3189290D1*
X5390290D1*
Y2979928D1*
X5440454Y3030155D1*
X5440470Y3263831D1*
X5431964Y3272807D1*
X5421072Y3287798D1*
X5412659Y3304309D1*
X5406933Y3321932D1*
X5404034Y3340235D1*
Y3358765D1*
X5406933Y3377068D1*
X5412659Y3394691D1*
X5421072Y3411202D1*
X5431964Y3426193D1*
X5445067Y3439296D1*
X5460058Y3450188D1*
X5476569Y3458601D1*
X5494192Y3464327D1*
X5512495Y3467226D1*
X5531025D1*
X5549328Y3464327D1*
X5566951Y3458601D1*
X5583462Y3450188D1*
X5598453Y3439296D1*
X5610204Y3427656D1*
X5610210Y3811999D1*
X5597983Y3809364D1*
X5579510Y3807910D1*
X5561037Y3809364D1*
X5543018Y3813690D1*
X5525898Y3820781D1*
X5510098Y3830463D1*
X5496008Y3842498D1*
X5483973Y3856588D1*
X5474291Y3872388D1*
X5470728Y3880118D1*
X5121867Y3880110D1*
X5121790Y3636710D1*
X4356710D1*
Y3712634D1*
X4324169Y3712710D1*
X4315243Y3704204D1*
X4300252Y3693312D1*
X4283741Y3684899D1*
X4266118Y3679173D1*
X4247815Y3676274D1*
X4229285D1*
X4210982Y3679173D1*
X4193359Y3684899D1*
X4176848Y3693312D1*
X4161857Y3704204D1*
X4148754Y3717307D1*
X4137862Y3732298D1*
X4129449Y3748809D1*
X4123723Y3766432D1*
X4120824Y3784735D1*
Y3803265D1*
X4123723Y3821568D1*
X4129449Y3839191D1*
X4137862Y3855702D1*
X4148754Y3870693D1*
X4161857Y3883796D1*
X4176848Y3894688D1*
X4193359Y3903101D1*
X4210982Y3908827D1*
X4229285Y3911726D1*
X4247815D1*
X4266118Y3908827D1*
X4283741Y3903101D1*
X4288379Y3900963D1*
X4252986Y3936716D1*
X4245476Y3947058D1*
X4229983Y3938532D1*
X4218794Y3927696D1*
X4208474Y3920199D1*
X4197108Y3914408D1*
X4184977Y3910466D1*
X4172378Y3908470D1*
X4002667Y3908220D1*
X3946977D1*
X1860294Y4268790D2*
X1971583D1*
X1968207Y4271710D1*
X1836960D1*
Y4347634D1*
X1788195Y4347710D1*
X1779790Y4326333D1*
X1779540Y4288122D1*
X1777544Y4275523D1*
X1773602Y4263392D1*
X1767811Y4252026D1*
X1760314Y4241706D1*
X1723820Y4204859D1*
X1723790Y3959210D1*
X1271730D1*
X1271790Y3883622D1*
X1293167Y3875290D1*
X1837034D1*
X1836960Y3951290D1*
X2030645D1*
X2014874Y3954210D1*
X1836960D1*
Y4268790D1*
X1860294D1*
X4702427D2*
X5173291Y4268789D1*
X5168457Y4271709D1*
X4701330Y4271710D1*
X3806220Y2620709D2*
X3732210D1*
X3760314Y2592261D1*
X3767811Y2581941D1*
X3773603Y2570575D1*
X3777544Y2558444D1*
X3779540Y2545845D1*
X3779790Y2442761D1*
X3791226Y2453814D1*
X3801546Y2461311D1*
X3812912Y2467103D1*
X3825043Y2471044D1*
X3837642Y2473040D1*
X4008113Y2473290D1*
X4020830Y2472290D1*
X4033233Y2469312D1*
X4045018Y2464430D1*
X4055895Y2457765D1*
X4065611Y2449463D1*
X4097755Y2417320D1*
X4205290Y2417290D1*
Y2366886D1*
X4219188Y2375219D1*
X4236308Y2382310D1*
X4254327Y2386636D1*
X4272800Y2388090D1*
X4291273Y2386636D1*
X4309292Y2382310D1*
X4326412Y2375219D1*
X4329351Y2373573D1*
X4329334Y2427290D1*
X5357756D1*
X5424561Y2494123D1*
X5424610Y2619732D1*
X5416104Y2628717D1*
X5405212Y2643708D1*
X5396799Y2660219D1*
X5391073Y2677842D1*
X5388174Y2696145D1*
Y2714675D1*
X5391073Y2732978D1*
X5396799Y2750601D1*
X5405212Y2767112D1*
X5416104Y2782103D1*
X5427957Y2794051D1*
X5417550Y2789858D1*
X5405147Y2786881D1*
X5392405Y2785881D1*
X5110334Y2785880D1*
X5110290Y2557210D1*
X4345210D1*
Y2633134D1*
X4324154Y2633210D1*
X4315243Y2624704D1*
X4300252Y2613812D1*
X4283741Y2605399D1*
X4266118Y2599673D1*
X4247815Y2596774D1*
X4229285D1*
X4210982Y2599673D1*
X4193359Y2605399D1*
X4176848Y2613812D1*
X4161857Y2624704D1*
X4148754Y2637807D1*
X4137862Y2652798D1*
X4129449Y2669309D1*
X4123723Y2686932D1*
X4120824Y2705235D1*
Y2723765D1*
X4123723Y2742068D1*
X4129449Y2759691D1*
X4137862Y2776202D1*
X4148754Y2791193D1*
X4161857Y2804296D1*
X4176848Y2815188D1*
X4193359Y2823601D1*
X4210982Y2829327D1*
X4229285Y2832226D1*
X4247815D1*
X4266118Y2829327D1*
X4283741Y2823601D1*
X4300252Y2815188D1*
X4315243Y2804296D1*
X4324093Y2795795D1*
X4345282Y2795790D1*
X4345210Y2871790D1*
X4533244D1*
X4533210Y2874659D1*
X4345211Y2874709D1*
Y2896493D1*
X4333700Y2895860D1*
X4315227Y2897314D1*
X4297208Y2901640D1*
X4280088Y2908731D1*
X4264288Y2918413D1*
X4250198Y2930448D1*
X4238163Y2944538D1*
X4228481Y2960338D1*
X4221390Y2977458D1*
X4218640Y2987555D1*
X4205269Y2988142D1*
X4205291Y2922209D1*
X4007960D1*
X4014849Y2909188D1*
X4018791Y2897057D1*
X4020786Y2884458D1*
X4021037Y2714747D1*
Y2659968D1*
X4030851Y2641211D1*
X4036577Y2623588D1*
X4039476Y2605285D1*
Y2586755D1*
X4036577Y2568452D1*
X4030851Y2550829D1*
X4022438Y2534318D1*
X4011546Y2519327D1*
X3998443Y2506224D1*
X3983452Y2495332D1*
X3966941Y2486919D1*
X3949318Y2481193D1*
X3931015Y2478294D1*
X3912485D1*
X3894182Y2481193D1*
X3876559Y2486919D1*
X3860048Y2495332D1*
X3845057Y2506224D1*
X3831954Y2519327D1*
X3821062Y2534318D1*
X3812649Y2550829D1*
X3806923Y2568452D1*
X3804024Y2586755D1*
Y2605285D1*
X3806350Y2620710D1*
X4205291Y3328808D2*
Y3223079D1*
X4219876Y3223569D1*
X4232726Y3233311D1*
X4244092Y3239102D1*
X4256223Y3243044D1*
X4268822Y3245040D1*
X4345291Y3245290D1*
X4345210Y3286546D1*
X4333700Y3285910D1*
X4315227Y3287364D1*
X4297208Y3291690D1*
X4280088Y3298781D1*
X4264288Y3308463D1*
X4250198Y3320498D1*
X4248157Y3322705D1*
X4229622Y3322960D1*
X4217023Y3324956D1*
X4210856Y3326697D1*
X2066653Y2874709D2*
X1842711D1*
Y3003681D1*
X1808794Y2970186D1*
X1798474Y2962689D1*
X1787108Y2956898D1*
X1774977Y2952956D1*
X1762378Y2950960D1*
X1723826Y2950710D1*
X1723790Y2795792D1*
X1842658Y2795790D1*
X1842711Y2871789D1*
X2066656D1*
X2066710Y2874701D1*
X2290875Y3189289D2*
X2670791Y3189290D1*
X2665957Y3192210D1*
X2293787D1*
X4919791Y2874753D2*
X4695790Y2874667D1*
Y2871841D1*
X4949786Y2871790D1*
X4919705Y2874709D1*
X3947041Y1842755D2*
Y1555099D1*
X4313844Y1555100D1*
X4297692Y1559898D1*
X4286326Y1565689D1*
X4276006Y1573187D1*
X4220396Y1628443D1*
X4212111Y1638142D1*
X4205447Y1649019D1*
X4200565Y1660804D1*
X4197587Y1673207D1*
X4196587Y1685948D1*
X4196586Y1842785D1*
X3947074Y1842710D1*
X2050708Y1795210D2*
X1852833D1*
Y1797306D1*
X1818914Y1763686D1*
X1808594Y1756189D1*
X1797228Y1750398D1*
X1785097Y1746456D1*
X1772498Y1744460D1*
X1723737Y1744210D1*
X1723790Y1546210D1*
X1271730D1*
X1271790Y1536612D1*
X1293167Y1528290D1*
X1851799D1*
X1852834Y1571043D1*
Y1792289D1*
X2050712D1*
X2050776Y1795266D1*
X2315216Y2109790D2*
X2669417D1*
X2664584Y2112709D1*
X2323337Y2112800D1*
X2427413Y1795254D2*
X2213312Y1795210D1*
X2226167Y1792289D1*
X2427414Y1792198D1*
X2431250Y1795210D1*
X2427331D1*
X4609421D2*
X4359135D1*
X4376000Y1792290D1*
X4999371D1*
X4989250Y1795210D1*
X4609334Y1795301D1*
X4770206Y2109790D2*
X5157418D1*
X5152584Y2112710D1*
X4773119D1*
X5580723Y4967290D2*
X5782790D1*
Y4652710D1*
X5488210D1*
Y4794442D1*
X5437676Y4845366D1*
X5430179Y4855686D1*
X5424388Y4867052D1*
X5420446Y4879183D1*
X5419198Y4885468D1*
X5411065Y4887774D1*
X5392535D1*
X5374232Y4890673D1*
X5356609Y4896399D1*
X5340098Y4904812D1*
X5325107Y4915704D1*
X5316257Y4924205D1*
X5110224Y4924210D1*
X5110291Y4716209D1*
X4345210Y4716210D1*
Y4759321D1*
X4324065Y4755774D1*
X4305535D1*
X4303269Y4756042D1*
X4303290Y4678503D1*
X4324065Y4678726D1*
X4342368Y4675827D1*
X4359991Y4670101D1*
X4376502Y4661688D1*
X4391493Y4650796D1*
X4400343Y4642295D1*
X4467078Y4642040D1*
X4479677Y4640044D1*
X4491808Y4636103D1*
X4503174Y4630311D1*
X4513494Y4622814D1*
X4550341Y4586320D1*
X5121791Y4586198D1*
X5401791Y4586289D1*
Y4271709D1*
X5335710D1*
X5340544Y4268789D1*
X5401791D1*
Y4042657D1*
X5561373Y4042690D1*
X5579510Y4044090D1*
X5597983Y4042636D1*
X5610180Y4039952D1*
X5610210Y4644790D1*
X5914790D1*
Y4605870D1*
X5926986Y4615705D1*
X5947362Y4628191D1*
X5969440Y4637336D1*
X5992677Y4642915D1*
X6016500Y4644790D1*
X6040323Y4642915D1*
X6063560Y4637336D1*
X6085638Y4628191D1*
X6106014Y4615705D1*
X6124185Y4600185D1*
X6139705Y4582014D1*
X6152191Y4561638D1*
X6161336Y4539560D1*
X6166915Y4516323D1*
X6168790Y4492500D1*
X6166915Y4468677D1*
X6161336Y4445440D1*
X6152191Y4423362D1*
X6139705Y4402986D1*
X6124185Y4384815D1*
X6106014Y4369295D1*
X6100460Y4365584D1*
X6115404Y4354302D1*
X6132302Y4337404D1*
X6146349Y4318071D1*
X6157198Y4296779D1*
X6164582Y4274051D1*
X6168321Y4250449D1*
Y4226551D1*
X6164582Y4202949D1*
X6161729Y4192833D1*
X6379227Y4192790D1*
X6374085Y4214677D1*
X6372210Y4238500D1*
X6374085Y4262323D1*
X6379664Y4285560D1*
X6388809Y4307638D1*
X6401295Y4328014D1*
X6416815Y4346185D1*
X6434986Y4361705D1*
X6440540Y4365416D1*
X6425596Y4376698D1*
X6408698Y4393596D1*
X6394651Y4412929D1*
X6383802Y4434221D1*
X6376418Y4456949D1*
X6372679Y4480551D1*
Y4504449D1*
X6376418Y4528051D1*
X6383802Y4550779D1*
X6394651Y4572071D1*
X6408698Y4591404D1*
X6425596Y4608302D1*
X6444929Y4622349D1*
X6466221Y4633198D1*
X6488949Y4640582D1*
X6512551Y4644321D1*
X6536449D1*
X6557990Y4640992D1*
X6569688Y4652649D1*
X6377211Y4652709D1*
Y4766004D1*
X6305686Y4837876D1*
X6298189Y4848196D1*
X6292397Y4859562D1*
X6288456Y4871693D1*
X6286460Y4884292D1*
X6286210Y4970240D1*
X6097211Y4970209D1*
Y5147853D1*
X6092313Y5162207D1*
X6090317Y5174805D1*
X6090066Y5344983D1*
X6091067Y5357700D1*
X6094045Y5370103D1*
X6098927Y5381888D1*
X6105591Y5392765D1*
X6118065Y5406653D1*
X6105866Y5415187D1*
X6101162Y5419538D1*
X6095300Y5422270D1*
X6076827Y5423724D1*
X6065885Y5426054D1*
X6055294Y5415186D1*
X6044952Y5407676D1*
X6045398Y5402071D1*
X6052063Y5391195D1*
X6056945Y5379410D1*
X6059923Y5367007D1*
X6060923Y5354265D1*
Y5284746D1*
X6062790Y5284790D1*
Y4970210D1*
X5580720D1*
X2181848Y5348290D2*
X2659291D1*
X2654457Y5351210D1*
X2181845D1*
X2313277Y5033710D2*
X2176923D1*
X2181210Y5030790D1*
X2523484D1*
X2514457Y5033710D1*
X2313210Y5033801D1*
X6897044Y5348290D2*
X6999765D1*
X6981624Y5351209D1*
X6873711D1*
Y5427134D1*
X6856846Y5427210D1*
X6848390Y5405833D1*
Y5120456D1*
X6856896Y5111493D1*
X6868195Y5095775D1*
X6873710Y5103710D1*
Y5348290D1*
X6897044D1*
X7328255D2*
X7543745Y5348289D1*
X7543710Y5351241D1*
X7331168Y5351209D1*
X7355777Y5033710D2*
X7215595D1*
X7223710Y5030790D1*
X7484500Y5030789D1*
X7486957Y5033709D1*
X7355711Y5033800D1*
X8954711Y5124217D2*
Y5241795D1*
X8864018Y5241710D1*
X8935564Y5169744D1*
X8943061Y5159424D1*
X8948852Y5148058D1*
X8952794Y5135927D1*
X8954042Y5129642D1*
X6885211Y4060759D2*
Y4127295D1*
X6863800Y4125410D1*
X6845327Y4126864D1*
X6827308Y4131190D1*
X6810188Y4138281D1*
X6794388Y4147963D1*
X6780298Y4159998D1*
X6768263Y4174088D1*
X6758581Y4189888D1*
X6751490Y4207008D1*
X6747164Y4225027D1*
X6745710Y4243500D1*
X6747164Y4261973D1*
X6751490Y4279992D1*
X6758581Y4297112D1*
X6768263Y4312912D1*
X6780298Y4327002D1*
X6794388Y4339037D1*
X6808387Y4347710D1*
X6741107D1*
X6732790Y4326333D1*
X6732539Y4161122D1*
X6730544Y4148523D1*
X6726602Y4136392D1*
X6720811Y4125026D1*
X6713313Y4114706D1*
X6659805Y4060844D1*
X6885164Y4060790D1*
X7337932Y4268789D2*
X7504567D1*
X7507483Y4271748D1*
X7340845Y4271710D1*
X8978044Y4268789D2*
X9070193D1*
X9062624Y4271709D1*
X8954711D1*
Y4347634D1*
X8814435Y4347710D1*
X8805493Y4339204D1*
X8790502Y4328312D1*
X8773991Y4319899D1*
X8756368Y4314173D1*
X8738065Y4311274D1*
X8719535D1*
X8717269Y4311542D1*
X8717290Y4230210D1*
X8701339D1*
X8701290Y4201081D1*
X8722667Y4192790D1*
X8954633D1*
X8954711Y4268789D1*
X8978044D1*
X9417275Y4268790D2*
X9624720Y4268973D1*
Y4271799D1*
X9420188Y4271710D1*
X5782790Y1776767D2*
Y1541210D1*
X5488210D1*
Y1619140D1*
X5474802Y1623398D1*
X5463436Y1629189D1*
X5453116Y1636686D1*
X5358629Y1730819D1*
X5350345Y1740519D1*
X5343680Y1751395D1*
X5338798Y1763180D1*
X5335821Y1775583D1*
X5334821Y1788325D1*
X5315917Y1795210D1*
X5161972D1*
X5161920Y1507485D1*
X5207137Y1462265D1*
X6282584Y1462300D1*
X6282374Y1483075D1*
X6285273Y1501378D1*
X6290999Y1519001D1*
X6299412Y1535512D1*
X6310304Y1550503D1*
X6323407Y1563606D1*
X6338398Y1574498D1*
X6354909Y1582911D1*
X6372532Y1588637D1*
X6377186Y1589563D1*
X6377210Y1756952D1*
X6130589Y1757134D1*
X6117990Y1759129D1*
X6105858Y1763071D1*
X6094493Y1768862D1*
X6084173Y1776360D1*
X6016819Y1843359D1*
X6008535Y1853059D1*
X6004977Y1858388D1*
X5961345Y1858710D1*
X5898567Y1796290D1*
X5888247Y1788792D1*
X5876882Y1783001D1*
X5864750Y1779059D1*
X5852151Y1777064D1*
X5782792Y1776813D1*
X7171048Y2874710D2*
X6890960D1*
Y2977431D1*
X6889090Y2967967D1*
Y2804178D1*
X6890960Y2813876D1*
Y2871790D1*
X7519614D1*
X7504207Y2874709D1*
X7170960Y2874801D1*
X7329281Y3189290D2*
X7560994Y3189289D1*
X7550874Y3192210D1*
X7332194D1*
X8954710Y3010973D2*
Y3082796D1*
X8846701Y3082710D1*
X8911286Y3018076D1*
X8932873Y3016636D1*
X8950892Y3012310D1*
X8954732Y3010894D1*
X9412171Y3189290D2*
X9639692D1*
X9637957Y3192209D1*
X9415085D1*
X6671790Y1796818D2*
Y1584266D1*
X6722232Y1584300D1*
X6731107Y1592806D1*
X6746098Y1603698D1*
X6758234Y1610094D1*
X6755974Y1625735D1*
Y1644265D1*
X6758873Y1662568D1*
X6764599Y1680191D1*
X6773012Y1696702D1*
X6783904Y1711693D1*
X6797007Y1724796D1*
X6811998Y1735688D1*
X6828509Y1744101D1*
X6846132Y1749827D1*
X6864435Y1752726D1*
X6882965D1*
X6885231Y1752458D1*
X6885210Y1792290D1*
X7506572D1*
X7498457Y1795210D1*
X6885210D1*
Y1973764D1*
X6869502Y1962212D1*
X6852991Y1953799D1*
X6835368Y1948073D1*
X6817065Y1945174D1*
X6798535D1*
X6780232Y1948073D1*
X6762609Y1953799D1*
X6746098Y1962212D1*
X6731107Y1973104D1*
X6727782Y1976177D1*
X6727540Y1880122D1*
X6725544Y1867523D1*
X6721602Y1855392D1*
X6715811Y1844026D1*
X6708313Y1833706D1*
X6671820Y1796859D1*
X8980711Y1884988D2*
Y2003295D1*
X8817831Y2003210D1*
X8935974Y1884978D1*
X8980750Y1885007D1*
X9462778Y1795209D2*
X9326664Y1795201D1*
X9329564Y1792301D1*
X9650744Y1792289D1*
X9640624Y1795209D1*
X9462711Y1795300D1*
X7602044Y6232289D2*
X7883291D1*
Y6193370D1*
X7895486Y6203205D1*
X7915862Y6215691D1*
X7937940Y6224836D1*
X7961177Y6230415D1*
X7985000Y6232290D1*
X8008823Y6230415D1*
X8032060Y6224836D1*
X8054138Y6215691D1*
X8074514Y6203205D1*
X8092685Y6187685D1*
X8108205Y6169514D1*
X8111916Y6163960D1*
X8123198Y6178904D1*
X8140096Y6195802D1*
X8159429Y6209849D1*
X8180721Y6220698D1*
X8203449Y6228082D1*
X8227051Y6231821D1*
X8250949D1*
X8274551Y6228082D1*
X8297279Y6220698D1*
X8318571Y6209849D1*
X8337904Y6195802D1*
X8354802Y6178904D1*
X8365916Y6163960D1*
X8377198Y6178904D1*
X8394096Y6195802D1*
X8413429Y6209849D1*
X8434721Y6220698D1*
X8457449Y6228082D1*
X8481051Y6231821D1*
X8504949D1*
X8528551Y6228082D1*
X8551279Y6220698D1*
X8572571Y6209849D1*
X8591904Y6195802D1*
X8608802Y6178904D1*
X8619916Y6163960D1*
X8631198Y6178904D1*
X8648096Y6195802D1*
X8667429Y6209849D1*
X8688721Y6220698D1*
X8711449Y6228082D1*
X8735051Y6231821D1*
X8758949D1*
X8782551Y6228082D1*
X8805279Y6220698D1*
X8826571Y6209849D1*
X8845904Y6195802D1*
X8862802Y6178904D1*
X8873916Y6163960D1*
X8885198Y6178904D1*
X8902096Y6195802D1*
X8921429Y6209849D1*
X8942721Y6220698D1*
X8965449Y6228082D1*
X8989051Y6231821D1*
X9012949D1*
X9036551Y6228082D1*
X9059279Y6220698D1*
X9080571Y6209849D1*
X9099904Y6195802D1*
X9116802Y6178904D1*
X9127916Y6163960D1*
X9139198Y6178904D1*
X9156096Y6195802D1*
X9175429Y6209849D1*
X9196721Y6220698D1*
X9219449Y6228082D1*
X9243051Y6231821D1*
X9266949D1*
X9290551Y6228082D1*
X9313279Y6220698D1*
X9334571Y6209849D1*
X9353904Y6195802D1*
X9370802Y6178904D1*
X9381916Y6163960D1*
X9393198Y6178904D1*
X9410096Y6195802D1*
X9429429Y6209849D1*
X9450721Y6220698D1*
X9473449Y6228082D1*
X9497051Y6231821D1*
X9520949D1*
X9544551Y6228082D1*
X9567279Y6220698D1*
X9588571Y6209849D1*
X9607904Y6195802D1*
X9624802Y6178904D1*
X9638849Y6159571D1*
X9649698Y6138279D1*
X9657082Y6115551D1*
X9660821Y6091949D1*
Y6068051D1*
X9657082Y6044449D1*
X9649698Y6021721D1*
X9638849Y6000429D1*
X9624802Y5981096D1*
X9607904Y5964198D1*
X9588571Y5950151D1*
X9567279Y5939302D1*
X9544551Y5931918D1*
X9520949Y5928179D1*
X9497051D1*
X9473449Y5931918D1*
X9450721Y5939302D1*
X9429429Y5950151D1*
X9410096Y5964198D1*
X9393198Y5981096D1*
X9382084Y5996040D1*
X9370802Y5981096D1*
X9353904Y5964198D1*
X9334571Y5950151D1*
X9313279Y5939302D1*
X9290551Y5931918D1*
X9266949Y5928179D1*
X9243051D1*
X9219449Y5931918D1*
X9196721Y5939302D1*
X9175429Y5950151D1*
X9156096Y5964198D1*
X9139198Y5981096D1*
X9128084Y5996040D1*
X9116802Y5981096D1*
X9099904Y5964198D1*
X9080571Y5950151D1*
X9059279Y5939302D1*
X9036551Y5931918D1*
X9012949Y5928179D1*
X8989051D1*
X8965449Y5931918D1*
X8942721Y5939302D1*
X8921429Y5950151D1*
X8902096Y5964198D1*
X8885198Y5981096D1*
X8874084Y5996040D1*
X8862802Y5981096D1*
X8845904Y5964198D1*
X8826571Y5950151D1*
X8805279Y5939302D1*
X8782551Y5931918D1*
X8758949Y5928179D1*
X8735051D1*
X8711449Y5931918D1*
X8688721Y5939302D1*
X8667429Y5950151D1*
X8648096Y5964198D1*
X8631198Y5981096D1*
X8620084Y5996040D1*
X8608802Y5981096D1*
X8591904Y5964198D1*
X8572571Y5950151D1*
X8551279Y5939302D1*
X8528551Y5931918D1*
X8504949Y5928179D1*
X8481051D1*
X8457449Y5931918D1*
X8434721Y5939302D1*
X8413429Y5950151D1*
X8394096Y5964198D1*
X8377198Y5981096D1*
X8366084Y5996040D1*
X8354802Y5981096D1*
X8337904Y5964198D1*
X8318571Y5950151D1*
X8297279Y5939302D1*
X8274551Y5931918D1*
X8250949Y5928179D1*
X8227051D1*
X8203449Y5931918D1*
X8180721Y5939302D1*
X8159429Y5950151D1*
X8140096Y5964198D1*
X8123198Y5981096D1*
X8112084Y5996040D1*
X8100802Y5981096D1*
X8083904Y5964198D1*
X8064571Y5950151D1*
X8043279Y5939302D1*
X8020551Y5931918D1*
X7996949Y5928179D1*
X7973051D1*
X7949449Y5931918D1*
X7926721Y5939302D1*
X7905429Y5950151D1*
X7886096Y5964198D1*
X7883317Y5966766D1*
X7883291Y5927709D1*
X7578711D1*
Y6232289D1*
X7602044D1*
X10638401Y1914289D2*
X10677291D1*
Y1609709D1*
X10372711D1*
Y1648629D1*
X10360514Y1638795D1*
X10340138Y1626309D1*
X10318060Y1617164D1*
X10294823Y1611585D1*
X10271000Y1609710D1*
X10247177Y1611585D1*
X10223940Y1617164D1*
X10201862Y1626309D1*
X10181486Y1638795D1*
X10163315Y1654315D1*
X10147795Y1672486D1*
X10135309Y1692862D1*
X10126164Y1714940D1*
X10120585Y1738177D1*
X10118710Y1762000D1*
X10120585Y1785823D1*
X10126164Y1809060D1*
X10135309Y1831138D1*
X10147795Y1851514D1*
X10163315Y1869685D1*
X10181486Y1885205D1*
X10187040Y1888916D1*
X10172096Y1900198D1*
X10155198Y1917096D1*
X10141151Y1936429D1*
X10130302Y1957721D1*
X10122918Y1980449D1*
X10119179Y2004051D1*
Y2027949D1*
X10122918Y2051551D1*
X10130302Y2074279D1*
X10141151Y2095571D1*
X10155198Y2114904D1*
X10172096Y2131802D1*
X10187040Y2142916D1*
X10172096Y2154198D1*
X10155198Y2171096D1*
X10141151Y2190429D1*
X10130302Y2211721D1*
X10122918Y2234449D1*
X10119179Y2258051D1*
Y2281949D1*
X10122918Y2305551D1*
X10130302Y2328279D1*
X10141151Y2349571D1*
X10155198Y2368904D1*
X10172096Y2385802D1*
X10187040Y2396916D1*
X10172096Y2408198D1*
X10155198Y2425096D1*
X10141151Y2444429D1*
X10130302Y2465721D1*
X10122918Y2488449D1*
X10119179Y2512051D1*
Y2535949D1*
X10122918Y2559551D1*
X10130302Y2582279D1*
X10141151Y2603571D1*
X10155198Y2622904D1*
X10172096Y2639802D1*
X10187040Y2650916D1*
X10172096Y2662198D1*
X10155198Y2679096D1*
X10141151Y2698429D1*
X10130302Y2719721D1*
X10122918Y2742449D1*
X10119179Y2766051D1*
Y2789949D1*
X10122918Y2813551D1*
X10130302Y2836279D1*
X10141151Y2857571D1*
X10155198Y2876904D1*
X10172096Y2893802D1*
X10187040Y2904916D1*
X10172096Y2916198D1*
X10155198Y2933096D1*
X10141151Y2952429D1*
X10130302Y2973721D1*
X10122918Y2996449D1*
X10119179Y3020051D1*
Y3043949D1*
X10122918Y3067551D1*
X10130302Y3090279D1*
X10141151Y3111571D1*
X10155198Y3130904D1*
X10172096Y3147802D1*
X10187040Y3158916D1*
X10172096Y3170198D1*
X10155198Y3187096D1*
X10141151Y3206429D1*
X10130302Y3227721D1*
X10122918Y3250449D1*
X10119179Y3274051D1*
Y3297949D1*
X10122918Y3321551D1*
X10130302Y3344279D1*
X10141151Y3365571D1*
X10155198Y3384904D1*
X10172096Y3401802D1*
X10187040Y3412916D1*
X10172096Y3424198D1*
X10155198Y3441096D1*
X10141151Y3460429D1*
X10130302Y3481721D1*
X10122918Y3504449D1*
X10119179Y3528051D1*
Y3551949D1*
X10122918Y3575551D1*
X10130302Y3598279D1*
X10141151Y3619571D1*
X10155198Y3638904D1*
X10172096Y3655802D1*
X10187040Y3666916D1*
X10172096Y3678198D1*
X10155198Y3695096D1*
X10141151Y3714429D1*
X10130302Y3735721D1*
X10122918Y3758449D1*
X10119179Y3782051D1*
Y3805949D1*
X10122918Y3829551D1*
X10130302Y3852279D1*
X10141151Y3873571D1*
X10155198Y3892904D1*
X10172096Y3909802D1*
X10187040Y3920916D1*
X10172096Y3932198D1*
X10155198Y3949096D1*
X10141151Y3968429D1*
X10130302Y3989721D1*
X10122918Y4012449D1*
X10119179Y4036051D1*
Y4059949D1*
X10122918Y4083551D1*
X10130302Y4106279D1*
X10141151Y4127571D1*
X10155198Y4146904D1*
X10172096Y4163802D1*
X10187040Y4174916D1*
X10172096Y4186198D1*
X10155198Y4203096D1*
X10141151Y4222429D1*
X10130302Y4243721D1*
X10122918Y4266449D1*
X10119179Y4290051D1*
Y4313949D1*
X10122918Y4337551D1*
X10130302Y4360279D1*
X10141151Y4381571D1*
X10155198Y4400904D1*
X10172096Y4417802D1*
X10187040Y4428916D1*
X10172096Y4440198D1*
X10155198Y4457096D1*
X10141151Y4476429D1*
X10130302Y4497721D1*
X10122918Y4520449D1*
X10119179Y4544051D1*
Y4567949D1*
X10122918Y4591551D1*
X10130302Y4614279D1*
X10141151Y4635571D1*
X10155198Y4654904D1*
X10172096Y4671802D1*
X10187040Y4682916D1*
X10172096Y4694198D1*
X10155198Y4711096D1*
X10141151Y4730429D1*
X10130302Y4751721D1*
X10122918Y4774449D1*
X10119179Y4798051D1*
Y4821949D1*
X10122918Y4845551D1*
X10130302Y4868279D1*
X10141151Y4889571D1*
X10155198Y4908904D1*
X10172096Y4925802D1*
X10187040Y4936916D1*
X10172096Y4948198D1*
X10155198Y4965096D1*
X10141151Y4984429D1*
X10130302Y5005721D1*
X10122918Y5028449D1*
X10119179Y5052051D1*
Y5075949D1*
X10122918Y5099551D1*
X10130302Y5122279D1*
X10141151Y5143571D1*
X10155198Y5162904D1*
X10172096Y5179802D1*
X10187040Y5190916D1*
X10172096Y5202198D1*
X10155198Y5219096D1*
X10141151Y5238429D1*
X10130302Y5259721D1*
X10122918Y5282449D1*
X10119179Y5306051D1*
Y5329949D1*
X10122918Y5353551D1*
X10130302Y5376279D1*
X10141151Y5397571D1*
X10155198Y5416904D1*
X10172096Y5433802D1*
X10187040Y5444916D1*
X10172096Y5456198D1*
X10155198Y5473096D1*
X10141151Y5492429D1*
X10130302Y5513721D1*
X10122918Y5536449D1*
X10119179Y5560051D1*
Y5583949D1*
X10122918Y5607551D1*
X10130302Y5630279D1*
X10141151Y5651571D1*
X10155198Y5670904D1*
X10172096Y5687802D1*
X10187040Y5698916D1*
X10172096Y5710198D1*
X10155198Y5727096D1*
X10141151Y5746429D1*
X10130302Y5767721D1*
X10122918Y5790449D1*
X10119179Y5814051D1*
Y5837949D1*
X10122918Y5861551D1*
X10130302Y5884279D1*
X10141151Y5905571D1*
X10155198Y5924904D1*
X10172096Y5941802D1*
X10187040Y5952916D1*
X10172096Y5964198D1*
X10155198Y5981096D1*
X10141151Y6000429D1*
X10130302Y6021721D1*
X10122918Y6044449D1*
X10119179Y6068051D1*
Y6091949D1*
X10122918Y6115551D1*
X10130302Y6138279D1*
X10141151Y6159571D1*
X10155198Y6178904D1*
X10172096Y6195802D1*
X10191429Y6209849D1*
X10212721Y6220698D1*
X10235449Y6228082D1*
X10259051Y6231821D1*
X10282949D1*
X10306551Y6228082D1*
X10329279Y6220698D1*
X10350571Y6209849D1*
X10369904Y6195802D1*
X10386802Y6178904D1*
X10397916Y6163960D1*
X10409198Y6178904D1*
X10426096Y6195802D1*
X10445429Y6209849D1*
X10466721Y6220698D1*
X10489449Y6228082D1*
X10513051Y6231821D1*
X10536949D1*
X10560551Y6228082D1*
X10583279Y6220698D1*
X10604571Y6209849D1*
X10623904Y6195802D1*
X10640802Y6178904D1*
X10654849Y6159571D1*
X10665698Y6138279D1*
X10673082Y6115551D1*
X10676821Y6091949D1*
Y6068051D1*
X10673082Y6044449D1*
X10665698Y6021721D1*
X10654849Y6000429D1*
X10640802Y5981096D1*
X10623904Y5964198D1*
X10608960Y5953084D1*
X10623904Y5941802D1*
X10640802Y5924904D1*
X10654849Y5905571D1*
X10665698Y5884279D1*
X10673082Y5861551D1*
X10676821Y5837949D1*
Y5814051D1*
X10673082Y5790449D1*
X10665698Y5767721D1*
X10654849Y5746429D1*
X10640802Y5727096D1*
X10623904Y5710198D1*
X10608960Y5699084D1*
X10623904Y5687802D1*
X10640802Y5670904D1*
X10654849Y5651571D1*
X10665698Y5630279D1*
X10673082Y5607551D1*
X10676821Y5583949D1*
Y5560051D1*
X10673082Y5536449D1*
X10665698Y5513721D1*
X10654849Y5492429D1*
X10640802Y5473096D1*
X10623904Y5456198D1*
X10608960Y5445084D1*
X10623904Y5433802D1*
X10640802Y5416904D1*
X10654849Y5397571D1*
X10665698Y5376279D1*
X10673082Y5353551D1*
X10676821Y5329949D1*
Y5306051D1*
X10673082Y5282449D1*
X10665698Y5259721D1*
X10654849Y5238429D1*
X10640802Y5219096D1*
X10623904Y5202198D1*
X10608960Y5191084D1*
X10623904Y5179802D1*
X10640802Y5162904D1*
X10654849Y5143571D1*
X10665698Y5122279D1*
X10673082Y5099551D1*
X10676821Y5075949D1*
Y5052051D1*
X10673082Y5028449D1*
X10665698Y5005721D1*
X10654849Y4984429D1*
X10640802Y4965096D1*
X10623904Y4948198D1*
X10608960Y4937084D1*
X10623904Y4925802D1*
X10640802Y4908904D1*
X10654849Y4889571D1*
X10665698Y4868279D1*
X10673082Y4845551D1*
X10676821Y4821949D1*
Y4798051D1*
X10673082Y4774449D1*
X10665698Y4751721D1*
X10654849Y4730429D1*
X10640802Y4711096D1*
X10623904Y4694198D1*
X10608960Y4683084D1*
X10623904Y4671802D1*
X10640802Y4654904D1*
X10654849Y4635571D1*
X10665698Y4614279D1*
X10673082Y4591551D1*
X10676821Y4567949D1*
Y4544051D1*
X10673082Y4520449D1*
X10665698Y4497721D1*
X10654849Y4476429D1*
X10640802Y4457096D1*
X10623904Y4440198D1*
X10608960Y4429084D1*
X10623904Y4417802D1*
X10640802Y4400904D1*
X10654849Y4381571D1*
X10665698Y4360279D1*
X10673082Y4337551D1*
X10676821Y4313949D1*
Y4290051D1*
X10673082Y4266449D1*
X10665698Y4243721D1*
X10654849Y4222429D1*
X10640802Y4203096D1*
X10623904Y4186198D1*
X10608960Y4175084D1*
X10623904Y4163802D1*
X10640802Y4146904D1*
X10654849Y4127571D1*
X10665698Y4106279D1*
X10673082Y4083551D1*
X10676821Y4059949D1*
Y4036051D1*
X10673082Y4012449D1*
X10665698Y3989721D1*
X10654849Y3968429D1*
X10640802Y3949096D1*
X10623904Y3932198D1*
X10608960Y3921084D1*
X10623904Y3909802D1*
X10640802Y3892904D1*
X10654849Y3873571D1*
X10665698Y3852279D1*
X10673082Y3829551D1*
X10676821Y3805949D1*
Y3782051D1*
X10673082Y3758449D1*
X10665698Y3735721D1*
X10654849Y3714429D1*
X10640802Y3695096D1*
X10623904Y3678198D1*
X10608960Y3667084D1*
X10623904Y3655802D1*
X10640802Y3638904D1*
X10654849Y3619571D1*
X10665698Y3598279D1*
X10673082Y3575551D1*
X10676821Y3551949D1*
Y3528051D1*
X10673082Y3504449D1*
X10665698Y3481721D1*
X10654849Y3460429D1*
X10640802Y3441096D1*
X10623904Y3424198D1*
X10608960Y3413084D1*
X10623904Y3401802D1*
X10640802Y3384904D1*
X10654849Y3365571D1*
X10665698Y3344279D1*
X10673082Y3321551D1*
X10676821Y3297949D1*
Y3274051D1*
X10673082Y3250449D1*
X10665698Y3227721D1*
X10654849Y3206429D1*
X10640802Y3187096D1*
X10623904Y3170198D1*
X10608960Y3159084D1*
X10623904Y3147802D1*
X10640802Y3130904D1*
X10654849Y3111571D1*
X10665698Y3090279D1*
X10673082Y3067551D1*
X10676821Y3043949D1*
Y3020051D1*
X10673082Y2996449D1*
X10665698Y2973721D1*
X10654849Y2952429D1*
X10640802Y2933096D1*
X10623904Y2916198D1*
X10608960Y2905084D1*
X10623904Y2893802D1*
X10640802Y2876904D1*
X10654849Y2857571D1*
X10665698Y2836279D1*
X10673082Y2813551D1*
X10676821Y2789949D1*
Y2766051D1*
X10673082Y2742449D1*
X10665698Y2719721D1*
X10654849Y2698429D1*
X10640802Y2679096D1*
X10623904Y2662198D1*
X10608960Y2651084D1*
X10623904Y2639802D1*
X10640802Y2622904D1*
X10654849Y2603571D1*
X10665698Y2582279D1*
X10673082Y2559551D1*
X10676821Y2535949D1*
Y2512051D1*
X10673082Y2488449D1*
X10665698Y2465721D1*
X10654849Y2444429D1*
X10640802Y2425096D1*
X10623904Y2408198D1*
X10608960Y2397084D1*
X10623904Y2385802D1*
X10640802Y2368904D1*
X10654849Y2349571D1*
X10665698Y2328279D1*
X10673082Y2305551D1*
X10676821Y2281949D1*
Y2258051D1*
X10673082Y2234449D1*
X10665698Y2211721D1*
X10654849Y2190429D1*
X10640802Y2171096D1*
X10623904Y2154198D1*
X10608960Y2143084D1*
X10623904Y2131802D1*
X10640802Y2114904D1*
X10654849Y2095571D1*
X10665698Y2074279D1*
X10673082Y2051551D1*
X10676821Y2027949D1*
Y2004051D1*
X10673082Y1980449D1*
X10665698Y1957721D1*
X10654849Y1936429D1*
X10640802Y1917096D1*
X10638234Y1914317D1*
X10398084Y2099960D2*
X10409198Y2114904D1*
X10426096Y2131802D1*
X10441040Y2142916D1*
X10426096Y2154198D1*
X10409198Y2171096D1*
X10398084Y2186040D1*
X10386802Y2171096D1*
X10369904Y2154198D1*
X10354960Y2143084D1*
X10369904Y2131802D1*
X10386802Y2114904D1*
X10397916Y2099960D1*
X10398084Y2353960D2*
X10409198Y2368904D1*
X10426096Y2385802D1*
X10441040Y2396916D1*
X10426096Y2408198D1*
X10409198Y2425096D1*
X10398084Y2440040D1*
X10386802Y2425096D1*
X10369904Y2408198D1*
X10354960Y2397084D1*
X10369904Y2385802D1*
X10386802Y2368904D1*
X10397916Y2353960D1*
X10398084Y2607960D2*
X10409198Y2622904D1*
X10426096Y2639802D1*
X10441040Y2650916D1*
X10426096Y2662198D1*
X10409198Y2679096D1*
X10398084Y2694040D1*
X10386802Y2679096D1*
X10369904Y2662198D1*
X10354960Y2651084D1*
X10369904Y2639802D1*
X10386802Y2622904D1*
X10397916Y2607960D1*
X10398084Y2861960D2*
X10409198Y2876904D1*
X10426096Y2893802D1*
X10441040Y2904916D1*
X10426096Y2916198D1*
X10409198Y2933096D1*
X10398084Y2948040D1*
X10386802Y2933096D1*
X10369904Y2916198D1*
X10354960Y2905084D1*
X10369904Y2893802D1*
X10386802Y2876904D1*
X10397916Y2861960D1*
X10398084Y3115960D2*
X10409198Y3130904D1*
X10426096Y3147802D1*
X10441040Y3158916D1*
X10426096Y3170198D1*
X10409198Y3187096D1*
X10398084Y3202040D1*
X10386802Y3187096D1*
X10369904Y3170198D1*
X10354960Y3159084D1*
X10369904Y3147802D1*
X10386802Y3130904D1*
X10397916Y3115960D1*
X10398084Y3369960D2*
X10409198Y3384904D1*
X10426096Y3401802D1*
X10441040Y3412916D1*
X10426096Y3424198D1*
X10409198Y3441096D1*
X10398084Y3456040D1*
X10386802Y3441096D1*
X10369904Y3424198D1*
X10354960Y3413084D1*
X10369904Y3401802D1*
X10386802Y3384904D1*
X10397916Y3369960D1*
X10398084Y3623960D2*
X10409198Y3638904D1*
X10426096Y3655802D1*
X10441040Y3666916D1*
X10426096Y3678198D1*
X10409198Y3695096D1*
X10398084Y3710040D1*
X10386802Y3695096D1*
X10369904Y3678198D1*
X10354960Y3667084D1*
X10369904Y3655802D1*
X10386802Y3638904D1*
X10397916Y3623960D1*
X10398084Y3877960D2*
X10409198Y3892904D1*
X10426096Y3909802D1*
X10441040Y3920916D1*
X10426096Y3932198D1*
X10409198Y3949096D1*
X10398084Y3964040D1*
X10386802Y3949096D1*
X10369904Y3932198D1*
X10354960Y3921084D1*
X10369904Y3909802D1*
X10386802Y3892904D1*
X10397916Y3877960D1*
X10398084Y4131960D2*
X10409198Y4146904D1*
X10426096Y4163802D1*
X10441040Y4174916D1*
X10426096Y4186198D1*
X10409198Y4203096D1*
X10398084Y4218040D1*
X10386802Y4203096D1*
X10369904Y4186198D1*
X10354960Y4175084D1*
X10369904Y4163802D1*
X10386802Y4146904D1*
X10397916Y4131960D1*
X10398084Y4385960D2*
X10409198Y4400904D1*
X10426096Y4417802D1*
X10441040Y4428916D1*
X10426096Y4440198D1*
X10409198Y4457096D1*
X10398084Y4472040D1*
X10386802Y4457096D1*
X10369904Y4440198D1*
X10354960Y4429084D1*
X10369904Y4417802D1*
X10386802Y4400904D1*
X10397916Y4385960D1*
X10398084Y4639960D2*
X10409198Y4654904D1*
X10426096Y4671802D1*
X10441040Y4682916D1*
X10426096Y4694198D1*
X10409198Y4711096D1*
X10398084Y4726040D1*
X10386802Y4711096D1*
X10369904Y4694198D1*
X10354960Y4683084D1*
X10369904Y4671802D1*
X10386802Y4654904D1*
X10397916Y4639960D1*
X10398084Y4893960D2*
X10409198Y4908904D1*
X10426096Y4925802D1*
X10441040Y4936916D1*
X10426096Y4948198D1*
X10409198Y4965096D1*
X10398084Y4980040D1*
X10386802Y4965096D1*
X10369904Y4948198D1*
X10354960Y4937084D1*
X10369904Y4925802D1*
X10386802Y4908904D1*
X10397916Y4893960D1*
X10398084Y5147960D2*
X10409198Y5162904D1*
X10426096Y5179802D1*
X10441040Y5190916D1*
X10426096Y5202198D1*
X10409198Y5219096D1*
X10398084Y5234040D1*
X10386802Y5219096D1*
X10369904Y5202198D1*
X10354960Y5191084D1*
X10369904Y5179802D1*
X10386802Y5162904D1*
X10397916Y5147960D1*
X10398084Y5401960D2*
X10409198Y5416904D1*
X10426096Y5433802D1*
X10441040Y5444916D1*
X10426096Y5456198D1*
X10409198Y5473096D1*
X10398084Y5488040D1*
X10386802Y5473096D1*
X10369904Y5456198D1*
X10354960Y5445084D1*
X10369904Y5433802D1*
X10386802Y5416904D1*
X10397916Y5401960D1*
X10398084Y5655960D2*
X10409198Y5670904D1*
X10426096Y5687802D1*
X10441040Y5698916D1*
X10426096Y5710198D1*
X10409198Y5727096D1*
X10398084Y5742040D1*
X10386802Y5727096D1*
X10369904Y5710198D1*
X10354960Y5699084D1*
X10369904Y5687802D1*
X10386802Y5670904D1*
X10397916Y5655960D1*
X10398084Y5909960D2*
X10409198Y5924904D1*
X10426096Y5941802D1*
X10441040Y5952916D1*
X10426096Y5964198D1*
X10409198Y5981096D1*
X10398084Y5996040D1*
X10386802Y5981096D1*
X10369904Y5964198D1*
X10354960Y5953084D1*
X10369904Y5941802D1*
X10386802Y5924904D1*
X10397916Y5909960D1*
X2395044Y6232289D2*
X2676291D1*
Y5927709D1*
X2371711D1*
Y6232289D1*
X2395044D1*
X3061751Y3690210D2*
X2934710D1*
Y3776160D1*
X2911872Y3776461D1*
X2899273Y3778456D1*
X2887142Y3782398D1*
X2875776Y3788189D1*
X2865456Y3795687D1*
X2784525Y3876263D1*
X2613628Y3876210D1*
X2613540Y3687240D1*
X3069247Y3687310D1*
X3069624Y3690210D1*
X3061710Y3690301D1*
X3295517Y4230210D2*
X3240340D1*
X3240290Y4171914D1*
X3261667Y4163590D1*
X3308607D1*
X3300690Y4182198D1*
X3296364Y4200217D1*
X3294910Y4218690D1*
X3295542Y4230221D1*
X2934711Y2651269D2*
Y2767571D1*
X2920075Y2765574D1*
X2901545D1*
X2883242Y2768473D1*
X2865619Y2774199D1*
X2849108Y2782612D1*
X2834117Y2793504D1*
X2825267Y2802005D1*
X2619291Y2801789D1*
Y2651307D1*
X2934628Y2651290D1*
X2958043Y3485290D2*
X3041442D1*
X3041274Y3506065D1*
X3044281Y3524751D1*
X2539965Y3524980D1*
X2527367Y3526976D1*
X2515235Y3530918D1*
X2503869Y3536709D1*
X2493550Y3544206D1*
X2408769Y3628632D1*
X2404421Y3633339D1*
X2388207Y3636709D1*
X2228247D1*
X2230090Y3615610D1*
X2228636Y3597137D1*
X2224310Y3579118D1*
X2217219Y3561998D1*
X2207537Y3546198D1*
X2195502Y3532108D1*
X2181412Y3520073D1*
X2165612Y3510391D1*
X2157816Y3506797D1*
X2899290Y3506790D1*
Y3334980D1*
X2910810Y3335600D1*
X2929283Y3334146D1*
X2934719Y3333065D1*
X2934710Y3485290D1*
X2958043D1*
X2934710Y1584348D2*
Y1685702D1*
X2617924Y1685710D1*
X2617917Y1584203D1*
X2934626Y1584290D1*
X3188751Y1531210D2*
X3170157D1*
X3138045Y1499084D1*
X3296784Y1499100D1*
X3295274Y1510425D1*
Y1528955D1*
X3295542Y1531221D1*
X3188710Y1531301D1*
X3204793Y2071210D2*
X3149559D1*
X3149736Y2050425D1*
X3146837Y2032122D1*
X3141111Y2014499D1*
X3132698Y1997988D1*
X3121806Y1982997D1*
X3108703Y1969894D1*
X3094103Y1959263D1*
X3196791Y1959026D1*
X3203154Y1958271D1*
X3204710Y1975833D1*
Y2071263D1*
X8141710Y4883733D2*
Y5016988D1*
X8027442Y5017010D1*
X8017612Y5007809D1*
X8141716Y4883746D1*
X8522751Y4769710D2*
X8440720D1*
X8435311Y4759063D1*
X8427814Y4748743D1*
X8363454Y4684029D1*
X8353755Y4675745D1*
X8342878Y4669080D1*
X8331093Y4664198D1*
X8324926Y4662461D1*
X8322512Y4659802D1*
X8334547Y4645712D1*
X8344229Y4629912D1*
X8351320Y4612792D1*
X8355646Y4594773D1*
X8357100Y4576300D1*
X8356468Y4564769D1*
X8717290Y4564790D1*
Y4546470D1*
X8728800Y4547090D1*
X8747273Y4545636D1*
X8765292Y4541310D1*
X8782412Y4534219D1*
X8798212Y4524537D1*
X8812302Y4512502D1*
X8814343Y4510295D1*
X8954751Y4510290D1*
X8954711Y4586289D1*
X9291858Y4586290D1*
X9281312Y4600898D1*
X9272899Y4617409D1*
X9267173Y4635032D1*
X9264274Y4653335D1*
Y4671865D1*
X9267173Y4690168D1*
X9272899Y4707791D1*
X9276766Y4716179D1*
X8954710Y4716210D1*
Y4792134D1*
X8907221Y4792210D1*
X8898293Y4783704D1*
X8883302Y4772812D1*
X8866791Y4764399D1*
X8849168Y4758673D1*
X8830865Y4755774D1*
X8812335D1*
X8794032Y4758673D1*
X8776409Y4764399D1*
X8759898Y4772812D1*
X8744907Y4783704D1*
X8731804Y4796807D1*
X8720912Y4811798D1*
X8717284Y4818277D1*
X8717290Y4769710D1*
X8522710Y4769801D1*
X8701265Y5104290D2*
X8717290D1*
Y4928834D1*
X8726063Y4942912D1*
X8738098Y4957002D1*
X8752188Y4969037D1*
X8759868Y4974168D1*
X8757114Y4987027D1*
X8755660Y5005500D1*
X8757114Y5023973D1*
X8761440Y5041992D1*
X8768531Y5059112D1*
X8778213Y5074912D1*
X8788551Y5087167D1*
X8697312Y5177720D1*
X8700290Y5165317D1*
X8701290Y5152600D1*
Y5104202D1*
X8157736Y5309709D2*
X8141711D1*
Y5615139D1*
X8017034Y5615210D1*
X8020844Y5603477D1*
X8022840Y5590878D1*
X8023090Y5421167D1*
Y5183914D1*
X8027343Y5179595D1*
X8124547Y5179590D1*
X8121274Y5199335D1*
Y5217865D1*
X8124173Y5236168D1*
X8129899Y5253791D1*
X8138312Y5270302D1*
X8149204Y5285293D1*
X8157705Y5294143D1*
X8157710Y5309681D1*
X8717291Y3974203D2*
Y3911495D1*
X8738065Y3911726D1*
X8756368Y3908827D1*
X8773991Y3903101D1*
X8790502Y3894688D1*
X8805493Y3883796D1*
X8814343Y3875295D1*
X8913006Y3875290D1*
X8814156Y3974152D1*
X8717340Y3974210D1*
X8248517Y4230210D2*
X8183439D1*
X8183390Y4089102D1*
X8204767Y4080790D1*
X8417774D1*
X8413956Y4092523D1*
X8411191Y4109589D1*
X8393568Y4103863D1*
X8375265Y4100964D1*
X8356735D1*
X8338432Y4103863D1*
X8320809Y4109589D1*
X8304298Y4118002D1*
X8289307Y4128894D1*
X8276204Y4141997D1*
X8265312Y4156988D1*
X8256899Y4173499D1*
X8251173Y4191122D1*
X8248274Y4209425D1*
Y4227955D1*
X8248542Y4230221D1*
X8141710Y2776140D2*
Y2829186D1*
X8047576Y2923616D1*
X8040079Y2933936D1*
X8034288Y2945302D1*
X8030346Y2957433D1*
X8028350Y2970032D1*
X8028100Y3044131D1*
X8019594Y3053007D1*
X8008702Y3067998D1*
X8000289Y3084509D1*
X7994563Y3102132D1*
X7991664Y3120435D1*
Y3138965D1*
X7994563Y3157268D1*
X8000289Y3174891D1*
X8008702Y3191402D1*
X8019594Y3206393D1*
X8028095Y3215243D1*
X8028100Y3391744D1*
X8006723Y3400210D1*
X7947570D1*
X7947540Y3192210D1*
X7881460D1*
X7886294Y3189290D1*
X7947540D1*
Y2927792D1*
X7962738Y2927540D1*
X7975337Y2925544D1*
X7987468Y2921603D1*
X7998834Y2915811D1*
X8009154Y2908314D1*
X8129335Y2788487D1*
X8141774Y2776048D1*
X8717290Y2889782D2*
Y2831995D1*
X8738065Y2832226D1*
X8756368Y2829327D1*
X8773991Y2823601D1*
X8790502Y2815188D1*
X8805493Y2804296D1*
X8814343Y2795795D1*
X8858865Y2795790D1*
X8844988Y2804463D1*
X8830898Y2816498D1*
X8818863Y2830588D1*
X8809181Y2846388D1*
X8802090Y2863508D1*
X8797764Y2881527D1*
X8796310Y2900000D1*
X8796428Y2903004D1*
X8738009Y2961429D1*
X8737726Y2947535D1*
X8734827Y2929232D1*
X8729101Y2911609D1*
X8720688Y2895098D1*
X8717288Y2890009D1*
X8574340Y3150710D2*
X8447340D1*
X8492000Y3130890D1*
X8594174D1*
X8574421Y3150667D1*
X8141710Y1584348D2*
Y1667108D1*
X8123851Y1657899D1*
X8106228Y1652173D1*
X8087925Y1649274D1*
X8069395D1*
X8051092Y1652173D1*
X8033469Y1657899D1*
X8016958Y1666312D1*
X8001967Y1677204D1*
X7993117Y1685705D1*
X7661850Y1685710D1*
X7661790Y1584204D1*
X8141674Y1584290D1*
X8717291Y2374344D2*
Y2165802D1*
X8895641Y2165790D1*
X8881788Y2174463D1*
X8867698Y2186498D1*
X8855663Y2200588D1*
X8845981Y2216388D1*
X8838890Y2233508D1*
X8835914Y2244742D1*
X8821327Y2246164D1*
X8803308Y2250490D1*
X8786188Y2257581D1*
X8770388Y2267263D1*
X8756298Y2279298D1*
X8744263Y2293388D1*
X8734581Y2309188D1*
X8727490Y2326308D1*
X8723164Y2344327D1*
X8721710Y2362800D1*
X8722342Y2374331D1*
X8717237Y2374310D1*
X8411793Y2071209D2*
X8141711D1*
Y2299347D1*
X8127717Y2300664D1*
X8109698Y2304990D1*
X8103955Y2307108D1*
X8103960Y2005388D1*
X8125337Y1997090D1*
X8417824D1*
X8413956Y2008823D1*
X8411960Y2021422D1*
X8411710Y2071277D1*
X4022711Y1199509D2*
Y1336592D1*
X2506909Y1336520D1*
X2498132Y1326698D1*
X2484042Y1314663D1*
X2468242Y1304981D1*
X2451122Y1297890D1*
X2433103Y1293564D1*
X2414630Y1292110D1*
X2396157Y1293564D1*
X2378138Y1297890D1*
X2361018Y1304981D1*
X2345218Y1314663D1*
X2331128Y1326698D1*
X2319093Y1340788D1*
X2309411Y1356588D1*
X2302320Y1373708D1*
X2297994Y1391727D1*
X2296540Y1410200D1*
X2297994Y1428673D1*
X2302320Y1446692D1*
X2309411Y1463812D1*
X2317825Y1477714D1*
X2213312Y1477709D1*
X2213357Y1199576D1*
X4022648Y1199490D1*
X5088821Y1242051D2*
X5085082Y1218449D1*
X5079104Y1199534D1*
X5302883Y1199490D1*
X5296918Y1218449D1*
X5293179Y1242051D1*
Y1265949D1*
X5296918Y1289551D1*
X5299796Y1299756D1*
X5167052Y1299970D1*
X5154453Y1301966D1*
X5142322Y1305908D1*
X5130956Y1311699D1*
X5120636Y1319196D1*
X5080566Y1358912D1*
X5072411Y1352045D1*
X5061512Y1345370D1*
X5060205Y1343514D1*
X5072691Y1323138D1*
X5081836Y1301060D1*
X5087415Y1277823D1*
X5089290Y1254000D1*
X5088821Y1242051D1*
X3623960Y5952916D2*
X3638904Y5941802D1*
X3655802Y5924904D1*
X3666916Y5909960D1*
X3678198Y5924904D1*
X3695096Y5941802D1*
X3710040Y5952916D1*
X3695096Y5964198D1*
X3678198Y5981096D1*
X3667084Y5996040D1*
X3655802Y5981096D1*
X3638904Y5964198D1*
X3623960Y5953084D1*
X3877960Y5952916D2*
X3892904Y5941802D1*
X3909802Y5924904D1*
X3920916Y5909960D1*
X3932198Y5924904D1*
X3949096Y5941802D1*
X3964040Y5952916D1*
X3949096Y5964198D1*
X3932198Y5981096D1*
X3921084Y5996040D1*
X3909802Y5981096D1*
X3892904Y5964198D1*
X3877960Y5953084D1*
X4131960Y5952916D2*
X4146904Y5941802D1*
X4163802Y5924904D1*
X4174916Y5909960D1*
X4186198Y5924904D1*
X4203096Y5941802D1*
X4218040Y5952916D1*
X4203096Y5964198D1*
X4186198Y5981096D1*
X4175084Y5996040D1*
X4163802Y5981096D1*
X4146904Y5964198D1*
X4131960Y5953084D1*
X4385960Y5952916D2*
X4400904Y5941802D1*
X4417802Y5924904D1*
X4428916Y5909960D1*
X4440198Y5924904D1*
X4457096Y5941802D1*
X4472040Y5952916D1*
X4457096Y5964198D1*
X4440198Y5981096D1*
X4429084Y5996040D1*
X4417802Y5981096D1*
X4400904Y5964198D1*
X4385960Y5953084D1*
X4639960Y5952916D2*
X4654904Y5941802D1*
X4671802Y5924904D1*
X4682916Y5909960D1*
X4694198Y5924904D1*
X4711096Y5941802D1*
X4726040Y5952916D1*
X4711096Y5964198D1*
X4694198Y5981096D1*
X4683084Y5996040D1*
X4671802Y5981096D1*
X4654904Y5964198D1*
X4639960Y5953084D1*
X4893960Y5952916D2*
X4908904Y5941802D1*
X4925802Y5924904D1*
X4936916Y5909960D1*
X4948198Y5924904D1*
X4965096Y5941802D1*
X4980040Y5952916D1*
X4965096Y5964198D1*
X4948198Y5981096D1*
X4937084Y5996040D1*
X4925802Y5981096D1*
X4908904Y5964198D1*
X4893960Y5953084D1*
X5782960Y5952916D2*
X5797904Y5941802D1*
X5814802Y5924904D1*
X5825916Y5909960D1*
X5837198Y5924904D1*
X5854096Y5941802D1*
X5869040Y5952916D1*
X5854096Y5964198D1*
X5837198Y5981096D1*
X5826084Y5996040D1*
X5814802Y5981096D1*
X5797904Y5964198D1*
X5782960Y5953084D1*
X6036960Y5952916D2*
X6051904Y5941802D1*
X6068802Y5924904D1*
X6079916Y5909960D1*
X6091198Y5924904D1*
X6108096Y5941802D1*
X6123040Y5952916D1*
X6108096Y5964198D1*
X6091198Y5981096D1*
X6080084Y5996040D1*
X6068802Y5981096D1*
X6051904Y5964198D1*
X6036960Y5953084D1*
X6290960Y5952916D2*
X6305904Y5941802D1*
X6322802Y5924904D1*
X6333916Y5909960D1*
X6345198Y5924904D1*
X6362096Y5941802D1*
X6377040Y5952916D1*
X6362096Y5964198D1*
X6345198Y5981096D1*
X6334084Y5996040D1*
X6322802Y5981096D1*
X6305904Y5964198D1*
X6290960Y5953084D1*
X6544960Y5952916D2*
X6559904Y5941802D1*
X6576802Y5924904D1*
X6587916Y5909960D1*
X6599198Y5924904D1*
X6616096Y5941802D1*
X6631040Y5952916D1*
X6616096Y5964198D1*
X6599198Y5981096D1*
X6588084Y5996040D1*
X6576802Y5981096D1*
X6559904Y5964198D1*
X6544960Y5953084D1*
X6798960Y5952916D2*
X6813904Y5941802D1*
X6830802Y5924904D1*
X6841916Y5909960D1*
X6853198Y5924904D1*
X6870096Y5941802D1*
X6885040Y5952916D1*
X6870096Y5964198D1*
X6853198Y5981096D1*
X6842084Y5996040D1*
X6830802Y5981096D1*
X6813904Y5964198D1*
X6798960Y5953084D1*
X7052960Y5952916D2*
X7067904Y5941802D1*
X7084802Y5924904D1*
X7095916Y5909960D1*
X7107198Y5924904D1*
X7124096Y5941802D1*
X7139040Y5952916D1*
X7124096Y5964198D1*
X7107198Y5981096D1*
X7096084Y5996040D1*
X7084802Y5981096D1*
X7067904Y5964198D1*
X7052960Y5953084D1*
X2186402Y4716210D2*
X1831210D1*
Y4792134D1*
X1748122Y4792460D1*
X1735523Y4794456D1*
X1723392Y4798398D1*
X1712005Y4804203D1*
X1707191Y4804362D1*
X1694705Y4783986D1*
X1679185Y4765815D1*
X1661014Y4750295D1*
X1640638Y4737809D1*
X1618560Y4728664D1*
X1595323Y4723085D1*
X1571500Y4721210D1*
X1547677Y4723085D1*
X1524440Y4728664D1*
X1502362Y4737809D1*
X1481986Y4750295D1*
X1463815Y4765815D1*
X1448295Y4783986D1*
X1444584Y4789540D1*
X1433302Y4774596D1*
X1416404Y4757698D1*
X1397071Y4743651D1*
X1375779Y4732802D1*
X1353051Y4725418D1*
X1329449Y4721679D1*
X1305551D1*
X1284010Y4725008D1*
X1271797Y4712835D1*
X1271790Y4510706D1*
X1293677Y4515915D1*
X1317500Y4517790D1*
X1341323Y4515915D1*
X1364560Y4510336D1*
X1386638Y4501191D1*
X1407014Y4488705D1*
X1425185Y4473185D1*
X1440705Y4455014D1*
X1444416Y4449460D1*
X1455698Y4464404D1*
X1472596Y4481302D1*
X1491929Y4495349D1*
X1513221Y4506198D1*
X1535949Y4513582D1*
X1559551Y4517321D1*
X1583449D1*
X1607051Y4513582D1*
X1629779Y4506198D1*
X1651071Y4495349D1*
X1670404Y4481302D1*
X1681373Y4470819D1*
X1701706Y4490814D1*
X1712026Y4498311D1*
X1723392Y4504102D1*
X1735523Y4508044D1*
X1748122Y4510040D1*
X1836987Y4510290D1*
X1836960Y4586290D1*
X2422958D1*
X2466445Y4629355D1*
X2476765Y4636853D1*
X2488131Y4642644D1*
X2494143Y4644859D1*
X2498710Y4653800D1*
X2500164Y4672273D1*
X2502219Y4682239D1*
X2471729Y4651088D1*
X2462047Y4635288D1*
X2450012Y4621198D1*
X2435922Y4609163D1*
X2420122Y4599481D1*
X2403002Y4592390D1*
X2384983Y4588064D1*
X2366510Y4586610D1*
X2348037Y4588064D1*
X2330018Y4592390D1*
X2312898Y4599481D1*
X2297098Y4609163D1*
X2283008Y4621198D1*
X2274942Y4630254D1*
X2265146Y4635389D1*
X2254826Y4642887D1*
X2201019Y4696339D1*
X2192735Y4706039D1*
X2189177Y4711368D1*
X5390291Y5402651D2*
Y5351209D1*
X5324210D1*
X5329044Y5348289D1*
X5390291D1*
Y5123068D1*
X5411065Y5123226D1*
X5418223Y5122379D1*
X5418200Y5361819D1*
X5403953Y5378148D1*
X5394271Y5393948D1*
X5390301Y5402607D1*
X1995824Y3636710D2*
X1836960D1*
Y3712634D1*
X1716737Y3712710D1*
X1721915Y3690823D1*
X1723790Y3667000D1*
X1721915Y3643177D1*
X1716336Y3619940D1*
X1707191Y3597862D1*
X1694705Y3577486D1*
X1679185Y3559315D1*
X1661014Y3543795D1*
X1640638Y3531309D1*
X1618560Y3522164D1*
X1595323Y3516585D1*
X1571500Y3514710D1*
X1547677Y3516585D1*
X1524440Y3522164D1*
X1502362Y3531309D1*
X1481986Y3543795D1*
X1463815Y3559315D1*
X1448295Y3577486D1*
X1444584Y3583040D1*
X1433302Y3568096D1*
X1416404Y3551198D1*
X1397071Y3537151D1*
X1375779Y3526302D1*
X1353051Y3518918D1*
X1329449Y3515179D1*
X1305551D1*
X1284010Y3518508D1*
X1215854Y3450392D1*
X1215800Y3272278D1*
X1227986Y3282205D1*
X1248362Y3294691D1*
X1270440Y3303836D1*
X1293677Y3309415D1*
X1317500Y3311290D1*
X1341323Y3309415D1*
X1364560Y3303836D1*
X1386638Y3294691D1*
X1407014Y3282205D1*
X1425185Y3266685D1*
X1440705Y3248514D1*
X1444416Y3242960D1*
X1455698Y3257904D1*
X1472596Y3274802D1*
X1491929Y3288849D1*
X1513221Y3299698D1*
X1535949Y3307082D1*
X1559551Y3310821D1*
X1583449D1*
X1607051Y3307082D1*
X1629779Y3299698D1*
X1651071Y3288849D1*
X1670404Y3274802D1*
X1687302Y3257904D1*
X1701349Y3238571D1*
X1712198Y3217279D1*
X1719582Y3194551D1*
X1723321Y3170949D1*
Y3147051D1*
X1719582Y3123449D1*
X1730710Y3158000D1*
X1730960Y3299878D1*
X1732956Y3312477D1*
X1736897Y3324608D1*
X1742689Y3335974D1*
X1750186Y3346294D1*
X1810519Y3406981D1*
X1820219Y3415265D1*
X1831095Y3421930D1*
X1836915Y3424611D1*
X1842711Y3448876D1*
Y3506789D1*
X2066109D1*
X2050298Y3514922D1*
X2035307Y3525814D1*
X2022204Y3538917D1*
X2011312Y3553908D1*
X2002899Y3570419D1*
X1997173Y3588042D1*
X1994274Y3606345D1*
Y3624875D1*
X1995880Y3636677D1*
X2319027Y4271710D2*
X2318960Y4268790D1*
X2665041D1*
X2660207Y4271710D1*
X2318960D1*
X2067746Y2557209D2*
X1842711D1*
Y2633134D1*
X1184132Y2633461D1*
X1171533Y2635456D1*
X1159379Y2639408D1*
X1158750Y2574667D1*
Y2416711D1*
X1168918Y2426879D1*
X1165679Y2448551D1*
Y2472449D1*
X1169418Y2496051D1*
X1176802Y2518779D1*
X1187651Y2540071D1*
X1201698Y2559404D1*
X1218596Y2576302D1*
X1237929Y2590349D1*
X1259221Y2601198D1*
X1281949Y2608582D1*
X1305551Y2612321D1*
X1329449D1*
X1353051Y2608582D1*
X1375779Y2601198D1*
X1397071Y2590349D1*
X1416404Y2576302D1*
X1433302Y2559404D1*
X1444416Y2544460D1*
X1455698Y2559404D1*
X1472596Y2576302D1*
X1491929Y2590349D1*
X1513221Y2601198D1*
X1535949Y2608582D1*
X1559551Y2612321D1*
X1583449D1*
X1607051Y2608582D1*
X1629779Y2601198D1*
X1651071Y2590349D1*
X1670404Y2576302D1*
X1687302Y2559404D1*
X1701349Y2540071D1*
X1712198Y2518779D1*
X1719582Y2496051D1*
X1723321Y2472449D1*
Y2448551D1*
X1719582Y2424949D1*
X1712198Y2402221D1*
X1701349Y2380929D1*
X1687302Y2361596D1*
X1670404Y2344698D1*
X1651071Y2330651D1*
X1629779Y2319802D1*
X1607051Y2312418D1*
X1583449Y2308679D1*
X1559551D1*
X1535949Y2312418D1*
X1513221Y2319802D1*
X1491929Y2330651D1*
X1472596Y2344698D1*
X1455698Y2361596D1*
X1444584Y2376540D1*
X1433302Y2361596D1*
X1416404Y2344698D1*
X1397071Y2330651D1*
X1375779Y2319802D1*
X1353051Y2312418D1*
X1329449Y2308679D1*
X1305551D1*
X1284010Y2312008D1*
X1271797Y2299835D1*
X1271790Y2097706D1*
X1293677Y2102915D1*
X1317500Y2104790D1*
X1341323Y2102915D1*
X1364560Y2097336D1*
X1386638Y2088191D1*
X1407014Y2075705D1*
X1425185Y2060185D1*
X1440705Y2042014D1*
X1444416Y2036460D1*
X1455698Y2051404D1*
X1472596Y2068302D1*
X1491929Y2082349D1*
X1513221Y2093198D1*
X1535949Y2100582D1*
X1559551Y2104321D1*
X1583449D1*
X1607051Y2100582D1*
X1629779Y2093198D1*
X1651071Y2082349D1*
X1670404Y2068302D1*
X1687302Y2051404D1*
X1701349Y2032071D1*
X1712198Y2010779D1*
X1719582Y1988051D1*
X1723321Y1964449D1*
Y1940551D1*
X1719582Y1916949D1*
X1716729Y1906833D1*
X1732430Y1906790D1*
X1740830Y1928167D1*
X1741080Y2220372D1*
X1743075Y2232971D1*
X1747017Y2245103D1*
X1752807Y2256469D1*
X1760305Y2266789D1*
X1765475Y2272314D1*
X1751524Y2286107D1*
X1740632Y2301098D1*
X1732219Y2317609D1*
X1726493Y2335232D1*
X1723594Y2353535D1*
Y2372065D1*
X1726493Y2390368D1*
X1732219Y2407991D1*
X1740632Y2424502D1*
X1751524Y2439493D1*
X1764627Y2452596D1*
X1779618Y2463488D1*
X1796129Y2471901D1*
X1813752Y2477627D1*
X1832055Y2480526D1*
X1844324Y2480772D1*
X1883726Y2519814D1*
X1894046Y2527311D1*
X1905412Y2533103D1*
X1917543Y2537044D1*
X1930142Y2539040D1*
X2072783Y2539290D1*
X2068951Y2551048D1*
X7355777Y4716210D2*
X7248408D1*
X7248483Y4642371D1*
X8052478Y4642040D1*
X8065077Y4640044D1*
X8077208Y4636102D1*
X8088574Y4630311D1*
X8098894Y4622814D1*
X8123109Y4598953D1*
X8126700Y4612792D1*
X8133791Y4629912D1*
X8143473Y4645712D1*
X8156917Y4661105D1*
X8143870Y4664198D1*
X8132085Y4669080D1*
X8121209Y4675745D1*
X8111492Y4684047D1*
X7871305Y4924234D1*
X7650247Y4924210D1*
X7650291Y4716209D1*
X7355711Y4716301D1*
X7085986Y4716210D2*
X6873710D1*
Y4792134D1*
X6741091Y4792210D1*
X6732790Y4770833D1*
X6732540Y4613122D1*
X6730544Y4600523D1*
X6726602Y4588392D1*
X6720811Y4577026D1*
X6713314Y4566706D1*
X6673082Y4526121D1*
X6676392Y4504102D1*
X6688523Y4508044D1*
X6701122Y4510039D1*
X6870833Y4510290D1*
X6885143D1*
X6885210Y4586290D1*
X7088010D1*
X7086154Y4597929D1*
X7085903Y4716143D1*
X9716798Y5351210D2*
X9455756D1*
X9454418Y5348510D1*
X9693377Y5348290D1*
X9782791D1*
X9777957Y5351210D1*
X9716710Y5351301D1*
X7367277Y3636710D2*
X6945090Y3636633D1*
Y3571099D1*
X6966467Y3562790D1*
X7191323D1*
X7228256Y3599314D1*
X7238576Y3606811D1*
X7249942Y3612602D1*
X7262073Y3616544D1*
X7274672Y3618540D1*
X7444383Y3618790D1*
X7481297D1*
X7463445Y3636726D1*
X7367210Y3636801D1*
X7096760Y3951290D2*
X7141877D1*
X7165211Y3954209D1*
X7835210Y3954131D1*
X7835460Y3872922D1*
X7837456Y3860323D1*
X7841398Y3848192D1*
X7847189Y3836826D1*
X7854686Y3826506D1*
X7915019Y3765819D1*
X7924719Y3757535D1*
X7935595Y3750870D1*
X7947380Y3745988D1*
X7959783Y3743011D1*
X7972551Y3742010D1*
X8016557Y3742005D1*
X8025407Y3733504D1*
X8040398Y3722612D1*
X8056909Y3714199D1*
X8074532Y3708473D1*
X8079110Y3707314D1*
X7661790Y3707292D1*
Y3951290D1*
X7141877D1*
X7094387Y3954209D1*
X7165299D1*
X6924225Y2557210D2*
X6890960D1*
Y2633134D1*
X6857422Y2633460D1*
X6844823Y2635456D1*
X6832692Y2639398D1*
X6821326Y2645189D1*
X6811006Y2652687D1*
X6750319Y2713019D1*
X6742035Y2722719D1*
X6735370Y2733595D1*
X6730489Y2745380D1*
X6727511Y2757783D1*
X6726511Y2770525D1*
X6726510Y2975669D1*
X6718004Y2984607D1*
X6707112Y2999598D1*
X6698699Y3016109D1*
X6692973Y3033732D1*
X6690074Y3052035D1*
X6689942Y3067199D1*
X6660713Y3038002D1*
X6669336Y3015560D1*
X6674915Y2992323D1*
X6676790Y2968500D1*
X6674915Y2944677D1*
X6669336Y2921440D1*
X6660191Y2899362D1*
X6647705Y2878986D1*
X6632185Y2860815D1*
X6614014Y2845295D1*
X6608460Y2841584D1*
X6623404Y2830302D1*
X6640302Y2813404D1*
X6654349Y2794071D1*
X6665198Y2772779D1*
X6672582Y2750051D1*
X6676321Y2726449D1*
Y2702551D1*
X6672582Y2678949D1*
X6665198Y2656221D1*
X6654349Y2634929D1*
X6640302Y2615596D1*
X6638622Y2613778D1*
X6758178Y2613550D1*
X6770777Y2611554D1*
X6782908Y2607612D1*
X6794274Y2601821D1*
X6804594Y2594323D1*
X6865281Y2533991D1*
X6873565Y2524291D1*
X6880230Y2513415D1*
X6885111Y2501630D1*
X6888089Y2489227D1*
X6889089Y2476485D1*
X6889090Y2427200D1*
X6948374Y2427290D1*
X6936963Y2440688D1*
X6927281Y2456488D1*
X6920190Y2473608D1*
X6915864Y2491627D1*
X6914410Y2510100D1*
X6915864Y2528573D1*
X6920190Y2546592D1*
X6924294Y2557232D1*
X8954711Y3245347D2*
Y3268134D1*
X8814435Y3268210D1*
X8805493Y3259704D1*
X8790502Y3248812D1*
X8784213Y3245290D1*
X8954683D1*
X7273761Y1477710D2*
X6923215D1*
X6918543Y1462270D1*
X7289016Y1462300D1*
X7647298Y2112710D2*
X7556152D1*
X7553877Y2109790D1*
X7713291D1*
X7708457Y2112710D1*
X7647210Y2112801D1*
X7941790Y1963683D2*
Y1848292D1*
X7992954Y1848290D1*
X8009248Y1862537D1*
X8013856Y1865616D1*
X7960856Y1919006D1*
X7953359Y1929326D1*
X7947568Y1940692D1*
X7943626Y1952823D1*
X7942378Y1959108D1*
X1169008Y3633510D2*
X1165679Y3655051D1*
Y3678949D1*
X1169418Y3702551D1*
X1176802Y3725279D1*
X1184525Y3740988D1*
X1158792Y3766746D1*
X1158750Y3623299D1*
X1168999Y3633461D1*
X6168321Y3972551D2*
X6164582Y3948949D1*
X6157198Y3926221D1*
X6146349Y3904929D1*
X6132302Y3885596D1*
X6115404Y3868698D1*
X6100460Y3857584D1*
X6115404Y3846302D1*
X6132302Y3829404D1*
X6146349Y3810071D1*
X6157198Y3788779D1*
X6164582Y3766051D1*
X6168321Y3742449D1*
Y3718551D1*
X6164582Y3694949D1*
X6157198Y3672221D1*
X6146349Y3650929D1*
X6132302Y3631596D1*
X6115404Y3614698D1*
X6100460Y3603584D1*
X6115404Y3592302D1*
X6132302Y3575404D1*
X6146349Y3556071D1*
X6157198Y3534779D1*
X6164582Y3512051D1*
X6168321Y3488449D1*
Y3464551D1*
X6164582Y3440949D1*
X6161729Y3430833D1*
X6379227Y3430790D1*
X6374085Y3452677D1*
X6372210Y3476500D1*
X6374085Y3500323D1*
X6379664Y3523560D1*
X6388809Y3545638D1*
X6401295Y3566014D1*
X6416815Y3584185D1*
X6434986Y3599705D1*
X6440540Y3603416D1*
X6425596Y3614698D1*
X6408698Y3631596D1*
X6394651Y3650929D1*
X6383802Y3672221D1*
X6376418Y3694949D1*
X6372679Y3718551D1*
Y3742449D1*
X6376418Y3766051D1*
X6383802Y3788779D1*
X6394651Y3810071D1*
X6408698Y3829404D1*
X6425596Y3846302D1*
X6440540Y3857416D1*
X6425596Y3868698D1*
X6408698Y3885596D1*
X6394651Y3904929D1*
X6383802Y3926221D1*
X6376418Y3948949D1*
X6372679Y3972551D1*
Y3996449D1*
X6376418Y4020051D1*
X6379271Y4030167D1*
X6161737Y4030210D1*
X6166915Y4008323D1*
X6168790Y3984500D1*
X6168321Y3972551D1*
X6649859Y3898210D2*
X6640302Y3885596D1*
X6623404Y3868698D1*
X6608460Y3857584D1*
X6623404Y3846302D1*
X6640302Y3829404D1*
X6654349Y3810071D1*
X6665198Y3788779D1*
X6672582Y3766051D1*
X6676321Y3742449D1*
Y3718551D1*
X6672582Y3694949D1*
X6665198Y3672221D1*
X6654349Y3650929D1*
X6640302Y3631596D1*
X6623404Y3614698D1*
X6608460Y3603584D1*
X6623404Y3592302D1*
X6640302Y3575404D1*
X6654349Y3556071D1*
X6665198Y3534779D1*
X6672582Y3512051D1*
X6676321Y3488449D1*
Y3464551D1*
X6672582Y3440949D1*
X6669729Y3430833D1*
X6855555Y3430790D1*
X6801987Y3484706D1*
X6794489Y3495026D1*
X6788698Y3506392D1*
X6784756Y3518523D1*
X6782761Y3531122D1*
X6782510Y3700833D1*
Y3737565D1*
X6768263Y3753888D1*
X6758581Y3769688D1*
X6751490Y3786808D1*
X6747164Y3804827D1*
X6745710Y3823300D1*
X6747164Y3841773D1*
X6751490Y3859792D1*
X6758581Y3876912D1*
X6768263Y3892712D1*
X6772591Y3898201D1*
X6650048Y3898210D1*
X5610215Y3070210D2*
X5610210Y3271186D1*
X5603055Y3263957D1*
X5602800Y2990122D1*
X5600804Y2977523D1*
X5596862Y2965392D1*
X5591071Y2954026D1*
X5583574Y2943706D1*
X5463747Y2823525D1*
X5449893Y2809672D1*
X5469408Y2817720D1*
X5487427Y2822046D1*
X5505900Y2823500D1*
X5524373Y2822046D1*
X5542392Y2817720D1*
X5559512Y2810629D1*
X5575312Y2800947D1*
X5589402Y2788912D1*
X5601437Y2774822D1*
X5610216Y2760633D1*
X5610211Y3070233D1*
X6161729Y3268167D2*
X6166915Y3246323D1*
X6168790Y3222500D1*
X6168407Y3212745D1*
X6182238Y3210327D1*
X6199861Y3204601D1*
X6216372Y3196188D1*
X6231363Y3185296D1*
X6240213Y3176795D1*
X6379162Y3176790D1*
X6374085Y3198677D1*
X6372210Y3222500D1*
X6374085Y3246323D1*
X6379271Y3268167D1*
X6161701Y3268210D1*
X8020831Y4126042D2*
X8009300Y4125410D1*
X7990827Y4126864D1*
X7972808Y4131190D1*
X7955688Y4138281D1*
X7941786Y4146695D1*
X7946109Y4135983D1*
X7978314Y4103424D1*
X7985811Y4093104D1*
X7991602Y4081738D1*
X7993818Y4075726D1*
X8009300Y4075590D1*
X8020831Y4074958D1*
X8020810Y4125956D1*
X8141684Y3712131D2*
X8129668Y3708473D1*
X8125777Y3707314D1*
X8141727D1*
X3522210Y2867633D2*
Y2904000D1*
X1730710Y3121633D2*
Y3158000D1*
X2050776Y1164354D2*
Y1477714D1*
X2024606Y1471148D1*
X1938290Y1385187D1*
X1927971Y1377689D1*
X1916605Y1371898D1*
X1904473Y1367956D1*
X1891875Y1365960D1*
X1722163Y1365710D1*
X1240122Y1365960D1*
X1227523Y1367956D1*
X1215392Y1371898D1*
X1204026Y1377689D1*
X1193706Y1385187D1*
X1158792Y1419746D1*
X1158750Y1158716D1*
X2050945Y1158750D1*
X2050777Y1164288D1*
X3684790Y1893773D2*
Y1861690D1*
D18*
X3603500Y5254500D3*
X3698500D3*
X3793500D3*
Y5524500D3*
X3698500D3*
X3603500D3*
Y4175000D3*
X3698500D3*
X3793500D3*
Y4445000D3*
X3698500D3*
X3603500D3*
Y3095500D3*
X3698500D3*
X3793500D3*
Y3365500D3*
X3698500D3*
X3603500D3*
Y2016000D3*
X3698500D3*
X3793500D3*
Y2286000D3*
X3698500D3*
X3603500D3*
D20*
X5635500Y5572000D3*
Y5477000D3*
Y5382000D3*
X5905500D3*
Y5477000D3*
Y5572000D3*
X6270500D3*
Y5477000D3*
Y5382000D3*
X6540500D3*
Y5477000D3*
Y5572000D3*
X5635500Y2460500D3*
Y2365500D3*
Y2270500D3*
X5905500D3*
Y2365500D3*
Y2460500D3*
X6270500D3*
Y2365500D3*
Y2270500D3*
X6540500D3*
Y2365500D3*
Y2460500D3*
D21*
X5953000Y1254000D3*
D22*
X6207000D3*
X6461000D3*
X6715000D3*
X6969000D3*
X7223000D3*
X7477000D3*
X7731000D3*
D21*
X8239000D3*
D22*
X8493000D3*
X8747000D3*
X9001000D3*
X9255000D3*
X9509000D3*
X9763000D3*
X10017000D3*
D23*
X3820000Y4937000D3*
X4100000D3*
D24*
X4048000Y5508500D3*
Y5228500D3*
D23*
X4492500Y5191000D3*
X4772500D3*
X3799750Y3857500D3*
X4079750D3*
D24*
X4048000Y4429000D3*
Y4149000D3*
D23*
X1984250Y4111500D3*
X2264250D3*
X4504000D3*
X4784000D3*
X3799750Y2778000D3*
X4079750D3*
D24*
X4048000Y3349500D3*
Y3069500D3*
D23*
X1990000Y3032000D3*
X2270000D3*
X4492500D3*
X4772500D3*
X3799750Y1698500D3*
X4079750D3*
D24*
X4048000Y2270000D3*
Y1990000D3*
D23*
X2000123Y1952500D3*
X2280123D3*
X4476623D3*
X4756623D3*
X5635500Y4810000D3*
X5915500D3*
X1978500Y5191000D3*
X2258500D3*
X5915500Y5127500D3*
X5635500D3*
X7021000Y5191000D3*
X7301000D3*
X9102000D3*
X9382000D3*
X6524500Y4810000D3*
X6244500D3*
X6524500Y5127500D3*
X6244500D3*
X7032500Y4111500D3*
X7312500D3*
X9102000D3*
X9382000D3*
X5635500Y1698500D3*
X5915500D3*
X5635500Y2016000D3*
X5915500D3*
X7038250Y3032000D3*
X7318250D3*
X9102000D3*
X9382000D3*
X6524500Y1698500D3*
X6244500D3*
X6524500Y2016000D3*
X6244500D3*
X7032500Y1952500D3*
X7312500D3*
X9128000D3*
X9408000D3*
D21*
X7731000Y6080000D3*
D22*
X7985000D3*
X8239000D3*
X8493000D3*
X8747000D3*
X9001000D3*
X9255000D3*
X9509000D3*
D21*
X10525000Y1762000D3*
D22*
X10271000D3*
X10525000Y2016000D3*
X10271000D3*
X10525000Y2270000D3*
X10271000D3*
X10525000Y2524000D3*
X10271000D3*
X10525000Y2778000D3*
X10271000D3*
X10525000Y3032000D3*
X10271000D3*
X10525000Y3286000D3*
X10271000D3*
X10525000Y3540000D3*
X10271000D3*
X10525000Y3794000D3*
X10271000D3*
X10525000Y4048000D3*
X10271000D3*
X10525000Y4302000D3*
X10271000D3*
X10525000Y4556000D3*
X10271000D3*
X10525000Y4810000D3*
X10271000D3*
X10525000Y5064000D3*
X10271000D3*
X10525000Y5318000D3*
X10271000D3*
X10525000Y5572000D3*
X10271000D3*
X10525000Y5826000D3*
X10271000D3*
X10525000Y6080000D3*
X10271000D3*
D21*
X9509000Y6461000D3*
D22*
X9255000D3*
X9001000D3*
X8747000D3*
D21*
X2524000Y6080000D3*
D22*
X2778000D3*
D25*
X3052250Y4937000D3*
X3179250D3*
X3306250D3*
X3433250D3*
Y5477000D3*
X3306250D3*
X3179250D3*
X3052250D3*
X3032000Y3857500D3*
X3159000D3*
X3286000D3*
X3413000D3*
Y4397500D3*
X3286000D3*
X3159000D3*
X3032000D3*
Y2778000D3*
X3159000D3*
X3286000D3*
X3413000D3*
Y3318000D3*
X3286000D3*
X3159000D3*
X3032000D3*
Y1698500D3*
X3159000D3*
X3286000D3*
X3413000D3*
Y2238500D3*
X3286000D3*
X3159000D3*
X3032000D3*
X8239000Y4937000D3*
X8366000D3*
X8493000D3*
X8620000D3*
Y5477000D3*
X8493000D3*
X8366000D3*
X8239000D3*
Y3857500D3*
X8366000D3*
X8493000D3*
X8620000D3*
Y4397500D3*
X8493000D3*
X8366000D3*
X8239000D3*
Y2778000D3*
X8366000D3*
X8493000D3*
X8620000D3*
Y3318000D3*
X8493000D3*
X8366000D3*
X8239000D3*
Y1698500D3*
X8366000D3*
X8493000D3*
X8620000D3*
Y2238500D3*
X8493000D3*
X8366000D3*
X8239000D3*
D21*
X4175000Y1254000D3*
D22*
X4429000D3*
X4683000D3*
X4937000D3*
X5191000D3*
X5445000D3*
D21*
X3286000Y5826000D3*
D22*
Y6080000D3*
X3540000Y5826000D3*
Y6080000D3*
X3794000Y5826000D3*
Y6080000D3*
X4048000Y5826000D3*
Y6080000D3*
X4302000Y5826000D3*
Y6080000D3*
X4556000Y5826000D3*
Y6080000D3*
X4810000Y5826000D3*
Y6080000D3*
X5064000Y5826000D3*
Y6080000D3*
D21*
X5445000Y5826000D3*
D22*
Y6080000D3*
X5699000Y5826000D3*
Y6080000D3*
X5953000Y5826000D3*
Y6080000D3*
X6207000Y5826000D3*
Y6080000D3*
X6461000Y5826000D3*
Y6080000D3*
X6715000Y5826000D3*
Y6080000D3*
X6969000Y5826000D3*
Y6080000D3*
X7223000Y5826000D3*
Y6080000D3*
D23*
X2258500Y4873500D3*
X1978500D3*
X2460500D3*
X2740500D3*
X2258500Y5508500D3*
X1978500D3*
X2460500D3*
X2740500D3*
Y5191000D3*
X2460500D3*
X4772500Y4873500D3*
X4492500D3*
X4963000D3*
X5243000D3*
X4492500Y5508500D3*
X4772500D3*
X4963000D3*
X5243000D3*
Y5191000D3*
X4963000D3*
X2264250Y3794000D3*
X1984250D3*
X2466250D3*
X2746250D3*
X1984250Y4429000D3*
X2264250D3*
X2466250D3*
X2746250D3*
Y4111500D3*
X2466250D3*
X4784000Y3794000D3*
X4504000D3*
X4974500D3*
X5254500D3*
X4504000Y4429000D3*
X4784000D3*
X4974500D3*
X5254500D3*
Y4111500D3*
X4974500D3*
X2270000Y2714500D3*
X1990000D3*
X2472000D3*
X2752000D3*
X1990000Y3349500D3*
X2270000D3*
X2472000D3*
X2752000D3*
Y3032000D3*
X2472000D3*
X4772500Y2714500D3*
X4492500D3*
X4963000D3*
X5243000D3*
X4492500Y3349500D3*
X4772500D3*
X4963000D3*
X5243000D3*
Y3032000D3*
X4963000D3*
X2280123Y1635000D3*
X2000123D3*
X2470627D3*
X2750627D3*
X2000123Y2270000D3*
X2280123D3*
X2470627D3*
X2750627D3*
Y1952500D3*
X2470627D3*
X4756623Y1635000D3*
X4476623D3*
X4958627D3*
X5238627D3*
X4476623Y2270000D3*
X4756623D3*
X4958627D3*
X5238627D3*
Y1952500D3*
X4958627D3*
X7301000Y4873500D3*
X7021000D3*
X7503000D3*
X7783000D3*
X7021000Y5508500D3*
X7301000D3*
X7503000D3*
X7783000D3*
Y5191000D3*
X7503000D3*
X9382000Y4873500D3*
X9102000D3*
X9584000D3*
X9864000D3*
X9102000Y5508500D3*
X9382000D3*
X9584000D3*
X9864000D3*
Y5191000D3*
X9584000D3*
X7312500Y3794000D3*
X7032500D3*
X7514500D3*
X7794500D3*
X7032500Y4429000D3*
X7312500D3*
X7514500D3*
X7794500D3*
Y4111500D3*
X7514500D3*
X9382000Y3794000D3*
X9102000D3*
X9584000D3*
X9864000D3*
X9102000Y4429000D3*
X9382000D3*
X9584000D3*
X9864000D3*
Y4111500D3*
X9584000D3*
X7318250Y2714500D3*
X7038250D3*
X7520250D3*
X7800250D3*
X7038250Y3349500D3*
X7318250D3*
X7520250D3*
X7800250D3*
Y3032000D3*
X7520250D3*
X9382000Y2714500D3*
X9102000D3*
X9584000D3*
X9864000D3*
X9102000Y3349500D3*
X9382000D3*
X9584000D3*
X9864000D3*
Y3032000D3*
X9584000D3*
X7312500Y1635000D3*
X7032500D3*
X7514500D3*
X7794500D3*
X7032500Y2270000D3*
X7312500D3*
X7514500D3*
X7794500D3*
Y1952500D3*
X7514500D3*
X9408000Y1635000D3*
X9128000D3*
X9610000D3*
X9890000D3*
X9128000Y2270000D3*
X9408000D3*
X9610000D3*
X9890000D3*
Y1952500D3*
X9610000D3*
D21*
X1317500Y5318000D3*
D22*
Y5572000D3*
Y5826000D3*
Y6080000D3*
D21*
X1571500Y5318000D3*
D22*
Y5572000D3*
Y5826000D3*
Y6080000D3*
D21*
X1317500Y4111500D3*
D22*
Y4365500D3*
Y4619500D3*
Y4873500D3*
D21*
X1571500Y4111500D3*
D22*
Y4365500D3*
Y4619500D3*
Y4873500D3*
D21*
X1317500Y2905000D3*
D22*
Y3159000D3*
Y3413000D3*
Y3667000D3*
D21*
X1571500Y2905000D3*
D22*
Y3159000D3*
Y3413000D3*
Y3667000D3*
D21*
X1317500Y1698500D3*
D22*
Y1952500D3*
Y2206500D3*
Y2460500D3*
D21*
X1571500Y1698500D3*
D22*
Y1952500D3*
Y2206500D3*
Y2460500D3*
D21*
X5762500Y4492500D3*
D22*
X6016500D3*
X6270500D3*
X6524500D3*
D21*
X5762500Y4238500D3*
D22*
X6016500D3*
X6270500D3*
X6524500D3*
D21*
X5762500Y3984500D3*
D22*
X6016500D3*
X6270500D3*
X6524500D3*
D21*
X5762500Y3730500D3*
D22*
X6016500D3*
X6270500D3*
X6524500D3*
D21*
X5762500Y3476500D3*
D22*
X6016500D3*
X6270500D3*
X6524500D3*
D21*
X5762500Y3222500D3*
D22*
X6016500D3*
X6270500D3*
X6524500D3*
D21*
X5762500Y2968500D3*
D22*
X6016500D3*
X6270500D3*
X6524500D3*
D21*
X5762500Y2714500D3*
D22*
X6016500D3*
X6270500D3*
X6524500D3*
M02*
