G04 DipTrace 3.3.1.3*
G04 TopAssy.gbr*
%MOMM*%
G04 #@! TF.FileFunction,Drawing,Top*
G04 #@! TF.Part,Single*
%ADD10C,0.25*%
%ADD51C,0.07843*%
%FSLAX35Y35*%
G04*
G71*
G90*
G75*
G01*
G04 TopAssy*
%LPD*%
X5778000Y1405992D2*
D10*
X7906000D1*
X8064000D2*
X10192000D1*
X7556000Y6231992D2*
X9684000D1*
X9736000Y6308994D2*
X8520000D1*
X2297000Y6232006D2*
X3005000D1*
X3974000Y1405992D2*
X5646000D1*
X1165494Y5091000D2*
Y6307000D1*
X1419494Y5091000D2*
Y6307000D1*
X1165494Y3884500D2*
Y5100500D1*
X1419494Y3884500D2*
Y5100500D1*
X1165494Y2678000D2*
Y3894000D1*
X1419494Y2678000D2*
Y3894000D1*
X1165494Y1471500D2*
Y2687500D1*
X1419494Y1471500D2*
Y2687500D1*
X5535500Y4644506D2*
X6751500D1*
X5535500Y4390506D2*
X6751500D1*
X5535500Y4136506D2*
X6751500D1*
X5535500Y3882506D2*
X6751500D1*
X5535500Y3628506D2*
X6751500D1*
X5535500Y3374506D2*
X6751500D1*
X5535500Y3120506D2*
X6751500D1*
X5535500Y2866506D2*
X6751500D1*
X6589498Y1503270D2*
D51*
Y1452226D1*
X6611398D1*
X6618698Y1454697D1*
X6621112Y1457112D1*
X6623527Y1461941D1*
Y1469241D1*
X6621112Y1474126D1*
X6618698Y1476541D1*
X6611398Y1478955D1*
X6618698Y1481426D1*
X6621112Y1483841D1*
X6623527Y1488670D1*
Y1493555D1*
X6621112Y1498385D1*
X6618698Y1500855D1*
X6611398Y1503270D1*
X6589498D1*
Y1478955D2*
X6611398D1*
X6653813Y1503270D2*
X6648928Y1500855D1*
X6644098Y1495970D1*
X6641628Y1491141D1*
X6639213Y1483841D1*
Y1471655D1*
X6641628Y1464412D1*
X6644098Y1459526D1*
X6648928Y1454697D1*
X6653813Y1452226D1*
X6663528D1*
X6668357Y1454697D1*
X6673242Y1459526D1*
X6675657Y1464412D1*
X6678072Y1471655D1*
Y1483841D1*
X6675657Y1491141D1*
X6673242Y1495970D1*
X6668357Y1500855D1*
X6663528Y1503270D1*
X6653813D1*
X6732672Y1452226D2*
X6713187Y1503270D1*
X6693758Y1452226D1*
X6701058Y1469241D2*
X6725372D1*
X6748359Y1478955D2*
X6770203D1*
X6777503Y1481426D1*
X6779973Y1483841D1*
X6782388Y1488670D1*
Y1493555D1*
X6779973Y1498385D1*
X6777503Y1500855D1*
X6770203Y1503270D1*
X6748359D1*
Y1452226D1*
X6765373Y1478955D2*
X6782388Y1452226D1*
X6798074Y1503270D2*
Y1452226D1*
X6815089D1*
X6822389Y1454697D1*
X6827274Y1459526D1*
X6829689Y1464412D1*
X6832103Y1471655D1*
Y1483841D1*
X6829689Y1491141D1*
X6827274Y1495970D1*
X6822389Y1500855D1*
X6815089Y1503270D1*
X6798074D1*
X6928727D2*
X6897168D1*
Y1452226D1*
X6928727D1*
X6897168Y1478955D2*
X6916598D1*
X6944413Y1503270D2*
Y1452226D1*
X6961428D1*
X6968728Y1454697D1*
X6973613Y1459526D1*
X6976028Y1464412D1*
X6978442Y1471655D1*
Y1483841D1*
X6976028Y1491141D1*
X6973613Y1495970D1*
X6968728Y1500855D1*
X6961428Y1503270D1*
X6944413D1*
X7030572Y1491141D2*
X7028158Y1495970D1*
X7023272Y1500855D1*
X7018443Y1503270D1*
X7008729D1*
X7003843Y1500855D1*
X6999014Y1495970D1*
X6996543Y1491141D1*
X6994129Y1483841D1*
Y1471655D1*
X6996543Y1464412D1*
X6999014Y1459526D1*
X7003843Y1454697D1*
X7008729Y1452226D1*
X7018443D1*
X7023272Y1454697D1*
X7028158Y1459526D1*
X7030572Y1464412D1*
Y1471655D1*
X7018443D1*
X7077817Y1503270D2*
X7046259D1*
Y1452226D1*
X7077817D1*
X7046259Y1478955D2*
X7065688D1*
X8875498Y1503270D2*
Y1452226D1*
X8897398D1*
X8904698Y1454697D1*
X8907112Y1457112D1*
X8909527Y1461941D1*
Y1469241D1*
X8907112Y1474126D1*
X8904698Y1476541D1*
X8897398Y1478955D1*
X8904698Y1481426D1*
X8907112Y1483841D1*
X8909527Y1488670D1*
Y1493555D1*
X8907112Y1498385D1*
X8904698Y1500855D1*
X8897398Y1503270D1*
X8875498D1*
Y1478955D2*
X8897398D1*
X8939813Y1503270D2*
X8934928Y1500855D1*
X8930098Y1495970D1*
X8927628Y1491141D1*
X8925213Y1483841D1*
Y1471655D1*
X8927628Y1464412D1*
X8930098Y1459526D1*
X8934928Y1454697D1*
X8939813Y1452226D1*
X8949528D1*
X8954357Y1454697D1*
X8959242Y1459526D1*
X8961657Y1464412D1*
X8964072Y1471655D1*
Y1483841D1*
X8961657Y1491141D1*
X8959242Y1495970D1*
X8954357Y1500855D1*
X8949528Y1503270D1*
X8939813D1*
X9018672Y1452226D2*
X8999187Y1503270D1*
X8979758Y1452226D1*
X8987058Y1469241D2*
X9011372D1*
X9034359Y1478955D2*
X9056203D1*
X9063503Y1481426D1*
X9065973Y1483841D1*
X9068388Y1488670D1*
Y1493555D1*
X9065973Y1498385D1*
X9063503Y1500855D1*
X9056203Y1503270D1*
X9034359D1*
Y1452226D1*
X9051373Y1478955D2*
X9068388Y1452226D1*
X9084074Y1503270D2*
Y1452226D1*
X9101089D1*
X9108389Y1454697D1*
X9113274Y1459526D1*
X9115689Y1464412D1*
X9118103Y1471655D1*
Y1483841D1*
X9115689Y1491141D1*
X9113274Y1495970D1*
X9108389Y1500855D1*
X9101089Y1503270D1*
X9084074D1*
X9214727D2*
X9183168D1*
Y1452226D1*
X9214727D1*
X9183168Y1478955D2*
X9202598D1*
X9230413Y1503270D2*
Y1452226D1*
X9247428D1*
X9254728Y1454697D1*
X9259613Y1459526D1*
X9262028Y1464412D1*
X9264442Y1471655D1*
Y1483841D1*
X9262028Y1491141D1*
X9259613Y1495970D1*
X9254728Y1500855D1*
X9247428Y1503270D1*
X9230413D1*
X9316572Y1491141D2*
X9314158Y1495970D1*
X9309272Y1500855D1*
X9304443Y1503270D1*
X9294729D1*
X9289843Y1500855D1*
X9285014Y1495970D1*
X9282543Y1491141D1*
X9280129Y1483841D1*
Y1471655D1*
X9282543Y1464412D1*
X9285014Y1459526D1*
X9289843Y1454697D1*
X9294729Y1452226D1*
X9304443D1*
X9309272Y1454697D1*
X9314158Y1459526D1*
X9316572Y1464412D1*
Y1471655D1*
X9304443D1*
X9363817Y1503270D2*
X9332259D1*
Y1452226D1*
X9363817D1*
X9332259Y1478955D2*
X9351688D1*
X8367498Y6329270D2*
Y6278226D1*
X8389398D1*
X8396698Y6280697D1*
X8399112Y6283112D1*
X8401527Y6287941D1*
Y6295241D1*
X8399112Y6300126D1*
X8396698Y6302541D1*
X8389398Y6304955D1*
X8396698Y6307426D1*
X8399112Y6309841D1*
X8401527Y6314670D1*
Y6319555D1*
X8399112Y6324385D1*
X8396698Y6326855D1*
X8389398Y6329270D1*
X8367498D1*
Y6304955D2*
X8389398D1*
X8431813Y6329270D2*
X8426928Y6326855D1*
X8422098Y6321970D1*
X8419628Y6317141D1*
X8417213Y6309841D1*
Y6297655D1*
X8419628Y6290412D1*
X8422098Y6285526D1*
X8426928Y6280697D1*
X8431813Y6278226D1*
X8441528D1*
X8446357Y6280697D1*
X8451242Y6285526D1*
X8453657Y6290412D1*
X8456072Y6297655D1*
Y6309841D1*
X8453657Y6317141D1*
X8451242Y6321970D1*
X8446357Y6326855D1*
X8441528Y6329270D1*
X8431813D1*
X8510672Y6278226D2*
X8491187Y6329270D1*
X8471758Y6278226D1*
X8479058Y6295241D2*
X8503372D1*
X8526359Y6304955D2*
X8548203D1*
X8555503Y6307426D1*
X8557973Y6309841D1*
X8560388Y6314670D1*
Y6319555D1*
X8557973Y6324385D1*
X8555503Y6326855D1*
X8548203Y6329270D1*
X8526359D1*
Y6278226D1*
X8543373Y6304955D2*
X8560388Y6278226D1*
X8576074Y6329270D2*
Y6278226D1*
X8593089D1*
X8600389Y6280697D1*
X8605274Y6285526D1*
X8607689Y6290412D1*
X8610103Y6297655D1*
Y6309841D1*
X8607689Y6317141D1*
X8605274Y6321970D1*
X8600389Y6326855D1*
X8593089Y6329270D1*
X8576074D1*
X8706727D2*
X8675168D1*
Y6278226D1*
X8706727D1*
X8675168Y6304955D2*
X8694598D1*
X8722413Y6329270D2*
Y6278226D1*
X8739428D1*
X8746728Y6280697D1*
X8751613Y6285526D1*
X8754028Y6290412D1*
X8756442Y6297655D1*
Y6309841D1*
X8754028Y6317141D1*
X8751613Y6321970D1*
X8746728Y6326855D1*
X8739428Y6329270D1*
X8722413D1*
X8808572Y6317141D2*
X8806158Y6321970D1*
X8801272Y6326855D1*
X8796443Y6329270D1*
X8786729D1*
X8781843Y6326855D1*
X8777014Y6321970D1*
X8774543Y6317141D1*
X8772129Y6309841D1*
Y6297655D1*
X8774543Y6290412D1*
X8777014Y6285526D1*
X8781843Y6280697D1*
X8786729Y6278226D1*
X8796443D1*
X8801272Y6280697D1*
X8806158Y6285526D1*
X8808572Y6290412D1*
Y6297655D1*
X8796443D1*
X8855817Y6329270D2*
X8824259D1*
Y6278226D1*
X8855817D1*
X8824259Y6304955D2*
X8843688D1*
X9380532Y6224230D2*
Y6275274D1*
X9358633D1*
X9351333Y6272803D1*
X9348918Y6270389D1*
X9346503Y6265559D1*
Y6258259D1*
X9348918Y6253374D1*
X9351333Y6250959D1*
X9358633Y6248545D1*
X9351333Y6246074D1*
X9348918Y6243659D1*
X9346503Y6238830D1*
Y6233945D1*
X9348918Y6229116D1*
X9351333Y6226645D1*
X9358633Y6224230D1*
X9380532D1*
Y6248545D2*
X9358633D1*
X9316217Y6224230D2*
X9321103Y6226645D1*
X9325932Y6231530D1*
X9328403Y6236359D1*
X9330817Y6243659D1*
Y6255845D1*
X9328403Y6263089D1*
X9325932Y6267974D1*
X9321103Y6272803D1*
X9316217Y6275274D1*
X9306503D1*
X9301673Y6272803D1*
X9296788Y6267974D1*
X9294373Y6263089D1*
X9291959Y6255845D1*
Y6243659D1*
X9294373Y6236359D1*
X9296788Y6231530D1*
X9301673Y6226645D1*
X9306503Y6224230D1*
X9316217D1*
X9237358Y6275274D2*
X9256843Y6224230D1*
X9276273Y6275274D1*
X9268973Y6258259D2*
X9244658D1*
X9221672Y6248545D2*
X9199828D1*
X9192528Y6246074D1*
X9190057Y6243659D1*
X9187642Y6238830D1*
Y6233945D1*
X9190057Y6229116D1*
X9192528Y6226645D1*
X9199828Y6224230D1*
X9221672D1*
Y6275274D1*
X9204657Y6248545D2*
X9187642Y6275274D1*
X9171956Y6224230D2*
Y6275274D1*
X9154942D1*
X9147642Y6272803D1*
X9142756Y6267974D1*
X9140342Y6263089D1*
X9137927Y6255845D1*
Y6243659D1*
X9140342Y6236359D1*
X9142756Y6231530D1*
X9147642Y6226645D1*
X9154942Y6224230D1*
X9171956D1*
X9041304D2*
X9072862D1*
Y6275274D1*
X9041304D1*
X9072862Y6248545D2*
X9053433D1*
X9025617Y6224230D2*
Y6275274D1*
X9008603D1*
X9001303Y6272803D1*
X8996417Y6267974D1*
X8994003Y6263089D1*
X8991588Y6255845D1*
Y6243659D1*
X8994003Y6236359D1*
X8996417Y6231530D1*
X9001303Y6226645D1*
X9008603Y6224230D1*
X9025617D1*
X8939458Y6236359D2*
X8941873Y6231530D1*
X8946758Y6226645D1*
X8951587Y6224230D1*
X8961302D1*
X8966187Y6226645D1*
X8971016Y6231530D1*
X8973487Y6236359D1*
X8975902Y6243659D1*
Y6255845D1*
X8973487Y6263089D1*
X8971016Y6267974D1*
X8966187Y6272803D1*
X8961302Y6275274D1*
X8951587D1*
X8946758Y6272803D1*
X8941873Y6267974D1*
X8939458Y6263089D1*
Y6255845D1*
X8951587D1*
X8892213Y6224230D2*
X8923772D1*
Y6275274D1*
X8892213D1*
X8923772Y6248545D2*
X8904343D1*
X2400891Y6316770D2*
Y6265726D1*
X2422791D1*
X2430091Y6268197D1*
X2432506Y6270612D1*
X2434920Y6275441D1*
Y6282741D1*
X2432506Y6287626D1*
X2430091Y6290041D1*
X2422791Y6292455D1*
X2430091Y6294926D1*
X2432506Y6297341D1*
X2434920Y6302170D1*
Y6307055D1*
X2432506Y6311885D1*
X2430091Y6314355D1*
X2422791Y6316770D1*
X2400891D1*
Y6292455D2*
X2422791D1*
X2465207Y6316770D2*
X2460321Y6314355D1*
X2455492Y6309470D1*
X2453021Y6304641D1*
X2450607Y6297341D1*
Y6285155D1*
X2453021Y6277912D1*
X2455492Y6273026D1*
X2460321Y6268197D1*
X2465207Y6265726D1*
X2474921D1*
X2479751Y6268197D1*
X2484636Y6273026D1*
X2487051Y6277912D1*
X2489465Y6285155D1*
Y6297341D1*
X2487051Y6304641D1*
X2484636Y6309470D1*
X2479751Y6314355D1*
X2474921Y6316770D1*
X2465207D1*
X2544066Y6265726D2*
X2524581Y6316770D1*
X2505151Y6265726D1*
X2512451Y6282741D2*
X2536766D1*
X2559752Y6292455D2*
X2581596D1*
X2588896Y6294926D1*
X2591367Y6297341D1*
X2593782Y6302170D1*
Y6307055D1*
X2591367Y6311885D1*
X2588896Y6314355D1*
X2581596Y6316770D1*
X2559752D1*
Y6265726D1*
X2576767Y6292455D2*
X2593782Y6265726D1*
X2609468Y6316770D2*
Y6265726D1*
X2626482D1*
X2633782Y6268197D1*
X2638668Y6273026D1*
X2641082Y6277912D1*
X2643497Y6285155D1*
Y6297341D1*
X2641082Y6304641D1*
X2638668Y6309470D1*
X2633782Y6314355D1*
X2626482Y6316770D1*
X2609468D1*
X2740120D2*
X2708562D1*
Y6265726D1*
X2740120D1*
X2708562Y6292455D2*
X2727991D1*
X2755807Y6316770D2*
Y6265726D1*
X2772821D1*
X2780121Y6268197D1*
X2785007Y6273026D1*
X2787421Y6277912D1*
X2789836Y6285155D1*
Y6297341D1*
X2787421Y6304641D1*
X2785007Y6309470D1*
X2780121Y6314355D1*
X2772821Y6316770D1*
X2755807D1*
X2841966Y6304641D2*
X2839551Y6309470D1*
X2834666Y6314355D1*
X2829837Y6316770D1*
X2820122D1*
X2815237Y6314355D1*
X2810408Y6309470D1*
X2807937Y6304641D1*
X2805522Y6297341D1*
Y6285155D1*
X2807937Y6277912D1*
X2810408Y6273026D1*
X2815237Y6268197D1*
X2820122Y6265726D1*
X2829837D1*
X2834666Y6268197D1*
X2839551Y6273026D1*
X2841966Y6277912D1*
Y6285155D1*
X2829837D1*
X2889211Y6316770D2*
X2857652D1*
Y6265726D1*
X2889211D1*
X2857652Y6292455D2*
X2877081D1*
X4557437Y1503270D2*
Y1452226D1*
X4579337D1*
X4586637Y1454697D1*
X4589051Y1457112D1*
X4591466Y1461941D1*
Y1469241D1*
X4589051Y1474126D1*
X4586637Y1476541D1*
X4579337Y1478955D1*
X4586637Y1481426D1*
X4589051Y1483841D1*
X4591466Y1488670D1*
Y1493555D1*
X4589051Y1498385D1*
X4586637Y1500855D1*
X4579337Y1503270D1*
X4557437D1*
Y1478955D2*
X4579337D1*
X4621752Y1503270D2*
X4616867Y1500855D1*
X4612038Y1495970D1*
X4609567Y1491141D1*
X4607152Y1483841D1*
Y1471655D1*
X4609567Y1464412D1*
X4612038Y1459526D1*
X4616867Y1454697D1*
X4621752Y1452226D1*
X4631467D1*
X4636296Y1454697D1*
X4641182Y1459526D1*
X4643596Y1464412D1*
X4646011Y1471655D1*
Y1483841D1*
X4643596Y1491141D1*
X4641182Y1495970D1*
X4636296Y1500855D1*
X4631467Y1503270D1*
X4621752D1*
X4700612Y1452226D2*
X4681126Y1503270D1*
X4661697Y1452226D1*
X4668997Y1469241D2*
X4693312D1*
X4716298Y1478955D2*
X4738142D1*
X4745442Y1481426D1*
X4747913Y1483841D1*
X4750327Y1488670D1*
Y1493555D1*
X4747913Y1498385D1*
X4745442Y1500855D1*
X4738142Y1503270D1*
X4716298D1*
Y1452226D1*
X4733313Y1478955D2*
X4750327Y1452226D1*
X4766013Y1503270D2*
Y1452226D1*
X4783028D1*
X4790328Y1454697D1*
X4795213Y1459526D1*
X4797628Y1464412D1*
X4800043Y1471655D1*
Y1483841D1*
X4797628Y1491141D1*
X4795213Y1495970D1*
X4790328Y1500855D1*
X4783028Y1503270D1*
X4766013D1*
X4896666D2*
X4865107D1*
Y1452226D1*
X4896666D1*
X4865107Y1478955D2*
X4884537D1*
X4912352Y1503270D2*
Y1452226D1*
X4929367D1*
X4936667Y1454697D1*
X4941552Y1459526D1*
X4943967Y1464412D1*
X4946381Y1471655D1*
Y1483841D1*
X4943967Y1491141D1*
X4941552Y1495970D1*
X4936667Y1500855D1*
X4929367Y1503270D1*
X4912352D1*
X4998512Y1491141D2*
X4996097Y1495970D1*
X4991212Y1500855D1*
X4986382Y1503270D1*
X4976668D1*
X4971782Y1500855D1*
X4966953Y1495970D1*
X4964482Y1491141D1*
X4962068Y1483841D1*
Y1471655D1*
X4964482Y1464412D1*
X4966953Y1459526D1*
X4971782Y1454697D1*
X4976668Y1452226D1*
X4986382D1*
X4991212Y1454697D1*
X4996097Y1459526D1*
X4998512Y1464412D1*
Y1471655D1*
X4986382D1*
X5045756Y1503270D2*
X5014198D1*
Y1452226D1*
X5045756D1*
X5014198Y1478955D2*
X5033627D1*
X1080730Y5446468D2*
X1131774D1*
Y5468367D1*
X1129303Y5475667D1*
X1126889Y5478082D1*
X1122059Y5480497D1*
X1114759D1*
X1109874Y5478082D1*
X1107459Y5475667D1*
X1105045Y5468367D1*
X1102574Y5475667D1*
X1100159Y5478082D1*
X1095330Y5480497D1*
X1090445D1*
X1085616Y5478082D1*
X1083145Y5475667D1*
X1080730Y5468367D1*
Y5446468D1*
X1105045D2*
Y5468367D1*
X1080730Y5510783D2*
X1083145Y5505897D1*
X1088030Y5501068D1*
X1092859Y5498597D1*
X1100159Y5496183D1*
X1112345D1*
X1119589Y5498597D1*
X1124474Y5501068D1*
X1129303Y5505897D1*
X1131774Y5510783D1*
Y5520497D1*
X1129303Y5525327D1*
X1124474Y5530212D1*
X1119589Y5532627D1*
X1112345Y5535041D1*
X1100159D1*
X1092859Y5532627D1*
X1088030Y5530212D1*
X1083145Y5525327D1*
X1080730Y5520497D1*
Y5510783D1*
X1131774Y5589642D2*
X1080730Y5570157D1*
X1131774Y5550727D1*
X1114759Y5558027D2*
Y5582342D1*
X1105045Y5605328D2*
Y5627172D1*
X1102574Y5634472D1*
X1100159Y5636943D1*
X1095330Y5639358D1*
X1090445D1*
X1085616Y5636943D1*
X1083145Y5634472D1*
X1080730Y5627172D1*
Y5605328D1*
X1131774D1*
X1105045Y5622343D2*
X1131774Y5639358D1*
X1080730Y5655044D2*
X1131774D1*
Y5672058D1*
X1129303Y5679358D1*
X1124474Y5684244D1*
X1119589Y5686658D1*
X1112345Y5689073D1*
X1100159D1*
X1092859Y5686658D1*
X1088030Y5684244D1*
X1083145Y5679358D1*
X1080730Y5672058D1*
Y5655044D1*
Y5785696D2*
Y5754138D1*
X1131774D1*
Y5785696D1*
X1105045Y5754138D2*
Y5773567D1*
X1080730Y5801383D2*
X1131774D1*
Y5818397D1*
X1129303Y5825697D1*
X1124474Y5830583D1*
X1119589Y5832997D1*
X1112345Y5835412D1*
X1100159D1*
X1092859Y5832997D1*
X1088030Y5830583D1*
X1083145Y5825697D1*
X1080730Y5818397D1*
Y5801383D1*
X1092859Y5887542D2*
X1088030Y5885127D1*
X1083145Y5880242D1*
X1080730Y5875413D1*
Y5865698D1*
X1083145Y5860813D1*
X1088030Y5855984D1*
X1092859Y5853513D1*
X1100159Y5851098D1*
X1112345D1*
X1119589Y5853513D1*
X1124474Y5855984D1*
X1129303Y5860813D1*
X1131774Y5865698D1*
Y5875413D1*
X1129303Y5880242D1*
X1124474Y5885127D1*
X1119589Y5887542D1*
X1112345D1*
Y5875413D1*
X1080730Y5934787D2*
Y5903228D1*
X1131774D1*
Y5934787D1*
X1105045Y5903228D2*
Y5922657D1*
X1334730Y5446468D2*
X1385774D1*
Y5468367D1*
X1383303Y5475667D1*
X1380889Y5478082D1*
X1376059Y5480497D1*
X1368759D1*
X1363874Y5478082D1*
X1361459Y5475667D1*
X1359045Y5468367D1*
X1356574Y5475667D1*
X1354159Y5478082D1*
X1349330Y5480497D1*
X1344445D1*
X1339616Y5478082D1*
X1337145Y5475667D1*
X1334730Y5468367D1*
Y5446468D1*
X1359045D2*
Y5468367D1*
X1334730Y5510783D2*
X1337145Y5505897D1*
X1342030Y5501068D1*
X1346859Y5498597D1*
X1354159Y5496183D1*
X1366345D1*
X1373589Y5498597D1*
X1378474Y5501068D1*
X1383303Y5505897D1*
X1385774Y5510783D1*
Y5520497D1*
X1383303Y5525327D1*
X1378474Y5530212D1*
X1373589Y5532627D1*
X1366345Y5535041D1*
X1354159D1*
X1346859Y5532627D1*
X1342030Y5530212D1*
X1337145Y5525327D1*
X1334730Y5520497D1*
Y5510783D1*
X1385774Y5589642D2*
X1334730Y5570157D1*
X1385774Y5550727D1*
X1368759Y5558027D2*
Y5582342D1*
X1359045Y5605328D2*
Y5627172D1*
X1356574Y5634472D1*
X1354159Y5636943D1*
X1349330Y5639358D1*
X1344445D1*
X1339616Y5636943D1*
X1337145Y5634472D1*
X1334730Y5627172D1*
Y5605328D1*
X1385774D1*
X1359045Y5622343D2*
X1385774Y5639358D1*
X1334730Y5655044D2*
X1385774D1*
Y5672058D1*
X1383303Y5679358D1*
X1378474Y5684244D1*
X1373589Y5686658D1*
X1366345Y5689073D1*
X1354159D1*
X1346859Y5686658D1*
X1342030Y5684244D1*
X1337145Y5679358D1*
X1334730Y5672058D1*
Y5655044D1*
Y5785696D2*
Y5754138D1*
X1385774D1*
Y5785696D1*
X1359045Y5754138D2*
Y5773567D1*
X1334730Y5801383D2*
X1385774D1*
Y5818397D1*
X1383303Y5825697D1*
X1378474Y5830583D1*
X1373589Y5832997D1*
X1366345Y5835412D1*
X1354159D1*
X1346859Y5832997D1*
X1342030Y5830583D1*
X1337145Y5825697D1*
X1334730Y5818397D1*
Y5801383D1*
X1346859Y5887542D2*
X1342030Y5885127D1*
X1337145Y5880242D1*
X1334730Y5875413D1*
Y5865698D1*
X1337145Y5860813D1*
X1342030Y5855984D1*
X1346859Y5853513D1*
X1354159Y5851098D1*
X1366345D1*
X1373589Y5853513D1*
X1378474Y5855984D1*
X1383303Y5860813D1*
X1385774Y5865698D1*
Y5875413D1*
X1383303Y5880242D1*
X1378474Y5885127D1*
X1373589Y5887542D1*
X1366345D1*
Y5875413D1*
X1334730Y5934787D2*
Y5903228D1*
X1385774D1*
Y5934787D1*
X1359045Y5903228D2*
Y5922657D1*
X1080730Y4239968D2*
X1131774D1*
Y4261867D1*
X1129303Y4269167D1*
X1126889Y4271582D1*
X1122059Y4273997D1*
X1114759D1*
X1109874Y4271582D1*
X1107459Y4269167D1*
X1105045Y4261867D1*
X1102574Y4269167D1*
X1100159Y4271582D1*
X1095330Y4273997D1*
X1090445D1*
X1085616Y4271582D1*
X1083145Y4269167D1*
X1080730Y4261867D1*
Y4239968D1*
X1105045D2*
Y4261867D1*
X1080730Y4304283D2*
X1083145Y4299397D1*
X1088030Y4294568D1*
X1092859Y4292097D1*
X1100159Y4289683D1*
X1112345D1*
X1119589Y4292097D1*
X1124474Y4294568D1*
X1129303Y4299397D1*
X1131774Y4304283D1*
Y4313997D1*
X1129303Y4318827D1*
X1124474Y4323712D1*
X1119589Y4326127D1*
X1112345Y4328541D1*
X1100159D1*
X1092859Y4326127D1*
X1088030Y4323712D1*
X1083145Y4318827D1*
X1080730Y4313997D1*
Y4304283D1*
X1131774Y4383142D2*
X1080730Y4363657D1*
X1131774Y4344227D1*
X1114759Y4351527D2*
Y4375842D1*
X1105045Y4398828D2*
Y4420672D1*
X1102574Y4427972D1*
X1100159Y4430443D1*
X1095330Y4432858D1*
X1090445D1*
X1085616Y4430443D1*
X1083145Y4427972D1*
X1080730Y4420672D1*
Y4398828D1*
X1131774D1*
X1105045Y4415843D2*
X1131774Y4432858D1*
X1080730Y4448544D2*
X1131774D1*
Y4465558D1*
X1129303Y4472858D1*
X1124474Y4477744D1*
X1119589Y4480158D1*
X1112345Y4482573D1*
X1100159D1*
X1092859Y4480158D1*
X1088030Y4477744D1*
X1083145Y4472858D1*
X1080730Y4465558D1*
Y4448544D1*
Y4579196D2*
Y4547638D1*
X1131774D1*
Y4579196D1*
X1105045Y4547638D2*
Y4567067D1*
X1080730Y4594883D2*
X1131774D1*
Y4611897D1*
X1129303Y4619197D1*
X1124474Y4624083D1*
X1119589Y4626497D1*
X1112345Y4628912D1*
X1100159D1*
X1092859Y4626497D1*
X1088030Y4624083D1*
X1083145Y4619197D1*
X1080730Y4611897D1*
Y4594883D1*
X1092859Y4681042D2*
X1088030Y4678627D1*
X1083145Y4673742D1*
X1080730Y4668913D1*
Y4659198D1*
X1083145Y4654313D1*
X1088030Y4649484D1*
X1092859Y4647013D1*
X1100159Y4644598D1*
X1112345D1*
X1119589Y4647013D1*
X1124474Y4649484D1*
X1129303Y4654313D1*
X1131774Y4659198D1*
Y4668913D1*
X1129303Y4673742D1*
X1124474Y4678627D1*
X1119589Y4681042D1*
X1112345D1*
Y4668913D1*
X1080730Y4728287D2*
Y4696728D1*
X1131774D1*
Y4728287D1*
X1105045Y4696728D2*
Y4716157D1*
X1334730Y4239968D2*
X1385774D1*
Y4261867D1*
X1383303Y4269167D1*
X1380889Y4271582D1*
X1376059Y4273997D1*
X1368759D1*
X1363874Y4271582D1*
X1361459Y4269167D1*
X1359045Y4261867D1*
X1356574Y4269167D1*
X1354159Y4271582D1*
X1349330Y4273997D1*
X1344445D1*
X1339616Y4271582D1*
X1337145Y4269167D1*
X1334730Y4261867D1*
Y4239968D1*
X1359045D2*
Y4261867D1*
X1334730Y4304283D2*
X1337145Y4299397D1*
X1342030Y4294568D1*
X1346859Y4292097D1*
X1354159Y4289683D1*
X1366345D1*
X1373589Y4292097D1*
X1378474Y4294568D1*
X1383303Y4299397D1*
X1385774Y4304283D1*
Y4313997D1*
X1383303Y4318827D1*
X1378474Y4323712D1*
X1373589Y4326127D1*
X1366345Y4328541D1*
X1354159D1*
X1346859Y4326127D1*
X1342030Y4323712D1*
X1337145Y4318827D1*
X1334730Y4313997D1*
Y4304283D1*
X1385774Y4383142D2*
X1334730Y4363657D1*
X1385774Y4344227D1*
X1368759Y4351527D2*
Y4375842D1*
X1359045Y4398828D2*
Y4420672D1*
X1356574Y4427972D1*
X1354159Y4430443D1*
X1349330Y4432858D1*
X1344445D1*
X1339616Y4430443D1*
X1337145Y4427972D1*
X1334730Y4420672D1*
Y4398828D1*
X1385774D1*
X1359045Y4415843D2*
X1385774Y4432858D1*
X1334730Y4448544D2*
X1385774D1*
Y4465558D1*
X1383303Y4472858D1*
X1378474Y4477744D1*
X1373589Y4480158D1*
X1366345Y4482573D1*
X1354159D1*
X1346859Y4480158D1*
X1342030Y4477744D1*
X1337145Y4472858D1*
X1334730Y4465558D1*
Y4448544D1*
Y4579196D2*
Y4547638D1*
X1385774D1*
Y4579196D1*
X1359045Y4547638D2*
Y4567067D1*
X1334730Y4594883D2*
X1385774D1*
Y4611897D1*
X1383303Y4619197D1*
X1378474Y4624083D1*
X1373589Y4626497D1*
X1366345Y4628912D1*
X1354159D1*
X1346859Y4626497D1*
X1342030Y4624083D1*
X1337145Y4619197D1*
X1334730Y4611897D1*
Y4594883D1*
X1346859Y4681042D2*
X1342030Y4678627D1*
X1337145Y4673742D1*
X1334730Y4668913D1*
Y4659198D1*
X1337145Y4654313D1*
X1342030Y4649484D1*
X1346859Y4647013D1*
X1354159Y4644598D1*
X1366345D1*
X1373589Y4647013D1*
X1378474Y4649484D1*
X1383303Y4654313D1*
X1385774Y4659198D1*
Y4668913D1*
X1383303Y4673742D1*
X1378474Y4678627D1*
X1373589Y4681042D1*
X1366345D1*
Y4668913D1*
X1334730Y4728287D2*
Y4696728D1*
X1385774D1*
Y4728287D1*
X1359045Y4696728D2*
Y4716157D1*
X1080730Y3033468D2*
X1131774D1*
Y3055367D1*
X1129303Y3062667D1*
X1126889Y3065082D1*
X1122059Y3067497D1*
X1114759D1*
X1109874Y3065082D1*
X1107459Y3062667D1*
X1105045Y3055367D1*
X1102574Y3062667D1*
X1100159Y3065082D1*
X1095330Y3067497D1*
X1090445D1*
X1085616Y3065082D1*
X1083145Y3062667D1*
X1080730Y3055367D1*
Y3033468D1*
X1105045D2*
Y3055367D1*
X1080730Y3097783D2*
X1083145Y3092897D1*
X1088030Y3088068D1*
X1092859Y3085597D1*
X1100159Y3083183D1*
X1112345D1*
X1119589Y3085597D1*
X1124474Y3088068D1*
X1129303Y3092897D1*
X1131774Y3097783D1*
Y3107497D1*
X1129303Y3112327D1*
X1124474Y3117212D1*
X1119589Y3119627D1*
X1112345Y3122041D1*
X1100159D1*
X1092859Y3119627D1*
X1088030Y3117212D1*
X1083145Y3112327D1*
X1080730Y3107497D1*
Y3097783D1*
X1131774Y3176642D2*
X1080730Y3157157D1*
X1131774Y3137727D1*
X1114759Y3145027D2*
Y3169342D1*
X1105045Y3192328D2*
Y3214172D1*
X1102574Y3221472D1*
X1100159Y3223943D1*
X1095330Y3226358D1*
X1090445D1*
X1085616Y3223943D1*
X1083145Y3221472D1*
X1080730Y3214172D1*
Y3192328D1*
X1131774D1*
X1105045Y3209343D2*
X1131774Y3226358D1*
X1080730Y3242044D2*
X1131774D1*
Y3259058D1*
X1129303Y3266358D1*
X1124474Y3271244D1*
X1119589Y3273658D1*
X1112345Y3276073D1*
X1100159D1*
X1092859Y3273658D1*
X1088030Y3271244D1*
X1083145Y3266358D1*
X1080730Y3259058D1*
Y3242044D1*
Y3372696D2*
Y3341138D1*
X1131774D1*
Y3372696D1*
X1105045Y3341138D2*
Y3360567D1*
X1080730Y3388383D2*
X1131774D1*
Y3405397D1*
X1129303Y3412697D1*
X1124474Y3417583D1*
X1119589Y3419997D1*
X1112345Y3422412D1*
X1100159D1*
X1092859Y3419997D1*
X1088030Y3417583D1*
X1083145Y3412697D1*
X1080730Y3405397D1*
Y3388383D1*
X1092859Y3474542D2*
X1088030Y3472127D1*
X1083145Y3467242D1*
X1080730Y3462413D1*
Y3452698D1*
X1083145Y3447813D1*
X1088030Y3442984D1*
X1092859Y3440513D1*
X1100159Y3438098D1*
X1112345D1*
X1119589Y3440513D1*
X1124474Y3442984D1*
X1129303Y3447813D1*
X1131774Y3452698D1*
Y3462413D1*
X1129303Y3467242D1*
X1124474Y3472127D1*
X1119589Y3474542D1*
X1112345D1*
Y3462413D1*
X1080730Y3521787D2*
Y3490228D1*
X1131774D1*
Y3521787D1*
X1105045Y3490228D2*
Y3509657D1*
X1334730Y3033468D2*
X1385774D1*
Y3055367D1*
X1383303Y3062667D1*
X1380889Y3065082D1*
X1376059Y3067497D1*
X1368759D1*
X1363874Y3065082D1*
X1361459Y3062667D1*
X1359045Y3055367D1*
X1356574Y3062667D1*
X1354159Y3065082D1*
X1349330Y3067497D1*
X1344445D1*
X1339616Y3065082D1*
X1337145Y3062667D1*
X1334730Y3055367D1*
Y3033468D1*
X1359045D2*
Y3055367D1*
X1334730Y3097783D2*
X1337145Y3092897D1*
X1342030Y3088068D1*
X1346859Y3085597D1*
X1354159Y3083183D1*
X1366345D1*
X1373589Y3085597D1*
X1378474Y3088068D1*
X1383303Y3092897D1*
X1385774Y3097783D1*
Y3107497D1*
X1383303Y3112327D1*
X1378474Y3117212D1*
X1373589Y3119627D1*
X1366345Y3122041D1*
X1354159D1*
X1346859Y3119627D1*
X1342030Y3117212D1*
X1337145Y3112327D1*
X1334730Y3107497D1*
Y3097783D1*
X1385774Y3176642D2*
X1334730Y3157157D1*
X1385774Y3137727D1*
X1368759Y3145027D2*
Y3169342D1*
X1359045Y3192328D2*
Y3214172D1*
X1356574Y3221472D1*
X1354159Y3223943D1*
X1349330Y3226358D1*
X1344445D1*
X1339616Y3223943D1*
X1337145Y3221472D1*
X1334730Y3214172D1*
Y3192328D1*
X1385774D1*
X1359045Y3209343D2*
X1385774Y3226358D1*
X1334730Y3242044D2*
X1385774D1*
Y3259058D1*
X1383303Y3266358D1*
X1378474Y3271244D1*
X1373589Y3273658D1*
X1366345Y3276073D1*
X1354159D1*
X1346859Y3273658D1*
X1342030Y3271244D1*
X1337145Y3266358D1*
X1334730Y3259058D1*
Y3242044D1*
Y3372696D2*
Y3341138D1*
X1385774D1*
Y3372696D1*
X1359045Y3341138D2*
Y3360567D1*
X1334730Y3388383D2*
X1385774D1*
Y3405397D1*
X1383303Y3412697D1*
X1378474Y3417583D1*
X1373589Y3419997D1*
X1366345Y3422412D1*
X1354159D1*
X1346859Y3419997D1*
X1342030Y3417583D1*
X1337145Y3412697D1*
X1334730Y3405397D1*
Y3388383D1*
X1346859Y3474542D2*
X1342030Y3472127D1*
X1337145Y3467242D1*
X1334730Y3462413D1*
Y3452698D1*
X1337145Y3447813D1*
X1342030Y3442984D1*
X1346859Y3440513D1*
X1354159Y3438098D1*
X1366345D1*
X1373589Y3440513D1*
X1378474Y3442984D1*
X1383303Y3447813D1*
X1385774Y3452698D1*
Y3462413D1*
X1383303Y3467242D1*
X1378474Y3472127D1*
X1373589Y3474542D1*
X1366345D1*
Y3462413D1*
X1334730Y3521787D2*
Y3490228D1*
X1385774D1*
Y3521787D1*
X1359045Y3490228D2*
Y3509657D1*
X1080730Y1826968D2*
X1131774D1*
Y1848867D1*
X1129303Y1856167D1*
X1126889Y1858582D1*
X1122059Y1860997D1*
X1114759D1*
X1109874Y1858582D1*
X1107459Y1856167D1*
X1105045Y1848867D1*
X1102574Y1856167D1*
X1100159Y1858582D1*
X1095330Y1860997D1*
X1090445D1*
X1085616Y1858582D1*
X1083145Y1856167D1*
X1080730Y1848867D1*
Y1826968D1*
X1105045D2*
Y1848867D1*
X1080730Y1891283D2*
X1083145Y1886397D1*
X1088030Y1881568D1*
X1092859Y1879097D1*
X1100159Y1876683D1*
X1112345D1*
X1119589Y1879097D1*
X1124474Y1881568D1*
X1129303Y1886397D1*
X1131774Y1891283D1*
Y1900997D1*
X1129303Y1905827D1*
X1124474Y1910712D1*
X1119589Y1913127D1*
X1112345Y1915541D1*
X1100159D1*
X1092859Y1913127D1*
X1088030Y1910712D1*
X1083145Y1905827D1*
X1080730Y1900997D1*
Y1891283D1*
X1131774Y1970142D2*
X1080730Y1950657D1*
X1131774Y1931227D1*
X1114759Y1938527D2*
Y1962842D1*
X1105045Y1985828D2*
Y2007672D1*
X1102574Y2014972D1*
X1100159Y2017443D1*
X1095330Y2019858D1*
X1090445D1*
X1085616Y2017443D1*
X1083145Y2014972D1*
X1080730Y2007672D1*
Y1985828D1*
X1131774D1*
X1105045Y2002843D2*
X1131774Y2019858D1*
X1080730Y2035544D2*
X1131774D1*
Y2052558D1*
X1129303Y2059858D1*
X1124474Y2064744D1*
X1119589Y2067158D1*
X1112345Y2069573D1*
X1100159D1*
X1092859Y2067158D1*
X1088030Y2064744D1*
X1083145Y2059858D1*
X1080730Y2052558D1*
Y2035544D1*
Y2166196D2*
Y2134638D1*
X1131774D1*
Y2166196D1*
X1105045Y2134638D2*
Y2154067D1*
X1080730Y2181883D2*
X1131774D1*
Y2198897D1*
X1129303Y2206197D1*
X1124474Y2211083D1*
X1119589Y2213497D1*
X1112345Y2215912D1*
X1100159D1*
X1092859Y2213497D1*
X1088030Y2211083D1*
X1083145Y2206197D1*
X1080730Y2198897D1*
Y2181883D1*
X1092859Y2268042D2*
X1088030Y2265627D1*
X1083145Y2260742D1*
X1080730Y2255913D1*
Y2246198D1*
X1083145Y2241313D1*
X1088030Y2236484D1*
X1092859Y2234013D1*
X1100159Y2231598D1*
X1112345D1*
X1119589Y2234013D1*
X1124474Y2236484D1*
X1129303Y2241313D1*
X1131774Y2246198D1*
Y2255913D1*
X1129303Y2260742D1*
X1124474Y2265627D1*
X1119589Y2268042D1*
X1112345D1*
Y2255913D1*
X1080730Y2315287D2*
Y2283728D1*
X1131774D1*
Y2315287D1*
X1105045Y2283728D2*
Y2303157D1*
X1334730Y1826968D2*
X1385774D1*
Y1848867D1*
X1383303Y1856167D1*
X1380889Y1858582D1*
X1376059Y1860997D1*
X1368759D1*
X1363874Y1858582D1*
X1361459Y1856167D1*
X1359045Y1848867D1*
X1356574Y1856167D1*
X1354159Y1858582D1*
X1349330Y1860997D1*
X1344445D1*
X1339616Y1858582D1*
X1337145Y1856167D1*
X1334730Y1848867D1*
Y1826968D1*
X1359045D2*
Y1848867D1*
X1334730Y1891283D2*
X1337145Y1886397D1*
X1342030Y1881568D1*
X1346859Y1879097D1*
X1354159Y1876683D1*
X1366345D1*
X1373589Y1879097D1*
X1378474Y1881568D1*
X1383303Y1886397D1*
X1385774Y1891283D1*
Y1900997D1*
X1383303Y1905827D1*
X1378474Y1910712D1*
X1373589Y1913127D1*
X1366345Y1915541D1*
X1354159D1*
X1346859Y1913127D1*
X1342030Y1910712D1*
X1337145Y1905827D1*
X1334730Y1900997D1*
Y1891283D1*
X1385774Y1970142D2*
X1334730Y1950657D1*
X1385774Y1931227D1*
X1368759Y1938527D2*
Y1962842D1*
X1359045Y1985828D2*
Y2007672D1*
X1356574Y2014972D1*
X1354159Y2017443D1*
X1349330Y2019858D1*
X1344445D1*
X1339616Y2017443D1*
X1337145Y2014972D1*
X1334730Y2007672D1*
Y1985828D1*
X1385774D1*
X1359045Y2002843D2*
X1385774Y2019858D1*
X1334730Y2035544D2*
X1385774D1*
Y2052558D1*
X1383303Y2059858D1*
X1378474Y2064744D1*
X1373589Y2067158D1*
X1366345Y2069573D1*
X1354159D1*
X1346859Y2067158D1*
X1342030Y2064744D1*
X1337145Y2059858D1*
X1334730Y2052558D1*
Y2035544D1*
Y2166196D2*
Y2134638D1*
X1385774D1*
Y2166196D1*
X1359045Y2134638D2*
Y2154067D1*
X1334730Y2181883D2*
X1385774D1*
Y2198897D1*
X1383303Y2206197D1*
X1378474Y2211083D1*
X1373589Y2213497D1*
X1366345Y2215912D1*
X1354159D1*
X1346859Y2213497D1*
X1342030Y2211083D1*
X1337145Y2206197D1*
X1334730Y2198897D1*
Y2181883D1*
X1346859Y2268042D2*
X1342030Y2265627D1*
X1337145Y2260742D1*
X1334730Y2255913D1*
Y2246198D1*
X1337145Y2241313D1*
X1342030Y2236484D1*
X1346859Y2234013D1*
X1354159Y2231598D1*
X1366345D1*
X1373589Y2234013D1*
X1378474Y2236484D1*
X1383303Y2241313D1*
X1385774Y2246198D1*
Y2255913D1*
X1383303Y2260742D1*
X1378474Y2265627D1*
X1373589Y2268042D1*
X1366345D1*
Y2255913D1*
X1334730Y2315287D2*
Y2283728D1*
X1385774D1*
Y2315287D1*
X1359045Y2283728D2*
Y2303157D1*
X5890967Y4729270D2*
Y4678226D1*
X5912867D1*
X5920167Y4680697D1*
X5922582Y4683112D1*
X5924996Y4687941D1*
Y4695241D1*
X5922582Y4700126D1*
X5920167Y4702541D1*
X5912867Y4704955D1*
X5920167Y4707426D1*
X5922582Y4709841D1*
X5924996Y4714670D1*
Y4719555D1*
X5922582Y4724385D1*
X5920167Y4726855D1*
X5912867Y4729270D1*
X5890967D1*
Y4704955D2*
X5912867D1*
X5955283Y4729270D2*
X5950397Y4726855D1*
X5945568Y4721970D1*
X5943097Y4717141D1*
X5940683Y4709841D1*
Y4697655D1*
X5943097Y4690412D1*
X5945568Y4685526D1*
X5950397Y4680697D1*
X5955283Y4678226D1*
X5964997D1*
X5969827Y4680697D1*
X5974712Y4685526D1*
X5977127Y4690412D1*
X5979541Y4697655D1*
Y4709841D1*
X5977127Y4717141D1*
X5974712Y4721970D1*
X5969827Y4726855D1*
X5964997Y4729270D1*
X5955283D1*
X6034142Y4678226D2*
X6014657Y4729270D1*
X5995227Y4678226D1*
X6002527Y4695241D2*
X6026842D1*
X6049828Y4704955D2*
X6071672D1*
X6078972Y4707426D1*
X6081443Y4709841D1*
X6083858Y4714670D1*
Y4719555D1*
X6081443Y4724385D1*
X6078972Y4726855D1*
X6071672Y4729270D1*
X6049828D1*
Y4678226D1*
X6066843Y4704955D2*
X6083858Y4678226D1*
X6099544Y4729270D2*
Y4678226D1*
X6116558D1*
X6123858Y4680697D1*
X6128744Y4685526D1*
X6131158Y4690412D1*
X6133573Y4697655D1*
Y4709841D1*
X6131158Y4717141D1*
X6128744Y4721970D1*
X6123858Y4726855D1*
X6116558Y4729270D1*
X6099544D1*
X6230196D2*
X6198638D1*
Y4678226D1*
X6230196D1*
X6198638Y4704955D2*
X6218067D1*
X6245883Y4729270D2*
Y4678226D1*
X6262897D1*
X6270197Y4680697D1*
X6275083Y4685526D1*
X6277497Y4690412D1*
X6279912Y4697655D1*
Y4709841D1*
X6277497Y4717141D1*
X6275083Y4721970D1*
X6270197Y4726855D1*
X6262897Y4729270D1*
X6245883D1*
X6332042Y4717141D2*
X6329627Y4721970D1*
X6324742Y4726855D1*
X6319913Y4729270D1*
X6310198D1*
X6305313Y4726855D1*
X6300484Y4721970D1*
X6298013Y4717141D1*
X6295598Y4709841D1*
Y4697655D1*
X6298013Y4690412D1*
X6300484Y4685526D1*
X6305313Y4680697D1*
X6310198Y4678226D1*
X6319913D1*
X6324742Y4680697D1*
X6329627Y4685526D1*
X6332042Y4690412D1*
Y4697655D1*
X6319913D1*
X6379287Y4729270D2*
X6347728D1*
Y4678226D1*
X6379287D1*
X6347728Y4704955D2*
X6367157D1*
X5890967Y4475270D2*
Y4424226D1*
X5912867D1*
X5920167Y4426697D1*
X5922582Y4429112D1*
X5924996Y4433941D1*
Y4441241D1*
X5922582Y4446126D1*
X5920167Y4448541D1*
X5912867Y4450955D1*
X5920167Y4453426D1*
X5922582Y4455841D1*
X5924996Y4460670D1*
Y4465555D1*
X5922582Y4470385D1*
X5920167Y4472855D1*
X5912867Y4475270D1*
X5890967D1*
Y4450955D2*
X5912867D1*
X5955283Y4475270D2*
X5950397Y4472855D1*
X5945568Y4467970D1*
X5943097Y4463141D1*
X5940683Y4455841D1*
Y4443655D1*
X5943097Y4436412D1*
X5945568Y4431526D1*
X5950397Y4426697D1*
X5955283Y4424226D1*
X5964997D1*
X5969827Y4426697D1*
X5974712Y4431526D1*
X5977127Y4436412D1*
X5979541Y4443655D1*
Y4455841D1*
X5977127Y4463141D1*
X5974712Y4467970D1*
X5969827Y4472855D1*
X5964997Y4475270D1*
X5955283D1*
X6034142Y4424226D2*
X6014657Y4475270D1*
X5995227Y4424226D1*
X6002527Y4441241D2*
X6026842D1*
X6049828Y4450955D2*
X6071672D1*
X6078972Y4453426D1*
X6081443Y4455841D1*
X6083858Y4460670D1*
Y4465555D1*
X6081443Y4470385D1*
X6078972Y4472855D1*
X6071672Y4475270D1*
X6049828D1*
Y4424226D1*
X6066843Y4450955D2*
X6083858Y4424226D1*
X6099544Y4475270D2*
Y4424226D1*
X6116558D1*
X6123858Y4426697D1*
X6128744Y4431526D1*
X6131158Y4436412D1*
X6133573Y4443655D1*
Y4455841D1*
X6131158Y4463141D1*
X6128744Y4467970D1*
X6123858Y4472855D1*
X6116558Y4475270D1*
X6099544D1*
X6230196D2*
X6198638D1*
Y4424226D1*
X6230196D1*
X6198638Y4450955D2*
X6218067D1*
X6245883Y4475270D2*
Y4424226D1*
X6262897D1*
X6270197Y4426697D1*
X6275083Y4431526D1*
X6277497Y4436412D1*
X6279912Y4443655D1*
Y4455841D1*
X6277497Y4463141D1*
X6275083Y4467970D1*
X6270197Y4472855D1*
X6262897Y4475270D1*
X6245883D1*
X6332042Y4463141D2*
X6329627Y4467970D1*
X6324742Y4472855D1*
X6319913Y4475270D1*
X6310198D1*
X6305313Y4472855D1*
X6300484Y4467970D1*
X6298013Y4463141D1*
X6295598Y4455841D1*
Y4443655D1*
X6298013Y4436412D1*
X6300484Y4431526D1*
X6305313Y4426697D1*
X6310198Y4424226D1*
X6319913D1*
X6324742Y4426697D1*
X6329627Y4431526D1*
X6332042Y4436412D1*
Y4443655D1*
X6319913D1*
X6379287Y4475270D2*
X6347728D1*
Y4424226D1*
X6379287D1*
X6347728Y4450955D2*
X6367157D1*
X5890967Y4221270D2*
Y4170226D1*
X5912867D1*
X5920167Y4172697D1*
X5922582Y4175112D1*
X5924996Y4179941D1*
Y4187241D1*
X5922582Y4192126D1*
X5920167Y4194541D1*
X5912867Y4196955D1*
X5920167Y4199426D1*
X5922582Y4201841D1*
X5924996Y4206670D1*
Y4211555D1*
X5922582Y4216385D1*
X5920167Y4218855D1*
X5912867Y4221270D1*
X5890967D1*
Y4196955D2*
X5912867D1*
X5955283Y4221270D2*
X5950397Y4218855D1*
X5945568Y4213970D1*
X5943097Y4209141D1*
X5940683Y4201841D1*
Y4189655D1*
X5943097Y4182412D1*
X5945568Y4177526D1*
X5950397Y4172697D1*
X5955283Y4170226D1*
X5964997D1*
X5969827Y4172697D1*
X5974712Y4177526D1*
X5977127Y4182412D1*
X5979541Y4189655D1*
Y4201841D1*
X5977127Y4209141D1*
X5974712Y4213970D1*
X5969827Y4218855D1*
X5964997Y4221270D1*
X5955283D1*
X6034142Y4170226D2*
X6014657Y4221270D1*
X5995227Y4170226D1*
X6002527Y4187241D2*
X6026842D1*
X6049828Y4196955D2*
X6071672D1*
X6078972Y4199426D1*
X6081443Y4201841D1*
X6083858Y4206670D1*
Y4211555D1*
X6081443Y4216385D1*
X6078972Y4218855D1*
X6071672Y4221270D1*
X6049828D1*
Y4170226D1*
X6066843Y4196955D2*
X6083858Y4170226D1*
X6099544Y4221270D2*
Y4170226D1*
X6116558D1*
X6123858Y4172697D1*
X6128744Y4177526D1*
X6131158Y4182412D1*
X6133573Y4189655D1*
Y4201841D1*
X6131158Y4209141D1*
X6128744Y4213970D1*
X6123858Y4218855D1*
X6116558Y4221270D1*
X6099544D1*
X6230196D2*
X6198638D1*
Y4170226D1*
X6230196D1*
X6198638Y4196955D2*
X6218067D1*
X6245883Y4221270D2*
Y4170226D1*
X6262897D1*
X6270197Y4172697D1*
X6275083Y4177526D1*
X6277497Y4182412D1*
X6279912Y4189655D1*
Y4201841D1*
X6277497Y4209141D1*
X6275083Y4213970D1*
X6270197Y4218855D1*
X6262897Y4221270D1*
X6245883D1*
X6332042Y4209141D2*
X6329627Y4213970D1*
X6324742Y4218855D1*
X6319913Y4221270D1*
X6310198D1*
X6305313Y4218855D1*
X6300484Y4213970D1*
X6298013Y4209141D1*
X6295598Y4201841D1*
Y4189655D1*
X6298013Y4182412D1*
X6300484Y4177526D1*
X6305313Y4172697D1*
X6310198Y4170226D1*
X6319913D1*
X6324742Y4172697D1*
X6329627Y4177526D1*
X6332042Y4182412D1*
Y4189655D1*
X6319913D1*
X6379287Y4221270D2*
X6347728D1*
Y4170226D1*
X6379287D1*
X6347728Y4196955D2*
X6367157D1*
X5890967Y3967270D2*
Y3916226D1*
X5912867D1*
X5920167Y3918697D1*
X5922582Y3921112D1*
X5924996Y3925941D1*
Y3933241D1*
X5922582Y3938126D1*
X5920167Y3940541D1*
X5912867Y3942955D1*
X5920167Y3945426D1*
X5922582Y3947841D1*
X5924996Y3952670D1*
Y3957555D1*
X5922582Y3962385D1*
X5920167Y3964855D1*
X5912867Y3967270D1*
X5890967D1*
Y3942955D2*
X5912867D1*
X5955283Y3967270D2*
X5950397Y3964855D1*
X5945568Y3959970D1*
X5943097Y3955141D1*
X5940683Y3947841D1*
Y3935655D1*
X5943097Y3928412D1*
X5945568Y3923526D1*
X5950397Y3918697D1*
X5955283Y3916226D1*
X5964997D1*
X5969827Y3918697D1*
X5974712Y3923526D1*
X5977127Y3928412D1*
X5979541Y3935655D1*
Y3947841D1*
X5977127Y3955141D1*
X5974712Y3959970D1*
X5969827Y3964855D1*
X5964997Y3967270D1*
X5955283D1*
X6034142Y3916226D2*
X6014657Y3967270D1*
X5995227Y3916226D1*
X6002527Y3933241D2*
X6026842D1*
X6049828Y3942955D2*
X6071672D1*
X6078972Y3945426D1*
X6081443Y3947841D1*
X6083858Y3952670D1*
Y3957555D1*
X6081443Y3962385D1*
X6078972Y3964855D1*
X6071672Y3967270D1*
X6049828D1*
Y3916226D1*
X6066843Y3942955D2*
X6083858Y3916226D1*
X6099544Y3967270D2*
Y3916226D1*
X6116558D1*
X6123858Y3918697D1*
X6128744Y3923526D1*
X6131158Y3928412D1*
X6133573Y3935655D1*
Y3947841D1*
X6131158Y3955141D1*
X6128744Y3959970D1*
X6123858Y3964855D1*
X6116558Y3967270D1*
X6099544D1*
X6230196D2*
X6198638D1*
Y3916226D1*
X6230196D1*
X6198638Y3942955D2*
X6218067D1*
X6245883Y3967270D2*
Y3916226D1*
X6262897D1*
X6270197Y3918697D1*
X6275083Y3923526D1*
X6277497Y3928412D1*
X6279912Y3935655D1*
Y3947841D1*
X6277497Y3955141D1*
X6275083Y3959970D1*
X6270197Y3964855D1*
X6262897Y3967270D1*
X6245883D1*
X6332042Y3955141D2*
X6329627Y3959970D1*
X6324742Y3964855D1*
X6319913Y3967270D1*
X6310198D1*
X6305313Y3964855D1*
X6300484Y3959970D1*
X6298013Y3955141D1*
X6295598Y3947841D1*
Y3935655D1*
X6298013Y3928412D1*
X6300484Y3923526D1*
X6305313Y3918697D1*
X6310198Y3916226D1*
X6319913D1*
X6324742Y3918697D1*
X6329627Y3923526D1*
X6332042Y3928412D1*
Y3935655D1*
X6319913D1*
X6379287Y3967270D2*
X6347728D1*
Y3916226D1*
X6379287D1*
X6347728Y3942955D2*
X6367157D1*
X5890967Y3713270D2*
Y3662226D1*
X5912867D1*
X5920167Y3664697D1*
X5922582Y3667112D1*
X5924996Y3671941D1*
Y3679241D1*
X5922582Y3684126D1*
X5920167Y3686541D1*
X5912867Y3688955D1*
X5920167Y3691426D1*
X5922582Y3693841D1*
X5924996Y3698670D1*
Y3703555D1*
X5922582Y3708385D1*
X5920167Y3710855D1*
X5912867Y3713270D1*
X5890967D1*
Y3688955D2*
X5912867D1*
X5955283Y3713270D2*
X5950397Y3710855D1*
X5945568Y3705970D1*
X5943097Y3701141D1*
X5940683Y3693841D1*
Y3681655D1*
X5943097Y3674412D1*
X5945568Y3669526D1*
X5950397Y3664697D1*
X5955283Y3662226D1*
X5964997D1*
X5969827Y3664697D1*
X5974712Y3669526D1*
X5977127Y3674412D1*
X5979541Y3681655D1*
Y3693841D1*
X5977127Y3701141D1*
X5974712Y3705970D1*
X5969827Y3710855D1*
X5964997Y3713270D1*
X5955283D1*
X6034142Y3662226D2*
X6014657Y3713270D1*
X5995227Y3662226D1*
X6002527Y3679241D2*
X6026842D1*
X6049828Y3688955D2*
X6071672D1*
X6078972Y3691426D1*
X6081443Y3693841D1*
X6083858Y3698670D1*
Y3703555D1*
X6081443Y3708385D1*
X6078972Y3710855D1*
X6071672Y3713270D1*
X6049828D1*
Y3662226D1*
X6066843Y3688955D2*
X6083858Y3662226D1*
X6099544Y3713270D2*
Y3662226D1*
X6116558D1*
X6123858Y3664697D1*
X6128744Y3669526D1*
X6131158Y3674412D1*
X6133573Y3681655D1*
Y3693841D1*
X6131158Y3701141D1*
X6128744Y3705970D1*
X6123858Y3710855D1*
X6116558Y3713270D1*
X6099544D1*
X6230196D2*
X6198638D1*
Y3662226D1*
X6230196D1*
X6198638Y3688955D2*
X6218067D1*
X6245883Y3713270D2*
Y3662226D1*
X6262897D1*
X6270197Y3664697D1*
X6275083Y3669526D1*
X6277497Y3674412D1*
X6279912Y3681655D1*
Y3693841D1*
X6277497Y3701141D1*
X6275083Y3705970D1*
X6270197Y3710855D1*
X6262897Y3713270D1*
X6245883D1*
X6332042Y3701141D2*
X6329627Y3705970D1*
X6324742Y3710855D1*
X6319913Y3713270D1*
X6310198D1*
X6305313Y3710855D1*
X6300484Y3705970D1*
X6298013Y3701141D1*
X6295598Y3693841D1*
Y3681655D1*
X6298013Y3674412D1*
X6300484Y3669526D1*
X6305313Y3664697D1*
X6310198Y3662226D1*
X6319913D1*
X6324742Y3664697D1*
X6329627Y3669526D1*
X6332042Y3674412D1*
Y3681655D1*
X6319913D1*
X6379287Y3713270D2*
X6347728D1*
Y3662226D1*
X6379287D1*
X6347728Y3688955D2*
X6367157D1*
X5890967Y3459270D2*
Y3408226D1*
X5912867D1*
X5920167Y3410697D1*
X5922582Y3413112D1*
X5924996Y3417941D1*
Y3425241D1*
X5922582Y3430126D1*
X5920167Y3432541D1*
X5912867Y3434955D1*
X5920167Y3437426D1*
X5922582Y3439841D1*
X5924996Y3444670D1*
Y3449555D1*
X5922582Y3454385D1*
X5920167Y3456855D1*
X5912867Y3459270D1*
X5890967D1*
Y3434955D2*
X5912867D1*
X5955283Y3459270D2*
X5950397Y3456855D1*
X5945568Y3451970D1*
X5943097Y3447141D1*
X5940683Y3439841D1*
Y3427655D1*
X5943097Y3420412D1*
X5945568Y3415526D1*
X5950397Y3410697D1*
X5955283Y3408226D1*
X5964997D1*
X5969827Y3410697D1*
X5974712Y3415526D1*
X5977127Y3420412D1*
X5979541Y3427655D1*
Y3439841D1*
X5977127Y3447141D1*
X5974712Y3451970D1*
X5969827Y3456855D1*
X5964997Y3459270D1*
X5955283D1*
X6034142Y3408226D2*
X6014657Y3459270D1*
X5995227Y3408226D1*
X6002527Y3425241D2*
X6026842D1*
X6049828Y3434955D2*
X6071672D1*
X6078972Y3437426D1*
X6081443Y3439841D1*
X6083858Y3444670D1*
Y3449555D1*
X6081443Y3454385D1*
X6078972Y3456855D1*
X6071672Y3459270D1*
X6049828D1*
Y3408226D1*
X6066843Y3434955D2*
X6083858Y3408226D1*
X6099544Y3459270D2*
Y3408226D1*
X6116558D1*
X6123858Y3410697D1*
X6128744Y3415526D1*
X6131158Y3420412D1*
X6133573Y3427655D1*
Y3439841D1*
X6131158Y3447141D1*
X6128744Y3451970D1*
X6123858Y3456855D1*
X6116558Y3459270D1*
X6099544D1*
X6230196D2*
X6198638D1*
Y3408226D1*
X6230196D1*
X6198638Y3434955D2*
X6218067D1*
X6245883Y3459270D2*
Y3408226D1*
X6262897D1*
X6270197Y3410697D1*
X6275083Y3415526D1*
X6277497Y3420412D1*
X6279912Y3427655D1*
Y3439841D1*
X6277497Y3447141D1*
X6275083Y3451970D1*
X6270197Y3456855D1*
X6262897Y3459270D1*
X6245883D1*
X6332042Y3447141D2*
X6329627Y3451970D1*
X6324742Y3456855D1*
X6319913Y3459270D1*
X6310198D1*
X6305313Y3456855D1*
X6300484Y3451970D1*
X6298013Y3447141D1*
X6295598Y3439841D1*
Y3427655D1*
X6298013Y3420412D1*
X6300484Y3415526D1*
X6305313Y3410697D1*
X6310198Y3408226D1*
X6319913D1*
X6324742Y3410697D1*
X6329627Y3415526D1*
X6332042Y3420412D1*
Y3427655D1*
X6319913D1*
X6379287Y3459270D2*
X6347728D1*
Y3408226D1*
X6379287D1*
X6347728Y3434955D2*
X6367157D1*
X5890967Y3205270D2*
Y3154226D1*
X5912867D1*
X5920167Y3156697D1*
X5922582Y3159112D1*
X5924996Y3163941D1*
Y3171241D1*
X5922582Y3176126D1*
X5920167Y3178541D1*
X5912867Y3180955D1*
X5920167Y3183426D1*
X5922582Y3185841D1*
X5924996Y3190670D1*
Y3195555D1*
X5922582Y3200385D1*
X5920167Y3202855D1*
X5912867Y3205270D1*
X5890967D1*
Y3180955D2*
X5912867D1*
X5955283Y3205270D2*
X5950397Y3202855D1*
X5945568Y3197970D1*
X5943097Y3193141D1*
X5940683Y3185841D1*
Y3173655D1*
X5943097Y3166412D1*
X5945568Y3161526D1*
X5950397Y3156697D1*
X5955283Y3154226D1*
X5964997D1*
X5969827Y3156697D1*
X5974712Y3161526D1*
X5977127Y3166412D1*
X5979541Y3173655D1*
Y3185841D1*
X5977127Y3193141D1*
X5974712Y3197970D1*
X5969827Y3202855D1*
X5964997Y3205270D1*
X5955283D1*
X6034142Y3154226D2*
X6014657Y3205270D1*
X5995227Y3154226D1*
X6002527Y3171241D2*
X6026842D1*
X6049828Y3180955D2*
X6071672D1*
X6078972Y3183426D1*
X6081443Y3185841D1*
X6083858Y3190670D1*
Y3195555D1*
X6081443Y3200385D1*
X6078972Y3202855D1*
X6071672Y3205270D1*
X6049828D1*
Y3154226D1*
X6066843Y3180955D2*
X6083858Y3154226D1*
X6099544Y3205270D2*
Y3154226D1*
X6116558D1*
X6123858Y3156697D1*
X6128744Y3161526D1*
X6131158Y3166412D1*
X6133573Y3173655D1*
Y3185841D1*
X6131158Y3193141D1*
X6128744Y3197970D1*
X6123858Y3202855D1*
X6116558Y3205270D1*
X6099544D1*
X6230196D2*
X6198638D1*
Y3154226D1*
X6230196D1*
X6198638Y3180955D2*
X6218067D1*
X6245883Y3205270D2*
Y3154226D1*
X6262897D1*
X6270197Y3156697D1*
X6275083Y3161526D1*
X6277497Y3166412D1*
X6279912Y3173655D1*
Y3185841D1*
X6277497Y3193141D1*
X6275083Y3197970D1*
X6270197Y3202855D1*
X6262897Y3205270D1*
X6245883D1*
X6332042Y3193141D2*
X6329627Y3197970D1*
X6324742Y3202855D1*
X6319913Y3205270D1*
X6310198D1*
X6305313Y3202855D1*
X6300484Y3197970D1*
X6298013Y3193141D1*
X6295598Y3185841D1*
Y3173655D1*
X6298013Y3166412D1*
X6300484Y3161526D1*
X6305313Y3156697D1*
X6310198Y3154226D1*
X6319913D1*
X6324742Y3156697D1*
X6329627Y3161526D1*
X6332042Y3166412D1*
Y3173655D1*
X6319913D1*
X6379287Y3205270D2*
X6347728D1*
Y3154226D1*
X6379287D1*
X6347728Y3180955D2*
X6367157D1*
X5890967Y2951270D2*
Y2900226D1*
X5912867D1*
X5920167Y2902697D1*
X5922582Y2905112D1*
X5924996Y2909941D1*
Y2917241D1*
X5922582Y2922126D1*
X5920167Y2924541D1*
X5912867Y2926955D1*
X5920167Y2929426D1*
X5922582Y2931841D1*
X5924996Y2936670D1*
Y2941555D1*
X5922582Y2946385D1*
X5920167Y2948855D1*
X5912867Y2951270D1*
X5890967D1*
Y2926955D2*
X5912867D1*
X5955283Y2951270D2*
X5950397Y2948855D1*
X5945568Y2943970D1*
X5943097Y2939141D1*
X5940683Y2931841D1*
Y2919655D1*
X5943097Y2912412D1*
X5945568Y2907526D1*
X5950397Y2902697D1*
X5955283Y2900226D1*
X5964997D1*
X5969827Y2902697D1*
X5974712Y2907526D1*
X5977127Y2912412D1*
X5979541Y2919655D1*
Y2931841D1*
X5977127Y2939141D1*
X5974712Y2943970D1*
X5969827Y2948855D1*
X5964997Y2951270D1*
X5955283D1*
X6034142Y2900226D2*
X6014657Y2951270D1*
X5995227Y2900226D1*
X6002527Y2917241D2*
X6026842D1*
X6049828Y2926955D2*
X6071672D1*
X6078972Y2929426D1*
X6081443Y2931841D1*
X6083858Y2936670D1*
Y2941555D1*
X6081443Y2946385D1*
X6078972Y2948855D1*
X6071672Y2951270D1*
X6049828D1*
Y2900226D1*
X6066843Y2926955D2*
X6083858Y2900226D1*
X6099544Y2951270D2*
Y2900226D1*
X6116558D1*
X6123858Y2902697D1*
X6128744Y2907526D1*
X6131158Y2912412D1*
X6133573Y2919655D1*
Y2931841D1*
X6131158Y2939141D1*
X6128744Y2943970D1*
X6123858Y2948855D1*
X6116558Y2951270D1*
X6099544D1*
X6230196D2*
X6198638D1*
Y2900226D1*
X6230196D1*
X6198638Y2926955D2*
X6218067D1*
X6245883Y2951270D2*
Y2900226D1*
X6262897D1*
X6270197Y2902697D1*
X6275083Y2907526D1*
X6277497Y2912412D1*
X6279912Y2919655D1*
Y2931841D1*
X6277497Y2939141D1*
X6275083Y2943970D1*
X6270197Y2948855D1*
X6262897Y2951270D1*
X6245883D1*
X6332042Y2939141D2*
X6329627Y2943970D1*
X6324742Y2948855D1*
X6319913Y2951270D1*
X6310198D1*
X6305313Y2948855D1*
X6300484Y2943970D1*
X6298013Y2939141D1*
X6295598Y2931841D1*
Y2919655D1*
X6298013Y2912412D1*
X6300484Y2907526D1*
X6305313Y2902697D1*
X6310198Y2900226D1*
X6319913D1*
X6324742Y2902697D1*
X6329627Y2907526D1*
X6332042Y2912412D1*
Y2919655D1*
X6319913D1*
X6379287Y2951270D2*
X6347728D1*
Y2900226D1*
X6379287D1*
X6347728Y2926955D2*
X6367157D1*
M02*
